<svg xmlns="http://www.w3.org/2000/svg" width="138.134" height="222.379" viewBox="0 0 138.134 222.379"><defs><style>.a{fill:#37474f;}.b{fill:#455a64;}.c{fill:#263238;}.d{fill:#ba68c8;}.e{fill:#5ece97;}.f{fill:#ffbda7;}.g{fill:#fafafa;}.h{fill:#b16668;}.i{fill:#f28f8f;}.j{fill:#f0997a;}.k{fill:#ebebeb;}.l{opacity:0.15;}.m{opacity:0.3;}.n{opacity:0.4;}.o{fill:#62483e;}.p{fill:#9cb78c;}.q{fill:#7c966b;}.r{fill:#4b322b;}.s{fill:#423c43;}.t{fill:#333038;}</style></defs><g transform="translate(-1057.07 -564.505)"><g transform="translate(1118.325 622.121)"><g transform="translate(25.341 62.156)"><path class="a" d="M2819.528,2164.586c-.8-7.388-2.131-9.883-2.29-11.309,0,0-.086-16.8-1.1-32.989-.338-5.376-1.022-7.227-2.306-10.22h-28.962c-.058,1.088-.141,2.174-.28,3.258,0,.034-.009.068-.013.1-1.588,12.247.007,28.144.33,36.82.2,5.245,1.748,26.873,1.748,26.873,3.7,2.328,9.045.646,9.045.646s1.7-12.491,2.112-16.843a36.32,36.32,0,0,0-.14-8.445l2.53-13.143a145.9,145.9,0,0,0,3.239,15.741c2.042,7,5.938,20.565,7.773,25.781,4.261,1.429,9.1-.925,9.1-.925S2820.225,2171.05,2819.528,2164.586Z" transform="translate(-2773.185 -2110.068)"/><path class="b" d="M3298.919,2157.384a25.3,25.3,0,0,1-1.276-5.712c-.251-3.613-.925-17.379-1.371-26.488a43.463,43.463,0,0,0-.69-6.006s0-.01,0-.015a.179.179,0,0,0-.008-.022,25.969,25.969,0,0,0-3.431-9.073h-.456a25.408,25.408,0,0,1,3.46,8.957,6.689,6.689,0,0,1-4.752-1.649c-1.923-1.781-2.353-3.482-2.948-5.835-.119-.469-.247-.961-.388-1.473h-.41c.15.542.285,1.061.41,1.555.61,2.411,1.051,4.152,3.051,6.006a7,7,0,0,0,4.9,1.765c.083,0,.149-.006.208-.01a43.346,43.346,0,0,1,.656,5.819c.446,9.11,1.121,22.878,1.372,26.494a25.541,25.541,0,0,0,1.289,5.784c.548,1.813,1.168,3.868,1.749,6.685,1.253,6.088,1.007,16.182,1,16.283a.188.188,0,0,0,.194.184h.01a.191.191,0,0,0,.193-.177c0-.1.25-10.233-1.011-16.358C3300.091,2161.266,3299.468,2159.2,3298.919,2157.384Z" transform="translate(-3255.658 -2110.068)"/><g transform="translate(0 60.228)"><path class="c" d="M2543.8,4167.746c.373.445.167.99-.3,1.513s-2.635,1.182-4.029,1.706a12.247,12.247,0,0,0-4.235,2.278,11.727,11.727,0,0,1-6.377,2.579c-3.475.385-5.471-.319-6.27-1.119a1.94,1.94,0,0,1-.081-2.725,41.972,41.972,0,0,1,10.4-4.156C2537.635,4166.68,2543.8,4167.746,2543.8,4167.746Z" transform="translate(-2521.862 -4144.482)"/><path class="d" d="M2542.257,3603.06l-.182,1.389a11.035,11.035,0,0,1-5.642.924c-3.713-.181-4.491-2.006-4.491-2.006l-.085-1.212s-1.084.115-.731,2.23.9,12.242.77,13.387-1.775,3.516-5.135,5.97-7.961,4.016-7.89,5.928c.073,1.981,2.745,3.224,6.626,2.856,4.934-.467,6.5-2.662,9.077-3.988s5.111-1.877,5.789-2.649.936-.892.661-4.066-.173-4.4.739-9.907,1.055-6.151,1.181-7.428S2542.257,3603.06,2542.257,3603.06Z" transform="translate(-2518.87 -3602.155)"/><path class="e" d="M2542.257,3603.06l-.182,1.389a11.035,11.035,0,0,1-5.642.924c-3.713-.181-4.491-2.006-4.491-2.006l-.085-1.212s-1.084.115-.731,2.23.9,12.242.77,13.387-1.775,3.516-5.135,5.97-7.961,4.016-7.89,5.928c.073,1.981,2.745,3.224,6.626,2.856,4.934-.467,6.5-2.662,9.077-3.988s5.111-1.877,5.789-2.649.936-.892.661-4.066-.173-4.4.739-9.907,1.055-6.151,1.181-7.428S2542.257,3603.06,2542.257,3603.06Z" transform="translate(-2518.87 -3602.155)"/></g><path class="c" d="M2924.039,2369.578l-2.573-15.939a10.766,10.766,0,0,1-8.535-3.645s-.02,4,6.886,5.639l2.949,14.677-1.257,12.412Z" transform="translate(-2897.025 -2340.309)"/><g transform="translate(35.911 63.33)"><path class="c" d="M3535.781,4360.307c.7,2.8,1.307,7.57-1.879,9.836s-5.741,1.162-6.49.193-1.326-1.877-1.508-5.412Z" transform="translate(-3521.166 -4332.806)"/><path class="d" d="M3408.982,3681.339l.277.889a11.431,11.431,0,0,0,5.315.233,9.724,9.724,0,0,0,5.047-2.074l-.042-1.387s.992.089.965,1.684-.154,11.528.062,13.552a41.17,41.17,0,0,0,1.609,8.7,22.4,22.4,0,0,1,1.26,6.816c-.008,1.858-.471,5.811-4.984,6.665-5.1.966-5.17-3.715-5.358-7.6-.14-2.893-.1-7.657-.6-11.01s-3.015-10.643-3.48-12.885C3408.57,3682.586,3408.2,3681.658,3408.982,3681.339Z" transform="translate(-3408.53 -3679)"/><path class="e" d="M3408.982,3681.339l.277.889a11.431,11.431,0,0,0,5.315.233,9.724,9.724,0,0,0,5.047-2.074l-.042-1.387s.992.089.965,1.684-.154,11.528.062,13.552a41.17,41.17,0,0,0,1.609,8.7,22.4,22.4,0,0,1,1.26,6.816c-.008,1.858-.471,5.811-4.984,6.665-5.1.966-5.17-3.715-5.358-7.6-.14-2.893-.1-7.657-.6-11.01s-3.015-10.643-3.48-12.885C3408.57,3682.586,3408.2,3681.658,3408.982,3681.339Z" transform="translate(-3408.53 -3679)"/></g></g><g transform="translate(0 0)"><g transform="translate(0 18.346)"><path class="f" d="M1902.072,1041.07a8.389,8.389,0,0,0,1.638-1.217,6.167,6.167,0,0,0,1.879-4.009l-.845-.453c-1.25-.722-1.592-2.677-2.7-4.336a25.874,25.874,0,0,1-2.071-3.478c-.613-1.226-1.392-1.064-1.7-.145s.457,2.664.387,2.918-2.067-.878-3.333-2.078-1.483-2.865-2.177-3.331a1.08,1.08,0,0,0-1.236-.066l.055,2.346s-.788-.25-.872,1.911a7.247,7.247,0,0,0,1.755,5.657,9.9,9.9,0,0,0,3.461,2.753,28.808,28.808,0,0,1,4.11,2.313C1900.715,1040.082,1901.3,1040.514,1902.072,1041.07Z" transform="translate(-1891.078 -1024.715)"/><path class="a" d="M2183.621,1235.173c-2.41.1-4.1-.42-7.794,1.248-1.535.694-13.367,6.361-13.367,6.361l-9.636-5.736a10.11,10.11,0,0,1-.233,1.992,7.184,7.184,0,0,1-3.539,4.142c3.345,2.416,9.219,7.191,10.8,8.146,2.17,1.309,3.86.567,7.024-.526s12.592-4.114,12.592-4.114S2186.031,1235.072,2183.621,1235.173Z" transform="translate(-2138.639 -1226.676)"/></g><g transform="translate(36.666 26.677)"><path class="b" d="M2812.212,1231.113s10.246.452,12.81,1.586c1.173.519,3.764,3.528,3.318,10.836-.18,2.94-1.3,8.953-1.3,11.153,0,3.115,2.867,13.2,2.867,13.2-9.541,6.014-26.547,4.393-30.026,1.269,0,0,1.02-13.082,1.31-19.8,0,0-1.876-3.08-1.749-5.169.187-3.065.811-4.16,3.576-7.617a57.446,57.446,0,0,1,4.733-5.285Z" transform="translate(-2799.439 -1231.113)"/></g><g transform="translate(34.241 0.688)"><path class="c" d="M2871.023,592.073c3.306.329,4.167,5.718,3.417,8.772-1.446,5.891-5.4,6.623-5.528,9.133l-5.975-3.415-4.648-2.656c-1.218-.7-2.037-.937-3.3-1.671a3.47,3.47,0,0,1-1.425-1.4c-.3-.788-.311-1.515.206-1.942a1.557,1.557,0,0,1-1.85,0,1.475,1.475,0,0,1-.467-1.538c.163.284.794.285.842-.4a2.136,2.136,0,0,1,1.475-2.073c2.838-6.391,8.794-8.008,11.109-7.525C2867.478,587.9,2870.2,589.364,2871.023,592.073Z" transform="translate(-2846.86 -587.281)"/><path class="c" d="M3274.881,841.16c.176-.84.965-.973,1.687-1.166a3.143,3.143,0,0,0,.451-5.833,3.341,3.341,0,0,0-.3-2.855,3.98,3.98,0,0,0-3.375-1.907l-4.865,12.2a1.916,1.916,0,0,0,1.239,2.07c1.306.451,2.218-.223,2.966-1.166a1.373,1.373,0,0,1-1.183,1.792c1.321.965,2.384.014,3.078-1.191C3274.987,842.395,3274.729,841.886,3274.881,841.16Z" transform="translate(-3247.087 -819.625)"/><g transform="translate(7.272 6.354)"><path class="f" d="M2934.174,763.382l.267-5.451a2.38,2.38,0,0,0,2.919-.616c1.609-1.706,1.749-3.548.847-4.719-1-1.294-3.16-.775-4.081.826-1.412.355-2.01-1.663-.958-3.75,0,0-7.227,3.482-10.094-4.635-.872-.8-2.016-.128-2.472.958s-1.25,3.2-1.069,7.814c.2,5.179,1.684,6.71,3.112,7.568a7.116,7.116,0,0,0,3.658.666l-.062,1.514h0c-.022.758-.2.784-.857.828-.52.035-.982.068-.982.068s-2.419,2.9,2.281,3.457c7.018.832,10.785-2.687,10.785-2.687s-.439-.069-1.642-.233S2934.285,764.4,2934.174,763.382Z" transform="translate(-2919.506 -744.685)"/></g><path class="e" d="M2752.5,1232.714a28.77,28.77,0,0,0-8,17.195c-.482,5.638-.368,28.941-.368,28.941s-3.26.044-4.781-1.037c.737-12.93,1.5-25.594,2.055-32.072a13.246,13.246,0,0,1,2.154-5.864,26.6,26.6,0,0,1,6.383-7.062Z" transform="translate(-2739.35 -1206.661)"/><path class="e" d="M3249.5,1228.957c.74,1.6-1.632,11.031-1.635,16.27-.007,9.5,3.178,30.528,3.178,30.528s6.833-.179,11.076-3.231c0-2.282-2.029-10.284-3.026-13.6a24.884,24.884,0,0,1-.23-12.832c1.184-5.3.216-11.861-2.282-15.523Z" transform="translate(-3227.342 -1203.055)"/><path class="g" d="M3295.6,2097.13a27.568,27.568,0,0,0,10.835-2.955c-.146-.612-.285-1.211-.449-1.833a34.248,34.248,0,0,1-10.638,2.861C3295.435,2095.867,3295.52,2096.513,3295.6,2097.13Z" transform="translate(-3272.906 -2031.589)"/><path class="d" d="M3309.625,1024.175a.709.709,0,1,1-.7-.716A.709.709,0,0,1,3309.625,1024.175Z" transform="translate(-3285.244 -1005.853)"/><g transform="translate(13.247 18.219)"><path class="h" d="M3070.056,1038.631l-2.518.846a1.306,1.306,0,0,0,1.66.883A1.391,1.391,0,0,0,3070.056,1038.631Z" transform="translate(-3067.538 -1038.631)"/></g><path class="i" d="M3091.841,1053.185a1.462,1.462,0,0,0-1.444,1.161,1.265,1.265,0,0,0,.737-.02,1.366,1.366,0,0,0,.9-1.119A1.435,1.435,0,0,0,3091.841,1053.185Z" transform="translate(-3076.226 -1034.378)"/><g transform="translate(8.294 10.574)"><path class="c" d="M2944.915,850.71l1.854-.853a.979.979,0,0,0-1.322-.524A1.073,1.073,0,0,0,2944.915,850.71Z" transform="translate(-2944.834 -849.241)"/></g><g transform="translate(15.516 10.075)"><path class="c" d="M3125.579,838.429l-1.827-.967a.992.992,0,0,1,1.367-.456A1.086,1.086,0,0,1,3125.579,838.429Z" transform="translate(-3123.752 -836.889)"/></g><g transform="translate(9.967 12.267)"><path class="j" d="M2989.254,891.175l-.2,5.375-2.774-1.1Z" transform="translate(-2986.281 -891.175)"/></g><path class="c" d="M2961.488,897.907a.875.875,0,0,1-.769.94.821.821,0,0,1-.924-.738.875.875,0,0,1,.77-.94A.82.82,0,0,1,2961.488,897.907Z" transform="translate(-2950.893 -884.655)"/><path class="c" d="M3114.328,899.309a.875.875,0,0,1-.77.94.82.82,0,0,1-.924-.738.875.875,0,0,1,.769-.939A.821.821,0,0,1,3114.328,899.309Z" transform="translate(-3097.563 -886)"/><g transform="translate(14.022 20.742)"><path class="j" d="M3086.769,1104.11c3.23-.376,6.311-1.483,7.015-2.969a2.917,2.917,0,0,1-1.265,2.4c-1.823,1.109-5.8,1.713-5.8,1.713Z" transform="translate(-3086.722 -1101.141)"/></g></g><g transform="translate(23.047 44.374)"><path class="k" d="M2462.031,1718.391l21.669,1.46,11.017,24.422-20.7-1.918Z" transform="translate(-2462.031 -1716.419)"/><path class="l" d="M2958.826,2133.863a4.99,4.99,0,0,0,3.871,3.218,20.085,20.085,0,0,0,5.969-.293l-1.262-2.8Z" transform="translate(-2938.773 -2115.12)"/><path class="l" d="M2621.235,1749.539l-.322-.754c-.178-.416,1.029-.668,2.7-.562l3.19.2c1.666.106,3.161.529,3.338.946l.322.754Z" transform="translate(-2614.484 -1745.023)"/><g transform="translate(4.734)"><path class="d" d="M2579.335,1671.351c-.112-.26.364-.426,1.064-.37l1.268.1s-.687-1.632,2.1-1.552a4.262,4.262,0,0,1,3.74,1.9l1.354.117a2.455,2.455,0,0,1,1.6.578l.246.46-11.162-.751S2579.447,1671.611,2579.335,1671.351Z" transform="translate(-2579.319 -1669.527)"/><path class="m" d="M2579.335,1671.351c-.112-.26.364-.426,1.064-.37l1.268.1s-.687-1.632,2.1-1.552a4.262,4.262,0,0,1,3.74,1.9l1.354.117a2.455,2.455,0,0,1,1.6.578l.246.46-11.162-.751S2579.447,1671.611,2579.335,1671.351Z" transform="translate(-2579.319 -1669.527)"/><path class="d" d="M2620.338,1724.505c-.147-.346-1.209-.694-2.519-.864-.018-.043-.036-.087-.05-.121-.146-.364-.029-.622.757-.568l.006-.312-7.729-.457.372.266c1.019.048,1.448.1,1.722.74.023.053.039.1.061.147-1.2.015-1.989.241-1.844.582l.322.754,9.224.587Z" transform="translate(-2609.533 -1720.058)"/><path class="n" d="M2620.338,1724.505c-.147-.346-1.209-.694-2.519-.864-.018-.043-.036-.087-.05-.121-.146-.364-.029-.622.757-.568l.006-.312-7.729-.457.372.266c1.019.048,1.448.1,1.722.74.023.053.039.1.061.147-1.2.015-1.989.241-1.844.582l.322.754,9.224.587Z" transform="translate(-2609.533 -1720.058)"/></g></g><g transform="translate(41.294 27.896)"><path class="f" d="M2930.1,1949.227a10.548,10.548,0,0,1-2.072.474,15.268,15.268,0,0,1-1.9-.123,17.738,17.738,0,0,0-1.791-.268c-.658-.01-1.308.109-1.964.138-.419.019-1.257-.055-1.257-.055l1,2.223.178.058c.55.178.214.589-.151.77a8.669,8.669,0,0,1-3.387.826,19.7,19.7,0,0,1-3.5-.186,2.134,2.134,0,0,0-.607-.018.7.7,0,0,0-.5.309.726.726,0,0,0,.085.76,2.633,2.633,0,0,0,.6.539,1.555,1.555,0,0,1,.532.594c.154.363.052.809.256,1.146.238.393.772.464,1.151.724a5.081,5.081,0,0,1,.8.894,3.409,3.409,0,0,0,1.6.945,10.349,10.349,0,0,0,5.073-.133c3.617-.727,5.858-2.555,8.3-3.867C2932.734,1950.682,2930.1,1949.227,2930.1,1949.227Z" transform="translate(-2914.078 -1921.46)"/><path class="a" d="M3300.7,1261.328c2.983.417,5.55.332,7.231,2.915a27.572,27.572,0,0,1,2.833,5.929c1.651,4.071,2.991,7.061,4.19,10.537a36.379,36.379,0,0,1,1.4,5.139c.435,2.14-.155,3.386-1.827,4.313a30.456,30.456,0,0,1-6.546,2.457c-5.133,1.5-6.271,1.858-8.718,2.5a10.285,10.285,0,0,0-2.927-6.132s1.882-.722,4.223-1.724c4.27-1.828,6.552-2.938,6.552-2.938s-4.687-8.436-6.134-11.8C3298.9,1267.723,3300.7,1261.328,3300.7,1261.328Z" transform="translate(-3280.9 -1261.328)"/><path class="c" d="M3555.486,1795.021c2.314.071,2.912.847,2.912.847a9.217,9.217,0,0,0-5.938.6l-.455-.824A8.065,8.065,0,0,1,3555.486,1795.021Z" transform="translate(-3526.254 -1773.474)"/></g><g transform="translate(37.815)"><path class="e" d="M2931.755,587.569a10.921,10.921,0,0,1-.949,2.992,11.3,11.3,0,0,0-.7-.893,18.351,18.351,0,0,0-5.051-4.013l-.009,0a22.229,22.229,0,0,0-14.5-2.613,10.461,10.461,0,0,1,1.007-2.5,10.849,10.849,0,0,1,20.2,7.029Z" transform="translate(-2907.215 -574.748)"/><path class="d" d="M3015.329,571.956c-.525-.3-3.2-1.3-3.41-1.385a6.482,6.482,0,0,0-6.122,1.1,11.025,11.025,0,0,0-4.056,5.646l2.836,1.108.92.152c.487-2.105,3.615-6.506,7.572-6.407a3.718,3.718,0,0,1,.558.046,5.15,5.15,0,0,1,1.506.416,14.825,14.825,0,0,1,1.447,1.332A2.427,2.427,0,0,0,3015.329,571.956Z" transform="translate(-2994.725 -570.226)"/><path d="M3015.329,571.956c-.525-.3-3.2-1.3-3.41-1.385a6.482,6.482,0,0,0-6.122,1.1,11.025,11.025,0,0,0-4.056,5.646l2.836,1.108.92.152c.487-2.105,3.615-6.506,7.572-6.407a3.718,3.718,0,0,1,.558.046,5.15,5.15,0,0,1,1.506.416,14.825,14.825,0,0,1,1.447,1.332A2.427,2.427,0,0,0,3015.329,571.956Z" transform="translate(-2994.725 -570.226)"/><path class="d" d="M3072.977,605.02c.574-2.45,4.758-8.063,9.635-5.951a14.826,14.826,0,0,1,1.453,1.333,2.446,2.446,0,0,0-1.255-2.011c-1.26-.713-3.846-1.2-6.7.834a11,11,0,0,0-4.051,5.644Z" transform="translate(-3062.206 -596.662)"/><path class="m" d="M3072.977,605.02c.574-2.45,4.758-8.063,9.635-5.951a14.826,14.826,0,0,1,1.453,1.333,2.446,2.446,0,0,0-1.255-2.011c-1.26-.713-3.846-1.2-6.7.834a11,11,0,0,0-4.051,5.644Z" transform="translate(-3062.206 -596.662)"/><path class="d" d="M2845.916,665.845a12.155,12.155,0,0,0-4.526-4.613c-2.141-1.338-6.691-1.71-8.736-1.817-3.58-.187-4.487.515-4.568,1.039-.019.124-.109.7-.134.83a.51.51,0,0,0,.052.344c.48.848,3.273,2.451,3.273,2.451a22.227,22.227,0,0,1,14.5,2.613Z" transform="translate(-2827.94 -655.785)"/><path class="l" d="M2845.916,665.845a12.155,12.155,0,0,0-4.526-4.613c-2.141-1.338-6.691-1.71-8.736-1.817-3.58-.187-4.487.515-4.568,1.039-.019.124-.109.7-.134.83a.51.51,0,0,0,.052.344c.48.848,3.273,2.451,3.273,2.451a22.227,22.227,0,0,1,14.5,2.613Z" transform="translate(-2827.94 -655.785)"/><path class="d" d="M2845.733,686.8a22.229,22.229,0,0,0-14.5-2.613s-2.793-1.6-3.273-2.451c-.256-.469.082-1.6,4.51-1.367,2.045.107,6.595.479,8.736,1.817A12.154,12.154,0,0,1,2845.733,686.8Z" transform="translate(-2827.897 -675.893)"/><path d="M2845.733,686.8a22.229,22.229,0,0,0-14.5-2.613s-2.793-1.6-3.273-2.451c-.256-.469.082-1.6,4.51-1.367,2.045.107,6.595.479,8.736,1.817A12.154,12.154,0,0,1,2845.733,686.8Z" transform="translate(-2827.897 -675.893)"/></g></g></g><g transform="translate(1057.07 564.505)"><path class="o" d="M1385,923.093a180.553,180.553,0,0,0,1.266,24.443,278.112,278.112,0,0,0,6.627,38.671q-5.407.843-10.812,1.689-.113-1.814-.222-3.632c-1.379-23.189-2-46.846,1.076-69.886a94.19,94.19,0,0,1,5.5-20.363c2.375-6.427,4.573-12.953,5.057-19.837,1.04-14.823-6.767-26.856-13.5-39.356a66.067,66.067,0,0,1-7.768-22.235,84.652,84.652,0,0,1,.68-24.568c-.427,6.728-1.249,13.418-.612,20.251a59.2,59.2,0,0,0,5.23,19.412c5.867,12.676,15.385,23.692,17.527,37.889a50.191,50.191,0,0,1-1.7,21.058c-1.873,6.677-4.972,12.96-6.436,19.754A91.575,91.575,0,0,0,1385,923.093Z" transform="translate(-1354.408 -775.741)"/><path class="o" d="M1123.09,1298.047c-1.1,9.271,4.292,18.317,11.63,23.578a42.352,42.352,0,0,0,9.959,5.34c1.9.7,3.816,1.389,5.779,1.911l1.875.5c.067.018.453.065.487.13.05.094-.107.456-.137.575a69.377,69.377,0,0,1-12.731-4.765,32.562,32.562,0,0,1-13.423-12.147A24.33,24.33,0,0,1,1123.09,1298.047Z" transform="translate(-1119.325 -1257.876)"/><path class="o" d="M1549.754,1201.11c-.918,2.291-1.71,4.63-2.415,6.992a67.663,67.663,0,0,0-1.733,7.181,35.565,35.565,0,0,0-.633,7.322,17.188,17.188,0,0,0,.471,3.612,9.218,9.218,0,0,0,1.462,3.257l-.479.347a9.765,9.765,0,0,1-1.486-3.482,17.686,17.686,0,0,1-.411-3.723,35.906,35.906,0,0,1,.786-7.388,67.835,67.835,0,0,1,1.883-7.169C1547.95,1205.707,1548.79,1203.382,1549.754,1201.11Z" transform="translate(-1517.869 -1166.24)"/><path class="o" d="M1575.384,1028.31c-.8,2.641-1.757,5.236-2.818,7.786a65.751,65.751,0,0,1-3.636,7.449,40.7,40.7,0,0,1-2.25,3.493,25.141,25.141,0,0,1-2.7,3.179,13.989,13.989,0,0,1-3.368,2.506,8.9,8.9,0,0,1-2,.742,9.06,9.06,0,0,1-2.339.269l.148-.739a7.83,7.83,0,0,0,3.957-.734,13.514,13.514,0,0,0,3.29-2.362,24.7,24.7,0,0,0,2.708-3.079,40.352,40.352,0,0,0,2.293-3.424,65.529,65.529,0,0,0,3.755-7.357C1573.535,1033.511,1574.534,1030.936,1575.384,1028.31Z" transform="translate(-1528.978 -1002.891)"/><path class="o" d="M1651.354,2387.137c3.584-1.463,7.135-3.059,10.625-4.755a113.328,113.328,0,0,0,10.221-5.564,48.151,48.151,0,0,0,4.756-3.332,45.314,45.314,0,0,0,4.228-3.987,51.382,51.382,0,0,0,3.745-4.46,39.259,39.259,0,0,0,3.149-4.9,39.351,39.351,0,0,1-3.044,4.98,51.565,51.565,0,0,1-3.659,4.559,45.675,45.675,0,0,1-4.171,4.111,48.607,48.607,0,0,1-4.725,3.469,113.992,113.992,0,0,1-10.153,5.822c-3.472,1.783-6.989,3.458-10.578,5.017Z" transform="translate(-1618.854 -2261.882)"/><path class="o" d="M1749.23,1972.583a4.6,4.6,0,0,1,.86-1.462q.531-.8,1.07-1.6,1.15-1.711,2.31-3.415,2.319-3.415,4.652-6.822,4.641-6.791,9.291-13.577l4.815-7.032-9.768,15.073q-3.654,5.639-7.3,11.285c-.842,1.31-1.687,2.617-2.523,3.93-.81,1.274-1.706,2.536-2.414,3.872a.317.317,0,0,0,.033-.122Z" transform="translate(-1711.377 -1863.467)"/><path class="o" d="M1964.633,1542.5c.563,1.289,1.078,2.6,1.569,3.918s.951,2.649,1.381,3.99a74.944,74.944,0,0,1,2.152,8.17,42.311,42.311,0,0,1,.906,8.415,22.5,22.5,0,0,1-.4,4.24,11.3,11.3,0,0,1-1.468,3.614l-1.035,1.331a22.7,22.7,0,0,0,2-5.051,22.021,22.021,0,0,0,.467-4.141,41.949,41.949,0,0,0-.753-8.353,74.68,74.68,0,0,0-2-8.181q-.609-2.018-1.309-4.009C1965.665,1545.113,1965.173,1543.795,1964.633,1542.5Z" transform="translate(-1915 -1488.957)"/><path class="o" d="M1548.789,2105.852a37.641,37.641,0,0,0,5.876,4.678c2.078,1.329,4.658,2.742,7.211,2.52l.053.885c-2.594.076-5.081-1.355-7.141-2.79A36.9,36.9,0,0,1,1548.789,2105.852Z" transform="translate(-1521.898 -2021.504)"/><path class="o" d="M1248.145,2280.058c.879,4.365,1.908,8.7,3.041,13s2.39,8.567,3.817,12.77a101.5,101.5,0,0,0,4.984,12.289,44.6,44.6,0,0,0,3.293,5.662,23.4,23.4,0,0,0,2,2.511,13.284,13.284,0,0,0,2.334,2.034l-1.14,1.662a15.212,15.212,0,0,1-2.6-2.438,25.263,25.263,0,0,1-2.055-2.786,46.188,46.188,0,0,1-3.194-6,102.652,102.652,0,0,1-4.579-12.63c-1.277-4.281-2.372-8.608-3.347-12.957S1248.859,2284.453,1248.145,2280.058Z" transform="translate(-1237.695 -2186.183)"/><path class="o" d="M1339.014,2360.136c-.808,3.94-1.531,7.913-2.02,11.906a37.726,37.726,0,0,0-.581,6.036c.012.188-.262.389-.444.444a9.009,9.009,0,0,1-.2-2.665,50.555,50.555,0,0,1,.8-5.2C1337.257,2367.124,1338.1,2363.616,1339.014,2360.136Z" transform="translate(-1320.497 -2261.882)"/><path class="o" d="M1201.784,2798.458a112.531,112.531,0,0,0,14.225,10.137l-.537.885A113.327,113.327,0,0,1,1201.784,2798.458Z" transform="translate(-1193.87 -2676.232)"/><path class="p" d="M1291.331,575.653s-.093-.034-.254-.1a10.885,10.885,0,0,1-2.968-1.961c-1.972-1.848-3.729-5.058-1.5-10.084l0,0c.089.058.175.12.26.182C1291.734,567.209,1291.331,575.653,1291.331,575.653Z" transform="translate(-1273.071 -563.505)"/><path class="p" d="M1477.148,777.643l-.078-.01s-1.458-8.674,8.517-10.752l.012,0A8.929,8.929,0,0,1,1477.148,777.643Z" transform="translate(-1454.03 -755.755)"/><path class="p" d="M1086.68,1144.555l0,.01s-4.3-3.689-.615-8.067l.053.031C1089.782,1138.652,1086.822,1144.29,1086.68,1144.555Z" transform="translate(-1083.063 -1105.162)"/><path class="p" d="M1189.494,1405.783l-.033.052s-2.93-6.974,2.1-10c0,0,0,0,0,0C1192.885,1400.117,1189.843,1405.218,1189.494,1405.783Z" transform="translate(-1181.42 -1350.316)"/><path class="p" d="M1064.293,1540.677s-4.457,1.23-7.223-1.613q.051-.051.1-.1c3.182-2.953,6.586,1.042,7.065,1.638,0,0,0,0,0,0h0C1064.275,1540.652,1064.293,1540.677,1064.293,1540.677Z" transform="translate(-1057.07 -1484.603)"/><path class="o" d="M1383.547,1594.465c-1.551-3.437-3.145-7.361-2.793-11.228-.205,3.894,1.705,8.08,3.342,11.488C1383.961,1594.784,1383.683,1594.406,1383.547,1594.465Z" transform="translate(-1363.006 -1527.47)"/><path class="p" d="M1350.7,1465.6l-.018.032s-3.841-3.074-.461-6.454l.019.031A6.607,6.607,0,0,1,1350.7,1465.6Z" transform="translate(-1332.87 -1410.2)"/><path class="p" d="M1412.514,1630.31s-.007-.044-.018-.124c-.084-.688-.362-4.009,2.243-3.875.025,0,.053,0,.08,0A4.248,4.248,0,0,1,1412.514,1630.31Z" transform="translate(-1393.01 -1568.184)"/><path class="p" d="M1624.586,1074.161l-.01,0s-3.068-3.912,2.14-6.525l.012-.006C1628.219,1072.4,1624.793,1074.065,1624.586,1074.161Z" transform="translate(-1592.691 -1040.065)"/><path class="p" d="M1505.769,1166.932a.5.5,0,0,1-.13-.083c-.9-.671-6.034-5.31-3.4-9.29l.006,0C1505.845,1158.491,1505.769,1166.932,1505.769,1166.932Z" transform="translate(-1477.187 -1125.071)"/><path class="p" d="M1640.448,1291.339l-.018.047s-4.128-2.907-.791-7.344l.024-.031C1642.5,1285.466,1640.65,1290.783,1640.448,1291.339Z" transform="translate(-1606.548 -1244.608)"/><path class="p" d="M1768.478,1016.962c0,.035,0,.053,0,.053s-5.748-3.525-3.235-8.357l.009-.018C1768.675,1010.024,1768.5,1016.321,1768.478,1016.962Z" transform="translate(-1725.911 -984.296)"/><path class="p" d="M1878.717,858.951l-.057.072s-4.3-7.606,1.384-9.144l.059.049C1883.519,852.749,1879.276,858.258,1878.717,858.951Z" transform="translate(-1832.253 -834.219)"/><path class="p" d="M1855,1137.749c-1.519,5.388-8.206,3.132-8.372,3.075h0s3.444-5.588,8.345-3.089Z" transform="translate(-1803.449 -1105.723)"/><path class="p" d="M1905.786,1387.852l-.013-.012c-.291-.237-5.264-4.381-2.4-8.605l.006,0C1907.915,1380.48,1905.786,1387.852,1905.786,1387.852Z" transform="translate(-1856.252 -1334.624)"/><path class="p" d="M1863.031,1641.8l-.046,0c-.682-.049-8.74-.776-9.327-7.987h0C1856.887,1633.816,1861.033,1636.505,1863.031,1641.8Z" transform="translate(-1810.094 -1575.281)"/><path class="q" d="M2066.7,1711.639s0-.012-.007-.037c-.1-.559-1.185-7.406,3.31-8.953l.01.019C2071.908,1706.127,2066.7,1711.639,2066.7,1711.639Z" transform="translate(-2011.307 -1640.351)"/><path class="p" d="M1923.292,1991.945v.025c-.154-.077-7.28-3.757-4.236-9.737a.151.151,0,0,1,.01-.022c4.014,1.563,4.217,9.237,4.224,9.734C1923.291,1991.946,1923.291,1991.946,1923.292,1991.945Z" transform="translate(-1871.201 -1904.625)"/><path class="p" d="M1712.446,1778.608l-.016-.05c-.2-.634-2.141-7.088,3.152-8.456l.092-.022C1717.671,1774,1712.446,1778.608,1712.446,1778.608Z" transform="translate(-1676.105 -1704.094)"/><path class="p" d="M1937.819,2248.806a8.713,8.713,0,0,1-8.29,4.533h-.006s4.046-6.64,8.255-4.554Z" transform="translate(-1881.81 -2156.237)"/><path class="p" d="M1483.79,2000.2c-.009.1-.016.149-.016.149s-4.992-2.162-3.061-5.759l.053,0C1484.144,1994.706,1483.874,1999.312,1483.79,2000.2Z" transform="translate(-1457.125 -1916.33)"/><path class="p" d="M1638.4,2065.726c-.013.073-.022.111-.022.111-.308-.385-4.916-4.457-1.767-7.761a.309.309,0,0,1,.037.027,4.346,4.346,0,0,1,1.643,2.447A12.366,12.366,0,0,1,1638.4,2065.726Z" transform="translate(-1603.885 -1976.341)"/><path class="p" d="M1533.851,2194.059a7.166,7.166,0,0,1-7.529,1.69c.012-.031.025-.061.038-.09,1.811-4.317,7.09-1.8,7.468-1.612l0,0Z" transform="translate(-1500.659 -2104.026)"/><path class="p" d="M1219.139,2135.618l-.054-.084c-.405-.649-2.883-4.884-.01-7.164.021-.018.043-.036.065-.052C1222.367,2130.7,1219.139,2135.618,1219.139,2135.618Z" transform="translate(-1208.92 -2042.741)"/><path class="p" d="M1162.445,2351.135l-.058.007a4.941,4.941,0,0,1-5.549-3.918s0,0,0-.007C1160.986,2345.45,1162.445,2351.135,1162.445,2351.135Z" transform="translate(-1151.381 -2249.347)"/><path class="p" d="M1301.838,2399.064s-.013-.046-.033-.132c-.18-.772-.94-4.736,2.264-5.6.015.022.028.044.041.067C1305.649,2395.873,1302.135,2399,1301.838,2399.064Z" transform="translate(-1288.224 -2293.263)"/><path class="p" d="M1387.176,2223.923l-.062.058s-1.767-5.07,1.383-7.145c.007.009.013.018.019.027C1390.969,2220.056,1387.677,2223.438,1387.176,2223.923Z" transform="translate(-1368.597 -2126.418)"/><path class="p" d="M1374.61,2423.5l-.019.006s.075-4.94,4.51-4.7c.057,0,.117.006.176.01C1379.5,2421.711,1374.938,2423.385,1374.61,2423.5Z" transform="translate(-1357.226 -2317.342)"/><path class="p" d="M1216.041,2621.781l-.059,0c-.674-.033-6.87-.445-6.856-4.377l.073-.044C1213.232,2614.947,1216.041,2621.781,1216.041,2621.781Z" transform="translate(-1200.81 -2504.549)"/><path class="p" d="M1426.31,2744.476l-.007.007s-2.221-7.358,2.978-7.835h.019C1430.724,2740.173,1426.508,2744.285,1426.31,2744.476Z" transform="translate(-1405.664 -2617.802)"/><path class="p" d="M1305.307,2794.661c0,.013-.006.021-.006.021l-.024-.023c-.01-.01-.025-.025-.042-.044-.5-.515-3.472-3.788-1.473-6l.01,0C1306.647,2789.513,1305.4,2794.306,1305.307,2794.661Z" transform="translate(-1289.626 -2666.925)"/><path class="p" d="M1100.989,2697.99h0c-.333.074-6.092-.39-5.157-5.088,0-.019.008-.04.012-.059a2.675,2.675,0,0,1,2.336.464C1100.062,2694.662,1100.989,2697.99,1100.989,2697.99Z" transform="translate(-1093.612 -2576.303)"/><path class="p" d="M1183.177,2876.787s-2,3.842-6.685,1.075a.265.265,0,0,1,.013-.037c.98-2.944,6.126-1.229,6.631-1.051Z" transform="translate(-1169.961 -2749.644)"/><path class="p" d="M1584.761,2544.918a.66.66,0,0,0-.106-.117c-.84-.79-5.787-3.936-4.508-7.639,0-.007,0-.013.007-.021C1584.355,2538.591,1584.733,2544.272,1584.761,2544.918Z" transform="translate(-1551.342 -2429.207)"/><path class="p" d="M1668.161,2679.415s0-.021,0-.059C1668.176,2679.384,1668.176,2679.4,1668.161,2679.415Z" transform="translate(-1634.739 -2563.644)"/><path class="p" d="M1810.579,2492.036c-.846,4.764-8.913,4.764-8.913,4.764s.006-.012.016-.035c.268-.565,3.782-7.714,8.854-4.754C1810.551,2492.018,1810.564,2492.027,1810.579,2492.036Z" transform="translate(-1760.945 -2385.868)"/><path class="p" d="M2240.773,2256.73a.143.143,0,0,0,0-.059c-.135-.736-3.092-6.515-.028-8.906l.032-.025C2243.924,2248.97,2240.773,2256.73,2240.773,2256.73Z" transform="translate(-2174.699 -2155.632)"/><path class="p" d="M2110.517,2432.74l-.034-.049c-.364-.525-3.442-5.188.034-7.942a.031.031,0,0,0,.009.006C2114.275,2427.677,2110.517,2432.74,2110.517,2432.74Z" transform="translate(-2051.356 -2322.962)"/><path class="p" d="M2127.635,2622.442a.065.065,0,0,0-.007.013c-1.775,3.052-7.062-.013-7.062-.013l.03-.018C2120.975,2622.2,2124.931,2619.958,2127.635,2622.442Z" transform="translate(-2062.405 -2508.745)"/><path class="p" d="M2289.052,2370.282c-.69,3-6.914,3.918-6.914,3.918l.053-.079c.521-.766,3.617-5.089,6.856-3.841Z" transform="translate(-2215.141 -2271.26)"/><path class="p" d="M2331.731,2207.061s0-.025-.008-.073c-.068-.723-.511-6.636,3.311-7,.006.017.013.031.018.048C2336.372,2203.332,2331.731,2207.061,2331.731,2207.061Z" transform="translate(-2261.968 -2110.496)"/><path class="q" d="M2190.841,1769.157a9.288,9.288,0,0,1-5.7,8.506h0l-.058.021s-.458-9.324,5.715-8.534Z" transform="translate(-2123.383 -1703.171)"/><path class="q" d="M2129.4,1990.734c-2.17,4.483-8.085,3.317-8.771,3.166l-.065-.016s1.221-6.485,8.758-3.184Z" transform="translate(-2062.405 -1911.763)"/><path class="o" d="M1380.455,968.68q-1.374,1.572-2.729,3.161a27.2,27.2,0,0,0-2.445,2.9c-.182-.05.037-.53-.148-.592.153-.351.29-.371.546-.646.481-.518.975-1.023,1.471-1.526Q1378.786,970.314,1380.455,968.68Z" transform="translate(-1357.738 -946.522)"/><path class="q" d="M1479.792,777.643l8.438-10.763.012,0A8.929,8.929,0,0,1,1479.792,777.643Z" transform="translate(-1456.674 -755.755)"/><path class="q" d="M1906.677,859.794a20.752,20.752,0,0,0,1.386-9.022C1911.479,853.592,1907.236,859.1,1906.677,859.794Z" transform="translate(-1860.213 -835.062)"/><path class="q" d="M1518.711,1166.958a.5.5,0,0,1-.13-.083c-.191-3.671-2.353-7.59-3.4-9.289C1518.788,1158.516,1518.711,1166.958,1518.711,1166.958Z" transform="translate(-1490.13 -1125.097)"/><path class="q" d="M1640.283,1074.161c.151-.541,1.31-4.053,2.129-6.521l.012-.006C1643.916,1072.4,1640.49,1074.065,1640.283,1074.161Z" transform="translate(-1608.388 -1040.065)"/><path class="q" d="M1779.462,1016.962a25.014,25.014,0,0,1-3.238-8.3l.009-.018C1779.659,1010.024,1779.489,1016.321,1779.462,1016.962Z" transform="translate(-1736.895 -984.296)"/><path class="q" d="M1309.341,575.7s-.093-.034-.255-.1c-3.245-1.831-4.207-7.794-4.467-12.042.089.058.175.12.26.182C1309.745,567.26,1309.341,575.7,1309.341,575.7Z" transform="translate(-1291.082 -563.556)"/><path class="q" d="M1854.973,1137.734c-2.483,2.187-6.726,2.894-8.342,3.09h0S1850.072,1135.236,1854.973,1137.734Z" transform="translate(-1803.449 -1105.723)"/><path class="q" d="M1662.176,1291.339a18.825,18.825,0,0,1-.809-7.3l.024-.031C1664.228,1285.466,1662.378,1290.783,1662.176,1291.339Z" transform="translate(-1628.276 -1244.608)"/><path class="q" d="M1921.172,1387.878l-.013-.012a67.726,67.726,0,0,0-2.4-8.6C1923.3,1380.505,1921.172,1387.878,1921.172,1387.878Z" transform="translate(-1871.638 -1334.65)"/><path class="q" d="M1863.082,1641.8l-.046,0-.01,0c-3.946-1.461-9.193-7.835-9.314-7.983C1856.938,1633.816,1861.084,1636.505,1863.082,1641.8Z" transform="translate(-1810.145 -1575.281)"/><path class="p" d="M2070.016,1702.668c-.531,2.119-3.315,8.931-3.315,8.931l-.006,0c-.1-.559-1.185-7.406,3.31-8.953Z" transform="translate(-2011.307 -1640.351)"/><path class="p" d="M2190.793,1769.151a11.166,11.166,0,0,0-5.657,8.512h0l-.058.021S2184.62,1768.361,2190.793,1769.151Z" transform="translate(-2123.383 -1703.171)"/><path class="p" d="M2129.324,1990.7c-6.963,0-8.5,2.78-8.693,3.2l-.065-.016S2121.787,1987.4,2129.324,1990.7Z" transform="translate(-2062.405 -1911.763)"/><path class="q" d="M1936.354,1991.945c-3.461-2.942-4.219-9.55-4.235-9.711a.2.2,0,0,1,.01-.022C1936.144,1983.774,1936.346,1991.448,1936.354,1991.945Z" transform="translate(-1884.264 -1904.625)"/><path class="q" d="M1937.922,2255.818a8.713,8.713,0,0,1-8.29,4.533c.443-.64,7.845-4.352,8.249-4.554Z" transform="translate(-1881.912 -2163.249)"/><path class="q" d="M2332.6,2207.878s0-.025-.007-.073l3.328-6.948C2337.238,2204.149,2332.6,2207.878,2332.6,2207.878Z" transform="translate(-2262.833 -2111.314)"/><path class="q" d="M2264.7,2256.73a.153.153,0,0,0,0-.059c.377-1.147,0-8.326-.028-8.906l.033-.025C2267.855,2248.97,2264.7,2256.73,2264.7,2256.73Z" transform="translate(-2198.63 -2155.632)"/><path class="q" d="M2289.052,2374.166c-.69,3-6.914,3.918-6.914,3.918l.053-.078c1.06-.331,6.827-3.818,6.827-3.818l.03-.023Z" transform="translate(-2215.141 -2275.142)"/><path class="q" d="M2137.641,2432.842l-.034-.049c.679-2.16-.035-7.875-.035-7.875l.078-.061C2141.4,2427.78,2137.641,2432.842,2137.641,2432.842Z" transform="translate(-2078.481 -2323.064)"/><path class="q" d="M2127.628,2642.212c-1.775,3.052-7.062-.013-7.062-.013l.03-.018.013,0A12.258,12.258,0,0,0,2127.628,2642.212Z" transform="translate(-2062.405 -2528.502)"/><path class="q" d="M1112.625,1145.091c-.813-2.024-.59-7.5-.566-8.026C1115.727,1139.188,1112.767,1144.826,1112.625,1145.091Z" transform="translate(-1109.009 -1105.698)"/><path class="q" d="M1208.078,1606.783a2.633,2.633,0,0,1-.168-.521A1.553,1.553,0,0,1,1208.078,1606.783Z" transform="translate(-1199.66 -1549.236)"/><path class="q" d="M1204.353,1405.86c-.262-6.747,1.989-9.831,2.071-9.944C1207.743,1400.193,1204.7,1405.295,1204.353,1405.86Z" transform="translate(-1196.279 -1350.393)"/><path class="q" d="M1368.386,1466.141a8.989,8.989,0,0,1-.46-6.391A6.607,6.607,0,0,1,1368.386,1466.141Z" transform="translate(-1350.56 -1410.736)"/><path class="q" d="M1064.238,1557.8c.037.044.055.07.055.07s-4.457,1.23-7.223-1.613q.051-.051.1-.1a10.952,10.952,0,0,1,7.065,1.638,0,0,0,0,0,0,0Z" transform="translate(-1057.07 -1501.797)"/><path class="q" d="M1208.078,1606.783a2.633,2.633,0,0,1-.168-.521A1.553,1.553,0,0,1,1208.078,1606.783Z" transform="translate(-1199.66 -1549.236)"/><path class="q" d="M1413.407,1630.378s-.007-.044-.018-.124c.86-3.024,1.918-3.726,2.243-3.875.025,0,.053,0,.08,0A4.249,4.249,0,0,1,1413.407,1630.378Z" transform="translate(-1393.903 -1568.251)"/><path class="q" d="M1721.3,1778.608l-.016-.05c.656-5.849,2.687-8.027,3.152-8.456l.092-.022C1726.527,1774,1721.3,1778.608,1721.3,1778.608Z" transform="translate(-1684.96 -1704.094)"/><path class="q" d="M1492.387,2000.229c-.728-1.437-2.725-5.067-3.024-5.608C1492.74,1994.732,1492.471,1999.338,1492.387,2000.229Z" transform="translate(-1465.722 -1916.356)"/><path class="q" d="M1656.3,2066.187c-2.378-4.366-1.8-7.38-1.752-7.624a4.347,4.347,0,0,1,1.643,2.447A12.366,12.366,0,0,1,1656.3,2066.187Z" transform="translate(-1621.785 -1976.801)"/><path class="q" d="M1533.851,2208.6a7.167,7.167,0,0,1-7.529,1.69c.012-.031.025-.061.038-.09a11.661,11.661,0,0,1,7.468-1.612h0Z" transform="translate(-1500.659 -2118.564)"/><path class="q" d="M1810.579,2504.4c-.846,4.764-8.913,4.764-8.913,4.764s.006-.012.016-.036l.019-.022c4.063-4.624,8.393-4.733,8.835-4.731C1810.551,2504.381,1810.564,2504.39,1810.579,2504.4Z" transform="translate(-1760.945 -2398.231)"/><path class="q" d="M1588.391,2544.918a.662.662,0,0,0-.107-.117c-.609-1.749-4.173-7.134-4.508-7.639l.007-.021C1587.984,2538.591,1588.363,2544.272,1588.391,2544.918Z" transform="translate(-1554.971 -2429.207)"/><path class="q" d="M1668.161,2679.415s0-.021,0-.059C1668.176,2679.384,1668.176,2679.4,1668.161,2679.415Z" transform="translate(-1634.739 -2563.644)"/><path class="q" d="M1242.8,2135.618l-.055-.084c.538-1.469.038-6.671-.01-7.164.021-.018.043-.036.065-.052C1246.026,2130.7,1242.8,2135.618,1242.8,2135.618Z" transform="translate(-1232.579 -2042.741)"/><path class="q" d="M1396.789,2224.383a44.511,44.511,0,0,1,1.329-7.035l.01-.025C1400.582,2220.517,1397.29,2223.9,1396.789,2224.383Z" transform="translate(-1378.21 -2126.879)"/><path class="q" d="M1162.413,2357.156a4.941,4.941,0,0,1-5.549-3.918C1157.3,2353.389,1161.258,2354.816,1162.413,2357.156Z" transform="translate(-1151.406 -2255.361)"/><path class="q" d="M1305.437,2400.215s-.013-.046-.032-.132a27.776,27.776,0,0,1,2.305-5.533C1309.248,2397.024,1305.734,2400.146,1305.437,2400.215Z" transform="translate(-1291.823 -2294.414)"/><path class="q" d="M1374.943,2423.654a.134.134,0,0,1,.01-.019,13.976,13.976,0,0,1,4.48-4.671c.058,0,.117.006.176.01C1379.831,2421.862,1375.271,2423.536,1374.943,2423.654Z" transform="translate(-1357.559 -2317.492)"/><path class="q" d="M1102.759,2697.99h0l-.034-.019a13.149,13.149,0,0,1-5.123-5.069c0-.019.007-.04.012-.059a2.675,2.675,0,0,1,2.336.464C1101.832,2694.662,1102.759,2697.99,1102.759,2697.99Z" transform="translate(-1095.382 -2576.303)"/><path class="q" d="M1217.294,2621.781l-.059,0a50.426,50.426,0,0,1-6.784-4.421C1214.485,2614.947,1217.294,2621.781,1217.294,2621.781Z" transform="translate(-1202.063 -2504.549)"/><path class="q" d="M1433.472,2744.476a8.749,8.749,0,0,1,2.959-7.816l.012-.012h.019C1437.887,2740.173,1433.67,2744.285,1433.472,2744.476Z" transform="translate(-1412.826 -2617.802)"/><path class="q" d="M1317.292,2794.712l-.03,0-.031,0-.01-.042-1.462-6C1318.632,2789.564,1317.388,2794.357,1317.292,2794.712Z" transform="translate(-1301.612 -2666.976)"/><path class="q" d="M1183.177,2887.577s-2,3.842-6.685,1.075a.286.286,0,0,1,.013-.037l.056-.007s4.47-1.3,6.575-1.044Z" transform="translate(-1169.961 -2760.434)"/><path class="r" d="M1570.016,3321.032q-5.407.842-10.812,1.688-.113-1.813-.222-3.631c8.576.949,5.826-7.373,4.436-16.179-1.331-8.428-1.183-15.377-2.662-25.875-1.1-7.817.485-15.635,1.366-19.117a180.538,180.538,0,0,0,1.266,24.443A278.105,278.105,0,0,0,1570.016,3321.032Z" transform="translate(-1531.534 -3110.565)"/></g><g transform="translate(1058.01 769.877)"><path class="s" d="M1095.132,4335.077a131.928,131.928,0,0,0-13.659.262c-8.211.93-7.176-.4-7.176-.4.592-2.514,5.409-2.825,13.476-8.28,5.406-3.655,9.985-6.4,14.5-7.407,4.307-.957,8.552-.321,13.393,2.644,9.911,6.07,17.335,10.678,20.975,13.062C1139.351,4336.732,1113.06,4335.341,1095.132,4335.077Z" transform="translate(-1074.255 -4318.838)"/><path class="t" d="M1331.091,4335.077c-.658-.941-2.588-1.913-5.605-2.5-7.541-1.479,13.307-1.922,19.961-5.175s-6.506-1.774-9.906-3.845c-1.176-.715.281-2.4,2.688-4.3,4.307-.957,8.552-.321,13.393,2.644,9.911,6.07,17.335,10.678,20.975,13.062C1375.31,4336.732,1349.019,4335.341,1331.091,4335.077Z" transform="translate(-1310.214 -4318.838)"/></g></g></svg>