<svg xmlns="http://www.w3.org/2000/svg" width="224.623" height="223.647" viewBox="0 0 224.623 223.647"><defs><style>.a{fill:#ebebeb;}.b{fill:#e0e0e0;}.c{fill:#f5f5f5;}.d{fill:#455a64;}.e{fill:#263238;}.f{opacity:0.3;}.g{fill:#ff725e;}.h{fill:#ffbf9d;}.i{fill:#ff9a6c;}.j{fill:#5ece97;}.k{fill:#fff;}.l{opacity:0.6;}.m{fill:#a87058;}.n{fill:#e8505b;}</style></defs><g transform="translate(-2.478)"><g transform="translate(9.65 0)"><g transform="translate(0)"><g transform="translate(4.39 165.482)"><path class="a" d="M76.71,412.173C85.34,409,89.417,400.047,91.3,391.541c.314-1.421.852-2.864.491-4.273a3.011,3.011,0,0,0-3.156-2.394c-1.185.22-1.96,1.317-2.812,2.171a8.574,8.574,0,0,1-4.156,2.294,3.32,3.32,0,0,1-3-.49c-1.058-.986-.771-2.7-.4-4.1l2.063-7.814a13.3,13.3,0,0,0,.642-4.267,4.5,4.5,0,0,0-2.01-3.646,2.764,2.764,0,0,0-3.758.917,13.272,13.272,0,0,0-.488,1.733,1.523,1.523,0,0,1-1.23,1.162c-.608.018-1.074-.525-1.393-1.043a19.182,19.182,0,0,1-2.087-5.914,26.621,26.621,0,0,0-1.819-6.017,7.941,7.941,0,0,0-4.458-4.211,4.745,4.745,0,0,0-5.506,1.883c-1.023,1.841-.371,4.143.488,6.066a32.478,32.478,0,0,0,5,7.894,2.667,2.667,0,0,1,.8,1.453c.068,1.012-1.068,1.709-2.08,1.776a17.192,17.192,0,0,1-3.405-.482,3.3,3.3,0,0,0-3.146.942c-.949,1.282-.122,3.093.818,4.381a28.086,28.086,0,0,0,6.851,6.634,9.5,9.5,0,0,1,2.615,2.2,2.654,2.654,0,0,1,.077,3.184,2.779,2.779,0,0,1-3.191.357,19.674,19.674,0,0,1-2.811-1.973c-1.763-1.226-4.315-1.74-5.991-.4a4.525,4.525,0,0,0-1.486,3.795,10.514,10.514,0,0,0,1.26,4.011,28.141,28.141,0,0,0,9.569,11.067c4.124,2.708,8.207,4.2,13.119,3.734" transform="translate(-52.754 -355.419)"/><g transform="translate(8.013 0.722)"><path class="b" d="M83.709,412.882c-.164-4.577-1.01-15.456-1.818-20.672q-.311-1.954-.613-3.859c-.2-1.267-.406-2.521-.681-3.738a64.488,64.488,0,0,0-1.981-6.9c-.737-2.166-1.517-4.2-2.26-6.089s-1.476-3.643-2.21-5.21a51.789,51.789,0,0,0-4.011-7.142c-.538-.8-.975-1.415-1.277-1.826l-.345-.464c-.079-.1-.124-.154-.124-.154s.033.058.106.167l.328.477c.289.419.715,1.037,1.242,1.847a54.2,54.2,0,0,1,3.942,7.159c.723,1.569,1.443,3.319,2.181,5.212s1.507,3.924,2.238,6.088a65.021,65.021,0,0,1,1.963,6.883c.272,1.212.471,2.457.675,3.727s.405,2.555.612,3.858c.808,5.212,1.658,16.081,1.833,20.646" transform="translate(-68.389 -356.827)"/></g><g transform="translate(20.171 13.604)"><path class="b" d="M92.115,396.835a3.5,3.5,0,0,0,.283-.566c.171-.369.4-.91.68-1.582.555-1.344,1.26-3.225,2.033-5.3s1.509-3.942,2.092-5.27c.289-.665.53-1.2.7-1.568a3.445,3.445,0,0,0,.244-.583,3.541,3.541,0,0,0-.32.545c-.2.357-.459.884-.767,1.543-.621,1.316-1.383,3.178-2.156,5.257l-1.972,5.321-.614,1.606A3.485,3.485,0,0,0,92.115,396.835Z" transform="translate(-92.114 -381.965)"/></g><g transform="translate(2.8 20.427)"><path class="b" d="M58.218,395.28a.685.685,0,0,0,.18.078l.528.185c.459.158,1.123.385,1.934.693,1.627.6,3.844,1.515,6.244,2.631s4.526,2.228,6.04,3.075c.76.419,1.365.774,1.785,1.018l.485.279a.677.677,0,0,0,.177.085c0-.007-.049-.048-.154-.122l-.464-.314c-.406-.266-1-.643-1.753-1.08-1.5-.884-3.62-2.016-6.025-3.139s-4.639-2.012-6.284-2.579c-.819-.29-1.493-.5-1.961-.629l-.541-.146A.652.652,0,0,0,58.218,395.28Z" transform="translate(-58.218 -395.278)"/></g><g transform="translate(22.971 29.883)"><path class="b" d="M97.577,434.359a1.168,1.168,0,0,0,.177-.19l.476-.574c.412-.5.99-1.237,1.692-2.157,1.407-1.838,3.271-4.437,5.292-7.331s3.865-5.5,5.238-7.364l1.636-2.2.443-.6a1.187,1.187,0,0,0,.144-.218,1.147,1.147,0,0,0-.178.191l-.476.573c-.412.5-.989,1.237-1.692,2.157-1.407,1.838-3.272,4.437-5.294,7.332s-3.864,5.5-5.238,7.363l-1.635,2.2-.443.6A1.153,1.153,0,0,0,97.577,434.359Z" transform="translate(-97.576 -413.73)"/></g><g transform="translate(0.718 36.584)"><path class="b" d="M54.156,426.8a1.287,1.287,0,0,0,.218.155l.646.409,2.387,1.49c2.013,1.26,4.772,3.034,7.816,5s5.819,3.724,7.855,4.951c1.017.614,1.845,1.1,2.423,1.431l.668.374a1.182,1.182,0,0,0,.24.117,1.26,1.26,0,0,0-.218-.155l-.646-.409-2.386-1.489c-2.014-1.26-4.773-3.034-7.817-5s-5.818-3.723-7.853-4.95c-1.018-.614-1.845-1.1-2.424-1.431l-.668-.374A1.2,1.2,0,0,0,54.156,426.8Z" transform="translate(-54.156 -426.804)"/></g></g><g transform="translate(143.079 52.049)"><path class="c" d="M336.785,139.019a8.207,8.207,0,0,0,.089,1.805,8.658,8.658,0,0,0-2.367-2.242,18.608,18.608,0,0,0-4.916-1.948l-.156-.044a11.9,11.9,0,0,0,2.368,5.7,8.065,8.065,0,0,0,.857.868c-.383.043-.765.1-1.144.161-2.558.438-6.309,2.182-8.142,3a21.918,21.918,0,0,0,9.159,2.516c.195.009.39.013.585.015a8.251,8.251,0,0,0-.963,1.242,18.628,18.628,0,0,0-1.949,4.915l-.044.156a11.905,11.905,0,0,0,5.7-2.37,8.306,8.306,0,0,0,1.739-2.048,8.092,8.092,0,0,0,.175,1.339,11.018,11.018,0,0,0,2.455,4.62c.014-.044.028-.087.042-.131a17.9,17.9,0,0,0,.968-4.431,9.4,9.4,0,0,0-.839-4.233,27.24,27.24,0,0,0-1.383-2.494h0a27.011,27.011,0,0,0,.99-2.673,9.4,9.4,0,0,0,.191-4.312,17.9,17.9,0,0,0-1.626-4.235l-.061-.123A11.015,11.015,0,0,0,336.785,139.019Z" transform="translate(-323.373 -134.082)"/><g transform="translate(6.96 10.381)"><path class="b" d="M351.465,154.348c.01.073-3.231.572-7.238,1.115s-7.264.923-7.274.851,3.23-.572,7.238-1.115S351.455,154.275,351.465,154.348Z" transform="translate(-336.953 -154.339)"/></g><g transform="translate(12.158 11.45)"><path class="b" d="M348.732,156.425a8.944,8.944,0,0,1-1.627,2.61,8.945,8.945,0,0,1,1.627-2.61Z" transform="translate(-347.096 -156.423)"/></g><g transform="translate(10.679 10.157)"><path class="b" d="M345.8,155.537c-.063.043-.392-.342-.824-.783s-.8-.782-.761-.844.5.2.952.658S345.858,155.5,345.8,155.537Z" transform="translate(-344.21 -153.902)"/></g></g><g transform="translate(1.237 101.864)"><path class="c" d="M55.073,235.52a6.608,6.608,0,0,0,.525,1.367,7,7,0,0,0-2.389-1.126,15.088,15.088,0,0,0-4.277-.255l-.131.006a9.64,9.64,0,0,0,3.266,3.79,6.556,6.556,0,0,0,.879.451q-.425.2-.84.414a33.244,33.244,0,0,0-5.506,4.373,17.75,17.75,0,0,0,7.685-.381c.152-.043.3-.089.454-.136a6.694,6.694,0,0,0-.426,1.2,15.082,15.082,0,0,0-.257,4.276l.006.131a9.646,9.646,0,0,0,3.788-3.266,6.725,6.725,0,0,0,.82-2.016,6.575,6.575,0,0,0,.474.986,8.918,8.918,0,0,0,3.059,2.934c0-.037,0-.074,0-.111a14.5,14.5,0,0,0-.376-3.655,7.615,7.615,0,0,0-1.717-3.046,21.894,21.894,0,0,0-1.695-1.569h0a21.968,21.968,0,0,0,.086-2.308,7.611,7.611,0,0,0-.944-3.367,14.521,14.521,0,0,0-2.323-2.847l-.078-.079A8.925,8.925,0,0,0,55.073,235.52Z" transform="translate(-46.601 -231.283)"/><g transform="translate(5.383 6.391)"><path class="b" d="M67.776,243.757c.032.066-2.331,1.281-5.277,2.712s-5.362,2.539-5.394,2.473,2.33-1.281,5.278-2.713S67.743,243.691,67.776,243.757Z" transform="translate(-57.104 -243.754)"/></g><g transform="translate(9.794 9.154)"><path class="b" d="M66.332,249.145a5.894,5.894,0,0,1-.592,2.42,5.867,5.867,0,0,1,.592-2.42Z" transform="translate(-65.713 -249.144)"/></g><g transform="translate(7.693 8.926)"><path class="b" d="M63.244,249.576c-.046.06-.4-.142-.844-.372s-.809-.407-.787-.479.446,0,.911.243S63.289,249.521,63.244,249.576Z" transform="translate(-61.612 -248.7)"/></g></g><g transform="translate(47.095 120.109)"><path class="c" d="M136.083,277.512s7.56.762,7.987-7.3C144.07,270.209,136.128,270.2,136.083,277.512Z" transform="translate(-136.083 -268.505)"/><g transform="translate(2.511)"><path class="b" d="M148.14,266.886a44.749,44.749,0,0,1-3.488,3.4,44.409,44.409,0,0,1-3.669,3.209,89.143,89.143,0,0,1,7.157-6.614Z" transform="translate(-140.982 -266.884)"/></g><g transform="translate(2.554 4.661)"><path class="b" d="M141.066,276.217c-.006-.073.423-.17.958-.215s.975-.022.981.051-.423.17-.959.215S141.072,276.29,141.066,276.217Z" transform="translate(-141.066 -275.979)"/></g><g transform="translate(5.995 2.994)"><path class="b" d="M148.16,272.726a2.166,2.166,0,0,1-.035,1.054c-.093.571-.227,1.023-.3,1.012a2.163,2.163,0,0,1,.036-1.054C147.954,273.167,148.088,272.713,148.16,272.726Z" transform="translate(-147.78 -272.726)"/></g></g><g transform="translate(41.484 171.503)"><path class="c" d="M125.134,385.022s12.7,1.281,13.42-12.27C138.554,372.752,125.209,372.739,125.134,385.022Z" transform="translate(-125.134 -369.89)"/><g transform="translate(4.22)"><path class="b" d="M145.395,367.169c.05.054-2.6,2.586-5.922,5.654s-6.053,5.513-6.1,5.458,2.6-2.585,5.922-5.655S145.345,367.115,145.395,367.169Z" transform="translate(-133.369 -367.168)"/></g><g transform="translate(4.291 7.901)"><path class="b" d="M133.507,382.914a10.07,10.07,0,0,1,3.259-.275,10.109,10.109,0,0,1-3.259.275Z" transform="translate(-133.507 -382.585)"/></g><g transform="translate(10.119 5.028)"><path class="b" d="M145.472,376.98a11.659,11.659,0,0,1-.563,3.472,11.659,11.659,0,0,1,.563-3.472Z" transform="translate(-144.88 -376.98)"/></g></g><g transform="translate(0 187.604)"><path class="b" d="M44.188,410.95c-.056-.047,2.2-2.853,5.049-6.267s5.2-6.144,5.254-6.1-2.2,2.853-5.049,6.268S44.245,411,44.188,410.95Z" transform="translate(-44.187 -398.586)"/></g><g transform="translate(205.312 104.312)"><path class="b" d="M444.808,248.425c-.057-.047,2.2-2.854,5.049-6.267s5.2-6.144,5.254-6.1-2.2,2.853-5.049,6.267S444.864,248.472,444.808,248.425Z" transform="translate(-444.807 -236.061)"/></g><g transform="translate(115.787 201.714)"><path class="b" d="M270.12,438.483c-.057-.047,2.2-2.854,5.048-6.267s5.2-6.144,5.254-6.1-2.2,2.853-5.049,6.267S270.176,438.53,270.12,438.483Z" transform="translate(-270.119 -426.119)"/></g><g transform="translate(176.314 81.895)"><path class="b" d="M388.224,204.683c-.056-.047,2.2-2.853,5.049-6.267s5.2-6.143,5.254-6.1-2.2,2.852-5.049,6.267S388.281,204.73,388.224,204.683Z" transform="translate(-388.223 -192.32)"/></g><g transform="translate(188.336 159.068)"><path class="b" d="M411.683,355.269c-.056-.047,2.2-2.854,5.049-6.267s5.2-6.144,5.254-6.1-2.2,2.852-5.049,6.267S411.74,355.316,411.683,355.269Z" transform="translate(-411.682 -342.905)"/></g><g transform="translate(14.911 33.685)"><path class="b" d="M73.283,110.612c-.056-.047,2.2-2.854,5.049-6.267s5.2-6.144,5.254-6.1-2.2,2.852-5.049,6.267S73.34,110.659,73.283,110.612Z" transform="translate(-73.282 -98.248)"/></g><g transform="translate(63.876 33.685)"><path class="b" d="M168.827,110.612c-.057-.047,2.2-2.854,5.049-6.267s5.2-6.144,5.254-6.1-2.2,2.852-5.049,6.267S168.883,110.659,168.827,110.612Z" transform="translate(-168.826 -98.248)"/></g><g transform="translate(13.165 79.135)"><path class="b" d="M69.876,199.3c-.056-.047,2.2-2.854,5.049-6.267s5.2-6.144,5.254-6.1-2.2,2.852-5.049,6.267S69.932,199.345,69.876,199.3Z" transform="translate(-69.875 -186.934)"/></g><g transform="translate(13.421 135.284)"><path class="b" d="M70.377,308.86c-.057-.047,2.2-2.853,5.049-6.267s5.2-6.144,5.254-6.1-2.2,2.853-5.049,6.268S70.433,308.907,70.377,308.86Z" transform="translate(-70.376 -296.496)"/></g><g transform="translate(62.545 204.785)"><path class="b" d="M166.23,444.474c-.057-.048,2.2-2.854,5.048-6.267s5.2-6.143,5.254-6.1-2.2,2.853-5.049,6.267S166.286,444.521,166.23,444.474Z" transform="translate(-166.229 -432.11)"/></g><g transform="translate(55.764)"><path class="b" d="M153,44.883c-.057-.047,2.2-2.853,5.049-6.267s5.2-6.143,5.254-6.1-2.2,2.853-5.049,6.267S153.055,44.93,153,44.883Z" transform="translate(-152.998 -32.52)"/></g><g transform="translate(207.147 16.159)"><path class="b" d="M448.387,76.415c-.057-.047,2.2-2.854,5.048-6.267s5.2-6.144,5.254-6.1-2.2,2.853-5.049,6.267S448.443,76.462,448.387,76.415Z" transform="translate(-448.386 -64.051)"/></g><g transform="translate(162.004 23.499)"><path class="b" d="M360.3,90.736c-.057-.047,2.2-2.853,5.048-6.267s5.2-6.144,5.254-6.1-2.2,2.852-5.049,6.267S360.358,90.783,360.3,90.736Z" transform="translate(-360.301 -78.372)"/></g><g transform="translate(121.469)"><path class="b" d="M281.207,44.883c-.056-.047,2.2-2.853,5.048-6.267s5.2-6.143,5.254-6.1-2.2,2.853-5.049,6.267S281.264,44.93,281.207,44.883Z" transform="translate(-281.206 -32.52)"/></g></g></g><g transform="translate(51.175 60.847)"><g transform="translate(107.218 133.41)"><path class="d" d="M337.22,450.573c1.831.06,4.5-1.637,5.636-3.073s1.97-3.11,3.229-4.441c1.665-1.761,4-2.836,5.473-4.757a14.678,14.678,0,0,0,2.172-5.167,32.323,32.323,0,0,0-6.114,1.876,10.832,10.832,0,0,0-4.85,4.04c-.785,1.294-1.195,2.789-2,4.075-.761,1.222-1.847,2.209-2.67,3.39a4.582,4.582,0,0,0-.881,4.057" transform="translate(-335.697 -422.082)"/><path class="d" d="M341.327,429.929c1.389-2.075,2.823-4.441,2.379-6.9a7.612,7.612,0,0,1-.383-2.479,6.461,6.461,0,0,1,1.543-2.535,6.592,6.592,0,0,0,.646-6.449c-.541,1.422-2.03,2.2-3.391,2.887s-2.833,1.534-3.271,2.991c-.4,1.321.186,2.792-.235,4.105-.4,1.255-1.6,2.046-2.485,3.024-1.632,1.809-2.109,5.385-1.36,7.7l2.573,5.651C336.98,435.459,339.938,432,341.327,429.929Z" transform="translate(-334.426 -411.568)"/><g transform="translate(1.717 12.133)"><path class="e" d="M352.915,435.242a7.308,7.308,0,0,1-.562.7,11.428,11.428,0,0,1-1.844,1.6c-.834.61-1.892,1.239-3.028,1.987a11.712,11.712,0,0,0-3.252,2.944c-.877,1.3-1.317,2.763-2.047,3.925a24.48,24.48,0,0,1-2.058,2.984,17.116,17.116,0,0,1-1.662,1.792c-.426.389-.685.577-.685.577s.056-.057.169-.158.278-.252.488-.449a18.594,18.594,0,0,0,1.631-1.809,25.22,25.22,0,0,0,2.032-2.986c.72-1.154,1.154-2.616,2.044-3.935a11.7,11.7,0,0,1,3.286-2.965c1.143-.746,2.2-1.367,3.039-1.967a12.016,12.016,0,0,0,1.857-1.569c.207-.2.334-.386.438-.5S352.915,435.242,352.915,435.242Z" transform="translate(-337.777 -435.242)"/></g><g transform="translate(1.573 14.702)"><path class="e" d="M337.64,454.195a2.45,2.45,0,0,1-.128-.623,4.182,4.182,0,0,1,.231-1.717,9.26,9.26,0,0,1,1.2-2.274,14.2,14.2,0,0,0,1.577-2.7c.392-1.036.577-2.1,1-2.984a8.407,8.407,0,0,1,1.418-2.147,8.033,8.033,0,0,1,1.3-1.153,4.686,4.686,0,0,1,.539-.339.944.944,0,0,1-.132.1c-.089.059-.218.152-.382.274A8.622,8.622,0,0,0,343,441.8a8.517,8.517,0,0,0-1.384,2.138c-.415.871-.595,1.929-.992,2.982a13.928,13.928,0,0,1-1.595,2.718,9.467,9.467,0,0,0-1.213,2.244,4.3,4.3,0,0,0-.261,1.689C337.581,453.974,337.653,454.192,337.64,454.195Z" transform="translate(-337.496 -440.255)"/></g><g transform="translate(0.027 15.811)"><path class="e" d="M336.8,451.664a4.534,4.534,0,0,1-.973-1.067,7.819,7.819,0,0,1-1.217-3.255,16.025,16.025,0,0,1-.069-3.486c.033-.445.068-.8.094-1.052l.033-.285a.338.338,0,0,1,.019-.1.386.386,0,0,1,0,.1l-.013.286c-.018.313-.038.662-.06,1.054a17.579,17.579,0,0,0,.1,3.466,8.094,8.094,0,0,0,1.174,3.229,6.129,6.129,0,0,0,.646.826A3.578,3.578,0,0,1,336.8,451.664Z" transform="translate(-334.478 -442.419)"/></g><g transform="translate(2.496 0.383)"><path class="e" d="M347.912,412.315a5.917,5.917,0,0,1-.3,1.016,8.48,8.48,0,0,1-1.457,2.488c-.382.481-.912.905-1.4,1.419a2.559,2.559,0,0,0-.575.918,2.977,2.977,0,0,0-.122,1.145,10.134,10.134,0,0,1,.108,2.529,5.7,5.7,0,0,1-1.24,2.413c-.575.735-1.193,1.4-1.684,2.125a9.448,9.448,0,0,0-1.111,2.249,15.03,15.03,0,0,0-.738,4.19c-.056,1.216-.023,2.2-.009,2.884.008.316.015.575.02.785,0,.179,0,.274,0,.274s-.011-.094-.022-.273c-.011-.21-.024-.469-.04-.784-.027-.681-.072-1.668-.025-2.889a14.886,14.886,0,0,1,.721-4.219,9.472,9.472,0,0,1,1.117-2.275c.5-.731,1.116-1.4,1.686-2.131a5.609,5.609,0,0,0,1.221-2.367,10.161,10.161,0,0,0-.1-2.5,3.058,3.058,0,0,1,.132-1.18,2.636,2.636,0,0,1,.6-.948c.5-.522,1.024-.934,1.408-1.408a8.685,8.685,0,0,0,1.475-2.454c.127-.316.2-.569.258-.74S347.912,412.315,347.912,412.315Z" transform="translate(-339.297 -412.315)"/></g></g><g transform="translate(81.834 139.616)"><g transform="translate(3.321 1.01)"><path class="e" d="M291.432,425.648a1.186,1.186,0,0,1,.014.227c0,.166,0,.381.007.65s0,.628.016,1.029.016.857.049,1.361c.044,1.008.142,2.205.295,3.53s.389,2.772.7,4.279.7,2.924,1.077,4.2.784,2.411,1.148,3.351c.172.475.353.894.5,1.266s.284.69.4.948l.254.6a.114.114,0,1,1-.03.014l-.283-.586c-.124-.255-.27-.568-.425-.938s-.346-.786-.526-1.259c-.38-.937-.784-2.073-1.186-3.349s-.772-2.7-1.093-4.212-.535-2.967-.691-4.3-.231-2.532-.259-3.543c-.026-.5-.021-.962-.025-1.364s0-.748.012-1.03.018-.485.024-.65A1.193,1.193,0,0,1,291.432,425.648Z" transform="translate(-291.374 -425.648)"/></g><g transform="translate(3.776 5.57)"><path class="e" d="M292.263,437.332a3.778,3.778,0,0,1,.906-2.381.905.905,0,0,1,.751-.4c.39.057.568.524.581.918a2.782,2.782,0,0,1-.624,1.843,2.349,2.349,0,0,1-1.516.936" transform="translate(-292.263 -434.547)"/></g><g transform="translate(4.633 9.255)"><path class="e" d="M293.938,445.609a6.363,6.363,0,0,1,.88-3.444,1.213,1.213,0,0,1,.338-.345.5.5,0,0,1,.465-.044.7.7,0,0,1,.3.6,4,4,0,0,1-1.929,3.743" transform="translate(-293.934 -441.736)"/></g><g transform="translate(5.751 13.947)"><path class="e" d="M296.116,454.162a5.816,5.816,0,0,1,1.088-2.842.905.905,0,0,1,.559-.424c.362-.046.65.323.73.68a2.81,2.81,0,0,1-.624,2.1,7.624,7.624,0,0,1-1.4,1.386" transform="translate(-296.116 -450.892)"/></g><g transform="translate(6.76 17.447)"><path class="e" d="M298.085,460.365a5.589,5.589,0,0,1,.983-2.235,1.169,1.169,0,0,1,.4-.353.494.494,0,0,1,.507.029c.225.178.175.53.079.8a4.6,4.6,0,0,1-1.685,2.3" transform="translate(-298.085 -457.721)"/></g><g transform="translate(2.796 17.312)"><path class="e" d="M293.865,459.082a17.956,17.956,0,0,0-2.9-1.544.518.518,0,0,0-.49-.027.344.344,0,0,0-.108.359.876.876,0,0,0,.2.341,4.467,4.467,0,0,0,3.581,1.485" transform="translate(-290.351 -457.458)"/></g><g transform="translate(1.211 13.205)"><path class="e" d="M291.234,451.375l-2.392-1.559a2.187,2.187,0,0,0-.728-.354.743.743,0,0,0-.739.224.732.732,0,0,0-.017.77,1.924,1.924,0,0,0,.556.585,5.371,5.371,0,0,0,1.68.939,2.208,2.208,0,0,0,1.729-.013" transform="translate(-287.257 -449.444)"/></g><g transform="translate(0.369 8.625)"><path class="e" d="M289.328,442.691a6.308,6.308,0,0,0-2.561-2.059,1.06,1.06,0,0,0-.536-.121.8.8,0,0,0-.616.806,1.5,1.5,0,0,0,.519,1.093,3.154,3.154,0,0,0,1.082.6,7.3,7.3,0,0,0,2.248.43" transform="translate(-285.615 -440.507)"/></g><g transform="translate(0 3.828)"><path class="e" d="M288.468,434.118a7.385,7.385,0,0,0-2.557-2.736.775.775,0,0,0-.751-.192.522.522,0,0,0-.262.423,1.221,1.221,0,0,0,.086.509,3.953,3.953,0,0,0,3.51,2.593" transform="translate(-284.894 -431.148)"/></g><g transform="translate(2.683)"><path class="e" d="M290.891,428.388a10.589,10.589,0,0,1-.659-1.866,3.533,3.533,0,0,1,.071-1.955,1.519,1.519,0,0,1,.468-.7.831.831,0,0,1,.8-.141.878.878,0,0,1,.477.594,2.224,2.224,0,0,1,.034.784c-.11,1.252-.489,2.72-1.193,3.282" transform="translate(-290.129 -423.678)"/></g></g><g transform="translate(90.945 135.286)"><g transform="translate(3.858 1.002)"><path class="d" d="M313.342,417.182a.233.233,0,0,1-.014.067l-.056.191-.227.729c-.1.315-.224.7-.351,1.155s-.288.964-.43,1.539-.315,1.2-.465,1.879c-.166.677-.3,1.407-.46,2.174-.286,1.538-.547,3.24-.731,5.037s-.255,3.518-.279,5.083c0,.783-.007,1.526.021,2.222.012.7.049,1.343.085,1.934s.081,1.124.118,1.593.077.872.115,1.2.059.574.079.759c.007.08.012.145.017.2a.3.3,0,0,1,0,.068.229.229,0,0,1-.015-.066l-.031-.2c-.026-.184-.06-.437-.1-.756s-.1-.731-.139-1.2-.106-1-.138-1.594-.085-1.24-.1-1.937c-.034-.7-.03-1.443-.035-2.227.017-1.568.094-3.293.269-5.1s.45-3.506.744-5.048c.159-.768.3-1.5.474-2.176.155-.681.325-1.307.483-1.879s.315-1.084.451-1.535.263-.836.373-1.149.191-.545.252-.721l.069-.186A.262.262,0,0,1,313.342,417.182Z" transform="translate(-310.2 -417.182)"/></g><g transform="translate(4.632 6.773)"><path class="d" d="M311.925,431.03a4.429,4.429,0,0,1,1.855-2.343,1.063,1.063,0,0,1,.981-.18c.416.2.449.787.325,1.233a3.264,3.264,0,0,1-1.35,1.841,2.755,2.755,0,0,1-2.026.511" transform="translate(-311.71 -428.445)"/></g><g transform="translate(3.999 11.174)"><path class="d" d="M310.6,440.86a7.468,7.468,0,0,1,2.2-3.542,1.42,1.42,0,0,1,.5-.267.583.583,0,0,1,.536.116.823.823,0,0,1,.119.773,4.7,4.7,0,0,1-3.481,3.5" transform="translate(-310.475 -437.032)"/></g><g transform="translate(3.921 16.89)"><path class="d" d="M310.324,451.266a6.819,6.819,0,0,1,2.222-2.795,1.061,1.061,0,0,1,.775-.276c.422.076.613.591.576,1.018a3.293,3.293,0,0,1-1.441,2.129A8.938,8.938,0,0,1,310.4,452.4" transform="translate(-310.324 -448.186)"/></g><g transform="translate(4.034 21.129)"><path class="d" d="M310.543,458.869a6.56,6.56,0,0,1,1.891-2.152,1.358,1.358,0,0,1,.567-.254.577.577,0,0,1,.557.212c.189.278.009.654-.194.923a5.392,5.392,0,0,1-2.7,1.979" transform="translate(-310.543 -456.456)"/></g><g transform="translate(0.449 19.118)"><path class="d" d="M307.039,455.5a21.092,21.092,0,0,0-2.7-2.754c-.153-.13-.347-.266-.539-.2a.4.4,0,0,0-.248.363,1.024,1.024,0,0,0,.1.451,5.242,5.242,0,0,0,3.481,2.929" transform="translate(-303.548 -452.531)"/></g><g transform="translate(0 14.068)"><path class="d" d="M306.7,446.053l-2.124-2.589a2.563,2.563,0,0,0-.689-.654.872.872,0,0,0-.906-.011.858.858,0,0,0-.291.855,2.243,2.243,0,0,0,.415.851,6.3,6.3,0,0,0,1.548,1.644,2.583,2.583,0,0,0,1.939.6" transform="translate(-302.672 -442.677)"/></g><g transform="translate(0.581 8.666)"><path class="d" d="M307.547,435.683a7.405,7.405,0,0,0-2.138-3.209,1.248,1.248,0,0,0-.557-.325.937.937,0,0,0-.974.684,1.755,1.755,0,0,0,.194,1.406,3.7,3.7,0,0,0,1,1.056,8.571,8.571,0,0,0,2.363,1.276" transform="translate(-303.805 -432.138)"/></g><g transform="translate(1.977 3.097)"><path class="d" d="M309.723,425.72a8.664,8.664,0,0,0-1.892-3.965c-.191-.256-.457-.528-.773-.48a.614.614,0,0,0-.444.381,1.428,1.428,0,0,0-.084.6,4.636,4.636,0,0,0,3.009,4.142" transform="translate(-306.529 -421.27)"/></g><g transform="translate(5.659)"><path class="d" d="M313.82,420.392a12.385,12.385,0,0,1-.077-2.321,4.155,4.155,0,0,1,.77-2.162,1.783,1.783,0,0,1,.771-.614.973.973,0,0,1,.946.125,1.028,1.028,0,0,1,.324.833,2.6,2.6,0,0,1-.239.889c-.566,1.361-1.509,2.869-2.495,3.25" transform="translate(-313.714 -415.228)"/></g></g><g transform="translate(97.911 139.623)"><g transform="translate(0.396 1.059)"><path class="d" d="M323.784,425.756a1.093,1.093,0,0,1,0,.227l-.043.649c-.019.282-.047.627-.094,1.026s-.087.855-.165,1.354c-.133,1-.342,2.19-.623,3.5s-.663,2.73-1.13,4.2-1,2.845-1.521,4.077-1.05,2.316-1.524,3.209c-.227.452-.458.847-.652,1.2s-.371.649-.52.89l-.342.554a1.134,1.134,0,0,1-.129.187,1.186,1.186,0,0,1,.1-.2l.315-.569c.14-.245.309-.546.494-.9s.409-.753.629-1.207c.459-.9.966-1.987,1.487-3.215s1.031-2.6,1.5-4.068.838-2.885,1.138-4.185.509-2.483.656-3.481c.085-.5.135-.951.189-1.348s.093-.741.121-1.021l.074-.646A1.15,1.15,0,0,1,323.784,425.756Z" transform="translate(-317.038 -425.756)"/></g><g transform="translate(3.932 5.388)"><path class="d" d="M326,437.14a3.779,3.779,0,0,0-.656-2.461.907.907,0,0,0-.706-.474c-.394.016-.619.463-.673.853a2.784,2.784,0,0,0,.432,1.9,2.347,2.347,0,0,0,1.411,1.087" transform="translate(-323.937 -434.204)"/></g><g transform="translate(2.939 8.973)"><path class="d" d="M323.7,445.209a6.368,6.368,0,0,0-.521-3.517,1.2,1.2,0,0,0-.3-.378.5.5,0,0,0-.458-.091.7.7,0,0,0-.356.564,4,4,0,0,0,1.533,3.922" transform="translate(-321.999 -441.199)"/></g><g transform="translate(0.93 13.505)"><path class="d" d="M320.265,453.473a5.812,5.812,0,0,0-.79-2.939.9.9,0,0,0-.512-.479c-.356-.083-.68.254-.8.6a2.805,2.805,0,0,0,.4,2.153,7.634,7.634,0,0,0,1.249,1.524" transform="translate(-318.08 -450.042)"/></g><g transform="translate(0 16.891)"><path class="d" d="M318.081,459.448a5.587,5.587,0,0,0-.748-2.324,1.171,1.171,0,0,0-.357-.392.494.494,0,0,0-.507-.023c-.242.153-.229.509-.161.788a4.6,4.6,0,0,0,1.438,2.463" transform="translate(-316.265 -456.649)"/></g><g transform="translate(2.042 17.301)"><path class="d" d="M320.589,458.736a17.946,17.946,0,0,1,3.048-1.237.519.519,0,0,1,.49.024.344.344,0,0,1,.071.368.875.875,0,0,1-.234.318,4.466,4.466,0,0,1-3.716,1.109" transform="translate(-320.249 -457.449)"/></g><g transform="translate(3.74 13.337)"><path class="d" d="M323.713,451.3l2.539-1.3a2.186,2.186,0,0,1,.761-.278.743.743,0,0,1,.712.3.732.732,0,0,1-.063.767,1.919,1.919,0,0,1-.612.525,5.382,5.382,0,0,1-1.768.76,2.205,2.205,0,0,1-1.719-.191" transform="translate(-323.563 -449.715)"/></g><g transform="translate(5.222 8.869)"><path class="d" d="M326.666,442.86a6.315,6.315,0,0,1,2.76-1.784,1.065,1.065,0,0,1,.546-.065.8.8,0,0,1,.53.866,1.5,1.5,0,0,1-.628,1.034,3.163,3.163,0,0,1-1.139.487,7.3,7.3,0,0,1-2.28.2" transform="translate(-326.454 -440.995)"/></g><g transform="translate(6.267 4.16)"><path class="d" d="M328.58,434.445a7.385,7.385,0,0,1,2.824-2.458.774.774,0,0,1,.767-.113.521.521,0,0,1,.218.448,1.217,1.217,0,0,1-.138.5,3.953,3.953,0,0,1-3.758,2.219" transform="translate(-328.493 -431.808)"/></g><g transform="translate(5.847)"><path class="d" d="M328.523,428.423a10.528,10.528,0,0,0,.848-1.789,3.54,3.54,0,0,0,.131-1.952,1.523,1.523,0,0,0-.394-.742.831.831,0,0,0-.783-.223.877.877,0,0,0-.536.542,2.228,2.228,0,0,0-.114.776c-.019,1.257.207,2.755.848,3.388" transform="translate(-327.674 -423.691)"/></g></g><g transform="translate(51.542 99.166)"><path class="d" d="M273.476,347.579a18.6,18.6,0,0,0-7.364,7.6,55.465,55.465,0,0,0-4,9.942l-.978,17.528c3.7-6.289,6.663-13.681,7.465-20.932l-2.46-.219a5.885,5.885,0,0,0,3.915-2.864,17.442,17.442,0,0,0,1.777-4.66l-3,.446A11.123,11.123,0,0,0,273.476,347.579Z" transform="translate(-243.019 -346.128)"/><g class="f" transform="translate(18.115 1.451)"><path d="M273.476,347.579a18.6,18.6,0,0,0-7.364,7.6,55.465,55.465,0,0,0-4,9.942l-.978,17.528c3.7-6.289,6.663-13.681,7.465-20.932l-2.46-.219a5.885,5.885,0,0,0,3.915-2.864,17.442,17.442,0,0,0,1.777-4.66l-3,.446A11.123,11.123,0,0,0,273.476,347.579Z" transform="translate(-261.134 -347.579)"/></g><path class="d" d="M252.506,385.373s-8.023-9.6-7.931-18.771h3.241s-3.52-2.315-3.242-3.611.371-6.2.371-6.2l2.964.741s-2.223-1.112-2.5-2.871.648-9.908.648-9.908,3.612,3.8,4.723,7.686,4.028,8.427,3.172,20.281S252.506,385.373,252.506,385.373Z" transform="translate(-234.938 -344.748)"/><path class="d" d="M268,396.226s8.693-5.791,10.624-13.182l-2.605-.709s3.337-1.091,3.4-2.194,1.059-5.07,1.059-5.07l-2.545-.053s2.029-.407,2.638-1.761,1.647-8.108,1.647-8.108a18.786,18.786,0,0,0-5.479,5.146c-1.744,2.884-5.082,5.894-6.987,15.611S268,396.226,268,396.226Z" transform="translate(-246.364 -354.694)"/><g transform="translate(13.309 8.373)"><path class="e" d="M251.757,361.086a2.362,2.362,0,0,1,.11.393l.265,1.138c.228.988.528,2.425.871,4.206.69,3.561,1.5,8.51,2.141,14.008s.971,10.505,1.112,14.13c.072,1.812.108,3.279.112,4.294v1.168a2.3,2.3,0,0,1-.018.407,2.448,2.448,0,0,1-.036-.406q-.019-.437-.051-1.166c-.035-1.013-.1-2.478-.2-4.287-.188-3.619-.556-8.614-1.188-14.108s-1.419-10.438-2.061-14c-.319-1.783-.591-3.225-.787-4.219q-.135-.718-.216-1.147A2.276,2.276,0,0,1,251.757,361.086Z" transform="translate(-251.755 -361.086)"/></g><path class="d" d="M242.241,414.178s-7.342-8.331-9.622-13.367l1.721-.735a4.462,4.462,0,0,1-3.493-1.145,13.226,13.226,0,0,1-2.374-2.94l2.267-.383a8.431,8.431,0,0,1-4.954-3.837,14.092,14.092,0,0,1,7.091,3.746,35.261,35.261,0,0,1,4.3,4.978,16.975,16.975,0,0,1,1.669,2.743C240.076,405.79,242.246,411.119,242.241,414.178Z" transform="translate(-225.786 -367.672)"/><g transform="translate(19.686 15.305)"><path class="e" d="M276.888,374.612a1.819,1.819,0,0,1-.136.332l-.437.929c-.387.8-.939,1.969-1.609,3.415-1.341,2.89-3.114,6.922-4.869,11.455s-3.152,8.712-4.1,11.753c-.477,1.52-.853,2.754-1.106,3.608l-.3.981a1.867,1.867,0,0,1-.122.338,1.844,1.844,0,0,1,.071-.352c.065-.254.149-.584.254-1,.223-.864.571-2.106,1.026-3.636.907-3.059,2.281-7.25,4.036-11.794s3.561-8.566,4.948-11.439c.692-1.437,1.27-2.591,1.687-3.38l.482-.907A1.814,1.814,0,0,1,276.888,374.612Z" transform="translate(-264.2 -374.612)"/></g><g transform="translate(11.7 35.835)"><path class="e" d="M253.994,428.913a2.648,2.648,0,0,1-.13-.592c-.063-.383-.164-.937-.3-1.616a33.753,33.753,0,0,0-3.81-10.09c-.344-.6-.633-1.084-.839-1.413a2.664,2.664,0,0,1-.294-.53,2.651,2.651,0,0,1,.381.472c.233.313.548.782.915,1.375a28.861,28.861,0,0,1,3.833,10.151c.116.688.19,1.248.221,1.637A2.688,2.688,0,0,1,253.994,428.913Z" transform="translate(-248.615 -414.671)"/></g><rect class="g" width="16.07" height="3.278" transform="translate(10.696 48.117)"/><path class="g" d="M249.646,445.033l1.738,11.026h9.711l1.62-11.026Z" transform="translate(-237.418 -393.638)"/><g transform="translate(12.202 51.262)"><path class="e" d="M263.174,444.906c0,.074-3.04.133-6.789.133s-6.79-.059-6.79-.133,3.039-.133,6.79-.133S263.174,444.832,263.174,444.906Z" transform="translate(-249.595 -444.773)"/></g></g><g transform="translate(122.437 133.178)"><path class="d" d="M384.678,438.481a6.16,6.16,0,0,0,3.314-3.145c.52-1.2.786-2.5,1.408-3.645.823-1.516,2.229-2.681,2.894-4.273a10.438,10.438,0,0,0,.548-3.951,22.972,22.972,0,0,0-3.862,2.409,7.708,7.708,0,0,0-2.6,3.665c-.3,1.034-.311,2.138-.626,3.168-.3.979-.866,1.857-1.216,2.82a3.261,3.261,0,0,0,.136,2.951" transform="translate(-373.938 -417.137)"/><path class="d" d="M374.866,440.59c1.04-1.885-.63-3.247-1.2-3.927a12.247,12.247,0,0,1-1.676-2.052c-.632-1.222-.452-2.731-1.036-3.976a4.734,4.734,0,0,0-2.973-2.345,14.041,14.041,0,0,0-3.862-.432c.517,1.545,2.463,2.07,3.442,3.372.837,1.113.862,2.646,1.541,3.862,1.312,2.349,4.731,3.014,5.763,5.5" transform="translate(-364.121 -419.277)"/><path class="d" d="M383.922,424.509c.576-1.681,1.13-3.57.375-5.179a5.421,5.421,0,0,1-.717-1.635,4.606,4.606,0,0,1,.6-2.026,4.691,4.691,0,0,0-.735-4.553,4.441,4.441,0,0,1-1.8,2.606,4.058,4.058,0,0,0-1.7,2.656c-.031.981.639,1.886.589,2.866a6.715,6.715,0,0,1-1.155,2.535,6.289,6.289,0,0,0,.474,5.546l2.8,3.416C381.944,429.107,383.347,426.19,383.922,424.509Z" transform="translate(-371.337 -411.115)"/><g transform="translate(10.9 7.289)"><path class="e" d="M392.781,425.338a4.758,4.758,0,0,1-.254.586,8.051,8.051,0,0,1-.971,1.444c-.462.573-1.073,1.2-1.717,1.923a8.334,8.334,0,0,0-1.694,2.615c-.365,1.05-.4,2.138-.691,3.072a17.239,17.239,0,0,1-.873,2.429,11.966,11.966,0,0,1-.82,1.535,5.811,5.811,0,0,1-.371.519.93.93,0,0,1,.085-.141l.251-.4a13.483,13.483,0,0,0,.786-1.543,18.069,18.069,0,0,0,.847-2.425c.283-.924.314-2.008.685-3.082a8.319,8.319,0,0,1,1.721-2.644c.651-.722,1.266-1.342,1.732-1.906a8.673,8.673,0,0,0,.993-1.415c.107-.175.16-.325.213-.42A.915.915,0,0,1,392.781,425.338Z" transform="translate(-385.391 -425.338)"/></g><g transform="translate(10.526 10.519)"><path class="e" d="M385.034,442.534a1.635,1.635,0,0,1-.208-.4,2.969,2.969,0,0,1-.16-1.225,6.6,6.6,0,0,1,.409-1.789,10.15,10.15,0,0,0,.588-2.143c.08-.782.012-1.55.145-2.236a5.953,5.953,0,0,1,.586-1.739,5.642,5.642,0,0,1,.686-1.03,2.981,2.981,0,0,1,.313-.328c.008.007-.1.125-.28.354a6.293,6.293,0,0,0-.651,1.038,6.084,6.084,0,0,0-.557,1.721c-.125.673-.054,1.432-.135,2.231a9.88,9.88,0,0,1-.6,2.164,6.76,6.76,0,0,0-.426,1.761,3.085,3.085,0,0,0,.125,1.207C384.957,442.391,385.045,442.529,385.034,442.534Z" transform="translate(-384.659 -431.641)"/></g><g transform="translate(7.532 12.859)"><path class="e" d="M381.965,442.178a1.125,1.125,0,0,1-.252-.115,3.693,3.693,0,0,1-.62-.432,5.526,5.526,0,0,1-1.44-2.018,11.184,11.184,0,0,1-.682-2.389c-.057-.313-.1-.566-.123-.742a1.357,1.357,0,0,1-.029-.275,1.314,1.314,0,0,1,.07.268c.05.235.1.478.156.734a12.736,12.736,0,0,0,.705,2.361,5.8,5.8,0,0,0,1.391,2A6.9,6.9,0,0,0,381.965,442.178Z" transform="translate(-378.819 -436.207)"/></g><g transform="translate(9.719 0.259)"><path class="e" d="M385.557,411.621a3.971,3.971,0,0,1-.014.754,6.009,6.009,0,0,1-.543,1.981c-.175.4-.461.792-.7,1.234a1.8,1.8,0,0,0-.225.732,2.1,2.1,0,0,0,.125.8,7.215,7.215,0,0,1,.539,1.722,4.061,4.061,0,0,1-.412,1.894c-.261.611-.564,1.184-.769,1.769a6.712,6.712,0,0,0-.353,1.746,10.726,10.726,0,0,0,.255,3.013c.182.847.384,1.52.517,1.985l.154.537c.035.123.048.189.048.189s-.027-.062-.068-.183l-.174-.531c-.145-.463-.358-1.133-.551-1.981a10.58,10.58,0,0,1-.28-3.037,6.773,6.773,0,0,1,.352-1.773c.208-.6.511-1.169.77-1.775a3.977,3.977,0,0,0,.406-1.844,7.242,7.242,0,0,0-.527-1.7,2.188,2.188,0,0,1-.125-.841,1.882,1.882,0,0,1,.24-.766c.251-.452.535-.83.712-1.225a6.2,6.2,0,0,0,.57-1.954c.03-.24.038-.428.045-.556S385.557,411.621,385.557,411.621Z" transform="translate(-383.085 -411.621)"/></g><g transform="translate(0.197 8.526)"><path class="e" d="M374.933,440.021a5.33,5.33,0,0,0-.2-.618,4.566,4.566,0,0,0-1.022-1.426c-.522-.536-1.262-1.041-2.009-1.7a4.822,4.822,0,0,1-1.666-2.73,7.827,7.827,0,0,0-.553-1.562,5.085,5.085,0,0,0-.93-1.221,12.937,12.937,0,0,0-2.092-1.578c-.631-.405-1.135-.748-1.465-1.009a5.326,5.326,0,0,1-.494-.427,1,1,0,0,1,.135.1l.383.293c.337.249.844.581,1.48.978a12.573,12.573,0,0,1,2.121,1.572,5.164,5.164,0,0,1,.953,1.242,7.858,7.858,0,0,1,.564,1.581,4.756,4.756,0,0,0,1.629,2.686c.736.657,1.475,1.172,2,1.721a4.432,4.432,0,0,1,1.007,1.463A2.276,2.276,0,0,1,374.933,440.021Z" transform="translate(-364.505 -427.751)"/></g><g transform="translate(4.49 18.021)"><rect class="g" width="12.434" height="2.536"/><path class="g" d="M375.193,451.227l1.345,8.531h7.513l1.254-8.531Z" transform="translate(-374.008 -448.691)"/><g transform="translate(1.165 2.403)"><path class="e" d="M385.66,451.1a103.616,103.616,0,0,1-10.506,0,103.616,103.616,0,0,1,10.506,0Z" transform="translate(-375.154 -450.967)"/></g></g></g><g transform="translate(-138.855 -67.269)"><g transform="translate(97.143 97.782)"><g transform="translate(0 7.097)"><path class="e" d="M137.959,142.356,122.77,118.541a1.863,1.863,0,0,0-2.024,2.123,4.922,4.922,0,0,0-4.481,5.161,6.274,6.274,0,0,0-5.2,8.665,4.243,4.243,0,0,0,3.88,6.259,4.512,4.512,0,0,0,7.009,5.1,4.548,4.548,0,0,0,6.952,1.466,3.737,3.737,0,0,0,4.793-.288,7.344,7.344,0,0,1,1.325-1.334,17.8,17.8,0,0,1,1.7-.58A2.359,2.359,0,0,0,137.959,142.356Z" transform="translate(-110.57 -118.521)"/></g><g transform="translate(18.772 26.514)"><path class="g" d="M169.923,177.512a2.248,2.248,0,1,1-2.248-2.248A2.248,2.248,0,0,1,169.923,177.512Z" transform="translate(-165.427 -175.264)"/></g><g transform="translate(18.695 29.73)"><path class="g" d="M166.72,184.662a9.4,9.4,0,0,0-.3,9.757,23.281,23.281,0,0,0,1.034-4.56,10.086,10.086,0,0,0-.738-5.2" transform="translate(-165.202 -184.662)"/></g><g transform="translate(14.524)"><path class="e" d="M153.813,114.356a3.8,3.8,0,0,1,.166-4.863,2.541,2.541,0,0,1,.152-3.085,7.426,7.426,0,0,1,2.7-1.92c.465-2.568,7.621-6.494,10.177-5.971.111-1.107,3.191-.994,3.659.527h0a2.187,2.187,0,0,1,2.216-.863c3.771.579,3.316,2.931,3.316,2.931a2.175,2.175,0,0,1,2.326.834c1.087,1.188.655,1.97.655,1.97a3.664,3.664,0,0,1,1.5,2.658,6.914,6.914,0,0,0,.222,2.64c.2.4.553.714.715,1.131.467,1.208-.845,2.507-.549,3.768.061.257.186.495.267.746a2.26,2.26,0,0,1-.082,1.584,3.244,3.244,0,0,0-.458,1.153,3.665,3.665,0,0,0,.218.92c.182.753-1.352,3.734-1.992,4.169l-19.572.864a3.661,3.661,0,0,1-2.942-3.05,1.339,1.339,0,0,0-.208-.713,1.569,1.569,0,0,0-.547-.329c-1.284-.633-1.5-2.358-1.415-3.787a1.739,1.739,0,0,0-.032-.6A2.18,2.18,0,0,0,153.813,114.356Z" transform="translate(-153.012 -97.782)"/><g transform="translate(6.4 5.608)"><path class="h" d="M171.725,124.968a10.491,10.491,0,0,1,5.235-9.336,12.948,12.948,0,0,1,4.961-1.384,7.933,7.933,0,0,1,4.651.806c1.088.215,5.17,3.7,5.513,7.619.382,4.357.676,9.691.239,12.96-.88,6.572-5.877,7.528-5.877,7.528S187.3,154,187.3,154l-13.587-4.794Z" transform="translate(-171.714 -114.17)"/></g><g transform="translate(17.689 25.205)"><path class="i" d="M204.706,172.65a1.284,1.284,0,0,1,.38-.825,1.313,1.313,0,0,1,1.58-.217,1.455,1.455,0,0,1,.573,1.492h0c-.241.393-.41.776-.864.852a1.934,1.934,0,0,1-.213.024,1.436,1.436,0,0,1-.995-.305A1.279,1.279,0,0,1,204.706,172.65Z" transform="translate(-204.705 -171.437)"/></g><g transform="translate(22.838 18.685)"><path class="e" d="M221.426,153.123a.84.84,0,0,1-.789.867.8.8,0,0,1-.884-.736.84.84,0,0,1,.788-.867A.8.8,0,0,1,221.426,153.123Z" transform="translate(-219.752 -152.384)"/></g><g transform="translate(22.01 15.817)"><path class="e" d="M220.651,144.846c-.1.112-.749-.343-1.653-.319s-1.554.493-1.655.384c-.049-.048.052-.248.335-.465A2.31,2.31,0,0,1,219,144a2.215,2.215,0,0,1,1.319.39C220.6,144.6,220.7,144.8,220.651,144.846Z" transform="translate(-217.331 -144.003)"/></g><g transform="translate(19.611 16.406)"><path class="e" d="M210.928,153.243a6,6,0,0,1,1.461-.3c.23-.029.448-.081.482-.239a1.172,1.172,0,0,0-.171-.68l-.725-1.74a30.29,30.29,0,0,1-1.645-4.558,30.229,30.229,0,0,1,2.008,4.415l.7,1.751a1.335,1.335,0,0,1,.142.9.579.579,0,0,1-.371.347,1.555,1.555,0,0,1-.391.064A5.861,5.861,0,0,1,210.928,153.243Z" transform="translate(-210.321 -145.725)"/></g><g transform="translate(12.278 32.476)"><path class="i" d="M197.746,194.809a16.726,16.726,0,0,1-8.854-2.122s2.447,4.558,8.984,3.785Z" transform="translate(-188.892 -192.687)"/></g><g transform="translate(21.315 12.317)"><path class="e" d="M218.633,134.52c-.146.224-.842.094-1.649.181-.809.061-1.471.316-1.654.122-.081-.1,0-.312.277-.541a2.57,2.57,0,0,1,2.661-.244C218.578,134.213,218.7,134.412,218.633,134.52Z" transform="translate(-215.301 -133.775)"/></g><g transform="translate(15.047 18.998)"><path class="e" d="M196.984,154.109a.839.839,0,0,0,.861.8.8.8,0,0,0,.817-.809.84.84,0,0,0-.86-.8A.8.8,0,0,0,196.984,154.109Z" transform="translate(-196.984 -153.299)"/></g><g transform="translate(12.96 16.33)"><path class="e" d="M190.9,146.489c.111.1.717-.406,1.619-.46s1.591.357,1.682.24c.045-.052-.073-.243-.374-.435a2.307,2.307,0,0,0-1.355-.328,2.218,2.218,0,0,0-1.28.5C190.929,146.24,190.848,146.444,190.9,146.489Z" transform="translate(-190.886 -145.502)"/></g><g transform="translate(12.82 12.727)"><path class="e" d="M190.506,136.024c.19.194.873-.062,1.709-.124.834-.088,1.554.042,1.7-.182.065-.108-.059-.307-.381-.482a2.588,2.588,0,0,0-1.411-.249,2.556,2.556,0,0,0-1.339.5C190.505,135.711,190.421,135.928,190.506,136.024Z" transform="translate(-190.474 -134.975)"/></g><g transform="translate(2.98 20.853)"><path class="h" d="M166.358,160.451c-.013-.487-.6-1.623-1.088-1.687-1.291-.169-3.606-.009-3.548,3.257.08,4.464,4.546,3.463,4.551,3.335C166.278,165.257,166.4,162.135,166.358,160.451Z" transform="translate(-161.721 -158.72)"/></g><g transform="translate(4.248 22.364)"><path class="i" d="M167.45,166.652c-.02-.014-.077.056-.207.118a.778.778,0,0,1-.581.023,1.925,1.925,0,0,1-.921-1.711,2.568,2.568,0,0,1,.2-1.118.9.9,0,0,1,.574-.607.4.4,0,0,1,.463.2c.062.124.035.214.059.221s.095-.076.055-.26a.5.5,0,0,0-.181-.277.588.588,0,0,0-.432-.106,1.093,1.093,0,0,0-.8.707,2.644,2.644,0,0,0-.247,1.249A2.019,2.019,0,0,0,166.6,167a.835.835,0,0,0,.709-.131C167.444,166.76,167.466,166.66,167.45,166.652Z" transform="translate(-165.427 -163.134)"/></g><g transform="translate(4.127 3.515)"><path class="e" d="M188.708,118.688a2.6,2.6,0,0,1-1.481-2.357c-.593.193-1.22-.562-1.582-1.07s-.8-.759-.785-1.383a.709.709,0,0,0-.054-.361.758.758,0,0,0-.495-.272,2.991,2.991,0,0,1-2.021-2.029,6.327,6.327,0,0,1-3.046.582,2.418,2.418,0,0,1-4.1-.076,2.168,2.168,0,0,1-1.424,1.106,6.418,6.418,0,0,1-1.849.147,2.561,2.561,0,0,1-1.612,2.942c-.158.053-.34.106-.409.257a.645.645,0,0,0,.081.5,2.016,2.016,0,0,1-1.285,2.6,1.5,1.5,0,0,1-.076,2.357c-.16.1-.369.226-.339.413a.424.424,0,0,0,.1.188,2.922,2.922,0,0,1,.741,1.457,1.079,1.079,0,0,1-.854,1.216,1.43,1.43,0,0,1,.592.963c.016.388-.366.793-.732.662-.155-.055-2.389-.437-2.49-.567-1.306-1.683.235-3.617.306-5.746a13.849,13.849,0,0,1,1.778-6.078,10.127,10.127,0,0,1,1.531-2.191,13.486,13.486,0,0,1,2.409-1.869,12.312,12.312,0,0,1,3.538-1.8c2.394-.629,4.919.183,7.192,1.165a10.5,10.5,0,0,1,2.461,1.368,9.507,9.507,0,0,1,2.11,2.616,11.832,11.832,0,0,1,1.73,4.529" transform="translate(-165.071 -108.055)"/></g><g transform="translate(17.501 25.578)"><path class="e" d="M204.179,172.531c.107-.073.549.666,1.495.813s1.683-.4,1.751-.3c.038.04-.09.248-.417.455a2.143,2.143,0,0,1-1.437.295,1.865,1.865,0,0,1-1.206-.71C204.153,172.789,204.126,172.557,204.179,172.531Z" transform="translate(-204.155 -172.526)"/></g></g><g transform="translate(10.916 0.427)"><path class="j" d="M142.47,103.209c0,6.017,4.2,15.809,7.742,16.376l-.036-.256c-.164-3.819-.314-7.743.933-11.356,1.4-4.045,5.017-6.975,8.962-8.634-5.921-1.282-14.115,1.689-17.6,3.871" transform="translate(-142.47 -99.028)"/></g><g transform="translate(17.451 0.362)"><path class="e" d="M170.382,98.927a3.864,3.864,0,0,0-2.843,2.841,3.809,3.809,0,0,0-3.054,3.981,3.323,3.323,0,0,0-1.778,4.964,3.969,3.969,0,0,0-.242,4.363,2.722,2.722,0,0,0,.438,4.363l1.565.021-.055-6.482,1.11-3.828,2.349-4.129,2.424-2.216,3.88-2.549A3.864,3.864,0,0,0,170.382,98.927Z" transform="translate(-161.567 -98.838)"/></g><g transform="translate(10.116 28.015)"><path class="g" d="M150.167,180.733c-.414-.894-2.464-1.315-4.064-.957a7.115,7.115,0,0,0-4,2.687,11.533,11.533,0,0,0-1.973,4.462,11.783,11.783,0,0,0,10.036-6.192" transform="translate(-140.131 -179.649)"/></g><g transform="translate(18.746 27.429)"><path class="e" d="M168.707,181.283c0,.009-.064.061-.2.127a1.977,1.977,0,0,1-.638.164,2.259,2.259,0,0,1-2.438-2.851,1.977,1.977,0,0,1,.261-.6c.087-.129.149-.189.157-.183a4.354,4.354,0,0,0-.295.815,2.2,2.2,0,0,0,2.307,2.7A4.356,4.356,0,0,0,168.707,181.283Z" transform="translate(-165.352 -177.936)"/></g><g transform="translate(15.184 29.223)"><path class="e" d="M154.944,184.656a7.537,7.537,0,0,1,3.572-1.468c.012.052-.831.259-1.814.666S154.972,184.7,154.944,184.656Z" transform="translate(-154.943 -183.18)"/></g><g transform="translate(19.906 30.836)"><path class="e" d="M168.768,192.089a44.421,44.421,0,0,1,.125-4.2,17.182,17.182,0,0,1-.125,4.2Z" transform="translate(-168.742 -187.892)"/></g><g transform="translate(15.11 4.627)"><path class="e" d="M156.241,111.3a6.48,6.48,0,0,1-.247.651,16.451,16.451,0,0,0-.584,1.8,15.253,15.253,0,0,0,1.785,11.989,16.409,16.409,0,0,0,1.083,1.551,6.518,6.518,0,0,1,.426.551.7.7,0,0,1-.131-.124c-.08-.087-.2-.21-.348-.383a13.544,13.544,0,0,1-1.135-1.528,14.82,14.82,0,0,1-1.8-12.09,13.5,13.5,0,0,1,.641-1.792c.087-.207.17-.361.222-.467A.7.7,0,0,1,156.241,111.3Z" transform="translate(-154.725 -111.304)"/></g></g><g transform="translate(90.158 133.522)"><g transform="translate(19.281 81.256)"><path class="g" d="M146.5,448.705h7.073l.206-8.961s-3.213-.578-4.943,1.688S146.5,448.705,146.5,448.705Z" transform="translate(-146.503 -439.678)"/></g><g transform="translate(16.96 58.089)"><path class="e" d="M139.719,375.531c0,5.255.618,17.927,16.846,19.164h-7.419l-.314,10.951s45.676,1.115,47.1,1.137c2.73.043,9.315-3.28,10.551-11.471s-5.564-10.818-7.573-12.364-24.573-9.428-33.227-10.973l-25.346,2.473Z" transform="translate(-139.719 -371.977)"/></g><g transform="translate(43.443 28.168)"><path class="e" d="M256.884,287.547a7.129,7.129,0,0,0-4.829-2.858,15.58,15.58,0,0,0-10.551,2.246c-5.017,3.221-24.394,28.508-24.394,28.508l32.913,12.691s8.1-24.966,9.053-29.166A13.576,13.576,0,0,0,256.884,287.547Z" transform="translate(-217.11 -284.54)"/></g><g transform="translate(60.352 36.682)"><path class="d" d="M266.525,335.752a1.946,1.946,0,0,1,.062-.3l.211-.849c.091-.369.209-.818.363-1.335s.313-1.111.529-1.755.435-1.355.71-2.106c.258-.757.577-1.549.9-2.386.679-1.663,1.488-3.467,2.439-5.311s1.971-3.54,2.944-5.05c.5-.75.968-1.462,1.441-2.106.456-.656.913-1.244,1.326-1.783s.809-1.01,1.147-1.43.646-.769.9-1.052l.583-.652a1.95,1.95,0,0,1,.212-.219,1.9,1.9,0,0,1-.185.243l-.557.673c-.245.29-.544.644-.874,1.07s-.726.894-1.125,1.443-.856,1.134-1.306,1.792c-.466.646-.932,1.36-1.423,2.109-.963,1.511-1.971,3.206-2.924,5.043s-1.759,3.635-2.445,5.291c-.328.834-.651,1.622-.915,2.375-.28.746-.517,1.45-.729,2.094s-.393,1.23-.553,1.745-.291.96-.392,1.326l-.243.839A2.011,2.011,0,0,1,266.525,335.752Z" transform="translate(-266.524 -309.42)"/></g><g transform="translate(19.428 0)"><path class="d" d="M148.455,245.158s-1.054-17.625-1.356-21.993-.6-12.8,3.013-16.571,6.127-4.369,6.127-4.369l14.708,6.552s8.352,11.844,8.352,17.116-5.447,21.073-5.447,21.073Z" transform="translate(-146.932 -202.225)"/></g><g transform="translate(16.593 18.526)"><path class="j" d="M160.6,257.018l-.079-.655,13.328.437s1.471,4.846-.614,12.7c-.834,3.143-3.868,14.888-3.868,14.888l1.551,9.54,10.893,6.828s-7.428.673-11.8,5.645-7.529,13.253-7.529,13.253-24.152.127-23.836-15.3a23.706,23.706,0,0,1,1.031-6.907l3.626-11.1.437-5.521s7.772-.84,8.752-3.668S160.6,257.018,160.6,257.018Z" transform="translate(-138.646 -256.363)"/></g><g transform="translate(59.162 63.013)"><path class="d" d="M282.315,393.9a.953.953,0,0,1-.2-.078l-.547-.254c-.474-.222-1.161-.541-2.02-.913-1.713-.755-4.112-1.725-6.783-2.738s-5.11-1.883-6.875-2.511l-2.089-.746-.566-.209a.968.968,0,0,1-.194-.084.941.941,0,0,1,.2.05l.577.177c.5.158,1.221.393,2.108.693,1.776.6,4.22,1.452,6.9,2.464s5.068,2,6.771,2.79c.853.388,1.534.725,2,.966l.532.285A.938.938,0,0,1,282.315,393.9Z" transform="translate(-263.046 -386.368)"/></g><g transform="translate(40.519 81.318)"><path class="d" d="M233.478,441.944c0,.049-5.585-.377-12.463-.951s-12.454-1.08-12.45-1.129,5.584.377,12.464.952S233.482,441.895,233.478,441.944Z" transform="translate(-208.565 -439.86)"/></g><g transform="translate(32.036 56.073)"><path class="e" d="M183.778,374.629a.819.819,0,0,1,.108-.17l.338-.467c.146-.2.334-.445.554-.725s.474-.6.764-.938a15.781,15.781,0,0,1,9.05-5.683,22.7,22.7,0,0,1,3.115-.472l1.207-.08.913-.008.577,0a.841.841,0,0,1,.2.013.881.881,0,0,1-.2.023l-.575.031-.91.038-1.2.106a24.325,24.325,0,0,0-3.089.506,16.133,16.133,0,0,0-8.992,5.606c-.3.335-.559.641-.782.918s-.422.508-.577.7l-.364.447A.875.875,0,0,1,183.778,374.629Z" transform="translate(-183.778 -366.086)"/></g><g transform="translate(11.964 43.673)"><path class="g" d="M134.722,334.938a4.963,4.963,0,0,1-1.075,1.256,24.764,24.764,0,0,1-3.495,2.844q-.591.4-1.263.806-.335.2-.69.4a4.361,4.361,0,0,1-.8.381,1.854,1.854,0,0,1-.513.093,1.332,1.332,0,0,1-.577-.108,1.284,1.284,0,0,1-.491-.367,1.011,1.011,0,0,1-.23-.662,1.155,1.155,0,0,1,.224-.626,2.792,2.792,0,0,1,.352-.395l.669-.643a16.617,16.617,0,0,1,3.157-2.469,7.294,7.294,0,0,1,4.284-1.026l.068.006-.169.872a43.429,43.429,0,0,1-7.635-2.894l-.419-.209c-.136-.07-.276-.133-.438-.236a1.241,1.241,0,0,1-.457-.469.956.956,0,0,1-.056-.731,1.191,1.191,0,0,1,.354-.537,1.413,1.413,0,0,1,.519-.28,2.977,2.977,0,0,1,.948-.094,8.219,8.219,0,0,1,3.122.644,8.37,8.37,0,0,1,3.579,2.779,3.548,3.548,0,0,1,.755,1.475c-.067.036-.345-.481-1.024-1.258a8.75,8.75,0,0,0-3.539-2.41,7.828,7.828,0,0,0-2.888-.492,2.361,2.361,0,0,0-.723.082.659.659,0,0,0-.234.13.423.423,0,0,0-.12.189.161.161,0,0,0,.01.134.488.488,0,0,0,.179.156c.1.059.234.122.372.189l.415.2a47.079,47.079,0,0,0,7.516,2.774l-.169.872-.058-.005a6.52,6.52,0,0,0-3.765.9,16.468,16.468,0,0,0-3.024,2.308l-.676.625c-.219.194-.351.375-.346.469-.017.078.078.228.246.3a.56.56,0,0,0,.254.054,1.136,1.136,0,0,0,.311-.049,3.81,3.81,0,0,0,.681-.3c.234-.122.463-.244.686-.368.445-.247.868-.493,1.264-.74a34.531,34.531,0,0,0,3.606-2.574A7.289,7.289,0,0,1,134.722,334.938Z" transform="translate(-125.119 -329.851)"/></g><g transform="translate(26.877 0.375)"><path class="j" d="M168.7,203.735c-.01-.029.063-.08.218-.152a2.056,2.056,0,0,1,.293-.117l.421-.1a4.956,4.956,0,0,1,2.7.426,11.322,11.322,0,0,1,3.3,2.3,22.126,22.126,0,0,1,3.083,3.773,30.484,30.484,0,0,1,3.712,7.962,10.1,10.1,0,0,1,.652,3.577,27.144,27.144,0,0,1-1.25-3.377,38.966,38.966,0,0,0-3.859-7.671c-1.832-2.794-3.984-5.022-5.9-5.992a5.366,5.366,0,0,0-2.407-.652l-.4.012c-.117,0-.213.026-.295.03C168.8,203.77,168.711,203.764,168.7,203.735Z" transform="translate(-168.7 -203.32)"/></g><g transform="translate(16.598 51.97)"><path class="k" d="M170.293,354.3a.391.391,0,0,1-.1,0l-.284-.015c-.25-.01-.617-.052-1.092-.063a31.137,31.137,0,0,0-4.017.082,32.078,32.078,0,0,0-5.856,1.051c-1.079.3-2.2.663-3.337,1.107s-2.29.961-3.444,1.549a33.594,33.594,0,0,0-10.29,8.217,34.039,34.039,0,0,0-2.406,3.219c-.269.391-.452.712-.591.92l-.155.239a.394.394,0,0,1-.059.078.416.416,0,0,1,.043-.088l.14-.248c.129-.214.3-.541.564-.939a31.058,31.058,0,0,1,2.367-3.262,33.022,33.022,0,0,1,10.306-8.3c1.158-.59,2.319-1.107,3.461-1.553s2.272-.8,3.357-1.1a31.322,31.322,0,0,1,5.89-1.018,28.6,28.6,0,0,1,4.03-.026c.476.022.842.075,1.092.1l.283.033A.39.39,0,0,1,170.293,354.3Z" transform="translate(-138.663 -354.097)"/></g><g transform="translate(20.011 48.379)"><path class="k" d="M176.237,343.611a1.714,1.714,0,0,1-.285.028l-.818.047c-.355.016-.79.039-1.294.075s-1.078.065-1.712.121c-1.268.094-2.775.246-4.443.443s-3.5.472-5.408.805-3.72.717-5.359,1.091-3.1.756-4.328,1.1c-.614.164-1.165.331-1.65.471s-.9.265-1.242.371l-.784.236a.143.143,0,1,1-.011-.034l.775-.268c.336-.116.75-.253,1.234-.4s1.031-.325,1.645-.5c1.221-.361,2.688-.746,4.325-1.14s3.452-.766,5.365-1.107,3.748-.593,5.419-.793,3.183-.328,4.454-.406c.635-.048,1.21-.07,1.715-.095s.94-.04,1.3-.045l.82-.013A1.714,1.714,0,0,1,176.237,343.611Z" transform="translate(-148.637 -343.603)"/></g><g transform="translate(21.365 45.207)"><path class="k" d="M178.687,334.343c0,.049-5.839.249-13.043.447s-13.048.317-13.049.268,5.838-.249,13.045-.446S178.685,334.294,178.687,334.343Z" transform="translate(-152.594 -334.332)"/></g><g transform="translate(29.581 39.488)"><path class="k" d="M195.259,317.627c0,.049-4.172.335-9.324.638s-9.332.509-9.335.46,4.171-.335,9.324-.638S195.257,317.578,195.259,317.627Z" transform="translate(-176.601 -317.62)"/></g><g transform="translate(38.448 22.559)"><path class="k" d="M216.422,268.4c0,.049-3.115.041-6.954-.017s-6.953-.146-6.952-.2,3.114-.041,6.955.017S216.422,268.346,216.422,268.4Z" transform="translate(-202.515 -268.15)"/></g><g transform="translate(37.25 26.613)"><path class="k" d="M213.59,280.8a3.547,3.547,0,0,1-.574.035c-.37.011-.9.017-1.566.017-1.323,0-3.15-.04-5.164-.15s-3.836-.272-5.151-.415c-.657-.072-1.188-.136-1.555-.188a3.613,3.613,0,0,1-.567-.1,3.521,3.521,0,0,1,.574.028l1.559.131c1.316.111,3.136.251,5.148.362s3.835.168,5.156.2l1.564.04A3.573,3.573,0,0,1,213.59,280.8Z" transform="translate(-199.014 -279.996)"/></g><g transform="translate(34.34 31.514)"><path class="k" d="M207.331,294.878c0,.049-3.769-.033-8.413-.183s-8.41-.312-8.408-.361,3.768.033,8.414.183S207.333,294.829,207.331,294.878Z" transform="translate(-190.51 -294.319)"/></g><g transform="translate(20.911 59.228)"><path class="k" d="M167.142,375.306a1.2,1.2,0,0,1-.2.139l-.58.367c-.254.155-.562.349-.911.589s-.757.495-1.185.811l-.679.486-.719.549c-.5.373-1.011.808-1.554,1.253-1.067.916-2.2,1.967-3.322,3.142a44.372,44.372,0,0,0-2.954,3.49c-.411.57-.816,1.1-1.155,1.628l-.5.753-.438.711c-.287.448-.514.873-.723,1.24s-.383.688-.516.954l-.319.607a1.235,1.235,0,0,1-.122.207,1.166,1.166,0,0,1,.09-.222l.289-.623c.124-.272.285-.6.49-.97s.422-.8.7-1.257l.43-.72c.154-.247.324-.5.5-.761.335-.531.737-1.069,1.147-1.644a42.016,42.016,0,0,1,2.956-3.515,43.633,43.633,0,0,1,3.345-3.144c.549-.444,1.062-.876,1.57-1.245.252-.188.491-.373.728-.543l.688-.478c.434-.311.846-.563,1.2-.792s.669-.418.929-.564l.6-.339A1.221,1.221,0,0,1,167.142,375.306Z" transform="translate(-151.267 -375.306)"/></g><g transform="translate(27.904 57.376)"><path class="k" d="M194.457,369.894a.328.328,0,0,1-.077.039l-.231.1-.892.356-.646.253-.751.341c-.537.25-1.159.509-1.812.871l-1.035.543c-.357.194-.715.421-1.092.642-.764.429-1.529.97-2.348,1.515a38.815,38.815,0,0,0-9.1,8.934c-.558.81-1.112,1.566-1.553,2.324-.227.374-.459.729-.658,1.083l-.556,1.028c-.371.647-.637,1.267-.892,1.8l-.349.747-.258.644-.363.889-.1.23a.3.3,0,0,1-.039.076.318.318,0,0,1,.022-.082l.082-.236.333-.9.245-.651c.1-.234.216-.485.336-.756.248-.539.507-1.165.872-1.818l.548-1.038c.2-.357.427-.714.652-1.092.437-.764.988-1.526,1.546-2.343a37.973,37.973,0,0,1,9.14-8.972c.825-.544,1.6-1.082,2.367-1.508.381-.219.742-.444,1.1-.635l1.045-.534c.658-.356,1.286-.608,1.828-.85.272-.118.524-.232.759-.328l.653-.239.905-.325.237-.08A.3.3,0,0,1,194.457,369.894Z" transform="translate(-171.702 -369.893)"/></g><g transform="translate(35.667 60.351)"><path class="k" d="M214.314,378.59a1.959,1.959,0,0,1-.28.125l-.813.325-.589.231c-.214.088-.439.2-.684.312-.487.232-1.057.464-1.647.8l-.939.5c-.327.174-.647.391-.989.6-.691.4-1.381.9-2.116,1.416a34.73,34.73,0,0,0-4.369,3.856,35.12,35.12,0,0,0-3.6,4.585c-.474.762-.935,1.48-1.3,2.191-.186.353-.386.684-.542,1.019l-.455.963c-.306.607-.511,1.187-.72,1.685-.1.251-.2.481-.279.7l-.2.6-.288.826a1.977,1.977,0,0,1-.112.285,1.977,1.977,0,0,1,.078-.3l.257-.838.19-.6c.074-.22.17-.452.266-.706.2-.5.4-1.088.7-1.7l.446-.972c.154-.339.351-.673.536-1.029.36-.718.819-1.441,1.291-2.21a34.285,34.285,0,0,1,3.607-4.619,33.9,33.9,0,0,1,4.4-3.867c.742-.513,1.438-1.012,2.136-1.409.346-.2.669-.417,1-.589l.949-.495c.6-.331,1.173-.555,1.665-.78.248-.107.476-.215.692-.3l.6-.217.826-.294A1.949,1.949,0,0,1,214.314,378.59Z" transform="translate(-194.388 -378.589)"/></g><g class="f" transform="translate(24.322 22.592)"><path d="M161.235,269.905s7.907,23.185,10.646,24.851,12.464-1.817,12.464-1.817l.528-3.246L167.15,268.244Z" transform="translate(-161.235 -268.244)"/></g><g transform="translate(0 72.273)"><path class="e" d="M109.809,432.637l-1.867-.826s-15.463,6.16-17.784,4.282l20.713-22.665,7.015,10.059C113.221,425.406,111.775,427.305,109.809,432.637Z" transform="translate(-90.158 -413.427)"/><g class="l" transform="translate(21.329 5.603)"><path class="k" d="M154.7,431.566a1.276,1.276,0,0,0-.488-1.621,1.2,1.2,0,0,0-1.606.444,1.345,1.345,0,0,0,.526,1.714,1.245,1.245,0,0,0,1.616-.647" transform="translate(-152.488 -429.801)"/></g><g class="l"><path class="k" d="M110.871,413.427l1.405,1.985L92.144,436.265s-1.368.6-1.986-.173Z" transform="translate(-90.158 -413.427)"/></g><g transform="translate(16.855 15.359)"><path class="d" d="M139.431,461.556c-.109-.106.346-.706.482-1.581.159-.871-.071-1.6.066-1.658.115-.082.636.7.453,1.753S139.512,461.675,139.431,461.556Z" transform="translate(-139.414 -458.311)"/></g><g transform="translate(13.68 16.481)"><path class="d" d="M130.6,464.629c-.132-.074.115-.729-.017-1.539-.108-.814-.536-1.379-.43-1.484.077-.12.806.405.951,1.416S130.709,464.725,130.6,464.629Z" transform="translate(-130.136 -461.589)"/></g><g transform="translate(10.161 18.121)"><path class="d" d="M119.862,466.4c.068-.123.77.237,1.126,1.084s.128,1.589-.009,1.55c-.15-.022-.173-.66-.476-1.351C120.218,466.99,119.773,466.525,119.862,466.4Z" transform="translate(-119.851 -466.381)"/></g></g></g><g transform="translate(111.593 101.824)"><g transform="translate(45.541 0)"><g transform="translate(19.48)"><path class="d" d="M344.162,125.407a3.649,3.649,0,0,1-1.336-3c-.036-1.138.172-2.282.023-3.411a13.561,13.561,0,0,1,.118-2.771c.139-1.793,1.2-2.061,1.958-3.691.738-1.582-.378-2.038.029-2.724.2-.335.758-.219,1.107-.044a2.838,2.838,0,0,1,.864.775c1.227,1.478,2.292,3.284,2.119,5.2a22.831,22.831,0,0,1-.678,2.777c-.321,1.464-.207,3.066-.953,4.366a7.4,7.4,0,0,1-3.238,2.557" transform="translate(-342.808 -109.595)"/></g><g transform="translate(3.014 4.904)"><path class="d" d="M310.959,140.589a9.126,9.126,0,0,0-2.641-7.3,11.356,11.356,0,0,1-2.228-2.283c-.607-1.069-.587-2.414-1.224-3.466-.952-1.574-3.022-2-4.859-2.108s-5.7-2.265-5.285-1.229c1.361,3.928,1.069,3.706,5.937,7.31,2,1.48.169,5.889,5.705,7.6,1.52.47,3.389.436,4.558,1.515" transform="translate(-294.69 -123.926)"/></g><g transform="translate(18.287 38.732)"><g transform="translate(0 8.206)"><path class="d" d="M339.378,246.763a.737.737,0,0,0-.055.093Z" transform="translate(-339.323 -246.763)"/></g><g transform="translate(0.055)"><path class="d" d="M346.913,224.132a13.718,13.718,0,0,0-6.781,5.765l-.647,1.091c.276-.4.887-.431,1.391-.491a4.4,4.4,0,0,0,2.511-1.194,10.861,10.861,0,0,1,1.263-1.253,8.737,8.737,0,0,1,1.446-.668c1.1-.492,2.008-1.336,3.092-1.862a18.192,18.192,0,0,1,3.55-1.02,5.947,5.947,0,0,0,3.209-1.719C352.935,222.917,349.728,223.05,346.913,224.132Z" transform="translate(-339.485 -222.782)"/></g></g><g transform="translate(17.419 24.446)"><path class="d" d="M349.473,181.369c-1.031.478-1.746,1.472-2.76,1.985a13.43,13.43,0,0,1-2.977.732c-2.388.58-5.344,5.009-6.951,7.224a22.909,22.909,0,0,1,3.121-.556,37.153,37.153,0,0,0,3.935-.442c3.879-.4,5.742-2.292,8.68-4.792,1.767-1.5,3.892-2.109,5.011-4.142C355.029,182.483,351.955,180.219,349.473,181.369Z" transform="translate(-336.784 -181.033)"/></g><g transform="translate(19.269 13.258)"><path class="d" d="M342.191,158.778c1.359-3.963,4.926-7.007,8.693-8.842a16.166,16.166,0,0,1,12.226-.733c-2.254,2.965-4.543,3.337-8.167,4.2-.626.148-2.187-.316-3.319.5-.456.327-.559,1.637-3.187,2.123-2.581.478-4.783,1-6.246,2.76" transform="translate(-342.191 -148.337)"/></g><g transform="translate(15.085 7.491)"><path class="e" d="M337.014,131.487a.711.711,0,0,1,.007.129c0,.094,0,.219,0,.378s0,.375,0,.615-.027.525-.043.839a32.648,32.648,0,0,1-.81,5.285c-.494,2.206-1.286,4.779-2.166,7.629a85.882,85.882,0,0,0-2.414,9.388,80.328,80.328,0,0,0-1.452,17.524c.05,2.255.213,4.074.311,5.331.062.62.111,1.1.145,1.445.014.158.025.283.033.377a.685.685,0,0,1,.005.129,61.435,61.435,0,0,1-.62-7.279,78.1,78.1,0,0,1,1.4-17.562,83.889,83.889,0,0,1,2.431-9.4c.89-2.848,1.692-5.413,2.2-7.609a34.489,34.489,0,0,0,.863-5.262q.033-.469.06-.836t.019-.614c.007-.159.012-.284.015-.378A.707.707,0,0,1,337.014,131.487Z" transform="translate(-329.965 -131.487)"/></g><g transform="translate(18.108 14.61)"><path class="e" d="M356.939,152.3a1.079,1.079,0,0,1-.224.025c-.147.013-.365.017-.644.043-.558.039-1.365.122-2.351.288a22.813,22.813,0,0,0-3.4.848,17.73,17.73,0,0,0-3.882,1.8,24.3,24.3,0,0,0-5.761,5.221c-.621.784-1.083,1.45-1.389,1.919-.158.231-.27.418-.353.54a1.061,1.061,0,0,1-.132.183,1.1,1.1,0,0,1,.1-.2c.073-.128.175-.321.325-.559a21.246,21.246,0,0,1,1.349-1.959,23.359,23.359,0,0,1,5.765-5.293,17.42,17.42,0,0,1,3.926-1.809,21.667,21.667,0,0,1,3.434-.816,20.5,20.5,0,0,1,2.367-.234c.281-.015.5-.008.647-.01A1.073,1.073,0,0,1,356.939,152.3Z" transform="translate(-338.8 -152.289)"/></g><g transform="translate(7.054 8.379)"><path class="e" d="M306.5,134.083a.694.694,0,0,1,.185.042c.12.034.294.091.517.17a10.479,10.479,0,0,1,1.816.842,4,4,0,0,1,1.076.888,9.013,9.013,0,0,1,.819,1.367,16.624,16.624,0,0,1,.7,1.611,17.573,17.573,0,0,0,.624,1.755,7.721,7.721,0,0,0,2.517,2.5,18.108,18.108,0,0,1,2.267,1.915,14.477,14.477,0,0,1,1.288,1.53l.31.447a.754.754,0,0,1,.1.162.774.774,0,0,1-.127-.141l-.336-.425a17.4,17.4,0,0,0-1.322-1.483,19.2,19.2,0,0,0-2.275-1.871c-.45-.327-.93-.667-1.389-1.073a5.133,5.133,0,0,1-1.189-1.479,16.887,16.887,0,0,1-.629-1.776,17.144,17.144,0,0,0-.682-1.6,9.11,9.11,0,0,0-.789-1.35,3.944,3.944,0,0,0-1.025-.871,11.915,11.915,0,0,0-1.775-.885l-.5-.2A.876.876,0,0,1,306.5,134.083Z" transform="translate(-306.496 -134.082)"/></g><g transform="translate(15.906 26.722)"><path class="e" d="M349.314,187.686a.83.83,0,0,1-.152.127l-.458.335c-.4.286-.984.7-1.729,1.17a17.986,17.986,0,0,1-2.743,1.447c-1.082.449-2.319.8-3.589,1.223a20.849,20.849,0,0,0-6,3.245c-.708.522-1.269.961-1.66,1.26l-.452.342a.83.83,0,0,1-.165.11.848.848,0,0,1,.143-.138l.432-.368c.378-.316.927-.77,1.628-1.307a19.968,19.968,0,0,1,6.021-3.313c1.277-.427,2.51-.77,3.583-1.207a18.993,18.993,0,0,0,2.739-1.4c.75-.457,1.343-.852,1.756-1.12l.477-.307A.813.813,0,0,1,349.314,187.686Z" transform="translate(-332.363 -187.686)"/></g><g transform="translate(0 20.038)"><path class="d" d="M301.172,181.775c-1.8-1.921-1.342-5.283-3.269-7.074-1.2-1.114-3.026-1.309-4.277-2.366-.816-.69-1.316-1.688-2.094-2.421-1.465-1.381-3.642-1.608-5.649-1.764a11.175,11.175,0,0,0,6.411,9.073,7.458,7.458,0,0,1,2.431,1.349c.452.467.726,1.077,1.139,1.579a4.822,4.822,0,0,0,2.541,1.5,14.344,14.344,0,0,0,2.974.344" transform="translate(-285.882 -168.151)"/></g><g transform="translate(3.653 22.472)"><path class="e" d="M296.558,175.264c.018-.009.112.218.344.59a7.147,7.147,0,0,0,1.177,1.425,17.04,17.04,0,0,0,2.172,1.693c.858.586,1.816,1.227,2.746,2a36.045,36.045,0,0,1,4.377,4.342c.514.6.916,1.094,1.19,1.44l.31.4a.659.659,0,0,1,.1.148s-.048-.039-.126-.125l-.335-.381-1.231-1.4a40.44,40.44,0,0,0-4.395-4.287c-.924-.764-1.87-1.4-2.727-2a16.007,16.007,0,0,1-2.166-1.738,6.6,6.6,0,0,1-1.149-1.48,3.546,3.546,0,0,1-.223-.458A.653.653,0,0,1,296.558,175.264Z" transform="translate(-296.557 -175.263)"/></g><g transform="translate(2.242 33.185)"><path class="d" d="M303.4,217.006a4.459,4.459,0,0,0-1.69-3.69,11.742,11.742,0,0,1-1.555-.932,7.186,7.186,0,0,1-1.032-1.432,11.487,11.487,0,0,0-3.955-3.184l-1.746-1.02a.834.834,0,0,0-.577-.166.557.557,0,0,0-.383.415,1.57,1.57,0,0,0-.007.59,24.027,24.027,0,0,0,.684,3.505,5.984,5.984,0,0,0,1.362,2.736,13.8,13.8,0,0,0,2.963,1.736,15.862,15.862,0,0,0,2.5,1.508,7.418,7.418,0,0,0,3.438-.066" transform="translate(-292.433 -206.571)"/></g><g transform="translate(4.55 36.34)"><path class="e" d="M299.179,215.791a3.23,3.23,0,0,1,.354.415l.924,1.159a17.216,17.216,0,0,0,3.464,3.394,26.718,26.718,0,0,0,2.353,1.288c.738.377,1.4.732,1.93,1.065a8.022,8.022,0,0,1,1.2.879,3.048,3.048,0,0,1,.287.286c.062.068.092.106.088.111s-.149-.127-.42-.344a9.642,9.642,0,0,0-1.222-.824c-.537-.316-1.2-.658-1.939-1.026a24.264,24.264,0,0,1-2.377-1.286,15.992,15.992,0,0,1-3.464-3.464c-.382-.5-.679-.909-.88-1.2A3.192,3.192,0,0,1,299.179,215.791Z" transform="translate(-299.178 -215.791)"/></g><g transform="translate(15.378 41.353)"><path class="e" d="M340.834,230.442a3.459,3.459,0,0,1-.485.3c-.159.09-.354.2-.573.343s-.477.287-.746.475c-.55.357-1.182.815-1.859,1.353a23.859,23.859,0,0,0-3.939,4.007c-.527.687-.973,1.327-1.321,1.882-.182.273-.326.532-.461.755s-.246.418-.333.579a3.506,3.506,0,0,1-.294.49,3.545,3.545,0,0,1,.232-.522c.079-.167.179-.368.308-.6s.265-.493.441-.772a21.651,21.651,0,0,1,1.3-1.916,22.16,22.16,0,0,1,3.966-4.036,21.578,21.578,0,0,1,1.894-1.33c.275-.181.538-.323.764-.454s.425-.237.591-.318A3.518,3.518,0,0,1,340.834,230.442Z" transform="translate(-330.821 -230.441)"/></g><g transform="translate(8.282 52.062)"><path class="m" d="M321.571,267.87a27.648,27.648,0,0,0-1.711-3.711,4.352,4.352,0,0,0-2.931-2.405,3.418,3.418,0,0,0-2.648,1.009,10.128,10.128,0,0,0-1.712,2.359l-2.485,4.229,1.382,1.859a12.97,12.97,0,0,0,7.755.491c1.232-.306,2.612-1.04,2.707-2.306A3.472,3.472,0,0,0,321.571,267.87Z" transform="translate(-310.084 -261.735)"/></g></g><g transform="translate(0 33.225)"><g transform="translate(46.402 22.861)"><path class="h" d="M303.84,274.719s-2.272-.806-3.19-1.007a43.394,43.394,0,0,0-5.558-.2c-.58.048-6.694,4.316-6.694,4.316l2.25,5.191,1.255-.469s5.123,1.208,7.347,1.45a20.422,20.422,0,0,0,5.993,0,20.233,20.233,0,0,0,3.528-1.788s.1-.677-1.208-.628-2.562.435-3.142.435-2.707-.193-2.707-.193l4.688-.435,3.77-2.533-.387-.85s.87-.532.773-.967a1.387,1.387,0,0,0-1.547-.822c-.822.1-3.432.58-3.432.58a37.534,37.534,0,0,1-5.558-.1,7.125,7.125,0,0,1-2.465-.725l2.61-.048a5.987,5.987,0,0,0,3.141.1C304.468,275.541,303.84,274.719,303.84,274.719Z" transform="translate(-288.397 -273.493)"/></g><g transform="translate(58.498 27.462)"><path class="i" d="M323.747,288.514a1.555,1.555,0,0,1,.377-.04l1.027-.063c.865-.059,2.059-.173,3.364-.39s2.472-.5,3.31-.721l.992-.273a1.565,1.565,0,0,1,.369-.085,1.537,1.537,0,0,1-.348.15c-.228.087-.562.2-.978.328a26.232,26.232,0,0,1-6.7,1.116c-.435.014-.788.015-1.031.007A1.572,1.572,0,0,1,323.747,288.514Z" transform="translate(-323.747 -286.941)"/></g><g transform="translate(1.173 0.424)"><path class="h" d="M156.464,220.682s9.563,31.864,14.927,32.556S203.7,239.889,203.7,239.889l-2.25-5.191-24.917,6.575s-5.364-19.726-6.23-23.014S165.116,206.839,162,208.05,155.252,214.279,156.464,220.682Z" transform="translate(-156.225 -207.928)"/></g><path class="d" d="M154.757,230.094l17.13-4.811s-4.8-22.773-14.73-17.229C150.226,211.925,154.757,230.094,154.757,230.094Z" transform="translate(-153.13 -207.015)"/><path class="e" d="M154.3,229.979l-.043-.171a57.909,57.909,0,0,1-1.4-9.6c-.357-6.741.95-10.99,3.887-12.63a5.748,5.748,0,0,1,5.412-.384c2.684,1.221,5.111,4.58,7.214,9.984a56.218,56.218,0,0,1,2.355,7.743l.033.157Zm5.579-22.947a6.076,6.076,0,0,0-2.971.845c-6.383,3.564-2.793,19.821-2.358,21.677l16.8-4.719a56.4,56.4,0,0,0-2.306-7.538c-1.422-3.654-3.8-8.319-7.035-9.792A5.106,5.106,0,0,0,159.88,207.032Z" transform="translate(-152.798 -206.688)"/></g></g></g></g><g transform="translate(30.398 162.571)"><g transform="translate(159.407)"><g transform="translate(14.119 25.686)"><path class="n" d="M425.972,425.44c-.322-1.278.522-2.555,1.465-3.475A9.661,9.661,0,0,0,430,419c.8-1.979-.247-4.554,1.112-6.2.8-.97,2.225-1.287,2.935-2.323a5.333,5.333,0,0,0,.645-1.855,18.878,18.878,0,0,1,4.745-8.76,16.382,16.382,0,0,1-1.89,8.458,10.774,10.774,0,0,0-1.417,3.209c-.3,1.884.737,3.833.263,5.682-.542,2.115-2.928,3.518-3.054,5.7-.106,1.842,1.491,3.469,1.361,5.31a4.968,4.968,0,0,1-.832,2.181,7.317,7.317,0,0,1-6.714,3.91l-3.887.114Z" transform="translate(-423.27 -399.86)"/></g><g class="f" transform="translate(14.119 25.686)"><path d="M425.972,425.44c-.322-1.278.522-2.555,1.465-3.475A9.661,9.661,0,0,0,430,419c.8-1.979-.247-4.554,1.112-6.2.8-.97,2.225-1.287,2.935-2.323a5.333,5.333,0,0,0,.645-1.855,18.878,18.878,0,0,1,4.745-8.76,16.382,16.382,0,0,1-1.89,8.458,10.774,10.774,0,0,0-1.417,3.209c-.3,1.884.737,3.833.263,5.682-.542,2.115-2.928,3.518-3.054,5.7-.106,1.842,1.491,3.469,1.361,5.31a4.968,4.968,0,0,1-.832,2.181,7.317,7.317,0,0,1-6.714,3.91l-3.887.114Z" transform="translate(-423.27 -399.86)"/></g><g transform="translate(0 12.167)"><path class="e" d="M409.051,421.657a3.1,3.1,0,0,1-1.07-.029,6.486,6.486,0,0,1-1.261-.325,5.343,5.343,0,0,1-1.555-.863,2.176,2.176,0,0,1-.637-.859,4.015,4.015,0,0,1-.177-1.162,11.233,11.233,0,0,0-.083-1.258,3.462,3.462,0,0,0-.467-1.253,9.488,9.488,0,0,1-1.45-2.669,8.8,8.8,0,0,1,.125-3.406,7.228,7.228,0,0,0-.07-3.651c-.41-1.218-1.256-2.32-1.674-3.692a18.636,18.636,0,0,1-.292-4.342,5.759,5.759,0,0,0-.494-2.161c-.311-.69-.743-1.341-1.079-2.067a15.083,15.083,0,0,1-.973-4.755q-.131-1.23-.265-2.485a12.174,12.174,0,0,0-.418-2.488,22.062,22.062,0,0,0-.916-2.41,7.967,7.967,0,0,1-.444-1.259,12.592,12.592,0,0,1-.117-1.338,15.722,15.722,0,0,1,.118-2.69c.111-.9.278-1.784.379-2.683.006-.053.012-.106.018-.155l.021-.179.158.081a6,6,0,0,1,2.082,1.777,9.52,9.52,0,0,1,1.272,2.376,29.194,29.194,0,0,1,1.181,5.1,13.828,13.828,0,0,0,1.57,4.709c.422.695.934,1.329,1.381,2.007a5.5,5.5,0,0,1,.952,2.22c.22,1.646-.693,3.084-.513,4.541a5.037,5.037,0,0,0,.7,2.021c.349.623.761,1.2,1.151,1.782a11.388,11.388,0,0,1,1.033,1.8,5.687,5.687,0,0,1,.466,1.951c.088,1.311-.106,2.553-.016,3.728a8.581,8.581,0,0,0,.941,3.2c.465.959.982,1.826,1.416,2.667.218.42.419.83.582,1.242a6.094,6.094,0,0,1,.334,1.231,7.751,7.751,0,0,1,.016,2.218,5.589,5.589,0,0,1-1.128,2.823,2.728,2.728,0,0,1-.316.339,1.584,1.584,0,0,1-.256.215c-.146.106-.223.154-.223.154a4.872,4.872,0,0,0,.757-.74,5.624,5.624,0,0,0,1.071-2.8,7.732,7.732,0,0,0-.037-2.187,5.973,5.973,0,0,0-.337-1.2c-.163-.4-.366-.81-.586-1.226-.437-.833-.96-1.7-1.435-2.662a8.714,8.714,0,0,1-.974-3.256c-.1-1.2.092-2.446,0-3.726a5.493,5.493,0,0,0-.458-1.885,11.269,11.269,0,0,0-1.021-1.763c-.391-.577-.807-1.157-1.166-1.793a5.256,5.256,0,0,1-.73-2.1c-.178-1.552.729-3,.5-4.529a5.272,5.272,0,0,0-.919-2.124c-.44-.665-.955-1.3-1.389-2.013a14.036,14.036,0,0,1-1.607-4.788,29.069,29.069,0,0,0-1.173-5.054,9.29,9.29,0,0,0-1.239-2.314,5.751,5.751,0,0,0-1.995-1.7l.18-.1-.018.157c-.1.909-.27,1.8-.38,2.684a15.525,15.525,0,0,0-.118,2.648,12.548,12.548,0,0,0,.112,1.3,7.765,7.765,0,0,0,.429,1.214,22.115,22.115,0,0,1,.923,2.437,12.371,12.371,0,0,1,.423,2.529q.132,1.256.261,2.487a14.926,14.926,0,0,0,.945,4.685c.324.705.756,1.359,1.076,2.071a5.978,5.978,0,0,1,.508,2.241,18.667,18.667,0,0,0,.271,4.3c.4,1.324,1.237,2.432,1.658,3.689a7.4,7.4,0,0,1,.062,3.742,8.682,8.682,0,0,0-.145,3.341,9.467,9.467,0,0,0,1.417,2.635,3.6,3.6,0,0,1,.475,1.3,11.2,11.2,0,0,1,.074,1.273,3.936,3.936,0,0,0,.16,1.13,2.076,2.076,0,0,0,.6.822,5.315,5.315,0,0,0,1.517.867,6.643,6.643,0,0,0,1.243.345,4.978,4.978,0,0,0,.79.081C408.958,421.654,409.051,421.657,409.051,421.657Z" transform="translate(-395.719 -373.48)"/><g transform="translate(1.311 2.324)"><path class="e" d="M398.279,378.014a.476.476,0,0,1,.037.117l.084.351c.075.306.164.769.307,1.347s.5,1.23.795,2.035a29.062,29.062,0,0,1,.908,2.762c.291,1.038.547,2.19.814,3.425a14.392,14.392,0,0,0,1.223,3.8c.315.633.67,1.274.951,1.975a9.16,9.16,0,0,1,.547,2.233,45.015,45.015,0,0,0,.811,4.706l2.146,8.993,1.8,7.334,1.193,4.95.312,1.348.075.353a.429.429,0,0,1,.017.122.468.468,0,0,1-.042-.116l-.1-.346-.357-1.338c-.305-1.184-.737-2.864-1.27-4.931l-1.852-7.321-2.167-9a44.536,44.536,0,0,1-.81-4.726,8.979,8.979,0,0,0-.526-2.18c-.271-.683-.621-1.32-.936-1.96a14.491,14.491,0,0,1-1.219-3.861c-.259-1.238-.5-2.387-.782-3.422s-.573-1.96-.869-2.759-.619-1.463-.758-2.059-.2-1.05-.262-1.362l-.06-.356A.469.469,0,0,1,398.279,378.014Z" transform="translate(-398.277 -378.014)"/></g></g><g transform="translate(10.002)"><path class="n" d="M417.88,410.092c-2.53-1.523-3.233-6.107-2.158-8.858s2.942-5.259,3.245-8.2c.232-2.258-.495-4.581.045-6.786.727-2.976,3.649-5.268,3.634-8.332-.009-1.719-.978-3.342-.89-5.059.107-2.106,1.734-3.768,2.745-5.617,1.549-2.832,1.669-6.189,2.211-9.37s1.775-6.585,4.606-8.134c.4,2.706,1.1,4.562.858,8.223-.088,1.315-1.63,3.824-1.854,6.706-.134,1.722-.23,3.447-.345,5.171a16.592,16.592,0,0,1-.841,4.952c-.467,1.2-1.214,2.289-1.564,3.529-.657,2.333.175,4.869-.359,7.233-.452,2-1.85,3.721-2.145,5.753-.415,2.855,1.418,5.835.456,8.554-.478,1.35-1.6,2.43-1.92,3.824-.251,1.082.01,2.231-.218,3.318-.367,1.752-3.72,3.209-5.506,3.09" transform="translate(-415.236 -349.739)"/><g transform="translate(2.643 2.68)"><path class="e" d="M433.116,354.968a.723.723,0,0,1-.012.152c-.015.114-.035.26-.06.444-.06.39-.129.963-.265,1.7s-.535,1.582-.848,2.592c-.33,1.007-.659,2.169-.951,3.471s-.547,2.741-.811,4.291a18.015,18.015,0,0,1-1.329,4.85c-.361.81-.765,1.619-1.07,2.483a11.18,11.18,0,0,0-.551,2.74,55.411,55.411,0,0,1-.778,5.909c-.8,4-1.563,7.812-2.257,11.281-.73,3.455-1.388,6.568-1.941,9.188l-1.33,6.19c-.159.717-.284,1.28-.374,1.68-.043.181-.077.324-.1.436a.687.687,0,0,1-.044.147.661.661,0,0,1,.018-.152c.02-.113.046-.258.079-.441l.328-1.69c.3-1.482.726-3.6,1.253-6.206l1.889-9.2L426.2,383.56a55.963,55.963,0,0,0,.781-5.889,11.407,11.407,0,0,1,.569-2.8c.314-.882.724-1.695,1.084-2.5a17.9,17.9,0,0,0,1.335-4.791c.272-1.547.534-2.991.843-4.295s.647-2.469.991-3.475c.328-1.014.729-1.843.885-2.569s.235-1.306.311-1.691l.084-.44A.7.7,0,0,1,433.116,354.968Z" transform="translate(-420.392 -354.968)"/></g></g></g><g transform="translate(0 37.298)"><g transform="translate(8.723)"><path class="n" d="M102.336,432.227a1.682,1.682,0,0,0,2.511.031,4.747,4.747,0,0,0,1.042-2.191,11.593,11.593,0,0,0,.6-5.521,3.067,3.067,0,0,0-.719-1.492,1.6,1.6,0,0,0-1.522-.49,2.341,2.341,0,0,0-1.312,1.4,13.142,13.142,0,0,0-1.244,5.654,4.56,4.56,0,0,0,.642,2.605" transform="translate(-101.695 -422.518)"/></g><g transform="translate(10.598 13.86)"><path class="n" d="M106.612,450.11a5.657,5.657,0,0,1,3.507-.46,2.913,2.913,0,0,1,1.741.757,1.248,1.248,0,0,1,.035,1.731,1.664,1.664,0,0,1-1.091.288,4.31,4.31,0,0,0-2.7.41c-.42.323-.7.855-1.2,1.017a1.2,1.2,0,0,1-1.321-.572,2.043,2.043,0,0,1-.163-1.507A2.3,2.3,0,0,1,106.612,450.11Z" transform="translate(-105.353 -449.562)"/></g><g transform="translate(0 3.098)"><path class="n" d="M92.258,436.529a3.393,3.393,0,0,0,.5-3.128,6.021,6.021,0,0,0-1.876-2.665,9.953,9.953,0,0,0-3.331-1.922,3.533,3.533,0,0,0-1.492-.239,1.564,1.564,0,0,0-1.243.769,2.337,2.337,0,0,0,.367,2.125,25.227,25.227,0,0,0,2.208,3.292,5.887,5.887,0,0,0,2.412,2.026,2.169,2.169,0,0,0,2.55-.378" transform="translate(-84.673 -428.562)"/></g><g transform="translate(9.442 15.156)"><path class="e" d="M103.112,460.713a2.029,2.029,0,0,0,.055-.424c.027-.309.061-.7.1-1.158a16.7,16.7,0,0,1,.243-1.7,13.058,13.058,0,0,1,.6-2.008,7.372,7.372,0,0,1,1-1.822,3.821,3.821,0,0,1,1.282-1.087,3.612,3.612,0,0,1,1.085-.349.215.215,0,1,0-.008-.068,3.3,3.3,0,0,0-1.133.306,3.809,3.809,0,0,0-1.353,1.1,7.213,7.213,0,0,0-1.042,1.858,12.213,12.213,0,0,0-.592,2.041,14.311,14.311,0,0,0-.209,1.72c-.032.492-.042.89-.046,1.164A2,2,0,0,0,103.112,460.713Z" transform="translate(-103.098 -452.092)"/></g><g transform="translate(9.411 3.749)"><path class="e" d="M103.154,448.971a.831.831,0,0,0,.01-.2c0-.148,0-.334-.007-.562-.006-.488-.013-1.194.005-2.066.027-1.745.153-4.154.418-6.8s.631-5.035.968-6.746c.079-.429.16-.815.236-1.154s.134-.631.193-.868l.127-.548a.865.865,0,0,0,.032-.194.833.833,0,0,0-.067.185l-.158.54c-.07.235-.141.525-.223.863s-.174.723-.261,1.151a63.734,63.734,0,0,0-1.02,6.754c-.265,2.655-.373,5.071-.367,6.82,0,.874.024,1.582.05,2.07.016.228.03.414.04.562A.806.806,0,0,0,103.154,448.971Z" transform="translate(-103.038 -429.833)"/></g><g transform="translate(3.139 5.253)"><path class="e" d="M97.153,445.746a3.694,3.694,0,0,0-.01-.588c-.025-.377-.083-.922-.2-1.59a20.909,20.909,0,0,0-.54-2.313,20.551,20.551,0,0,0-1-2.735,14.616,14.616,0,0,0-2.89-4.406,7.305,7.305,0,0,0-.675-.616c-.1-.086-.2-.172-.289-.239l-.262-.177a3.7,3.7,0,0,0-.5-.312,17.521,17.521,0,0,1,1.635,1.43,15.4,15.4,0,0,1,2.819,4.391,21.9,21.9,0,0,1,1,2.709c.262.849.439,1.632.573,2.29s.2,1.2.249,1.574A3.837,3.837,0,0,0,97.153,445.746Z" transform="translate(-90.798 -432.769)"/></g></g></g><g transform="translate(28.129 56.384)"><g transform="translate(149.998 43.794)"><path class="n" d="M379.45,230.918a4.657,4.657,0,0,0,.262.983,4.866,4.866,0,0,0-1.568-.955,10.488,10.488,0,0,0-2.937-.491l-.091-.005a6.7,6.7,0,0,0,1.978,2.86,4.549,4.549,0,0,0,.575.377q-.308.1-.611.224a23.08,23.08,0,0,0-4.127,2.617,12.338,12.338,0,0,0,5.34.3c.108-.018.216-.039.323-.06a4.669,4.669,0,0,0-.383.8,10.488,10.488,0,0,0-.491,2.936l-.006.091a6.7,6.7,0,0,0,2.859-1.979,4.67,4.67,0,0,0,.715-1.333,4.589,4.589,0,0,0,.255.716,6.2,6.2,0,0,0,1.9,2.253l.008-.077a10.073,10.073,0,0,0,.009-2.554,5.293,5.293,0,0,0-.962-2.231,15.168,15.168,0,0,0-1.056-1.209h0a15.227,15.227,0,0,0,.23-1.589,5.3,5.3,0,0,0-.4-2.4,10.1,10.1,0,0,0-1.4-2.139l-.048-.06A6.207,6.207,0,0,0,379.45,230.918Z" transform="translate(-372.932 -227.995)"/><g transform="translate(3.843 4.965)"><path class="e" d="M388.188,237.69a63.652,63.652,0,0,1-7.756,2.8,63.8,63.8,0,0,1,7.756-2.8Z" transform="translate(-380.431 -237.684)"/></g><g transform="translate(6.886 6.462)"><path class="e" d="M386.981,240.606c.07.025-.006.41-.168.86s-.349.794-.419.769.006-.41.168-.86S386.912,240.581,386.981,240.606Z" transform="translate(-386.368 -240.604)"/></g><g transform="translate(5.632 6.098)"><path class="e" d="M384.988,240.627c-.052.054-.294-.1-.578-.285s-.516-.354-.486-.423.328,0,.634.2S385.039,240.576,384.988,240.627Z" transform="translate(-383.921 -239.894)"/></g></g><g transform="translate(160.193)"><g transform="translate(0 0.082)"><path class="n" d="M395.413,143.653c-.227.644.231,1.028.824,1.254a7.748,7.748,0,0,0-.835.1,3.084,3.084,0,0,0-1.635.666c-.764.775.044,1.631.853,2.027a2.826,2.826,0,0,0-1.783,1.984,1.351,1.351,0,0,0,.705,1.363,2.211,2.211,0,0,0,1.732-.045,3.1,3.1,0,0,0,1.029-.612c0,.9.415,2.006,1.447,1.659a3.013,3.013,0,0,0,1.275-1.122,7.406,7.406,0,0,0,.485-.75,2.183,2.183,0,0,0,.019.467.935.935,0,0,0,.431.7.9.9,0,0,0,1.065-.188,5.677,5.677,0,0,0,1.7-2.725,7.072,7.072,0,0,0,.435-3.4c-.22-1.181-1.585-1.706-2.614-1.977a9.213,9.213,0,0,0-2.987-.334C396.923,142.774,395.663,142.943,395.413,143.653Z" transform="translate(-392.825 -142.7)"/></g><g transform="translate(2.421)"><path class="e" d="M407.408,142.543c.04.061-2.134,1.541-4.856,3.3s-4.961,3.141-5,3.079,2.133-1.541,4.856-3.3S407.368,142.481,407.408,142.543Z" transform="translate(-397.55 -142.541)"/></g><g transform="translate(7.531 2.348)"><path class="e" d="M408.514,147.123a11.853,11.853,0,0,1-.977,3.412,11.9,11.9,0,0,1,.977-3.412Z" transform="translate(-407.521 -147.122)"/></g><g transform="translate(2.879 3.635)"><path class="e" d="M398.443,149.668a7.76,7.76,0,0,1,2.827.471,7.761,7.761,0,0,1-2.827-.471Z" transform="translate(-398.443 -149.634)"/></g><g transform="translate(4.403 4.867)"><path class="e" d="M401.71,152.039c.073.011.08.356.015.769s-.175.738-.248.727-.08-.355-.015-.769S401.637,152.027,401.71,152.039Z" transform="translate(-401.417 -152.038)"/></g><g transform="translate(5.939 2.181)"><path class="e" d="M404.414,146.845c.009-.072.444-.075.958.059s.893.346.866.414-.437-.027-.933-.155S404.4,146.92,404.414,146.845Z" transform="translate(-404.414 -146.796)"/></g></g></g><g transform="translate(2.631 4.409)"><g transform="translate(189.344)"><path class="e" d="M399.954,53.488c-.057-.047,2.2-2.853,5.048-6.267s5.2-6.144,5.254-6.1-2.2,2.853-5.049,6.267S400.01,53.535,399.954,53.488Z" transform="translate(-399.953 -41.124)"/></g><g transform="translate(0 126.76)"><path class="e" d="M30.492,300.829c-.056-.047,2.2-2.853,5.049-6.267s5.2-6.143,5.254-6.1-2.2,2.852-5.049,6.267S30.549,300.877,30.492,300.829Z" transform="translate(-30.491 -288.466)"/></g><g transform="translate(209.014 70.727)"><path class="e" d="M438.335,191.5c-.056-.047,2.2-2.853,5.049-6.267s5.2-6.144,5.254-6.1-2.2,2.853-5.049,6.267S438.392,191.543,438.335,191.5Z" transform="translate(-438.334 -179.132)"/></g><g transform="translate(172.011 184.773)"><path class="e" d="M366.131,414.029c-.057-.047,2.2-2.854,5.049-6.267s5.2-6.144,5.254-6.1-2.2,2.853-5.049,6.267S366.187,414.076,366.131,414.029Z" transform="translate(-366.13 -401.665)"/></g><g transform="translate(159.275 148.927)"><path class="e" d="M341.28,344.083c-.057-.047,2.2-2.853,5.048-6.267s5.2-6.143,5.254-6.1-2.2,2.852-5.049,6.267S341.336,344.13,341.28,344.083Z" transform="translate(-341.279 -331.72)"/></g><g transform="translate(201.072 126.709)"><path class="e" d="M422.837,300.731c-.056-.047,2.2-2.853,5.049-6.267s5.2-6.144,5.254-6.1-2.2,2.853-5.049,6.268S422.893,300.778,422.837,300.731Z" transform="translate(-422.836 -288.367)"/></g><g transform="translate(212.331 30.646)"><path class="e" d="M444.808,113.286c-.057-.047,2.2-2.853,5.049-6.267s5.2-6.143,5.254-6.1-2.2,2.853-5.049,6.267S444.864,113.334,444.808,113.286Z" transform="translate(-444.807 -100.923)"/></g><g transform="translate(52.966 137.026)"><path class="e" d="M133.842,320.863c-.057-.047,2.2-2.854,5.049-6.267s5.2-6.144,5.253-6.1-2.2,2.852-5.049,6.267S133.9,320.91,133.842,320.863Z" transform="translate(-133.841 -308.499)"/></g><g transform="translate(150.377 78.651)"><path class="e" d="M323.919,206.958c-.057-.047,2.2-2.853,5.048-6.267s5.2-6.144,5.254-6.1-2.2,2.853-5.049,6.268S323.975,207,323.919,206.958Z" transform="translate(-323.918 -194.594)"/></g><g transform="translate(35.863 79.524)"><path class="e" d="M100.47,208.661c-.056-.047,2.2-2.854,5.049-6.267s5.2-6.144,5.254-6.1-2.2,2.853-5.049,6.267S100.526,208.708,100.47,208.661Z" transform="translate(-100.469 -196.297)"/></g><g transform="translate(65.743 182.166)"><path class="e" d="M158.775,408.943c-.056-.047,2.2-2.853,5.048-6.267s5.2-6.144,5.254-6.1-2.2,2.853-5.049,6.267S158.832,408.99,158.775,408.943Z" transform="translate(-158.774 -396.579)"/></g><g transform="translate(140.258 12.907)"><path class="e" d="M304.173,78.674c-.056-.047,2.2-2.853,5.049-6.267s5.2-6.144,5.254-6.1-2.2,2.853-5.049,6.267S304.23,78.721,304.173,78.674Z" transform="translate(-304.172 -66.31)"/></g><g transform="translate(42.867 32.744)"><path class="e" d="M114.138,117.38c-.057-.047,2.2-2.853,5.049-6.267s5.2-6.144,5.254-6.1-2.2,2.853-5.049,6.268S114.194,117.427,114.138,117.38Z" transform="translate(-114.137 -105.016)"/></g><g transform="translate(88.574)"><path class="e" d="M203.324,53.488c-.057-.047,2.2-2.853,5.048-6.267s5.2-6.144,5.254-6.1-2.2,2.853-5.048,6.267S203.38,53.535,203.324,53.488Z" transform="translate(-203.323 -41.124)"/></g><g transform="translate(10.798 61.16)"><path class="e" d="M51.562,172.827c-.056-.047,2.2-2.853,5.049-6.266s5.2-6.144,5.254-6.1-2.2,2.853-5.049,6.267S51.618,172.875,51.562,172.827Z" transform="translate(-51.561 -160.464)"/></g><g transform="translate(12.722 12.907)"><path class="e" d="M55.316,78.674c-.056-.047,2.2-2.853,5.049-6.267s5.2-6.144,5.254-6.1-2.2,2.853-5.049,6.267S55.373,78.721,55.316,78.674Z" transform="translate(-55.315 -66.31)"/></g></g></g></svg>