<svg xmlns="http://www.w3.org/2000/svg" width="205.705" height="244.21" viewBox="0 0 205.705 244.21"><defs><style>.a{opacity:0.6;}.b{fill:#ffeddf;}.c{fill:#5ece97;}.d{fill:none;}.e{fill:#f23f52;}.f{fill:#cd3449;}.g{fill:#132646;}.h{fill:#ff8966;}.i{fill:#ff634e;}.j{fill:#869aaa;}.k{fill:#fd7b5b;}</style></defs><g transform="translate(0 -4)"><g transform="translate(0 86.971)"><path class="a" d="M732.537,1617.913c.8,1.612,1.486,3.006,2.189,4.39a58.579,58.579,0,0,1,3.794,8.525,24.218,24.218,0,0,1,.94,9.9,51.85,51.85,0,0,1-1,6.044,18.575,18.575,0,0,1-1.207,3.1c-.133.315-.309.672-.9.452a3.323,3.323,0,0,1,.186-.82,21.222,21.222,0,0,0,1.875-6.921,26.559,26.559,0,0,0-2.6-16.075c-1.415-2.772-2.735-5.594-4.107-8.388-.376-.765-.751-.872-1.458-.453-.266.158-.517.342-.8.532a40.7,40.7,0,0,0,1.672,18.176c.537,1.556,1.088,3.106,1.619,4.664.135.4.443.8.035,1.225-.833-.51-1.5-2.108-3.06-7.318a32.339,32.339,0,0,1-1.38-8.138c-.095-2.705-.021-5.416-.021-8.2-.471-.044-.983-.084-1.494-.14a5.788,5.788,0,0,1-5.18-4.522,22.96,22.96,0,0,1-.815-6.2,89.8,89.8,0,0,1,1.236-15.015,21.99,21.99,0,0,0-.4-9.657,29.863,29.863,0,0,0-1.46-3.716,26.7,26.7,0,0,0-1.567-2.945,15.934,15.934,0,0,1-1.923-11.063c.507-3.431.937-6.875,1.347-10.319a18.848,18.848,0,0,0,.088-3.2,23.6,23.6,0,0,1,2.932-12.313q2.96-5.682,5.919-11.364c.239-.458.533-.886.925-1.532.193.449.379.669.358.865-.281,2.562-.656,5.114-.882,7.68a24.85,24.85,0,0,0,3.189,14.771q.923,1.625,1.8,3.273a26.362,26.362,0,0,1,2.8,15.132c-.316,3.5-.577,7-.7,10.514a31.12,31.12,0,0,0,1.215,8.158c.017.073.115.127.316.336,1.234-1.719,2.49-3.376,3.647-5.1a38.067,38.067,0,0,0,5.51-14.495,31.388,31.388,0,0,1,2.181-7.819c.59-1.241,1.315-2.42,2.017-3.6a4.014,4.014,0,0,1,.872-1,1.319,1.319,0,0,1,2.206.444,4.506,4.506,0,0,1,.46,2.05,44.1,44.1,0,0,1-.669,5.413c-.7,3.532-1.622,7.021-2.276,10.56a94.2,94.2,0,0,0-1.089,13.826c-.2,5.647-.338,11.3-1.582,16.853-.995,4.438-3,8.256-6.771,11a10.826,10.826,0,0,1-5.672,2.112C734.154,1617.636,733.457,1617.779,732.537,1617.913ZM725.691,1533a4.927,4.927,0,0,0-.469.58c-1.294,2.484-2.616,4.955-3.861,7.465a21.514,21.514,0,0,0-2.337,10.569,54.92,54.92,0,0,1-.71,9.169c-.292,2.293-.635,4.58-.9,6.876a12.088,12.088,0,0,0,1.394,7.094c.7,1.342,1.413,2.674,2.122,4.01a21.12,21.12,0,0,1,2.183,12.679c-.459,3.93-.94,7.859-1.281,11.8a32.819,32.819,0,0,0,.376,9.3,6.852,6.852,0,0,0,1.572,3.477,4.9,4.9,0,0,0,4.668,1.492,2.643,2.643,0,0,0-.36-2.625,7.678,7.678,0,0,1-1.069-2.133,19.239,19.239,0,0,1-1.043-5.889,18.714,18.714,0,0,1,4-12.044,3.559,3.559,0,0,0,.787-2.707c-.415-3.441-.606-6.927-1.281-10.315-1.155-5.8-2.576-11.539-3.951-17.289a58.717,58.717,0,0,1-1.9-14.112,80.162,80.162,0,0,1,1.128-12.346C725.021,1536.439,725.349,1534.836,725.691,1533Zm26.039,23.48c-.64,1.75-1.21,3.288-1.764,4.831-2.343,6.529-4.788,13.024-6.982,19.6a138.3,138.3,0,0,1-5.194,13.141,2.4,2.4,0,0,0-.191,1.263,23.946,23.946,0,0,1,.141,6.117,28.193,28.193,0,0,1-5.19,13.827c-.131.179-.357.347-.377.537a1.65,1.65,0,0,0,.128.99c.1.165.536.2.808.167.659-.07,1.307-.263,1.967-.312a9.565,9.565,0,0,0,5.23-2.148,15.238,15.238,0,0,0,4.571-5.658,25.874,25.874,0,0,0,1.909-6.374,111.762,111.762,0,0,0,1.237-16.089,86.94,86.94,0,0,1,2.171-18.384c.695-2.757,1.233-5.555,1.776-8.348A5.116,5.116,0,0,0,751.73,1556.478Zm-25.374-21.5-.1-.031c-.109.511-.256,1.018-.322,1.535-.428,3.349-.97,6.692-1.213,10.055a59.3,59.3,0,0,0,.023,8.127,63.435,63.435,0,0,0,2.174,11.649c1.931,7.491,3.8,14.995,4.507,22.728.1,1.044.169,2.09.28,3.467a26.881,26.881,0,0,1,1.958-2.32,3.543,3.543,0,0,0,.952-3.93,29.286,29.286,0,0,1-1.064-9.108c.175-3.239.488-6.47.76-9.7a24.566,24.566,0,0,0-.836-9.106,33.1,33.1,0,0,0-3.232-7.15,25.261,25.261,0,0,1-3.646-10.5C726.44,1538.795,726.433,1536.883,726.357,1534.976Zm10.516,61.6-.368-.133c-.92,1.764-1.887,3.505-2.75,5.3a25.133,25.133,0,0,0-2.355,7.471,12.361,12.361,0,0,0,.382,5.61A27.664,27.664,0,0,0,736.872,1596.573Zm-8.037,17.772c.621-6.387,1.875-12.433,1.936-18.784C726.091,1600.752,725.987,1609.547,728.835,1614.344Zm1.879-7.691a55.757,55.757,0,0,1,3.944-8.691c.495-.892,1-1.781,1.444-2.7a1.928,1.928,0,0,0,.246-1.124c-.3-1.423-.685-2.827-1.094-4.455-1.03,1.244-1.911,2.343-2.833,3.406a2.911,2.911,0,0,0-.745,1.916q-.136,3.588-.426,7.169C731.131,1603.675,730.9,1605.162,730.715,1606.654Zm6.347-13.478c1.6-2.481,4.7-10.666,4.808-12.394-1.826,2.487-3.72,5.055-5.591,7.64a1.047,1.047,0,0,0-.143.747C736.4,1590.415,736.7,1591.653,737.061,1593.176Zm8.849-23.739c1.277-4.413,3.477-8.494,4.651-12.944C747.477,1560.254,746.6,1564.813,745.911,1569.437ZM730.293,1611l-.157-.03c-.152,1.391-.354,2.779-.431,4.174-.032.584.383.934,1.147.815Z" transform="translate(-716.467 -1526.619)"/><path class="b" d="M769.307,2938.912h25.1c.213,1.225-4.826,44.794-5.377,46.533l-15.012-.2C773.532,2983.968,769.122,2940.284,769.307,2938.912Z" transform="translate(-765.045 -2825.142)"/></g><g transform="translate(38.007 4)"><path class="c" d="M1313.669,569.056q0,53.846,0,107.691a13.691,13.691,0,0,1-10.748,13.762,15.547,15.547,0,0,1-3.377.356q-48.529.028-97.059.009a13.766,13.766,0,0,1-14.2-14.217q-.014-107.692,0-215.384c0-8.246,5.914-14.244,14.156-14.252q48.529-.046,97.059,0c8.335.007,14.173,5.968,14.174,14.343Q1313.675,515.21,1313.669,569.056ZM1224.2,453.434a5.51,5.51,0,0,0-.732-.106c-5.635,0-11.275-.138-16.9.09a13.051,13.051,0,0,0-5.775,1.7c-4.321,2.5-6.308,6.506-6.308,11.474q-.008,102.1,0,204.207c0,.318,0,.636.014.954a12.676,12.676,0,0,0,12.524,12.277q44.44.068,88.88.013a11.735,11.735,0,0,0,7.361-2.461c3.681-2.852,5.239-6.659,5.237-11.279q-.037-75.453-.015-150.906c0-17.54-.088-35.08.044-52.619.052-6.868-5.154-13.809-13.439-13.484-3.811.15-7.633.023-11.45.028-.47,0-.941.038-1.444.06,1.08,4.423-.608,7.463-4.848,8.728a13.919,13.919,0,0,1-3.891.532q-20.243.056-40.487.012a15.636,15.636,0,0,1-2.844-.246C1225.333,461.513,1223.017,458.064,1224.2,453.434Z" transform="translate(-1188.271 -447)"/><path class="d" d="M1295.1,525.155c-1.185,4.63,1.131,8.078,5.925,8.975a15.644,15.644,0,0,0,2.844.246q20.243.023,40.487-.012a13.916,13.916,0,0,0,3.89-.532c4.241-1.265,5.929-4.3,4.848-8.728.5-.022.973-.06,1.444-.06,3.817,0,7.639.122,11.45-.028,8.284-.326,13.49,6.616,13.439,13.484-.132,17.539-.044,35.079-.044,52.619q0,75.453.015,150.906c0,4.621-1.556,8.427-5.237,11.279a11.734,11.734,0,0,1-7.361,2.461q-44.44.016-88.88-.013a12.676,12.676,0,0,1-12.524-12.277c-.012-.318-.014-.636-.014-.954q0-102.1,0-204.207c0-4.968,1.987-8.978,6.308-11.474a13.05,13.05,0,0,1,5.775-1.7c5.625-.227,11.266-.09,16.9-.09A5.5,5.5,0,0,1,1295.1,525.155Z" transform="translate(-1259.172 -518.72)"/><path d="M1579.93,1636.748c9.3,0,18.6-.014,27.9.018a12.4,12.4,0,0,1,3.4.423,4.082,4.082,0,0,1,0,8.021,14.3,14.3,0,0,1-3.8.45q-18.934.029-37.868-.018c-5.935-.006-11.87,0-17.8-.026a16.023,16.023,0,0,1-2.768-.255,5.157,5.157,0,0,1-2.955-1.673,3.676,3.676,0,0,1,0-5.067,5.4,5.4,0,0,1,3.341-1.763,19.816,19.816,0,0,1,2.779-.171q13.885-.018,27.77-.007Z" transform="translate(-1516.29 -1540.842)"/><path class="e" d="M1653.915,1284.216c.654-.708,1.241-1.361,1.847-2a26.294,26.294,0,0,1,8.915-6.349,14.571,14.571,0,0,1,8.573-1.089c4.479.9,7.319,3.74,8.878,7.934a20.645,20.645,0,0,1,.674,11.137,36.157,36.157,0,0,1-9.211,18.1,2.291,2.291,0,0,1-1.827.846c-10.451.028-20.9.094-31.354.128-1.5,0-3.009-.131-4.514-.161a1.988,1.988,0,0,1-1.511-.677,35.584,35.584,0,0,1-9.882-20.589,19.57,19.57,0,0,1,.86-8.788c2.185-6.3,7.726-9.451,14.246-8.11,4.5.926,8.135,3.376,11.373,6.5C1651.968,1282.054,1652.865,1283.1,1653.915,1284.216Z" transform="translate(-1589.218 -1207.656)"/><path class="f" d="M1714.559,1699.773l43.876.517.148.323c-.932,1.04-1.821,2.125-2.825,3.091a2.224,2.224,0,0,1-1.373.271c-6.42.061-12.841.135-19.261.136-5.357,0-10.713-.1-16.07-.125a2.581,2.581,0,0,1-2.179-1c-.8-.993-1.658-1.935-2.492-2.9Z" transform="translate(-1672.002 -1598.853)"/></g><g transform="translate(124.355 65.731)"><path class="c" d="M3019.975,3337.128a1.227,1.227,0,0,1,.743-1.531,4.566,4.566,0,0,0,2.447-3.047,31.08,31.08,0,0,0,1.146-7.889,2.684,2.684,0,0,1,.763-1.917c.98-1.1,1.836-2.3,2.8-3.414,1.139-1.315,1.7-1.441,3.192-.521,1.249.769,2.379,1.729,3.581,2.576.344.243.781.352,1.127.593.6.418,1.169.891,1.823,1.4-.3.487-.5.862-.74,1.217q-3.857,5.752-7.717,11.5a11.132,11.132,0,0,0-.55,1.034Z" transform="translate(-2958.726 -3154.649)"/><path class="c" d="M2548.1,3389.492l.221-1.451c.676-.487,1.191-.9,1.747-1.25a39.8,39.8,0,0,1,3.478-2.073,11.157,11.157,0,0,0,5.333-5.095,7.254,7.254,0,0,1,4.279-3.705c.484-.182.96-.384,1.441-.576a1.611,1.611,0,0,1,1.79.2.984.984,0,0,0,.623.271c.847-.078,1.107.5,1.315,1.119.226.679.38,1.382.619,2.056a6.768,6.768,0,0,0,.992,2.263,5.135,5.135,0,0,1,.56,1.794c-2.55,1.638-5,3.193-7.425,4.778-.789.515-1.527,1.108-2.288,1.667Z" transform="translate(-2524.907 -3207.012)"/><path class="g" d="M2725.476,1513.421c.281-2.533.466-5.082.873-7.595a18.574,18.574,0,0,0-.122-7.238,16.057,16.057,0,0,1-.3-5.111c.076-.828-.006-1.669.056-2.5a6.809,6.809,0,0,1,4.576-5.721,9.176,9.176,0,0,1,6.094.089,32.278,32.278,0,0,1,3.108,1.23,8.359,8.359,0,0,1,4.432,5.37,17.322,17.322,0,0,1,.431,6.757c-.141,1.507-.264,3.018-.327,4.531a5.1,5.1,0,0,0,.25,1.639,20.838,20.838,0,0,0,2.438,5.177q1.314,2.07,2.62,4.146a13.272,13.272,0,0,1,1.963,8.71,9.872,9.872,0,0,1-6.4,8.287c-2.048.868-4.223,1.437-6.343,2.136-.264.087-.537.151-.809.216a5.627,5.627,0,0,1-6.426-2.29c-3.2-4.613-5.65-9.536-5.84-15.31-.028-.836-.105-1.671-.16-2.506Z" transform="translate(-2687.991 -1468.91)"/><path class="h" d="M2906.4,1844.252c1.512,1.057.109,2.128.243,3.246-1.007,0-1.574-.7-2.277-1.085-.725-.4-1.411-.866-2.219-1.369a6.607,6.607,0,0,1-.1,1.044c-.043.165-.233.411-.355.41a.84.84,0,0,1-.578-.29,2.763,2.763,0,0,1-.343-.757,21.124,21.124,0,0,0-3.315-5.637c-1.4-1.78-2.719-3.641-3.94-5.551-2.146-3.358-4.187-6.782-6.281-10.173a9.742,9.742,0,0,0-.831-1.164q-4.395-5.207-8.8-10.4a7.554,7.554,0,0,0-.533-.644,6,6,0,0,1-1.58-2.8,3.5,3.5,0,0,1,4.774-4.2,8.492,8.492,0,0,1,3.587,2.633c2.438,3.641,5.016,7.192,7.361,10.891a51.149,51.149,0,0,1,2.739,5.693,5.531,5.531,0,0,0,.284.656c2.3,3.561,3.936,7.466,5.845,11.23a15.614,15.614,0,0,0,2.96,4.456c.774.736,1.641,1.375,2.476,2.045.279.224.586.413.884.613C2906.9,1843.446,2907.035,1843.821,2906.4,1844.252Z" transform="translate(-2825.756 -1762.947)"/><path class="h" d="M2267.524,1295.59c-1.167-.181-2.242.811-3.439-.156l1.857-1.61a4.884,4.884,0,0,0-1.639-2.3c-1.036-.81-2.112-1.567-3.158-2.363-.361-.275-.685-.6-.989-.867a.654.654,0,0,1,.959-.435,32.206,32.206,0,0,1,8.375,4.02,5.879,5.879,0,0,1,1.109,1.244,56.582,56.582,0,0,1,5.367,8.615q2.473,4.71,4.965,9.411a8.838,8.838,0,0,0,.7,1.109q4.05,5.481,8.113,10.953c.189.256.359.528.556.778a5.575,5.575,0,0,1,1.276,2.54,3.657,3.657,0,0,1-.955,3.72,3.529,3.529,0,0,1-3.71.549,2.326,2.326,0,0,1-.546-.239,9.092,9.092,0,0,1-3.322-2.96c-2.134-3.736-4.4-7.4-6.523-11.138a22.437,22.437,0,0,1-2.341-5.869,2.577,2.577,0,0,0-.235-.676c-2.016-3.547-3.289-7.425-4.946-11.131C2268.514,1297.7,2268,1296.627,2267.524,1295.59Z" transform="translate(-2260.157 -1287.786)"/><path class="h" d="M2707.412,1518.669a5.408,5.408,0,0,1,1.181.016,4.677,4.677,0,0,1,1.526.577,1.189,1.189,0,0,1,.341,1.781,3.484,3.484,0,0,1-1.883,1.576,4.424,4.424,0,0,0-2.925,3.157c-.345,1.373-.9,1.7-2.344,1.585a5.588,5.588,0,0,1-.592-.082c-1.646-.316-1.646-.317-1.748-1.988-.014-.237-.026-.474-.044-.809-.6-.239-1.223-.487-1.845-.729-.445-.173-.907-.307-1.338-.51-1.2-.565-1.4-1.227-.768-2.379.337-.612.337-.612.171-1.687l.606-.117-.608-.94.837-1-.926-1.473a3.441,3.441,0,0,1,.651-.223,3.718,3.718,0,0,0,3-2.268c.476-.919.985-1.82,1.459-2.74.765-1.483,4.411-2.11,5.845-.954a2.632,2.632,0,0,1,1.042,2.394,21.272,21.272,0,0,1-1.349,6.041C2707.622,1518.123,2707.536,1518.342,2707.412,1518.669Z" transform="translate(-2661.458 -1491.058)"/><path class="h" d="M3035.128,3189.727c-.033-.357-.077-.713-.1-1.07a2.963,2.963,0,0,1,2.428-3.332,4.125,4.125,0,0,1,2.813.157,12.77,12.77,0,0,1,2.175,1.235,2.2,2.2,0,0,1,.792,1.132c.75,2.892,1.408,5.808,2.159,8.7a3.418,3.418,0,0,1-2.567,4.2,6.71,6.71,0,0,1-2.711.244,2.032,2.032,0,0,1-1.681-1.35c-1.071-2.875-2.147-5.749-3.2-8.631a7.205,7.205,0,0,1-.223-1.264Z" transform="translate(-2972.598 -3032.306)"/><path class="h" d="M2694.686,3238.72c-.183,2.263-.341,4.6-.571,6.937a3.259,3.259,0,0,1-3.737,3.275,9.387,9.387,0,0,1-2.435-.467,2.021,2.021,0,0,1-1.425-2c-.148-2.978-.4-5.956-.4-8.934a9.044,9.044,0,0,1,.928-3.507,2.691,2.691,0,0,1,2.831-1.389c2.225.112,3.578,1.546,4.672,3.287a1.965,1.965,0,0,1,.133.929C2694.7,3237.447,2694.686,3238.044,2694.686,3238.72Z" transform="translate(-2651.802 -3075.958)"/><path d="M2669.742,2234.7l-13.675,3.857c-.206-.528-.421-.993-.572-1.478-1.676-5.362-3.323-10.733-5.017-16.089-2.139-6.763-4.313-13.514-6.477-20.269a4.8,4.8,0,0,0-.709-1.443,6,6,0,0,0-.148.837c-.051,1.315-.072,2.631-.119,3.946-.242,6.773-.385,13.552-.768,20.318-.289,5.1-.232,10.2-.119,15.3,0,.2.018.4.016.6-.015,1.408-.3,1.672-1.7,1.573q-6.383-.449-12.767-.9c-.194-.014-.386-.056-.63-.093-.048-.294-.109-.558-.132-.825-.606-7.078-.828-14.173-.809-21.271.016-5.98.253-11.96.345-17.941.051-3.269-.085-6.542.022-9.809.214-6.535.5-13.069.826-19.6a40.682,40.682,0,0,1,2.747-12.806,27.174,27.174,0,0,0,.938-3.578c.155-.65.357-1.2,1.087-1.437.217-.069.39-.363.523-.59a10.288,10.288,0,0,1,.539-1.061c.2-.267.6-.659.807-.6.942.248,1.463-.409,2.112-.81a10.161,10.161,0,0,1,8.608-1.117,13.629,13.629,0,0,1,9.088,7.7c1.413,3.165,2.861,6.315,4.232,9.5a16.317,16.317,0,0,1,1.292,6.887c-.1,4.424-.277,8.846-.428,13.269-.084,2.471-.192,4.941-.263,7.412a5.266,5.266,0,0,0,.143,1.536q3.1,11.173,6.241,22.333c1.216,4.293,2.505,8.566,3.748,12.852C2669.07,2232.077,2669.362,2233.271,2669.742,2234.7Zm-42.525,1.882.208,0c.028-.219.071-.438.08-.659.065-1.631.141-3.261.179-4.893.093-3.983.216-7.966.237-11.95.031-5.738-.085-11.477-.01-17.214.052-3.978.326-7.953.489-11.929q.148-3.64.251-7.282a6.093,6.093,0,0,0-.122-.963,1.193,1.193,0,0,0-.271.822c-.036,2.03.054,4.07-.124,6.087q-.648,7.384-.629,14.79c.019,9.8.154,19.6-.279,29.4C2627.169,2234.057,2627.217,2235.323,2627.217,2236.586Zm29.008-.23.255-.058a6.928,6.928,0,0,0-.133-.881c-.312-1.111-.628-2.222-.976-3.322-1.333-4.213-2.725-8.409-4.01-12.636-2.051-6.741-4.033-13.5-6.049-20.255-.1-.343-.245-.674-.369-1.01l-.286.107Zm-16.963-61.721a101.034,101.034,0,0,0,.77,14.1,21.959,21.959,0,0,0,1.746,5.8,6.931,6.931,0,0,0,.406.716,6.518,6.518,0,0,0-.431-1.733,22.52,22.52,0,0,1-1.108-3.635c-.4-2.787-.675-5.6-.884-8.4-.138-1.861-.071-3.737-.1-5.605C2639.649,2175.46,2639.756,2175,2639.262,2174.635Zm-2.9-16.243-.289.031c0,3.1-.016,6.192.011,9.288a15.418,15.418,0,0,0,.239,2.485,6.006,6.006,0,0,0,2.47,3.541c-.49-.684-.942-1.233-1.3-1.838a4.634,4.634,0,0,1-.827-1.818c-.156-2.253-.19-4.515-.217-6.775-.018-1.507.061-3.015.08-4.522C2636.532,2158.655,2636.42,2158.523,2636.361,2158.392Zm3.649-3.059c-.639,0-1.021.419-.975.869a.739.739,0,0,0,.771.732c.428.013.889-.456.761-.855A2.538,2.538,0,0,0,2640.01,2155.333Z" transform="translate(-2596.637 -2079.554)"/><path class="i" d="M2738.157,1698.909l5.792-.27a4.421,4.421,0,0,1-.636.7q-1.993,1.194-4.007,2.35a2.279,2.279,0,0,1-.666.255c-.617.128-1.1-.2-1.014-.8A20.484,20.484,0,0,1,2738.157,1698.909Z" transform="translate(-2699.155 -1665.542)"/><path class="j" d="M2639.541,2610.669c0-1.263-.048-2.528.008-3.789.432-9.8.3-19.6.279-29.4q-.014-7.412.629-14.79c.177-2.017.088-4.057.124-6.087a1.19,1.19,0,0,1,.271-.822,6.071,6.071,0,0,1,.122.963q-.108,3.642-.251,7.282c-.162,3.977-.437,7.951-.489,11.929-.075,5.737.041,11.476.01,17.214-.021,3.984-.144,7.967-.237,11.95-.038,1.631-.114,3.262-.179,4.893-.009.22-.052.439-.08.659Z" transform="translate(-2608.961 -2453.637)"/><path class="j" d="M2867.8,2798.683l-11.57-38.056.286-.107c.124.336.267.667.369,1.01,2.016,6.752,4,13.514,6.049,20.255,1.286,4.228,2.677,8.423,4.011,12.636.348,1.1.664,2.211.976,3.323a6.918,6.918,0,0,1,.133.881Z" transform="translate(-2808.21 -2641.881)"/><path class="j" d="M2789.147,2468.08c.494.367.387.825.394,1.238.033,1.869-.034,3.745.1,5.605.209,2.809.485,5.617.884,8.4a22.515,22.515,0,0,0,1.108,3.635,6.525,6.525,0,0,1,.431,1.733,6.845,6.845,0,0,1-.406-.716,21.948,21.948,0,0,1-1.746-5.8A100.993,100.993,0,0,1,2789.147,2468.08Z" transform="translate(-2746.523 -2372.999)"/><path class="j" d="M2749.92,2266.453c.059.131.17.262.169.392-.02,1.508-.1,3.015-.081,4.522.027,2.26.06,4.523.217,6.775a4.633,4.633,0,0,0,.827,1.818c.357.6.81,1.154,1.3,1.838a6.008,6.008,0,0,1-2.469-3.542,15.416,15.416,0,0,1-.24-2.485c-.027-3.1-.011-6.192-.011-9.288Z" transform="translate(-2710.196 -2187.614)"/><path class="j" d="M2787.39,2228.476a2.541,2.541,0,0,1,.557.745c.128.4-.333.869-.761.856a.739.739,0,0,1-.771-.732C2786.369,2228.9,2786.751,2228.48,2787.39,2228.476Z" transform="translate(-2744.018 -2152.697)"/><path d="M2532.839,1674.148c-.883-.6-1.7-1.156-2.528-1.706-1.261-.84-2.533-1.664-3.79-2.51-1.461-.983-3.07-.754-4.618-.439a2.176,2.176,0,0,0-1.66,2.123,2.339,2.339,0,0,0,1.39,2.442,22.439,22.439,0,0,1,4.4,3.08,5.212,5.212,0,0,1,.363.381c-.981.429-1.883.939-2.121,2.045a2.682,2.682,0,0,0,1.17,2.825,7.948,7.948,0,0,1-3.6.109,58.216,58.216,0,0,1-6.7-1.162,10.313,10.313,0,0,1-7.9-7.544c-.847-3.031-1.632-6.08-2.4-9.133a2.2,2.2,0,0,0-1.023-1.491c-4-2.477-6.107-6.377-7.969-10.6l6.53-4.795c.212.152.477.313.709.513,1.662,1.432,3.3,2.892,4.982,4.3a30.985,30.985,0,0,0,2.683,1.994,3.37,3.37,0,0,0,2.993.271,1.784,1.784,0,0,0,1.326-1.1.8.8,0,0,1,1.021-.576c1.416.228,2.834.445,4.255.638.486.066.858.242.947.749a3.251,3.251,0,0,0,2.017,2.358,50.45,50.45,0,0,0,5.175,2.166c4.17,1.442,4.25,1.446,6.958,4.881q2.036,2.584,4.053,5.183c.143.183.258.386.448.674Z" transform="translate(-2476.86 -1618.775)"/><path class="g" d="M2801.413,1510.9a6.573,6.573,0,0,1-.888-.257,8.074,8.074,0,0,1-4.767-6.279,14.987,14.987,0,0,1-.192-2.491c0-.849.274-1.136,1.073-1.041a18.217,18.217,0,0,1,2.8.56,2.446,2.446,0,0,1,1.739,1.817,18.887,18.887,0,0,1,.445,6.979A5.289,5.289,0,0,1,2801.413,1510.9Z" transform="translate(-2752.434 -1483.654)"/><path d="M2791.949,2231.135c-4.4-.487-6.346-3.717-8.1-7.292-.7.053-1.4.129-2.1.157a27.056,27.056,0,0,1-5.961-.087,10.281,10.281,0,0,0-1.531-.022c-.749-.02-.9-.156-.926-.915-.024-.666-.005-1.333-.005-2l.26,0c.036.8.072,1.6.106,2.351.129.1.2.192.252.181a10.582,10.582,0,0,1,3.138.225,22.913,22.913,0,0,0,5.437-.238v-2.534l.186-.021.346,2.535c.5-.272.5-.272.364-2.589.371.515.371.515.561,2.408,1.448.428,2.752-.3,4.122-.564a7.2,7.2,0,0,1-3.76,1.14C2785.9,2227.411,2787.923,2230.3,2791.949,2231.135Z" transform="translate(-2731.974 -2145.715)"/><path d="M2662.5,2220.534c.229.961-.368,1.912.332,2.8.485-.877-.049-1.948.787-2.948-.093.679-.174,1.1-.2,1.521s-.006.867-.006,1.431h3.291q0,.151.008.3h-4.159a10.827,10.827,0,0,1-4.23,7.027,28.323,28.323,0,0,0,2.415-3.105,29.035,29.035,0,0,0,1.552-3.7l-1.822-.5q.013-.1.025-.2l1.55.143C2662.354,2222.448,2661.833,2221.433,2662.5,2220.534Z" transform="translate(-2626.245 -2145.259)"/><path class="k" d="M2756.83,1606.161a1.385,1.385,0,1,1-1.378-1.363A1.41,1.41,0,0,1,2756.83,1606.161Z" transform="translate(-2714.272 -1579.26)"/><path d="M2785.884,2263.833a72.857,72.857,0,0,1-.05,8.012c0,2.7,0,5.4-.116,8.154a2.8,2.8,0,0,1-.156-.637q-.027-4.719-.03-9.439-.005-3.042,0-6.084Z" transform="translate(-2743.208 -2185.206)"/><path class="i" d="M2705.905,1636.274a2.629,2.629,0,0,1-2.41-.463q.034-.12.068-.241Z" transform="translate(-2667.781 -1607.553)"/><path class="c" d="M2601.83,1773.8a16.332,16.332,0,0,1-.795-1.723c-1.833-5.518-4.075-10.9-5.519-16.548-.375-1.467-.707-2.945-1.026-4.425a19.69,19.69,0,0,1,.013-4.882c.021-.636.12-1.269.161-1.9a1.22,1.22,0,0,1,.756-1.084c1.633-.905,3.229-1.88,4.8-2.894a1.893,1.893,0,0,0,.63-1.067c.3-1.156.516-2.333.779-3.5.069-.3.191-.6.281-.868.548-.079.61.2.534.568-.244,1.17-.506,2.336-.749,3.506-.33,1.6-.265,1.762,1.122,2.594a9.161,9.161,0,0,0,4.928,1.217,16.235,16.235,0,0,0,4.9-.991.957.957,0,0,0,.676-.882c.149-1.025.338-2.044.5-3.066.062-.386.081-.786.605-1.02a1.65,1.65,0,0,1,.189.552,7.09,7.09,0,0,1-.21,1.537c-.723,2.364-.124,4.557.8,6.711a19.5,19.5,0,0,0,3.263,5.124,2.422,2.422,0,0,1,.633,1.364,138.249,138.249,0,0,0,2.687,16.14,20.647,20.647,0,0,1,.438,3.791c.063,1.084-.4,1.575-1.467,1.591-6.219.091-12.438.155-18.657.226A2.11,2.11,0,0,1,2601.83,1773.8Z" transform="translate(-2567.406 -1698.873)"/><path class="g" d="M2776.138,1557.048l-2.271-2.015C2775.05,1554.6,2776.046,1555.529,2776.138,1557.048Z" transform="translate(-2732.484 -1533.406)"/><ellipse cx="0.499" cy="0.36" rx="0.499" ry="0.36" transform="matrix(0.449, -0.894, 0.894, 0.449, 39.938, 24.175)"/></g></g></svg>