<svg xmlns="http://www.w3.org/2000/svg" width="249.385" height="196.787" viewBox="0 0 249.385 196.787"><defs><style>.a{fill:#e6e6e6;}.b{fill:#f0f0f0;}.c{fill:#ebebeb;}.d{fill:#f5f5f5;}.e,.k,.s{fill:none;}.e,.s{stroke:#263238;}.e,.k{stroke-miterlimit:10;}.f,.g,.y{fill:#10ae62;}.g,.l,.n,.v,.y,.z{opacity:0.2;}.g,.l{isolation:isolate;}.h{fill:#263238;}.i,.j,.t,.v,.x{fill:#fff;}.i{opacity:0.7;}.j{opacity:0.5;}.k{stroke:#ffb573;stroke-width:13.277px;}.m{fill:#5ece97;}.o{fill:#ebb376;}.p{fill:#407bff;}.q{fill:#ffb573;}.r{fill:#d58745;}.s{stroke-linecap:round;stroke-linejoin:round;stroke-width:0.962px;}.u{fill:#de5753;}.w{fill:#f23f52;}.x{opacity:0.6;}</style></defs><g transform="translate(20.63 0)"><g transform="translate(3.152 77.786)"><g transform="translate(65.76)"><g transform="translate(10.948 6.28)"><path class="a" d="M212.719,256.176c-.053-.359-1.281-8.829,1.178-11.754a2.666,2.666,0,0,1,2.042-1.006c4.964-.116,5.643,3.871,5.649,3.912l-.585.09c-.023-.143-.612-3.517-5.05-3.41a2.069,2.069,0,0,0-1.6.795c-2.289,2.722-1.059,11.2-1.046,11.285Z" transform="translate(-212.366 -243.414)"/></g><g transform="translate(0.79 8.217)"><path class="a" d="M206.782,256.864l-.592-.018c0-.078.2-7.8-3.61-9.4a4.1,4.1,0,0,0-5.479,1.788l-.529-.266a4.734,4.734,0,0,1,6.238-2.069C206.99,248.652,206.792,256.53,206.782,256.864Z" transform="translate(-196.571 -246.425)"/></g><g transform="translate(2.221 0.586)"><path class="a" d="M207.593,253.237c0-.123-.036-12.343-2.418-15.917a4.911,4.911,0,0,0-6.134-1.745l-.245-.54c.043-.019,4.3-1.9,6.872,1.956,2.481,3.722,2.517,15.736,2.518,16.245Z" transform="translate(-198.796 -234.56)"/></g><path class="a" d="M218.114,242.9s-2.167.8-1.523,2.685,7.5,4.991,7.5,4.991,2.87-2.631.235-6.91S218.173,241.549,218.114,242.9Z" transform="translate(-202.884 -236.322)"/><path class="a" d="M204.1,236.351s1.538-.165,1.415-1.1-5.982-3.349-9.438.552c0,0,2.213,3.8,5.412,3.851S204.1,236.351,204.1,236.351Z" transform="translate(-195.603 -233.648)"/><path class="a" d="M202.256,246.8s1.062-.857-.084-1.276-6.77-.3-6.829,5.271c0,0,6.55,1.088,7.361-1.033S202.256,246.8,202.256,246.8Z" transform="translate(-195.343 -237.833)"/><path class="a" d="M214.588,274.729H204.425l-1.1-11.128h12.357Z" transform="translate(-198.193 -244.338)"/><rect class="a" width="13.442" height="2.456" transform="translate(4.593 18.035)"/></g><g transform="translate(35.224)"><g transform="translate(2.384 6.28)"><path class="a" d="M160.438,256.176c.053-.359,1.28-8.829-1.179-11.754a2.665,2.665,0,0,0-2.042-1.006c-4.964-.116-5.643,3.871-5.649,3.912l.585.09c.023-.143.612-3.517,5.05-3.41a2.068,2.068,0,0,1,1.6.795c2.289,2.722,1.059,11.2,1.046,11.285Z" transform="translate(-151.568 -243.414)"/></g><g transform="translate(11.55 8.217)"><path class="a" d="M165.825,256.864l.592-.018c0-.078-.2-7.8,3.61-9.4a4.1,4.1,0,0,1,5.479,1.788l.529-.266A4.733,4.733,0,0,0,169.8,246.9C165.616,248.652,165.814,256.53,165.825,256.864Z" transform="translate(-165.82 -246.425)"/></g><g transform="translate(10.944 0.586)"><path class="a" d="M165.471,253.237c0-.123.035-12.343,2.418-15.917a4.91,4.91,0,0,1,6.133-1.745l.245-.54c-.043-.019-4.3-1.9-6.872,1.956-2.481,3.722-2.517,15.736-2.517,16.245Z" transform="translate(-164.879 -234.56)"/></g><path class="a" d="M155.184,242.9s2.167.8,1.523,2.685-7.5,4.991-7.5,4.991-2.87-2.631-.234-6.91S155.126,241.549,155.184,242.9Z" transform="translate(-147.861 -236.322)"/><path class="a" d="M168.938,236.351s-1.539-.165-1.415-1.1,5.982-3.349,9.438.552c0,0-2.213,3.8-5.412,3.851S168.938,236.351,168.938,236.351Z" transform="translate(-154.876 -233.648)"/><path class="a" d="M171.782,246.8s-1.062-.857.084-1.276,6.77-.3,6.829,5.271c0,0-6.549,1.088-7.36-1.033S171.782,246.8,171.782,246.8Z" transform="translate(-156.141 -237.833)"/><path class="a" d="M156.829,274.729h10.164l1.1-11.128H155.732Z" transform="translate(-150.67 -244.338)"/><rect class="a" width="13.442" height="2.456" transform="translate(17.961 20.49) rotate(180)"/></g><g transform="translate(4.687)"><g transform="translate(10.948 6.28)"><path class="a" d="M117.754,256.176c-.053-.359-1.281-8.829,1.178-11.754a2.666,2.666,0,0,1,2.042-1.006c4.964-.116,5.643,3.871,5.649,3.912l-.585.09c-.022-.143-.612-3.517-5.05-3.41a2.069,2.069,0,0,0-1.6.795c-2.289,2.722-1.059,11.2-1.046,11.285Z" transform="translate(-117.401 -243.414)"/></g><g transform="translate(0.79 8.217)"><path class="a" d="M111.817,256.864l-.592-.018c0-.078.2-7.8-3.61-9.4a4.1,4.1,0,0,0-5.479,1.788l-.529-.266a4.733,4.733,0,0,1,6.238-2.069C112.025,248.652,111.827,256.53,111.817,256.864Z" transform="translate(-101.606 -246.425)"/></g><g transform="translate(2.221 0.586)"><path class="a" d="M112.628,253.237c0-.123-.036-12.343-2.418-15.917a4.911,4.911,0,0,0-6.134-1.745l-.245-.54c.043-.019,4.3-1.9,6.872,1.956,2.481,3.722,2.517,15.736,2.518,16.245Z" transform="translate(-103.831 -234.56)"/></g><path class="a" d="M123.149,242.9s-2.167.8-1.523,2.685,7.5,4.991,7.5,4.991,2.87-2.631.235-6.91S123.208,241.549,123.149,242.9Z" transform="translate(-107.919 -236.322)"/><path class="a" d="M109.13,236.351s1.538-.165,1.415-1.1-5.982-3.349-9.438.552c0,0,2.213,3.8,5.412,3.851S109.13,236.351,109.13,236.351Z" transform="translate(-100.638 -233.648)"/><path class="a" d="M107.291,246.8s1.062-.857-.084-1.276-6.769-.3-6.829,5.271c0,0,6.55,1.088,7.36-1.033S107.291,246.8,107.291,246.8Z" transform="translate(-100.378 -237.833)"/><path class="a" d="M119.623,274.729H109.46l-1.1-11.128H120.72Z" transform="translate(-103.228 -244.338)"/><rect class="a" width="13.442" height="2.456" transform="translate(4.593 18.035)"/></g><path class="a" d="M96.305,345.743V284.306h84.007v61.438h3.216V280.349H93.089v65.394Z" transform="translate(-93.089 -250.315)"/></g><g transform="translate(17.203 90.856)"><path class="b" d="M118.154,357.829V318.171h84.007v39.659h3.216V314.214H114.938v43.615Z" transform="translate(-114.938 -275.472)"/><g transform="translate(67.557)"><path class="b" d="M228.68,283.577a10.212,10.212,0,0,1,.276-8.388c2.212-4.164,2.853-5.146,1.443-6s-2.057,3.331-2.057,3.331a9.4,9.4,0,0,1-.207-5.892c.982-3.012,1.6-7.919.257-8.446s-.256,6.122-1.419,8.387a19.51,19.51,0,0,1-1.138-4.942c-.161-2.419.091-6.283-.968-7.275s-1.736-.3-.7,5.035a55.845,55.845,0,0,1,1.033,9.681s-2.3-7-3.839-7.209-1.54,2.064-.22,4.032,3.865,5.493,4.282,7.306c0,0-2.522-5.272-4.791-3.656s1.974,4.8,3.866,5.95,3.2,8.363,3.2,8.363Z" transform="translate(-219.985 -253.972)"/><path class="b" d="M229.671,286.235a10.214,10.214,0,0,0-.376-8.384c-2.262-4.131-2.915-5.1-1.515-5.976s2.1,3.3,2.1,3.3a9.407,9.407,0,0,0,.136-5.893c-1.017-3-1.692-7.895-.358-8.441s.329,6.117,1.52,8.365a19.528,19.528,0,0,0,1.078-4.958c.132-2.422-.165-6.282.881-7.288s1.733-.331.757,5.023a55.9,55.9,0,0,0-.916,9.7s2.213-7.038,3.753-7.266,1.565,2.041.268,4.028-3.8,5.549-4.194,7.369c0,0,2.458-5.308,4.746-3.727s-1.916,4.829-3.794,6.007-3.1,8.41-3.1,8.41Z" transform="translate(-222.505 -254.898)"/><g transform="translate(0.288 28.306)"><path class="b" d="M236.006,297.986H220.433l1.26,11.145h13.053Z" transform="translate(-220.433 -297.986)"/></g></g><g transform="translate(39.514)"><path class="b" d="M186.155,283.577a10.212,10.212,0,0,0-.276-8.388c-2.212-4.164-2.853-5.146-1.443-6s2.057,3.331,2.057,3.331a9.4,9.4,0,0,0,.207-5.892c-.981-3.012-1.6-7.919-.257-8.446s.256,6.122,1.419,8.387A19.51,19.51,0,0,0,189,261.63c.161-2.419-.09-6.283.968-7.275s1.737-.3.7,5.035a55.876,55.876,0,0,0-1.032,9.681s2.3-7,3.839-7.209,1.54,2.064.22,4.032-3.865,5.493-4.282,7.306c0,0,2.522-5.272,4.79-3.656s-1.974,4.8-3.865,5.95-3.2,8.363-3.2,8.363Z" transform="translate(-178.989 -253.972)"/><path class="b" d="M185.162,286.235a10.217,10.217,0,0,1,.376-8.384c2.262-4.131,2.915-5.1,1.515-5.976s-2.1,3.3-2.1,3.3a9.4,9.4,0,0,1-.137-5.893c1.018-3,1.692-7.895.358-8.441s-.329,6.117-1.52,8.365a19.56,19.56,0,0,1-1.078-4.958c-.132-2.422.166-6.282-.881-7.288s-1.733-.331-.756,5.023a55.9,55.9,0,0,1,.916,9.7s-2.214-7.038-3.753-7.266-1.565,2.041-.269,4.028,3.8,5.549,4.2,7.369c0,0-2.459-5.308-4.746-3.727s1.916,4.829,3.794,6.007,3.1,8.41,3.1,8.41Z" transform="translate(-176.467 -254.898)"/><g transform="translate(0 28.306)"><path class="b" d="M176.381,297.986h15.574l-1.26,11.145H177.641Z" transform="translate(-176.381 -297.986)"/></g></g><g transform="translate(10.769)"><path class="b" d="M140.377,283.577a10.214,10.214,0,0,1,.276-8.388c2.212-4.164,2.853-5.146,1.443-6s-2.057,3.331-2.057,3.331a9.4,9.4,0,0,1-.208-5.892c.982-3.012,1.6-7.919.257-8.446s-.256,6.122-1.419,8.387a19.51,19.51,0,0,1-1.138-4.942c-.161-2.419.091-6.283-.968-7.275s-1.736-.3-.7,5.035a55.843,55.843,0,0,1,1.033,9.681s-2.3-7-3.839-7.209-1.54,2.064-.22,4.032,3.865,5.493,4.282,7.306c0,0-2.522-5.272-4.791-3.656s1.975,4.8,3.866,5.95,3.2,8.363,3.2,8.363Z" transform="translate(-131.682 -253.972)"/><path class="b" d="M141.369,286.235a10.215,10.215,0,0,0-.377-8.384c-2.262-4.131-2.915-5.1-1.515-5.976s2.1,3.3,2.1,3.3a9.407,9.407,0,0,0,.136-5.893c-1.017-3-1.692-7.895-.358-8.441s.33,6.117,1.52,8.365a19.546,19.546,0,0,0,1.078-4.958c.131-2.422-.166-6.282.88-7.288s1.733-.331.757,5.023a55.9,55.9,0,0,0-.916,9.7s2.213-7.038,3.753-7.266,1.565,2.041.268,4.028-3.8,5.549-4.194,7.369c0,0,2.458-5.308,4.746-3.727s-1.916,4.829-3.794,6.007-3.1,8.41-3.1,8.41Z" transform="translate(-134.202 -254.898)"/><g transform="translate(0.287 28.306)"><path class="b" d="M147.7,297.986H132.13l1.26,11.145h13.053Z" transform="translate(-132.13 -297.986)"/></g></g></g><g transform="translate(81.513 2.326)"><g transform="translate(0.455 42.275)"><path class="c" d="M230.374,182.049l-.241,1.984-.05.419-1.249,10.322h-11.65l-1.266-10.459-.054-.448-.22-1.818Z" transform="translate(-215.644 -182.049)"/></g><g transform="translate(0 26.031)"><g transform="translate(0 8.052)"><path class="c" d="M214.936,169.765a3.214,3.214,0,0,1,2.064,2.08,4.507,4.507,0,0,0,3.936,2.778,2.969,2.969,0,0,1,1.575.549c.158.09.321.187.495.288-.022-.174-.039-.355-.049-.541-.138-.106-.275-.22-.408-.343l-.091-.086c-1.549-1.489-1.594-3.056-3.4-4.466A4.089,4.089,0,0,0,214.936,169.765Z" transform="translate(-214.936 -169.31)"/></g><g transform="translate(7.82 6.738)"><path class="c" d="M234.309,167.48a3.214,3.214,0,0,0-1.749,2.35,4.507,4.507,0,0,1-3.506,3.306,2.967,2.967,0,0,0-1.482.765c-.143.112-.291.23-.449.355,0-.176-.012-.356-.028-.542.122-.125.241-.257.355-.4l.078-.1c1.324-1.693,1.147-3.25,2.737-4.9A4.089,4.089,0,0,1,234.309,167.48Z" transform="translate(-227.096 -167.267)"/></g><g transform="translate(3.804)"><path class="c" d="M225.344,170.162a9.918,9.918,0,0,1-.3,2.914c-.869,3.382-.482.048-.482.048a8.572,8.572,0,0,0,.336-2.607c0-.176-.012-.356-.028-.542a7.983,7.983,0,0,0-.406-1.973c-.918-2.659-2.754-3.479-3.479-6.33s1.787-4.881,1.787-4.881a4.043,4.043,0,0,0,1.354,3.431,5.672,5.672,0,0,1,1.207,5.944c-.423.845-.155,1.9-.03,3.314C225.319,169.7,225.335,169.926,225.344,170.162Z" transform="translate(-220.851 -156.79)"/></g></g><g transform="translate(1.445 16.392)"><path class="c" d="M230.1,168.72a.263.263,0,0,1-.256-.2l-6.069-25.345-6.07,25.345a.264.264,0,1,1-.513-.122l6.326-26.416a.273.273,0,0,1,.513,0l6.326,26.416a.264.264,0,0,1-.2.318A.29.29,0,0,1,230.1,168.72Z" transform="translate(-217.183 -141.801)"/></g><g transform="translate(7.771)"><path class="c" d="M227.284,161.351a.263.263,0,0,1-.264-.263V116.577a.263.263,0,1,1,.527,0v44.511A.263.263,0,0,1,227.284,161.351Z" transform="translate(-227.02 -116.313)"/></g></g><g transform="translate(0 2.326)"><g transform="translate(0 42.275)"><path class="c" d="M102.919,182.049l-.241,1.984-.05.419-1.249,10.322H89.729l-1.266-10.459-.054-.448-.22-1.818Z" transform="translate(-88.189 -182.049)"/></g><g transform="translate(0.178 26.973)"><g transform="translate(6.933 7.164)"><path class="c" d="M106.622,169.394a3.212,3.212,0,0,1-2.56,1.424,4.508,4.508,0,0,0-3.74,3.037,2.965,2.965,0,0,1-.954,1.368c-.129.127.023.222-.122.362.173.026.062.095.244.135.14-.1.286-.2.441-.3l.109-.064c1.853-1.088,3.373-.707,5.219-2.066A4.088,4.088,0,0,0,106.622,169.394Z" transform="translate(-99.246 -169.394)"/></g><g transform="translate(0 8.314)"><path class="c" d="M88.465,171.395a3.212,3.212,0,0,1,1.749,2.35,4.507,4.507,0,0,0,3.506,3.3,2.964,2.964,0,0,1,1.482.766c.143.111.291.23.449.355,0-.176.012-.357.028-.542-.122-.125-.241-.257-.355-.4l-.078-.1c-1.324-1.693-1.147-3.25-2.736-4.9A4.09,4.09,0,0,0,88.465,171.395Z" transform="translate(-88.465 -171.182)"/></g><g transform="translate(6.364)"><path class="c" d="M98.733,171.627a9.918,9.918,0,0,0,.3,2.914c.869,3.382.483.048.483.048a8.576,8.576,0,0,1-.337-2.606c0-.176.012-.357.028-.543a7.98,7.98,0,0,1,.406-1.972c.918-2.659,2.754-3.479,3.479-6.331s-1.787-4.881-1.787-4.881a4.045,4.045,0,0,1-1.354,3.432,5.671,5.671,0,0,0-1.208,5.944c.423.845.155,1.9.03,3.314C98.758,171.163,98.742,171.391,98.733,171.627Z" transform="translate(-98.361 -158.255)"/></g></g><g transform="translate(0.679 16.392)"><path class="c" d="M102.161,168.72a.263.263,0,0,1-.256-.2l-6.07-25.345-6.07,25.345a.264.264,0,1,1-.513-.122l6.326-26.416a.273.273,0,0,1,.513,0l6.326,26.416a.264.264,0,0,1-.2.318A.279.279,0,0,1,102.161,168.72Z" transform="translate(-89.245 -141.801)"/></g><g transform="translate(7.005)"><path class="c" d="M99.346,161.351a.263.263,0,0,1-.264-.263V116.577a.263.263,0,1,1,.527,0v44.511A.263.263,0,0,1,99.346,161.351Z" transform="translate(-99.082 -116.313)"/></g></g><g transform="translate(40.676 2.326)"><g transform="translate(0.194 42.275)"><path class="c" d="M166.469,182.049l-.241,1.984-.05.419-1.249,10.322h-11.65l-1.266-10.459-.054-.448-.22-1.818Z" transform="translate(-151.739 -182.049)"/></g><g transform="translate(0 26.031)"><g transform="translate(7.049 9.675)"><path class="c" d="M170.468,172.289a3.214,3.214,0,0,0-2.064,2.08,4.507,4.507,0,0,1-3.936,2.778,2.962,2.962,0,0,0-1.575.549c-.158.09-.321.187-.495.288.021-.174.039-.355.049-.541.138-.106.275-.22.408-.343l.091-.087c1.549-1.489,1.594-3.056,3.4-4.466A4.091,4.091,0,0,1,170.468,172.289Z" transform="translate(-162.398 -171.834)"/></g><g transform="translate(0 6.575)"><path class="c" d="M151.673,167.014A3.213,3.213,0,0,0,154,168.8a4.506,4.506,0,0,1,3.25,3.556,2.964,2.964,0,0,0,.742,1.493c.109.145.226.295.348.455-.175,0,.013.662-.173.675a5.1,5.1,0,0,0-.761-1.017l-.1-.08c-1.672-1.35-3.232-1.2-4.858-2.813A4.089,4.089,0,0,1,151.673,167.014Z" transform="translate(-151.438 -167.014)"/></g><g transform="translate(6.218)"><path class="c" d="M161.478,170.162a9.919,9.919,0,0,0,.3,2.914c.869,3.382.483.048.483.048a8.573,8.573,0,0,1-.336-2.607q0-.263.027-.542a7.985,7.985,0,0,1,.406-1.973c.918-2.659,2.754-3.479,3.479-6.33s-1.787-4.881-1.787-4.881a4.043,4.043,0,0,1-1.354,3.431,5.672,5.672,0,0,0-1.208,5.944c.423.845.155,1.9.031,3.314C161.5,169.7,161.487,169.926,161.478,170.162Z" transform="translate(-161.106 -156.79)"/></g></g><g transform="translate(0.871 16.392)"><path class="c" d="M165.708,168.72a.263.263,0,0,1-.257-.2l-6.069-25.345-6.07,25.345a.266.266,0,0,1-.318.2.264.264,0,0,1-.195-.318l6.326-26.416a.274.274,0,0,1,.513,0l6.326,26.416a.264.264,0,0,1-.2.318A.284.284,0,0,1,165.708,168.72Z" transform="translate(-152.793 -141.801)"/></g><g transform="translate(7.197)"><path class="c" d="M162.893,161.351a.263.263,0,0,1-.264-.263V116.577a.263.263,0,1,1,.527,0v44.511A.263.263,0,0,1,162.893,161.351Z" transform="translate(-162.629 -116.313)"/></g></g><rect class="c" width="91.561" height="2.298" transform="translate(2.607)"/></g><g transform="translate(0 179.929)"><ellipse class="d" cx="124.692" cy="7.282" rx="124.692" ry="7.282"/></g><g transform="translate(13.834 120.295)"><g transform="translate(0 0)"><g transform="translate(4.409 6.246)"><path class="e" d="M86.435,329.071s4.822-4.021,8.957,0S100.326,358,100.326,358" transform="translate(-85.176 -315.821)"/><path class="e" d="M108.376,359.485s-2.843-29.231,7.86-41.514" transform="translate(-92.885 -312.497)"/><path class="e" d="M103.743,355.17s2.19-33.276-5.838-40.659" transform="translate(-89.27 -311.263)"/><path class="e" d="M108.566,363.272s.187-21.989,6.152-25.407,9.006,7.731,9.006,7.731" transform="translate(-93.075 -319.365)"/><path class="e" d="M97.613,363.828s.973-16.881-3.648-22.914-9.487,2.585-9.487,2.585" transform="translate(-84.478 -319.92)"/><path class="e" d="M106.91,355.628s-2.989-39.479,1.957-46.168" transform="translate(-92.164 -309.46)"/></g><g transform="translate(28.906 25.536)"><path class="f" d="M124.823,341.868s-2.974,1.1-2.089,3.686,10.289,6.849,10.289,6.849,3.939-3.61.322-9.483S124.9,340.016,124.823,341.868Z" transform="translate(-122.57 -339.455)"/><path class="g" d="M124.823,341.868s-2.974,1.1-2.089,3.686,10.289,6.849,10.289,6.849,3.939-3.61.322-9.483S124.9,340.016,124.823,341.868Z" transform="translate(-122.57 -339.455)"/></g><g transform="translate(10.618 21.829)"><path class="f" d="M101.745,334.884s3.167-.132,3.347,2.6-6.861,10.281-6.861,10.281-5.025-1.817-3.945-8.628S100.958,333.2,101.745,334.884Z" transform="translate(-94.133 -333.692)"/><path class="g" d="M101.745,334.884s3.167-.132,3.347,2.6-6.861,10.281-6.861,10.281-5.025-1.817-3.945-8.628S100.958,333.2,101.745,334.884Z" transform="translate(-94.133 -333.692)"/></g><g transform="translate(4.538 6.246)"><path class="f" d="M95.689,313.169s2.112-.226,1.942-1.513-8.209-4.6-12.952.756c0,0,3.037,5.216,7.427,5.285S95.689,313.169,95.689,313.169Z" transform="translate(-84.679 -309.46)"/><path class="g" d="M95.689,313.169s2.112-.226,1.942-1.513-8.209-4.6-12.952.756c0,0,3.037,5.216,7.427,5.285S95.689,313.169,95.689,313.169Z" transform="translate(-84.679 -309.46)"/></g><g transform="translate(16.997)"><path class="f" d="M106.538,306.579s-1.913.925-2.448-.257,4.536-8.243,11.392-6.209c0,0,.181,6.034-3.508,8.414S106.538,306.579,106.538,306.579Z" transform="translate(-104.051 -299.748)"/><path class="g" d="M106.538,306.579s-1.913.925-2.448-.257,4.536-8.243,11.392-6.209c0,0,.181,6.034-3.508,8.414S106.538,306.579,106.538,306.579Z" transform="translate(-104.051 -299.748)"/></g><g transform="translate(0 24.955)"><path class="f" d="M87.107,340.505s1.458-1.176-.115-1.751-9.29-.412-9.37,7.233c0,0,8.988,1.493,10.1-1.418S87.107,340.505,87.107,340.505Z" transform="translate(-77.622 -338.552)"/><path class="g" d="M87.107,340.505s1.458-1.176-.115-1.751-9.29-.412-9.37,7.233c0,0,8.988,1.493,10.1-1.418S87.107,340.505,87.107,340.505Z" transform="translate(-77.622 -338.552)"/></g><g transform="translate(26.826 7.81)"><path class="f" d="M120.323,313.845s-1.457-1.177.115-1.751,9.29-.411,9.371,7.234c0,0-8.988,1.493-10.1-1.419S120.323,313.845,120.323,313.845Z" transform="translate(-119.334 -311.892)"/><path class="g" d="M120.323,313.845s-1.457-1.177.115-1.751,9.29-.411,9.371,7.234c0,0-8.988,1.493-10.1-1.419S120.323,313.845,120.323,313.845Z" transform="translate(-119.334 -311.892)"/></g><g transform="translate(20.373 14.921)"><path class="f" d="M111.99,323.949s-.129-1.43,1.026-.869,5.178,4.9,1.008,9.02c0,0-5.614-4.158-4.6-6.323S111.99,323.949,111.99,323.949Z" transform="translate(-109.3 -322.949)"/><path class="g" d="M111.99,323.949s-.129-1.43,1.026-.869,5.178,4.9,1.008,9.02c0,0-5.614-4.158-4.6-6.323S111.99,323.949,111.99,323.949Z" transform="translate(-109.3 -322.949)"/></g><g transform="translate(1.916 16.668)"><path class="f" d="M86.868,326.957s.871-1.142-.405-1.283-6.993,1.385-5.662,7.093c0,0,6.966-.523,7.265-2.895S86.868,326.957,86.868,326.957Z" transform="translate(-80.602 -325.665)"/><path class="g" d="M86.868,326.957s.871-1.142-.405-1.283-6.993,1.385-5.662,7.093c0,0,6.966-.523,7.265-2.895S86.868,326.957,86.868,326.957Z" transform="translate(-80.602 -325.665)"/></g><path class="h" d="M112.244,396.161h-23.9l-2.578-26.168h29.058Z" transform="translate(-80.528 -324.818)"/><path class="i" d="M112.244,396.161h-23.9l-2.578-26.168h29.058Z" transform="translate(-80.528 -324.818)"/><rect class="h" width="31.61" height="5.774" transform="translate(3.961 42.288)"/><rect class="j" width="31.61" height="5.774" transform="translate(3.961 42.288)"/></g></g><g transform="translate(41.708 54.419)"><path class="k" d="M287.1,277.645s4.929,18.87,8.088,20.971c3.672,2.441,24.033,11.817,24.033,11.817" transform="translate(-180.258 -225.984)"/><path class="h" d="M291.849,283.045l-11.663,3.137-.465-.924-3.675-7.31,4.98-2.795,6.661-3.742C289.54,274.4,291.849,283.045,291.849,283.045Z" transform="translate(-176.312 -223.759)"/><path class="l" d="M279.721,287.334l-3.675-7.31,4.98-2.795C281.48,279.01,282.4,283.973,279.721,287.334Z" transform="translate(-176.312 -225.835)"/><g transform="translate(54.574 33.108)"><path class="h" d="M262.625,263.34a52.042,52.042,0,0,1-34.047,24.317l-22.754-8.739s3.691-3.126,8.414-7.618a154.764,154.764,0,0,0,12.6-13.287,45.483,45.483,0,0,0,6.167-9.209S252.329,248.019,262.625,263.34Z" transform="translate(-205.824 -248.796)"/><path class="m" d="M260.291,283.641s-.762,1.182-2.179,2.935c-3.16,3.9-9.6,10.626-18.217,13.405-12.5,4.021-19.595-2.392-19.595-2.392V288.4c9.786,1.316,19.046-6.794,22.5-10.262.919-.918,1.429-1.512,1.429-1.512l3.456,1.512,9.713,4.241Z" transform="translate(-210.99 -258.729)"/><path class="n" d="M260.174,278.14c-.432,1.513-1.316,3.6-2.812,3.389-1.557-.219-1.972-2.135-2.073-3.389.919-.918,1.429-1.512,1.429-1.512Z" transform="translate(-223.477 -258.729)"/><path class="n" d="M247.816,294.326a49.611,49.611,0,0,0,9.1,3.355c1.338-.992,2.264-1.758,2.264-1.758l-11.03-3.953c-3.989,4.286-8.753,5.948-8.6,7.056s5.825,3.214,9.038,3.1c1.784-.061,4.848-1.966,7.223-3.65C253.633,298.084,249.685,297.02,247.816,294.326Z" transform="translate(-217.86 -264.205)"/><path class="m" d="M253.726,249.05s5.685,4.237,1.589,19.767a1.717,1.717,0,0,0,1.153,2.082h0a1.712,1.712,0,0,0,2.156-1.2c1.084-4.1,3.32-14.581-.4-19.972Z" transform="translate(-222.92 -248.887)"/><path class="n" d="M259.542,279.59a.942.942,0,1,1-.942-.942A.942.942,0,0,1,259.542,279.59Z" transform="translate(-224.323 -259.45)"/><path class="n" d="M280.6,286.833s-.762,1.182-2.179,2.935c-1.765-.678-1.233-2.862-.712-4.2Z" transform="translate(-231.3 -261.922)"/><path class="m" d="M277.81,279.1c1.751-2.514,6.019-9.5,5.2-16.931l1.728,1.629s2.691,7.375-5.349,16.54a1.006,1.006,0,0,1-1.16.251h0A1,1,0,0,1,277.81,279.1Z" transform="translate(-231.451 -253.569)"/><path class="n" d="M280.027,288.694a.735.735,0,1,1-.14-1.168A.85.85,0,0,1,280.027,288.694Z" transform="translate(-231.813 -262.593)"/></g><path class="o" d="M165.258,398.754l25.144-.917-4.572,9.23-25.269-4.615Z" transform="translate(-135.097 -268.879)"/><path class="h" d="M160.836,394.5c.428.493-5.844,5.505-5.844,5.505s-7.02-.393-11.32,1.995-4.254-1.538-.295-5.138l9.794-8.907C155.984,385.394,156.406,389.389,160.836,394.5Z" transform="translate(-127.911 -265.067)"/><g transform="translate(27.281 131.703)"><path class="p" d="M166.926,402.114a.2.2,0,0,1,.083-.008h0a.216.216,0,0,1,.066.019h0a.208.208,0,0,1,.056.039h0a.206.206,0,0,1,.049.071c.039.093.789,1.918.292,2.979a1.237,1.237,0,0,1-.786.677.733.733,0,0,1-.843-.144c-.265-.328-.127-1.025.121-1.72a3.294,3.294,0,0,1-1.461,1.063.857.857,0,0,1-.682-.113.77.77,0,0,1-.431-.762,1.105,1.105,0,0,1,.394-.617A10.045,10.045,0,0,1,166.926,402.114Zm-.452.592c-1.21.424-2.593,1.085-2.663,1.569-.006.042-.025.17.246.349a.444.444,0,0,0,.358.053,1.993,1.993,0,0,0,.817-.506A9.5,9.5,0,0,0,166.473,402.706Zm.618,2.329a3.49,3.49,0,0,0-.142-2.2c-.574,1.132-1,2.363-.776,2.644.07.087.275.041.391.005a.858.858,0,0,0,.332-.182A.841.841,0,0,0,167.091,405.035Z" transform="translate(-163.386 -402.104)"/></g><path class="o" d="M145.8,403.252l25.144-.917-4.572,9.229L141.1,406.95Z" transform="translate(-128.151 -270.484)"/><path class="h" d="M141.375,399c.427.493-5.844,5.505-5.844,5.505s-7.02-.393-11.32,1.995-4.254-1.538-.3-5.138l9.795-8.906C136.523,389.892,136.944,393.888,141.375,399Z" transform="translate(-120.965 -266.673)"/><g transform="translate(9.667 137.655)"><path class="p" d="M139.537,411.369a.2.2,0,0,1,.083-.008h0a.2.2,0,0,1,.066.019h0a.2.2,0,0,1,.055.039h0a.213.213,0,0,1,.048.071c.039.094.79,1.918.292,2.979a1.233,1.233,0,0,1-.786.676.73.73,0,0,1-.842-.144c-.266-.327-.127-1.024.12-1.72a3.3,3.3,0,0,1-1.461,1.064.86.86,0,0,1-.682-.114.77.77,0,0,1-.431-.762,1.109,1.109,0,0,1,.394-.617A10.044,10.044,0,0,1,139.537,411.369Zm-.452.592c-1.21.424-2.593,1.085-2.663,1.569-.006.042-.024.17.246.349a.447.447,0,0,0,.358.053,2,2,0,0,0,.817-.506A9.493,9.493,0,0,0,139.084,411.961Zm.618,2.329a3.49,3.49,0,0,0-.142-2.2c-.574,1.132-1,2.363-.776,2.644.071.087.276.041.392.005a.863.863,0,0,0,.332-.182A.851.851,0,0,0,139.7,414.29Z" transform="translate(-135.997 -411.359)"/></g><path class="m" d="M260.254,359.657c-1.815,7.658-7.443,10.115-13.092,10.5a37.243,37.243,0,0,1-13.755-2.121s-.622,2.61-12.755,3.865c-17.273,1.794-54.266.244-54.266.244l2.937-11.053,36.044-7.341s-26.97-23.5-25.164-43.427c.642-7.148,12.844-19.762,13.068-20.3l30.691,9.452-3.31,5.283S264.128,343.363,260.254,359.657Z" transform="translate(-137.175 -230.401)"/><path class="n" d="M272.494,383.542a37.243,37.243,0,0,1-13.755-2.121s3.192-4.2,2.325-11.451c-.857-7.137-23.054-41.449-23.7-42.447.959.887,31.5,29.243,35.606,43.406C274.533,376.313,273.9,380.463,272.494,383.542Z" transform="translate(-162.508 -243.785)"/><path class="q" d="M278.6,254.333c-.66,1.55.036,2.309.036,2.309a3.412,3.412,0,0,1-5,2.025c-4.583-2.71-3.434-9.2-3.434-9.2,4.141.224,6.705-3.273,7.91-5.5a13.551,13.551,0,0,0,.83-1.8l4.639,7.132a25.379,25.379,0,0,0-2.78,2.188A8.949,8.949,0,0,0,278.6,254.333Z" transform="translate(-174.179 -213.323)"/><path class="l" d="M287.335,249.3a25.382,25.382,0,0,0-2.78,2.188,8.949,8.949,0,0,0-2.2,2.843c-3.646-1.785-.486-10.3-.486-10.3l0-.062a13.554,13.554,0,0,0,.83-1.8Z" transform="translate(-177.937 -213.323)"/><g transform="translate(89.889)"><path class="h" d="M283.415,210.348s4.522-7.73-.673-10.952a10.608,10.608,0,0,0-10.161-.515s-1.16-2.643-5.571-1.064-6.6,5.459-3.766,9.9c0,0-2.507,1.6-2.507,4.181s3.538,6.339.832,6.777c0,0,3.221.415,1.8-3.31a3.2,3.2,0,0,1,1.417,4.457c-1.417,3.157,1.417,3.56,1.417,3.56s-2.577-2.078,0-3.56,5.564-2.9,5.617-6.894c.017-1.3,3.4.957,5.054.567A20.377,20.377,0,0,0,283.415,210.348Z" transform="translate(-260.737 -197.315)"/><path class="q" d="M292.744,220.343c6.975,2.079,8.108,6.482,6.477,13.822-2.038,9.174-5.931,14.963-14.082,10.445C274.071,238.475,281.16,216.891,292.744,220.343Z" transform="translate(-267.471 -205.401)"/><path class="r" d="M302.773,239.347a15.39,15.39,0,0,0,1.168,3.5,2,2,0,0,1-2.074.241Z" transform="translate(-275.416 -212.316)"/><g transform="translate(21.809 23.788)"><path class="h" d="M296.1,235.787c-.158.577-.6.96-.981.855s-.569-.658-.412-1.235.6-.96.981-.855S296.255,235.21,296.1,235.787Z" transform="translate(-294.648 -234.386)"/><path class="h" d="M296,234.454l1.389-.15S296.477,235.19,296,234.454Z" transform="translate(-295.131 -234.304)"/></g><g transform="translate(29.015 25.624)"><path class="h" d="M307.3,238.641c-.158.577-.6.96-.981.855s-.568-.657-.412-1.234.6-.96.981-.855S307.459,238.064,307.3,238.641Z" transform="translate(-305.853 -237.241)"/><path class="h" d="M307.2,237.308l1.389-.15S307.682,238.044,307.2,237.308Z" transform="translate(-306.335 -237.158)"/></g><path class="s" d="M297.171,228.756a3.789,3.789,0,0,0-3.338.192" transform="translate(-272.549 -208.424)"/><path class="s" d="M307.069,230.8a3.4,3.4,0,0,1,2.574,1.466" transform="translate(-277.272 -209.264)"/><path class="h" d="M280.972,228.042s4.969-4.76,5.793-9.331c0,0,15.506-1.529,12.008,12.705,0,0,5.063-12.056-6.846-15.907-11.889-3.845-17.084,13.707-12.449,20.78C279.477,236.289,277.886,231.024,280.972,228.042Z" transform="translate(-266.825 -203.614)"/><g transform="translate(20.774 29.989)"><path class="h" d="M298.714,247.1a22,22,0,0,0-1.814,2.631c-.177-.066-.353-.131-.525-.205-2.37-.947-3.156-2.169-3.309-3.237a3.289,3.289,0,0,1,.183-1.547,3.214,3.214,0,0,1,.4-.8,12.024,12.024,0,0,0,4.264,2.82C298.4,246.987,298.714,247.1,298.714,247.1Z" transform="translate(-293.039 -243.946)"/><path class="t" d="M298.028,246.766l-.554.762c-2.23-.9-3.679-1.828-4.108-2.785a3.214,3.214,0,0,1,.4-.8A12.024,12.024,0,0,0,298.028,246.766Z" transform="translate(-293.155 -243.946)"/><path class="u" d="M296.39,250.829c-2.37-.947-3.156-2.169-3.309-3.237a8.206,8.206,0,0,1,2.423,1.573A3.077,3.077,0,0,1,296.39,250.829Z" transform="translate(-293.054 -245.247)"/></g><path class="m" d="M277.773,230.889c.042.853,4.688-18.81,19.608-12.435l-2.477-3.486C289.8,212.117,276.928,213.791,277.773,230.889Z" transform="translate(-266.803 -203.215)"/><path class="q" d="M281.049,236a3.194,3.194,0,0,0-2.461-3.778c-2.232-.408-4.584,3.722.475,6.391C279.788,239,280.448,238.375,281.049,236Z" transform="translate(-266.201 -209.764)"/></g><g transform="translate(50.943 63.345)"><path class="n" d="M246,314.477a9.792,9.792,0,0,0,3.067-1.541c-.987.168-1.948.279-2.895.356A1.311,1.311,0,0,1,246,314.477Z" transform="translate(-216.53 -301.923)"/><path class="n" d="M214.188,304.495a35.639,35.639,0,0,1-12.04-8.683l-1.97,2.39s3.532,5.206,11.932,8.579A5.762,5.762,0,0,0,214.188,304.495Z" transform="translate(-200.178 -295.812)"/><path class="n" d="M236.361,312.458a31.681,31.681,0,0,1-12.989-2.039,12.1,12.1,0,0,1-2.279,2.143c.823.287,1.684.559,2.592.8a25.318,25.318,0,0,0,11.367.744A2.305,2.305,0,0,0,236.361,312.458Z" transform="translate(-207.643 -301.025)"/></g><g transform="translate(91.79 69.769)"><path class="h" d="M276.465,323.79l-3.8,1.507-6.723-18.819-1.493.891,6.825,18.48-4.612,1.831s2.938,7.517,9.8,10.162C276.465,337.842,280.338,333.23,276.465,323.79Z" transform="translate(-263.964 -306.043)"/><path class="v" d="M276.465,323.79l-3.8,1.507-6.723-18.819-1.493.891,6.825,18.48-4.612,1.831s2.938,7.517,9.8,10.162C276.465,337.842,280.338,333.23,276.465,323.79Z" transform="translate(-263.964 -306.043)"/><path class="p" d="M264.107,306.314l1.215-.469a.645.645,0,0,1,.842.39l4.281,12.279a.645.645,0,0,1-.414.827l-.947.3a.646.646,0,0,1-.8-.388l-4.55-12.112A.646.646,0,0,1,264.107,306.314Z" transform="translate(-263.693 -305.801)"/><path class="w" d="M264.107,306.314l1.215-.469a.645.645,0,0,1,.842.39l4.281,12.279a.645.645,0,0,1-.414.827l-.947.3a.646.646,0,0,1-.8-.388l-4.55-12.112A.646.646,0,0,1,264.107,306.314Z" transform="translate(-263.693 -305.801)"/></g><g transform="translate(133.06 78.345)"><path class="p" d="M337.07,322.344a12.865,12.865,0,0,0-4.114-.788l-2.652-2.418-2.437,7.472,5.428,1.248,4.843,2.832,6.151.185.171-7.052Z" transform="translate(-327.866 -319.137)"/><path class="x" d="M337.07,322.344a12.865,12.865,0,0,0-4.114-.788l-2.652-2.418-2.437,7.472,5.428,1.248,4.843,2.832,6.151.185.171-7.052Z" transform="translate(-327.866 -319.137)"/></g><g transform="translate(128.229 50.589)"><g transform="translate(22.4 24.052)"><path class="f" d="M358.384,315.606a1.846,1.846,0,0,1-1.635,0c-.554-.224-1.294.106-1.518-.628a.953.953,0,0,1,.3-1.036.614.614,0,0,1,.1-.073s.017-.408.572-.482.817.264,1.221.482,1.237.1,1.747.919a1.127,1.127,0,0,1,.157.341C359.4,315.516,358.821,315.359,358.384,315.606Z" transform="translate(-355.184 -313.377)"/><path class="y" d="M359.51,315.13c-1.983-.5-3.663-1.125-3.663-1.125l-.129-.062a.614.614,0,0,1,.1-.073s.017-.408.572-.482.817.264,1.221.482,1.237.1,1.747.919A1.126,1.126,0,0,1,359.51,315.13Z" transform="translate(-355.374 -313.377)"/></g><g transform="translate(20.73 19.58)"><path class="f" d="M358.814,308.934a12.591,12.591,0,0,0-1.849.644c-.7.4-1.12,1.255-1.854,1.1-.717-.145-1.765-.381-1.031-1.748.012-.017.017-.033.028-.05,0,0-.852.213-1.271-.23a1.154,1.154,0,0,1,.37-1.736c.695-.331.728.112,1.394-.3s1.109-.073,2.034,0a15.809,15.809,0,0,0,1.994.151,2.746,2.746,0,0,1,1.641.806.826.826,0,0,1,.1.1C360.584,307.954,359.217,308.739,358.814,308.934Z" transform="translate(-352.588 -306.424)"/><path class="y" d="M360.27,307.579a10.589,10.589,0,0,0-6.19,1.356c.012-.017.017-.033.028-.05,0,0-.852.213-1.271-.23a1.154,1.154,0,0,1,.37-1.736c.695-.331.728.112,1.394-.3s1.109-.073,2.034,0a15.809,15.809,0,0,0,1.994.151A2.746,2.746,0,0,1,360.27,307.579Z" transform="translate(-352.588 -306.424)"/></g><g transform="translate(16.689 3.032)"><path class="f" d="M351.787,285.338c-.331.8.93,1.949-1.563,3.221-1.322.673-1.949-1.271-1.949-1.271l-.157.017c-1.2.146-1.815-.089-1.815-1.378,0-1.339.274-2.37,1.439-2.992a12.262,12.262,0,0,0,2.207-1.675,4.2,4.2,0,0,1,2.47-.554,1.141,1.141,0,0,1,.3.056c.453.168-.286,1.3,0,2.173S352.117,284.537,351.787,285.338Z" transform="translate(-346.303 -280.693)"/><path class="y" d="M352.794,285.345c-.331.8.93,1.949-1.563,3.221-1.322.673-1.949-1.271-1.949-1.271l-.157.017c.56-1.529,2.061-5.1,4.3-6.6a1.141,1.141,0,0,1,.3.056c.453.168-.286,1.3,0,2.173S353.125,284.544,352.794,285.345Z" transform="translate(-347.31 -280.7)"/></g><g transform="translate(20.606 9.813)"><path class="f" d="M359.058,293.577c-.61.588-.666,1.187-1.608,1.663s-1.994,1.641-3.1,1.7-2.017-.169-1.949-.891c.056-.628.974-1.423,1.2-1.614a.367.367,0,0,0,.05-.039c-1.244-.062-1.255-.045-1.255-1.059s2.011-1.664,2.644-1.383,1.843-.886,2.347-.695a6.232,6.232,0,0,0,2,.358C360.112,291.616,359.669,292.989,359.058,293.577Z" transform="translate(-352.394 -291.237)"/><path class="y" d="M358.556,291.549a9.633,9.633,0,0,1-4.951,2.885.367.367,0,0,0,.05-.039c-1.244-.062-1.255-.045-1.255-1.059s2.011-1.664,2.644-1.383,1.843-.886,2.347-.695A5.2,5.2,0,0,0,358.556,291.549Z" transform="translate(-352.396 -291.237)"/></g><g transform="translate(5.817)"><path class="f" d="M338.684,287.336c-.493.717-2.078.627-3.136-.286l-.006-.005a3.082,3.082,0,0,1-.241-.235s.089,2.795-.981,2.689a5.817,5.817,0,0,1-3.249-2.162c-1.053-1.165-.442-1.826-.722-3.092s-.885-1.121-.941-2.992a10.781,10.781,0,0,1,.644-4.5,1.883,1.883,0,0,1,.331-.644c.347-.392.678.213,1.574.241,1.165.039,2.274.678,3.6,2.011s1.882,4.1,3.126,4.761S339.216,286.557,338.684,287.336Z" transform="translate(-329.398 -275.978)"/><path class="y" d="M339.23,287.336c-.493.717-2.078.627-3.136-.286l-.006-.005a46.5,46.5,0,0,0-5.159-10.935c.347-.392.678.213,1.574.241,1.165.039,2.274.678,3.6,2.011s1.882,4.1,3.126,4.761S339.763,286.557,339.23,287.336Z" transform="translate(-329.944 -275.978)"/></g><g transform="translate(0 12.152)"><path class="f" d="M330.449,300.185c-.611.627-1.776.151-2.605,0s-4.044-.347-4.817-.9c-.695-.5-2.616-1.383-2.672-2.028a.3.3,0,0,1,.067-.219A9.907,9.907,0,0,1,325,294.909c1.423-.112,2.016,0,3.955,1,1.7.874,1.3,1.983.79,2.039a.351.351,0,0,1-.213-.034S331.059,299.563,330.449,300.185Z" transform="translate(-320.353 -294.874)"/><path class="y" d="M329.743,297.945c-5.355-2.056-8.212-1.277-9.388-.684a.3.3,0,0,1,.067-.219A9.907,9.907,0,0,1,325,294.909c1.423-.112,2.016,0,3.955,1C330.656,296.779,330.253,297.889,329.743,297.945Z" transform="translate(-320.353 -294.874)"/></g><g transform="translate(4.645 5.276)"><path class="h" d="M336.277,295.568a42.412,42.412,0,0,0-1.494-5.829,44.917,44.917,0,0,0-2.259-5.556,44.774,44.774,0,0,1,1.992,5.638,41.952,41.952,0,0,1,1.208,5.836c.019.131.031.263.048.394-.48-.334-.968-.653-1.47-.95a23.484,23.484,0,0,0-2.13-1.111,13.809,13.809,0,0,0-4.6-1.268,13.684,13.684,0,0,1,4.488,1.492,22.95,22.95,0,0,1,3.789,2.487,43.694,43.694,0,0,1,.278,4.883,34.2,34.2,0,0,1-.453,5.867l1.1.2a34.936,34.936,0,0,0,.191-6.085A43.077,43.077,0,0,0,336.277,295.568Z" transform="translate(-327.576 -284.182)"/><path class="h" d="M349.445,302.262a12.6,12.6,0,0,1,2.107-1.2,15.692,15.692,0,0,1,1.61-.648c.549-.189,1.116-.317,1.677-.48-.569.116-1.15.2-1.716.345a16.028,16.028,0,0,0-1.678.523,14.678,14.678,0,0,0-3.155,1.6,14.211,14.211,0,0,0-2.706,2.332,13.551,13.551,0,0,0-1.462,1.932,37.321,37.321,0,0,1,.086-4.322,47.327,47.327,0,0,1,.827-5.9c.2-.907.411-1.813.644-2.714,1.459-.376,2.9-.8,4.315-1.3.73-.258,1.452-.541,2.157-.859a7.561,7.561,0,0,0,1.974-1.2,7.529,7.529,0,0,1-2.017,1.1c-.715.283-1.444.529-2.181.75-1.358.4-2.736.743-4.12,1.036.235-.868.491-1.732.787-2.583.289-.957.677-1.878,1.022-2.816.365-.931.788-1.837,1.18-2.759-.434.9-.9,1.789-1.309,2.7-.39.922-.821,1.83-1.157,2.776a50.508,50.508,0,0,0-1.841,5.739,48.028,48.028,0,0,0-1.117,5.942,33.78,33.78,0,0,0-.248,6.1l1.113-.129c-.008-.073-.01-.149-.017-.222l.352.134a11.452,11.452,0,0,1,1.657-2.871,13.507,13.507,0,0,1,2.391-2.419c.161-.123.328-.242.494-.361a11.851,11.851,0,0,0,2.223,1.42,7.575,7.575,0,0,0,2.727.781,7.462,7.462,0,0,1-2.631-.963A11.544,11.544,0,0,1,349.445,302.262Z" transform="translate(-333.107 -284.51)"/></g><g class="z" transform="translate(4.645 5.276)"><path class="t" d="M336.277,295.568a42.412,42.412,0,0,0-1.494-5.829,44.917,44.917,0,0,0-2.259-5.556,44.774,44.774,0,0,1,1.992,5.638,41.952,41.952,0,0,1,1.208,5.836c.019.131.031.263.048.394-.48-.334-.968-.653-1.47-.95a23.484,23.484,0,0,0-2.13-1.111,13.809,13.809,0,0,0-4.6-1.268,13.684,13.684,0,0,1,4.488,1.492,22.95,22.95,0,0,1,3.789,2.487,43.694,43.694,0,0,1,.278,4.883,34.2,34.2,0,0,1-.453,5.867l1.1.2a34.936,34.936,0,0,0,.191-6.085A43.077,43.077,0,0,0,336.277,295.568Z" transform="translate(-327.576 -284.182)"/><path class="t" d="M349.445,302.262a12.6,12.6,0,0,1,2.107-1.2,15.692,15.692,0,0,1,1.61-.648c.549-.189,1.116-.317,1.677-.48-.569.116-1.15.2-1.716.345a16.028,16.028,0,0,0-1.678.523,14.678,14.678,0,0,0-3.155,1.6,14.211,14.211,0,0,0-2.706,2.332,13.551,13.551,0,0,0-1.462,1.932,37.321,37.321,0,0,1,.086-4.322,47.327,47.327,0,0,1,.827-5.9c.2-.907.411-1.813.644-2.714,1.459-.376,2.9-.8,4.315-1.3.73-.258,1.452-.541,2.157-.859a7.561,7.561,0,0,0,1.974-1.2,7.529,7.529,0,0,1-2.017,1.1c-.715.283-1.444.529-2.181.75-1.358.4-2.736.743-4.12,1.036.235-.868.491-1.732.787-2.583.289-.957.677-1.878,1.022-2.816.365-.931.788-1.837,1.18-2.759-.434.9-.9,1.789-1.309,2.7-.39.922-.821,1.83-1.157,2.776a50.508,50.508,0,0,0-1.841,5.739,48.028,48.028,0,0,0-1.117,5.942,33.78,33.78,0,0,0-.248,6.1l1.113-.129c-.008-.073-.01-.149-.017-.222l.352.134a11.452,11.452,0,0,1,1.657-2.871,13.507,13.507,0,0,1,2.391-2.419c.161-.123.328-.242.494-.361a11.851,11.851,0,0,0,2.223,1.42,7.575,7.575,0,0,0,2.727.781,7.462,7.462,0,0,1-2.631-.963A11.544,11.544,0,0,1,349.445,302.262Z" transform="translate(-333.107 -284.51)"/></g><path class="h" d="M332.479,322.1c.184-1.372,2.009-2.588,1.9-3.474a1.2,1.2,0,0,1,.639-1.051c.221-.158.9-.65,1.149-.594a.944.944,0,0,0,.332.064c.244-.035.346-.363.582-.434.053-.016.109-.017.162-.03a.4.4,0,0,0,.288-.294c.021-.093.01-.2.069-.275a.654.654,0,0,1,.17-.115,1.149,1.149,0,0,0,.275-.34c.075-.107.4-.359.554-.325a.228.228,0,0,1,.11.08,1.137,1.137,0,0,1,.361.629c.011.135-.023.287.057.4.127.174.441.107.562.285.057.084.05.195.089.288.093.218.415.288.466.52.075.345.068.376.425.227.214-.089.394-.246.605-.34a.786.786,0,0,1,1.128.422c.619,1.108.176,1.617.841,2.415s1.235,1.208,1.227,1.945a11.15,11.15,0,0,1-1.005,3.728c-.332.221-.776-.066-1.884.632s-.512,1.362-1.807,1.362a8.924,8.924,0,0,0-1.96,0c-.341.125-.221,1.362-1.551,0S332.132,324.691,332.479,322.1Z" transform="translate(-324.67 -289.988)"/><path class="h" d="M347.771,330.549a2.044,2.044,0,0,1-.154,1.716c-.121.245-.28.468-.39.673a.907.907,0,0,0-.088.65,1.4,1.4,0,0,0,.1.338,1.325,1.325,0,0,1,.155.387,1.128,1.128,0,0,0,.048.362c.02.056.051.112.073.19a.279.279,0,0,1-.053.244c-.107.12-.194.166-.247.284a1.7,1.7,0,0,0-.131.352,4.424,4.424,0,0,0-.122.76,4.472,4.472,0,0,1,.053-.774,1.866,1.866,0,0,1,.1-.383,1.258,1.258,0,0,1,.227-.32c.062-.082,0-.149-.066-.285a1.258,1.258,0,0,1-.094-.393,1.19,1.19,0,0,0-.165-.313,1.65,1.65,0,0,1-.156-.389,1.237,1.237,0,0,1,.043-.858c.113-.26.238-.471.324-.7a2.1,2.1,0,0,0,.158-.677,1.246,1.246,0,0,0-.113-.6Z" transform="translate(-329.795 -295.454)"/><path class="h" d="M343.053,332.758a2.408,2.408,0,0,0,.161,1.439,1.754,1.754,0,0,1,.234.4.7.7,0,0,1-.093.52.693.693,0,0,0-.109.313,1.5,1.5,0,0,0,.048.364,15.655,15.655,0,0,1,.129,1.63c.027.262.126.514.169.789a.807.807,0,0,1-.215.76.774.774,0,0,0,.146-.747c-.062-.256-.185-.5-.239-.778a15.751,15.751,0,0,0-.262-1.583,1.777,1.777,0,0,1-.092-.432,1.022,1.022,0,0,1,.1-.46c.113-.275.06-.241-.168-.533a2.822,2.822,0,0,1-.374-1.7Z" transform="translate(-328.255 -296.233)"/><path class="h" d="M339.022,331.84l-.162,1.268a.349.349,0,0,0,.028.211c.035.078.1.167.153.29a.482.482,0,0,1-.018.464.907.907,0,0,1-.289.247.325.325,0,0,0-.177.414,3.767,3.767,0,0,1,.2.619,4.791,4.791,0,0,0-.02.639.7.7,0,0,0,.374.478.734.734,0,0,1-.441-.46,4.262,4.262,0,0,1-.051-.64,4.319,4.319,0,0,0-.259-.577.56.56,0,0,1,.212-.7.65.65,0,0,0,.183-.182c.019-.048.014-.079-.026-.15l-.177-.26a.765.765,0,0,1-.109-.408l.023-1.3Z" transform="translate(-326.762 -295.9)"/><path class="h" d="M335.61,330.646c-.04-.025-.148.019-.233.153a.933.933,0,0,0-.13.473,1.428,1.428,0,0,0,.076.533,1.771,1.771,0,0,1,.169.646l0,.144-.127,0a.624.624,0,0,0-.536.785,5.422,5.422,0,0,1,.248.588,2.16,2.16,0,0,1,.1.638,2.124,2.124,0,0,0-.162-.614,6.037,6.037,0,0,0-.315-.562.835.835,0,0,1,.644-1.12l-.131.143a1.6,1.6,0,0,0-.211-.511,1.828,1.828,0,0,1-.171-.662,1.4,1.4,0,0,1,.121-.715.936.936,0,0,1,.257-.328.672.672,0,0,1,.477-.146Z" transform="translate(-325.449 -295.289)"/><path class="h" d="M333.048,327.8c.048,0-.021-.033-.1.03a.493.493,0,0,0-.156.3,2.487,2.487,0,0,1-.156.5.345.345,0,0,0,0,.346,1.336,1.336,0,0,0,.118.192.323.323,0,0,1-.076.55.962.962,0,0,0-.169.154.54.54,0,0,0-.147.414.385.385,0,0,0,.291.336.419.419,0,0,1-.36-.321.643.643,0,0,1,.1-.511c.081-.147.282-.284.268-.343.011-.026-.178-.184-.269-.329a.674.674,0,0,1-.092-.6,2.132,2.132,0,0,0,.075-.461.945.945,0,0,1,.235-.584.709.709,0,0,1,.325-.194.54.54,0,0,1,.466.087Z" transform="translate(-324.605 -294.281)"/><path class="h" d="M349.555,328.313a.313.313,0,0,1,.108-.217.309.309,0,0,1,.221-.072.362.362,0,0,1,.176.062.436.436,0,0,1,.154.183l.085.191c.055.129.114.248.172.4a.828.828,0,0,1,.039.53,1.214,1.214,0,0,1-.25.4.7.7,0,0,0-.17.682.645.645,0,0,1,.053.433,1.131,1.131,0,0,1-.217.364,1.1,1.1,0,0,0,.149-.378.548.548,0,0,0-.114-.364.913.913,0,0,1,.067-.893c.165-.268.19-.4.061-.605-.059-.1-.143-.219-.218-.336l-.116-.174c-.039-.059.014.031.022.026a.128.128,0,0,0,.079.026.236.236,0,0,0,.172-.058.247.247,0,0,0,.088-.17Z" transform="translate(-330.775 -294.553)"/></g><path class="l" d="M237.65,266.124s-.566,12.374-18.743,10.29a154.764,154.764,0,0,0,12.6-13.287A11.364,11.364,0,0,1,237.65,266.124Z" transform="translate(-155.919 -220.802)"/><path class="k" d="M236.062,260.824s-16.212,15.4-13.869,19.91c3.407,6.555,20.893,12.625,20.893,12.625" transform="translate(-157.01 -219.981)"/><path class="h" d="M241.61,248.582c-6.221-1.624-16.905,10.007-16.905,10.007l10.212,7.7S250.523,250.909,241.61,248.582Z" transform="translate(-157.989 -215.556)"/><g transform="translate(80.663 68.677)"><path class="p" d="M259.854,307.677l-5.521-.994h0L249.4,304.1l-3,7.263,3.587-.114a12.872,12.872,0,0,0,3.639,2.075l6.577,3.679,4.454-5.472Z" transform="translate(-246.392 -304.103)"/><path class="x" d="M259.854,307.677l-5.521-.994h0L249.4,304.1l-3,7.263,3.587-.114a12.872,12.872,0,0,0,3.639,2.075l6.577,3.679,4.454-5.472Z" transform="translate(-246.392 -304.103)"/></g></g><g transform="translate(201.186 157.361)"><g transform="translate(0 0)"><path class="p" d="M390.435,359.964v8.788h-.88s-.528-4.813-2.641-6.515S390.435,359.964,390.435,359.964Z" transform="translate(-375.187 -358.304)"/><path class="w" d="M390.435,359.964v8.788h-.88s-.528-4.813-2.641-6.515S390.435,359.964,390.435,359.964Z" transform="translate(-375.187 -358.304)"/><path class="p" d="M368.947,396.109c.417-5.517,3.336-12.811,5.182-17.192a12.789,12.789,0,0,0,1.006-4.968h4.594v.044a12.77,12.77,0,0,0,.989,4.927c1.843,4.41,4.771,11.758,5.2,17.188a1.356,1.356,0,0,1-1.349,1.465H370.3A1.356,1.356,0,0,1,368.947,396.109Z" transform="translate(-368.943 -363.295)"/><path class="i" d="M368.947,396.109c.417-5.517,3.336-12.811,5.182-17.192a12.789,12.789,0,0,0,1.006-4.968h4.594v.044a12.77,12.77,0,0,0,.989,4.927c1.843,4.41,4.771,11.758,5.2,17.188a1.356,1.356,0,0,1-1.349,1.465H370.3A1.356,1.356,0,0,1,368.947,396.109Z" transform="translate(-368.943 -363.295)"/><rect class="w" width="4.931" height="4.931" transform="translate(10.954 11.08) rotate(180)"/><path class="w" d="M378,364.133l-2.877-4.05v-2.7H388.8v1.66s-6.688,1.98-7.393,5.09H378" transform="translate(-371.15 -357.383)"/></g></g><g transform="translate(162.638 162.353)"><g transform="translate(0 0)"><path class="h" d="M352.985,366.43H310.731l4.931,33.608h32.392Z" transform="translate(-309.62 -365.604)"/><path class="i" d="M352.985,366.428l-2.659,18.127-.046.316-.6,4.054-.093.632-.316,2.162-.186,1.265-.2,1.358-.237,1.609-.126.841-.232,1.609-.242,1.637H315.662l-.242-1.637-.232-1.609-.126-.841-.237-1.609-.2-1.358-.186-1.265-.316-2.162-.093-.632-.6-4.054-.046-.316-2.659-18.127Z" transform="translate(-309.619 -365.604)"/><rect class="h" width="44.476" height="4.129"/><rect class="j" width="44.476" height="4.129"/><g class="z" transform="translate(3.769 18.951)"><path d="M351,413.642l-.232,1.609H317.894l-.232-1.609Z" transform="translate(-315.863 -401.405)"/><path d="M351.162,409.832l-.237,1.609h-33.59l-.237-1.609Z" transform="translate(-315.661 -400.045)"/><path d="M351.334,405.755l-.186,1.265H316.684l-.186-1.265Z" transform="translate(-315.447 -398.59)"/><path d="M351.516,401.41l-.093.632H315.955l-.093-.632Z" transform="translate(-315.22 -397.04)"/><path d="M351.8,394.614l-.046.316H314.911l-.046-.316Z" transform="translate(-314.864 -394.614)"/></g></g></g></svg>