<svg xmlns="http://www.w3.org/2000/svg" width="180.507" height="243.883" viewBox="0 0 180.507 243.883"><defs><style>.a{fill:#5ece97;}.b,.i,.v{fill:none;}.c,.q,.s{fill:#fff;}.c{opacity:0.4;}.d{fill:#dedede;opacity:0.7;}.d,.g,.q,.r,.u{isolation:isolate;}.e{fill:#ff8966;}.f{fill:#263238;}.g,.n,.s,.t{opacity:0.2;}.h{fill:#e4897b;}.i{stroke:#263238;stroke-linecap:round;stroke-linejoin:round;stroke-width:0.707px;}.j{fill:#de5753;}.k,.r{opacity:0.1;}.l,.t{fill:#2e353a;}.m{fill:#407bff;}.o,.q{opacity:0.3;}.p{fill:#f23f52;}.v{stroke:#2e353a;stroke-miterlimit:10;}</style></defs><g transform="translate(0)"><path class="a" d="M1313.669,569.056q0,53.846,0,107.691a13.691,13.691,0,0,1-10.748,13.762,15.547,15.547,0,0,1-3.377.356q-48.529.028-97.059.009a13.766,13.766,0,0,1-14.2-14.217q-.014-107.692,0-215.384c0-8.246,5.914-14.244,14.156-14.252q48.529-.046,97.059,0c8.335.007,14.173,5.968,14.174,14.343Q1313.675,515.21,1313.669,569.056ZM1224.2,453.434a5.51,5.51,0,0,0-.732-.106c-5.635,0-11.275-.138-16.9.09a13.051,13.051,0,0,0-5.775,1.7c-4.321,2.5-6.308,6.506-6.308,11.474q-.008,102.1,0,204.207c0,.318,0,.636.014.954a12.676,12.676,0,0,0,12.524,12.277q44.44.068,88.88.013a11.735,11.735,0,0,0,7.361-2.461c3.681-2.852,5.239-6.659,5.237-11.279q-.037-75.453-.015-150.906c0-17.54-.088-35.08.044-52.619.052-6.868-5.154-13.809-13.439-13.484-3.811.15-7.633.023-11.45.028-.47,0-.941.038-1.444.06,1.08,4.423-.608,7.463-4.848,8.728a13.919,13.919,0,0,1-3.891.532q-20.243.056-40.487.012a15.636,15.636,0,0,1-2.844-.246C1225.333,461.513,1223.017,458.064,1224.2,453.434Z" transform="translate(-1188.271 -447)"/><path class="b" d="M1295.1,525.155c-1.185,4.63,1.131,8.078,5.925,8.975a15.644,15.644,0,0,0,2.844.246q20.243.023,40.487-.012a13.916,13.916,0,0,0,3.89-.532c4.241-1.265,5.929-4.3,4.848-8.728.5-.022.973-.06,1.444-.06,3.817,0,7.639.122,11.45-.028,8.284-.326,13.49,6.616,13.439,13.484-.132,17.539-.044,35.079-.044,52.619q0,75.453.015,150.906c0,4.621-1.556,8.427-5.237,11.279a11.734,11.734,0,0,1-7.361,2.461q-44.44.016-88.88-.013a12.676,12.676,0,0,1-12.524-12.277c-.012-.318-.014-.636-.014-.954q0-102.1,0-204.207c0-4.968,1.987-8.978,6.308-11.474a13.05,13.05,0,0,1,5.775-1.7c5.625-.227,11.266-.09,16.9-.09A5.5,5.5,0,0,1,1295.1,525.155Z" transform="translate(-1259.172 -518.72)"/><g transform="translate(26.574 26.941)"><g transform="translate(0 28.23)"><path class="c" d="M184.249,265.621c-2.175-1.946-4.717.693-4.717.693s-2.543-2.639-4.717-.693c-3.1,2.775,1.408,7.745,4.717,8.741C182.841,273.366,187.351,268.4,184.249,265.621Z" transform="translate(-143.858 -171.589)"/><g transform="translate(2.352 107.877)"><path d="M192.452,286.975H138.18a6.186,6.186,0,1,0,0,12.372h54.272a6.186,6.186,0,1,0,0-12.372Z" transform="translate(-131.994 -286.975)"/><g transform="translate(15.422 2.89)"><path class="a" d="M155.369,297.983v-6.558h2.363a3.508,3.508,0,0,1,1.4.259,2.822,2.822,0,0,1,1.607,1.741,3.935,3.935,0,0,1,.2,1.27,3.882,3.882,0,0,1-.224,1.354,2.841,2.841,0,0,1-1.658,1.7,3.548,3.548,0,0,1-1.323.236Zm4.295-3.288a2.806,2.806,0,0,0-.128-.868,1.95,1.95,0,0,0-.375-.684,1.677,1.677,0,0,0-.61-.443,2.032,2.032,0,0,0-.819-.157h-1.1v4.323h1.1a1.968,1.968,0,0,0,.829-.166,1.7,1.7,0,0,0,.6-.457,2.049,2.049,0,0,0,.371-.688A2.778,2.778,0,0,0,159.664,294.695Z" transform="translate(-155.369 -291.379)"/><path class="a" d="M167.88,298.005a2.93,2.93,0,0,1-1.3-.282,3.169,3.169,0,0,1-1-.748,3.485,3.485,0,0,1-.875-2.295,3.325,3.325,0,0,1,.243-1.257,3.478,3.478,0,0,1,.668-1.062,3.194,3.194,0,0,1,1.013-.734,2.974,2.974,0,0,1,1.273-.273,2.834,2.834,0,0,1,1.287.291,3.232,3.232,0,0,1,.994.762,3.52,3.52,0,0,1,.641,1.071,3.39,3.39,0,0,1,.23,1.219,3.348,3.348,0,0,1-.238,1.252,3.428,3.428,0,0,1-.66,1.053,3.172,3.172,0,0,1-1.007.73A2.975,2.975,0,0,1,167.88,298.005Zm-1.886-3.324a2.656,2.656,0,0,0,.128.822,2.208,2.208,0,0,0,.371.7,1.828,1.828,0,0,0,.6.49,1.824,1.824,0,0,0,1.612,0,1.841,1.841,0,0,0,.6-.5,2.249,2.249,0,0,0,.366-.707,2.639,2.639,0,0,0,.124-.8,2.6,2.6,0,0,0-.133-.823,2.284,2.284,0,0,0-.376-.7,1.785,1.785,0,0,0-.6-.484,1.839,1.839,0,0,0-1.608.009,1.83,1.83,0,0,0-.6.5,2.246,2.246,0,0,0-.362.7A2.637,2.637,0,0,0,165.994,294.681Z" transform="translate(-158.548 -291.355)"/><path class="a" d="M177.066,293.78v4.2H175.8v-6.558h.98l3.388,4.3v-4.294h1.264v6.548h-1.026Z" transform="translate(-162.322 -291.379)"/><path class="a" d="M187.919,291.425h1.117l2.473,6.558h-1.3l-.6-1.634h-2.272l-.6,1.634h-1.3Zm1.456,4.027-.9-2.577-.934,2.577Z" transform="translate(-165.599 -291.379)"/><path class="a" d="M199.331,292.543h-2.079v5.44H196v-5.44h-2.08v-1.118h5.413Z" transform="translate(-168.485 -291.379)"/><path class="a" d="M207.859,296.865v1.118h-4.515v-6.558h4.433v1.118h-3.169v1.58h2.739v1.034h-2.739v1.709Z" transform="translate(-171.693 -291.379)"/></g></g><g transform="translate(0 13.222)"><circle class="d" cx="36.59" cy="36.59" r="36.59"/></g><g transform="translate(14.521)"><path class="e" d="M200.7,163.934s7.476,11.054,11.67,11.5,20.608-13.673,20.608-13.673l2.789,2.407s-15.617,17.179-22.135,18.157-18.909-11.914-18.909-11.914Z" transform="translate(-165.506 -136.495)"/><path class="a" d="M200.537,165.922s2.634-2.588,6.267,1.9,5.119,5.413,5.119,5.413l-9.258,9.017S197.256,168.322,200.537,165.922Z" transform="translate(-167.125 -137.657)"/><g transform="translate(65.526 19.801)"><path class="e" d="M250.4,157.927s.324-4.151,1.292-4.419.619,2.8.619,2.8,5.082-3.1,6.1-2.82.852,2.285.671,2.82c-1.554,4.591-7.095,6.533-7.095,6.533l-2.236-2.107Z" transform="translate(-249.758 -153.475)"/></g><path class="f" d="M189.873,148.407s5.1,8.5,3.532,13.82-9.6.547-9.6.547l.1-10.541Z" transform="translate(-161.79 -131.95)"/><path class="f" d="M169.553,126.209s-7.539,3.821-4.579,17.258c4.963,22.531,12.285,13.19,12.285,13.19s-.323-8.882-3.33-13.19S171.569,133,171.569,133Z" transform="translate(-155.149 -124.397)"/><g transform="translate(6.204 26.978)"><path class="a" d="M189.913,198.709,167.3,200.661a80.312,80.312,0,0,0-2.4-16.6c-.541-2.165-1.219-4.583-2.089-7.378-.466-1.493-.98-3.1-1.556-4.822-.431-1.308-.9-2.7-1.411-4.165a67.217,67.217,0,0,1,9.384-2.268,72.037,72.037,0,0,1,10.152-1.068c4.4-.034,9.454.459,9.454.459s.719.172,1.171,4.837C190.413,174.028,190.818,182.783,189.913,198.709Z" transform="translate(-159.842 -164.354)"/><path class="g" d="M170.823,213.07c3.621-1.407,15.561-7.268,15.561-7.268l-15.864,3.575C170.64,210.587,170.736,211.8,170.823,213.07Z" transform="translate(-163.476 -178.457)"/></g><path class="h" d="M182.888,165.628c-5.572-.713-7.247-3.094-7.247-3.094,3.536-3.336.6-9.116.6-9.116l6.707,1.252a19.719,19.719,0,0,0-.262,2.824c-.051,4.071,1.79,4.111,1.79,4.111C185.651,163.81,182.888,165.628,182.888,165.628Z" transform="translate(-159.013 -133.655)"/><path class="g" d="M183.255,154.67a19.722,19.722,0,0,0-.262,2.824,7.463,7.463,0,0,1-6.445-4.076Z" transform="translate(-159.322 -133.655)"/><path class="e" d="M178.074,126.844c5.83-.319,7.148,2.478,7.9,8.463.945,7.48-.4,13.149-7.774,11.944-8.1-1.322-10.363-14.138-5.5-19.036C173.86,127.052,176.216,126.946,178.074,126.844Z" transform="translate(-157.149 -124.605)"/><path class="e" d="M188.441,140.828a12.328,12.328,0,0,0,1.829,2.326,1.606,1.606,0,0,1-1.5.744Z" transform="translate(-163.368 -129.371)"/><path class="f" d="M182.662,139.514c.336-.11.569-.574.569-.574l-1.009.49c.007.005.013.005.02.01a.835.835,0,0,0-.4.868c.037.478.326.846.645.821s.548-.433.51-.911A.99.99,0,0,0,182.662,139.514Z" transform="translate(-161.123 -128.729)"/><path class="f" d="M191.249,138.722c.336-.11.569-.574.569-.574l-1.008.49c.007.005.013,0,.02.01a.835.835,0,0,0-.4.868c.038.478.327.846.645.821s.547-.433.509-.911A.991.991,0,0,0,191.249,138.722Z" transform="translate(-164.044 -128.459)"/><path class="i" d="M181.8,135.731a3.041,3.041,0,0,0-2.481,1.019" transform="translate(-160.265 -127.635)"/><path class="i" d="M188.455,135.2a2.723,2.723,0,0,1,2.371-.156" transform="translate(-163.373 -127.341)"/><path class="e" d="M167.81,166.847s6.543,5.309,12.634,5.223,8.232-6.935,8.232-6.935A34.714,34.714,0,0,0,167.81,166.847Z" transform="translate(-156.349 -137.35)"/><path class="e" d="M152.271,188.267s-2.056,12.143-1.813,15.6,5.471,3.565,8.41,3.214c3.388-.4,21.033-7.382,21.033-7.382l-.813-3.489s-13.82,3.722-19.691,4.4a1.815,1.815,0,0,1-2-2.078l1.37-9.009Z" transform="translate(-150.438 -145.512)"/><path class="a" d="M156.652,169.393s3.6-.8,4.307,4.932a20.974,20.974,0,0,1-1.347,10.249l-9.145-1.65S152.6,169.692,156.652,169.393Z" transform="translate(-150.448 -139.077)"/><path class="e" d="M197.951,194.949a1.163,1.163,0,0,0-.751-.152c-1.081.282-4.373,3.532-4.565,3.969l.848,3.08s1.731.923,2.563.649,5.089-3.4,5.095-4.143a.561.561,0,0,0-.024-.127c.148-.111.277-.206.364-.261C202.224,197.5,199.569,195.512,197.951,194.949Z" transform="translate(-164.795 -147.728)"/><path class="f" d="M177.325,126.885s.744,7.316-5.353,7.575-1-6.548-1-6.548Z" transform="translate(-156.746 -124.627)"/><path class="f" d="M175.661,123.469c-10.02.316-9.19,14.978-3.774,19.063,0,0-2.628-3.544-1.105-6.632,0,0,1.948-4.777,1.333-8.453a16.046,16.046,0,0,1,4.876-1.261c1.127,1.37,3.939,5.539,7.668,5.456a13.255,13.255,0,0,1,.489,1.983S185.7,123.152,175.661,123.469Z" transform="translate(-156.39 -123.462)"/><path class="f" d="M188.8,149.606h0a4.09,4.09,0,0,1-3.7.061.141.141,0,0,1-.051-.189.134.134,0,0,1,.18-.055l.009.005a3.84,3.84,0,0,0,3.435-.073.132.132,0,0,1,.181.049l.007.013a.134.134,0,0,1-.049.182Z" transform="translate(-162.209 -132.266)"/><path class="e" d="M171.608,142.954a2.562,2.562,0,0,0-2.881-2.186c-1.8.3-2.454,4.053,2.089,4.7C171.467,145.559,171.8,144.909,171.608,142.954Z" transform="translate(-156.197 -129.339)"/></g><path class="f" d="M192.977,230.245c-.3-3-.773-7.076-1.382-10.281l.06-3.538-22.612,1.953-.2,3.288c-.53.976-2.836,5.81-3.882,17.64a36.633,36.633,0,0,0,29.011-1.756Z" transform="translate(-140.858 -155.093)"/></g><g transform="translate(76.018 20.681)"><path class="h" d="M284.012,220.818l-11.5,2.918a4.405,4.405,0,0,0-2.979-.609c-1.626.3-5.7,3.637-5.545,4.121s5.075,2.752,5.78,2.568c2.533-.662,5.143-3.609,5.143-3.609l10.282-2.115Z" transform="translate(-250.57 -149.039)"/><g transform="translate(45.734 5.078)"><path class="h" d="M332.323,151.374c-2.338,2.488-8.526,2.275-8.526,2.275s-2.039.176-2.549-1.555c2.239-.554,2.582-2.163,2.929-3.553a6.624,6.624,0,0,0,.025-2.61,13.763,13.763,0,0,0-.305-1.432l7.183-6.253C330.374,142.055,329.643,148.866,332.323,151.374Z" transform="translate(-315.788 -126.022)"/><path class="g" d="M331.111,143.9a6.49,6.49,0,0,1-5.424,6.564,6.623,6.623,0,0,0,.025-2.61Z" transform="translate(-317.298 -127.945)"/><path class="h" d="M327.6,136.691a6.487,6.487,0,0,1-7.227,3.093A7.223,7.223,0,0,1,316,136.761a7.353,7.353,0,0,1-.4-.657c-2.206-4.207-3.4-11.776.978-14.995a7.034,7.034,0,0,1,11.125,4.435C328.675,130.59,329.482,133.511,327.6,136.691Z" transform="translate(-313.193 -119.717)"/><path class="f" d="M323.117,133.729c.13.4-.026.786-.3.854s-.562-.211-.667-.614.032-.788.3-.854S323.01,133.32,323.117,133.729Z" transform="translate(-316.084 -124.272)"/><path class="f" d="M316.368,135.153c.13.395-.032.788-.295.854s-.563-.21-.668-.614.032-.788.3-.854S316.27,134.768,316.368,135.153Z" transform="translate(-313.788 -124.757)"/><path class="j" d="M318.83,135.656a14.037,14.037,0,0,1-.928,3.87,2.967,2.967,0,0,0,2.207-.495Z" transform="translate(-314.649 -125.14)"/><path class="f" d="M324.447,130.257a.256.256,0,0,1-.254-.034,1.978,1.978,0,0,0-1.726-.411.244.244,0,0,1-.154-.464h0a2.463,2.463,0,0,1,2.182.49.244.244,0,0,1,.048.342l0,0A.388.388,0,0,1,324.447,130.257Z" transform="translate(-316.093 -122.967)"/><path class="f" d="M322.6,142.724h0a3.845,3.845,0,0,0,2.914-1.9.132.132,0,0,0-.06-.174.125.125,0,0,0-.17.051l0,.009a3.608,3.608,0,0,1-2.714,1.75.125.125,0,0,0-.116.134l0,.014a.125.125,0,0,0,.134.116Z" transform="translate(-316.197 -126.835)"/><path class="f" d="M313.308,132.633a.235.235,0,0,1-.138.046.245.245,0,0,1-.194-.286v-.005a2.434,2.434,0,0,1,1.376-1.772.244.244,0,0,1,.316.139h0a.252.252,0,0,1-.139.317h0a1.979,1.979,0,0,0-1.068,1.42A.249.249,0,0,1,313.308,132.633Z" transform="translate(-312.971 -123.419)"/><path class="h" d="M337.359,132.469a4.887,4.887,0,0,1-2.109,3.084c-1.442.928-2.666-.241-2.692-1.866-.009-1.444.71-3.711,2.367-3.969A2.182,2.182,0,0,1,337.359,132.469Z" transform="translate(-319.636 -123.109)"/></g><path class="a" d="M292.031,163.962a19.727,19.727,0,0,0-5.294,8.56c-1.242,3.951-2.4,13.282-2.97,18.34A4.573,4.573,0,0,1,280,194.856l-13.9,2.419,1.111,7.064,17.6-1.69a8.8,8.8,0,0,0,7.8-7.053c1.075-5.443,2.514-13.334,3.166-19.583C296.894,165.38,295.738,162.861,292.031,163.962Z" transform="translate(-251.291 -129.613)"/><path class="k" d="M292.031,163.962a19.727,19.727,0,0,0-5.294,8.56c-1.242,3.951-2.4,13.282-2.97,18.34A4.573,4.573,0,0,1,280,194.856l-13.9,2.419,1.111,7.064,17.6-1.69a8.8,8.8,0,0,0,7.8-7.053c1.075-5.443,2.514-13.334,3.166-19.583C296.894,165.38,295.738,162.861,292.031,163.962Z" transform="translate(-251.291 -129.613)"/><path class="h" d="M287.913,395.663l-5.226-1.286,2.976-11.2,5.226,1.286Z" transform="translate(-256.933 -204.282)"/><path class="l" d="M277.3,397.365l5.926,2.14a.455.455,0,0,1,.295.485l-.607,4.691a.765.765,0,0,1-.863.652.782.782,0,0,1-.164-.042c-1.906-.724-3.26-1.346-5.667-2.215-1.483-.536-6.014-2-8.061-2.736s-1.584-2.859-.68-2.743c4.056.539,7.3.426,8.889-.22A1.256,1.256,0,0,1,277.3,397.365Z" transform="translate(-251.498 -209.081)"/><path class="m" d="M279.362,397.024a1.55,1.55,0,0,1-.848-.587.725.725,0,0,1-.018-.708.37.37,0,0,1,.315-.251c.641-.084,1.867,1.453,2,1.628a.113.113,0,0,1,.016.132.125.125,0,0,1-.123.068A6.218,6.218,0,0,1,279.362,397.024ZM279,395.75a.291.291,0,0,0-.16-.022c-.031-.011-.084.018-.123.11a.507.507,0,0,0,0,.472,2.519,2.519,0,0,0,1.706.714A5.036,5.036,0,0,0,279,395.75Z" transform="translate(-255.479 -208.466)"/><path class="m" d="M281.406,396.915l-.055-.02c-.4-.455-.991-1.88-.705-2.359a.4.4,0,0,1,.482-.17.66.66,0,0,1,.437.326,3.7,3.7,0,0,1-.008,2.178.133.133,0,0,1-.094.086A.115.115,0,0,1,281.406,396.915Zm-.265-2.333-.056-.02c-.149-.054-.193.028-.21.057-.177.294.15,1.331.517,1.891a2.91,2.91,0,0,0-.026-1.735A.425.425,0,0,0,281.14,394.581Z" transform="translate(-256.213 -208.081)"/><path class="g" d="M291.635,384.465l-5.226-1.286-1.531,5.777,5.226,1.286Z" transform="translate(-257.678 -204.282)"/><path class="h" d="M339.7,396.076l-5.345.635L333.2,385.181l5.344-.635Z" transform="translate(-274.121 -204.748)"/><path class="l" d="M329.121,400.346l6.3-.082a.456.456,0,0,1,.447.35l1.082,4.6a.766.766,0,0,1-.579.915.757.757,0,0,1-.168.018c-2.039-.007-3.524-.113-6.084-.079-1.577.02-6.331.247-8.508.275s-2.489-2.119-1.6-2.328c3.987-.923,6.979-2.169,8.244-3.333A1.25,1.25,0,0,1,329.121,400.346Z" transform="translate(-269.475 -210.096)"/><path class="m" d="M330.822,401.125a1.549,1.549,0,0,1-1-.251.727.727,0,0,1-.266-.656.369.369,0,0,1,.207-.346c.57-.3,2.259.7,2.445.819a.112.112,0,0,1,.061.118.125.125,0,0,1-.091.106A6.178,6.178,0,0,1,330.822,401.125Zm-.785-1.065a.292.292,0,0,0-.158.035c-.033,0-.072.047-.077.146a.509.509,0,0,0,.171.44,2.519,2.519,0,0,0,1.848.068A5.041,5.041,0,0,0,330.036,400.06Z" transform="translate(-272.878 -209.943)"/><path class="m" d="M332.681,400.312h-.059c-.538-.283-1.589-1.411-1.49-1.96a.4.4,0,0,1,.392-.328.658.658,0,0,1,.523.151c.606.48.751,1.97.759,2.043a.132.132,0,0,1-.058.113A.11.11,0,0,1,332.681,400.312Zm-1.069-2.091h-.059c-.158,0-.171.094-.177.128-.061.337.61,1.193,1.149,1.588a2.908,2.908,0,0,0-.634-1.615A.424.424,0,0,0,331.612,398.221Z" transform="translate(-273.414 -209.331)"/><path class="g" d="M338.547,384.547l-5.344.635.6,5.947,5.345-.635Z" transform="translate(-274.121 -204.748)"/><path d="M298.211,240.9s-13.435,65.76-13.906,90.98l8.957,4.007s7.295-28.524,9.663-44.548c0,0,6.284-12.728,7.974-23.1,0,0-.352,45.5,4.362,69.542l8.406-.647s8.48-85.395,6.95-99.065Z" transform="translate(-257.484 -154.91)"/><path class="g" d="M322.225,258.655s-1,15.631.424,21.371c.424-1.612.782-3.224,1.036-4.781Z" transform="translate(-270.271 -161.913)"/><path class="a" d="M329.193,389.577l11.534-1.716-.353-3.194-12,1.575Z" transform="translate(-272.479 -204.789)"/><path class="a" d="M282,382.253l11.144,3.435,1.062-3.033-11.5-3.762Z" transform="translate(-256.7 -202.824)"/><path class="a" d="M303.428,162.168s1.425-2.817,13.945-3.545,18.129,1.125,18.129,1.125-1.135,26.512.319,51.233c0,0-20.945,7.458-32.406,2.828C303.415,213.81,294.823,181.791,303.428,162.168Z" transform="translate(-262.688 -127.819)"/><path class="n" d="M329.637,158.466c-1.384.018-2.878.068-4.488.162-.966.056-1.858.126-2.7.2.01.019,1.067,2.025,2.7,2.026A5.39,5.39,0,0,0,329.637,158.466Z" transform="translate(-270.463 -127.823)"/><path class="o" d="M343.675,210.677l-19.061,9.638s12.015.37,19.2-3.526C343.757,214.727,343.71,212.684,343.675,210.677Z" transform="translate(-271.199 -145.588)"/><path class="k" d="M326.172,169.963l6.776,30.14L331.44,204Z" transform="translate(-271.729 -131.735)"/><g transform="translate(0 38.228)"><rect class="p" width="36.042" height="34.447" transform="translate(18.825 5.512) rotate(-8.797)"/><rect class="p" width="27.932" height="34.447" transform="matrix(0.988, -0.153, 0.153, 0.988, 0, 8.425)"/><rect class="q" width="27.932" height="34.447" transform="matrix(0.988, -0.153, 0.153, 0.988, 0, 8.425)"/><rect class="q" width="7.902" height="9.274" transform="matrix(0.988, -0.153, 0.153, 0.988, 9.897, 6.894)"/><rect class="r" width="7.902" height="9.274" transform="translate(39.04 2.384) rotate(-8.797)"/><rect class="s" width="8.636" height="5.257" transform="matrix(0.988, -0.153, 0.153, 0.988, 21.51, 32.714)"/><path class="t" d="M307.407,224.284l-.877-1.159-2.832.6a4.036,4.036,0,0,0-.171,1.492l3.923-.607Z" transform="translate(-264.021 -188.052)"/></g><path class="h" d="M323.871,214.578l-11.525,2.81a4.4,4.4,0,0,0-2.973-.637c-1.628.288-5.738,3.583-5.583,4.069s3.973,3.474,4.667,3.253,5.141-3.357,5.141-3.357l10.982-.918Z" transform="translate(-264.112 -146.916)"/><path class="a" d="M342.64,160.355s-4.846,1.288-4.155,10.271c.3,3.907.453,8.079.53,11.545a12.231,12.231,0,0,1-6.793,11.228l-9.461,3.868,1.222,5.922s13.743-1.255,18.58-5.125,6.521-12.118,5.734-18.957C347.2,169.607,347.567,159.969,342.64,160.355Z" transform="translate(-270.569 -128.462)"/><path class="k" d="M342.64,160.355s-4.846,1.288-4.155,10.271c.3,3.907.453,8.079.53,11.545a12.231,12.231,0,0,1-6.793,11.228l-9.461,3.868,1.222,5.922s13.743-1.255,18.58-5.125,6.521-12.118,5.734-18.957C347.2,169.607,347.567,159.969,342.64,160.355Z" transform="translate(-270.569 -128.462)"/><path class="m" d="M322.781,214.009l.8,8.258-2.225.214-1.177-7.73Z" transform="translate(-269.691 -146.722)"/><path class="u" d="M322.781,214.009l.8,8.258-2.225.214-1.177-7.73Z" transform="translate(-269.691 -146.722)"/><rect class="c" width="7.699" height="1.229" transform="translate(57.053 45.279) rotate(-5.112)"/><path class="m" d="M326.539,157.583l2.483,3.307,5.232-3.45v-.333a1.747,1.747,0,0,0-.687-1.451,1.8,1.8,0,0,0-1.681-.11Z" transform="translate(-271.854 -126.779)"/><path class="m" d="M321.248,158.295l.617-1.015c.767-.907,1.381-.443,1.381-.443l1.493,1.2-2.176,3.307Z" transform="translate(-270.053 -127.229)"/><path class="u" d="M326.539,157.583l2.483,3.307,5.232-3.45v-.333a1.747,1.747,0,0,0-.687-1.451,1.8,1.8,0,0,0-1.681-.11Z" transform="translate(-271.854 -126.779)"/><path class="u" d="M321.248,158.295l.617-1.015c.767-.907,1.381-.443,1.381-.443l1.493,1.2-2.176,3.307Z" transform="translate(-270.053 -127.229)"/><path class="l" d="M330.254,126.321c.348-2.255-1.218-2.564-2.248-2.291-1.076.284-2.144,1.9-2.144,1.9-1-1.622-1.57-5.73-1.57-5.73a9.411,9.411,0,0,1-8.383.357,6.7,6.7,0,0,1-2.728,3.344s-1.856-.85-.823-5.129c1.172-4.857,8.48-9.563,15.843-4.718s2.9,13.834,2.9,13.834a16.783,16.783,0,0,1-3.15,4.054,9.3,9.3,0,0,0,0-2.621A4.057,4.057,0,0,0,330.254,126.321Z" transform="translate(-266.922 -112.02)"/><path class="v" d="M316.188,123.448a8.138,8.138,0,0,0,7.61,2.563" transform="translate(-268.332 -115.909)"/></g><g transform="translate(75.378)"><path class="p" d="M268.4,82.43c-5.339-4.777-11.583,1.7-11.583,1.7s-6.244-6.48-11.583-1.7c-7.616,6.813,3.456,19.016,11.583,21.463C264.944,101.446,276.017,89.243,268.4,82.43Z" transform="translate(-242.682 -80.673)"/></g></g></g></svg>