<svg xmlns="http://www.w3.org/2000/svg" width="240" height="145.291" viewBox="0 0 240 145.291"><defs><style>.a{fill:#e0e0e0;}.b{fill:#fafafa;}.c{fill:#ebebeb;}.d{fill:#f5f5f5;}.e{fill:#263238;}.f{fill:#455a64;}.g{fill:#e8505b;}.h{opacity:0.3;}.i,.o{fill:#fff;}.j{fill:#ffbe9d;}.k{fill:#eb996e;}.l,.o{opacity:0.6;}.m{fill:#5ece97;}.n{fill:none;stroke:#839198;stroke-miterlimit:10;stroke-width:0.05px;}.p{opacity:0.1;}.q{opacity:0.2;}.r{fill:#b78876;}.s{fill:#aa6550;}.t{opacity:0.4;}</style></defs><g transform="translate(-22.108 -83.057)"><g transform="translate(78.213 83.057)"><g transform="translate(117.942 84.625)"><g transform="translate(0.071 0)"><g transform="translate(0)"><rect class="a" width="2.199" height="16.463" transform="translate(0 2.199) rotate(-90)"/></g><g transform="translate(2.139 0.091)"><path class="b" d="M472.365,299.42a5.187,5.187,0,0,1,0,2.061,5.166,5.166,0,0,1,0-2.061Z" transform="translate(-472.261 -299.42)"/></g><g transform="translate(1.781 0.046)"><path class="b" d="M471.45,299.3a5.189,5.189,0,0,1,0,2.061,5.166,5.166,0,0,1,0-2.061Z" transform="translate(-471.346 -299.305)"/></g><g transform="translate(15.086 0.091)"><path class="b" d="M505.431,299.42a5.187,5.187,0,0,1,0,2.061,5.186,5.186,0,0,1,0-2.061Z" transform="translate(-505.328 -299.42)"/></g><g transform="translate(14.728 0.046)"><ellipse class="b" cx="0.104" cy="1.03" rx="0.104" ry="1.03"/></g><g transform="translate(4.259 1.063)"><path class="b" d="M486.1,302c0,.057-1.886.1-4.211.1s-4.211-.047-4.211-.1,1.885-.1,4.211-.1S486.1,301.947,486.1,302Z" transform="translate(-477.675 -301.901)"/></g></g><g transform="translate(0 9.902)"><g transform="translate(0 0)"><rect class="a" width="4.399" height="16.463" transform="translate(0 4.399) rotate(-90)"/></g><g transform="translate(0.041 0.371)"><path class="b" d="M483.354,328.214a.355.355,0,0,1-.089.051c-.06.031-.152.074-.274.126a4.77,4.77,0,0,1-1.116.319,2.907,2.907,0,0,1-1.811-.257,2.412,2.412,0,0,1-.86-.78,1.815,1.815,0,0,1-.3-1.267,1.338,1.338,0,0,1,.3-.655.867.867,0,0,1,.695-.316,1,1,0,0,1,.7.376,1.364,1.364,0,0,1,.318.75,2,2,0,0,1-.567,1.559,2.507,2.507,0,0,1-1.582.773,4.2,4.2,0,0,1-1.837-.228,3.387,3.387,0,0,1-1.6-1.078,1.767,1.767,0,0,1-.374-.95,1.234,1.234,0,0,1,.35-.988.806.806,0,0,1,.515-.226.941.941,0,0,1,.538.152,1.43,1.43,0,0,1,.606.888,2.072,2.072,0,0,1-.649,1.937,3.238,3.238,0,0,1-1.854.755,4.568,4.568,0,0,1-1.921-.189,2.655,2.655,0,0,1-1.462-1.136,1.947,1.947,0,0,1-.183-1.747.919.919,0,0,1,.671-.568,1.062,1.062,0,0,1,.829.2,1.374,1.374,0,0,1,.392,1.482,2.559,2.559,0,0,1-.83,1.169,3.735,3.735,0,0,1-2.257.877,3.645,3.645,0,0,1-2.722-1.1,2.694,2.694,0,0,1-.2-.229.362.362,0,0,1-.058-.085,4.179,4.179,0,0,0,1.224.933,3.58,3.58,0,0,0,1.747.363,3.631,3.631,0,0,0,2.168-.873,2.424,2.424,0,0,0,.772-1.1,1.214,1.214,0,0,0-.343-1.3.89.89,0,0,0-.692-.163.737.737,0,0,0-.538.468,1.765,1.765,0,0,0,.18,1.576,2.461,2.461,0,0,0,1.362,1.047,4.376,4.376,0,0,0,1.835.175,3.042,3.042,0,0,0,1.737-.705,1.869,1.869,0,0,0,.586-1.738,1.221,1.221,0,0,0-.513-.758.63.63,0,0,0-.8.049,1.031,1.031,0,0,0-.287.825,1.563,1.563,0,0,0,.332.841,3.2,3.2,0,0,0,1.506,1.013,4.02,4.02,0,0,0,1.75.226,2.323,2.323,0,0,0,1.472-.708,1.823,1.823,0,0,0,.53-1.416,1.051,1.051,0,0,0-.854-.986.71.71,0,0,0-.572.257,1.193,1.193,0,0,0-.273.578,1.678,1.678,0,0,0,.265,1.171,2.3,2.3,0,0,0,.806.75,2.849,2.849,0,0,0,1.744.279,5.23,5.23,0,0,0,1.112-.278C483.223,328.262,483.35,328.206,483.354,328.214Z" transform="translate(-466.721 -325.424)"/></g></g><g transform="translate(1.47 2.185)"><g transform="translate(0 0.078)"><g transform="translate(0 0)"><rect class="c" width="7.632" height="14.993" transform="translate(0 7.632) rotate(-90)"/></g></g><g transform="translate(2.388 0.34)"><path class="a" d="M476.572,305.635a66.048,66.048,0,0,1,0,7.387,66.029,66.029,0,0,1,0-7.387Z" transform="translate(-476.469 -305.635)"/></g><g transform="translate(3.524 0.245)"><path class="a" d="M479.474,305.393a64.12,64.12,0,0,1,0,7.293,64.366,64.366,0,0,1,0-7.293Z" transform="translate(-479.371 -305.393)"/></g><g transform="translate(13.194)"><path class="a" d="M504.172,304.767a71.378,71.378,0,0,1,0,7.68,71.105,71.105,0,0,1,0-7.68Z" transform="translate(-504.068 -304.767)"/></g><g transform="translate(11.858 0.103)"><path class="a" d="M500.76,305.03a67.732,67.732,0,0,1,0,7.482,67.494,67.494,0,0,1,0-7.482Z" transform="translate(-500.656 -305.03)"/></g></g></g><rect class="a" width="101.073" height="67.043" transform="translate(30.148)"/><g transform="translate(0 75.289)"><rect class="a" width="43.248" height="12.182" rx="3.23"/><g transform="translate(4.425 3.819)"><ellipse class="d" cx="2.635" cy="2.647" rx="2.635" ry="2.647"/></g><g transform="translate(5.577 5.566)"><path class="a" d="M182.605,289.558a10.79,10.79,0,0,1-1.417,1.531l-.348.337-.071.069-.068-.07a7.445,7.445,0,0,1-1.058-1.2,7.456,7.456,0,0,1,1.2,1.063H180.7l.344-.341A10.693,10.693,0,0,1,182.605,289.558Z" transform="translate(-179.64 -289.556)"/></g><g transform="translate(13.062 5.057)"><path class="b" d="M224.686,288.359c0,.056-5.8.1-12.964.1s-12.965-.046-12.965-.1,5.8-.1,12.965-.1S224.686,288.3,224.686,288.359Z" transform="translate(-198.758 -288.257)"/></g><g transform="translate(13.176 7.263)"><path class="b" d="M224.978,293.993c0,.056-5.8.1-12.964.1s-12.965-.046-12.965-.1,5.8-.1,12.965-.1S224.978,293.936,224.978,293.993Z" transform="translate(-199.049 -293.891)"/></g></g></g><g transform="translate(45.285 84.638)"><g transform="translate(56.914)"><g transform="translate(0)"><g transform="translate(0.102 0.102)"><rect class="b" width="104.672" height="68.656"/></g><path class="e" d="M331.433,155.852c0-.661-.032-26.782-.081-68.656l.081.081L226.769,87.3h-.009l.1-.1c0,24.416-.006,47.652-.009,68.656l-.094-.094,104.673.094-104.673.094h-.094v-.094c0-21-.005-44.24-.008-68.656v-.1h.11l104.664.021h.081V87.2C331.465,129.07,331.434,155.192,331.433,155.852Z" transform="translate(-226.659 -87.094)"/></g><g transform="translate(7.877 26.424)"><g transform="translate(24.154 11.592)"><path class="f" d="M308.525,184.185l10.3.142a10.25,10.25,0,0,1-10.3,9.958h-.06Z" transform="translate(-308.465 -184.185)"/><g transform="translate(3.628 6.098)"><path class="e" d="M331.186,207.6a1.013,1.013,0,0,1-.22.018l-.63.016-2.3.027h-.029l-.019-.023-3.4-4.279-2.738-3.491.053.026-3.03-.028-.848-.019a1.608,1.608,0,0,1-.3-.021,1.657,1.657,0,0,1,.3-.021l.848-.018,3.03-.028h.032l.021.026,2.756,3.477,3.368,4.3-.048-.023,2.3.027.63.016A1.022,1.022,0,0,1,331.186,207.6Z" transform="translate(-317.73 -199.758)"/></g><g transform="translate(14.115 15.048)"><path class="e" d="M351.175,222.7c0,.044-1.491.079-3.331.079s-3.331-.035-3.331-.079,1.491-.079,3.331-.079S351.175,222.652,351.175,222.7Z" transform="translate(-344.513 -222.617)"/></g><g transform="translate(14.115 16.281)"><path class="e" d="M351.175,225.846c0,.043-1.491.079-3.331.079s-3.331-.035-3.331-.079,1.491-.079,3.331-.079S351.175,225.8,351.175,225.846Z" transform="translate(-344.513 -225.767)"/></g></g><g transform="translate(12.29 0.026)"><path class="g" d="M288.46,164.747l-.144,10.1a10.1,10.1,0,1,1,10.441-10.1Z" transform="translate(-278.163 -154.647)"/></g><g transform="translate(9.27 0.523)"><path class="e" d="M279.747,162.216a.669.669,0,0,1-.179.042l-.512.082-1.85.26-.03,0-.023-.022-2.467-2.4c-1.185-1.163-2.252-2.221-3.018-2.993l-.9-.92a2.74,2.74,0,0,1-.316-.353,2.675,2.675,0,0,1,.359.309l.937.884c.787.751,1.865,1.8,3.051,2.96l2.447,2.42-.053-.018,1.856-.2.517-.047A.665.665,0,0,1,279.747,162.216Z" transform="translate(-270.45 -155.916)"/></g><path class="e" d="M253.438,154.659c0,.043-1.491.079-3.331.079s-3.331-.035-3.331-.079,1.491-.079,3.331-.079S253.438,154.616,253.438,154.659Z" transform="translate(-246.776 -154.58)"/><g transform="translate(0 1.234)"><path class="e" d="M253.438,157.81c0,.044-1.491.079-3.331.079s-3.331-.035-3.331-.079,1.491-.079,3.331-.079S253.438,157.766,253.438,157.81Z" transform="translate(-246.776 -157.731)"/></g></g><g transform="translate(58.72 10.322)"><path class="g" d="M384.389,119.731l-.041-6.276a8.01,8.01,0,0,0-5.177,2.018,7.423,7.423,0,0,0-2.5,6.5,8.93,8.93,0,0,0,.146.912l0,.022h0l7.562-1.7Z" transform="translate(-376.627 -113.455)"/><g class="h"><path class="i" d="M384.389,119.731l-.041-6.276a8.01,8.01,0,0,0-5.177,2.018,7.423,7.423,0,0,0-2.5,6.5,8.93,8.93,0,0,0,.146.912l0,.022h0l7.562-1.7Z" transform="translate(-376.627 -113.455)"/></g><g transform="translate(8.565 0.024)"><path class="g" d="M405.493,117.836a7.445,7.445,0,0,0-6.1-4.273c-.079-.008-.159-.015-.239-.021-.051,0-.1-.009-.153-.011q-.224-.012-.455-.013H398.5l.041,6.276.01,1.475,7.564,1.651.009,0h0a7.449,7.449,0,0,0,.168-1.627A8.146,8.146,0,0,0,405.493,117.836Z" transform="translate(-398.501 -113.516)"/></g><g class="h" transform="translate(8.565 0.024)"><path d="M405.493,117.836a7.445,7.445,0,0,0-6.1-4.273c-.079-.008-.159-.015-.239-.021-.051,0-.1-.009-.153-.011q-.224-.012-.455-.013H398.5l.041,6.276.01,1.475,7.564,1.651.009,0h0a7.449,7.449,0,0,0,.168-1.627A8.146,8.146,0,0,0,405.493,117.836Z" transform="translate(-398.501 -113.516)"/></g><g transform="translate(0.606 8.534)"><path class="g" d="M385.735,135.251l-7.562,1.7a7.752,7.752,0,0,0,15.136-.051l-7.564-1.65" transform="translate(-378.173 -135.251)"/></g><g transform="translate(20.14 7.302)"><path class="e" d="M445.527,132.207c0,.056-3.91.1-8.732.1s-8.733-.046-8.733-.1,3.909-.1,8.733-.1S445.527,132.151,445.527,132.207Z" transform="translate(-428.063 -132.105)"/></g><g transform="translate(20.14 5.312)"><path class="e" d="M445.527,127.123c0,.056-3.91.1-8.732.1s-8.733-.045-8.733-.1,3.909-.1,8.733-.1S445.527,127.066,445.527,127.123Z" transform="translate(-428.063 -127.021)"/></g><g transform="translate(20.14 3.321)"><path class="e" d="M445.527,122.038c0,.056-3.91.1-8.732.1s-8.733-.045-8.733-.1,3.909-.1,8.733-.1S445.527,121.982,445.527,122.038Z" transform="translate(-428.063 -121.936)"/></g><g transform="translate(20.14 9.154)"><path class="e" d="M445.527,136.937c0,.056-3.91.1-8.732.1s-8.733-.046-8.733-.1,3.909-.1,8.733-.1S445.527,136.88,445.527,136.937Z" transform="translate(-428.063 -136.835)"/></g><g transform="translate(20.201 11.17)"><path class="e" d="M440.215,142.085c0,.056-2.685.1-6,.1s-6-.046-6-.1,2.685-.1,6-.1S440.215,142.028,440.215,142.085Z" transform="translate(-428.22 -141.983)"/></g></g><g transform="translate(59.692 36.003)"><g transform="translate(0.852)"><rect class="g" width="1.799" height="20.09"/></g><g transform="translate(4.325 6.823)"><rect class="g" width="1.799" height="13.267"/></g><g transform="translate(7.798 2.497)"><rect class="g" width="1.799" height="17.695"/></g><g transform="translate(11.27 0.776)"><rect class="g" width="1.799" height="19.314"/></g><g transform="translate(14.743 7.232)"><rect class="g" width="1.799" height="12.858"/></g><g transform="translate(18.216 9.753)"><rect class="g" width="1.799" height="10.336"/></g><g transform="translate(21.689 2.062)"><rect class="g" width="1.799" height="18.028"/></g><g transform="translate(25.162 5.312)"><rect class="g" width="1.799" height="14.778"/></g><g transform="translate(28.635 2.715)"><rect class="g" width="1.799" height="17.375"/></g><g transform="translate(32.108 8.253)"><rect class="g" width="1.799" height="11.837"/></g><g transform="translate(35.581 6)"><rect class="g" width="1.799" height="14.09"/></g><g transform="translate(0 21.415)"><path class="e" d="M417.225,233.813c0,.041-8.533.074-19.056.074s-19.058-.033-19.058-.074,8.531-.074,19.058-.074S417.225,233.772,417.225,233.813Z" transform="translate(-379.111 -233.739)"/></g><g transform="translate(0.748 22.996)"><path class="e" d="M383.691,237.851a12.078,12.078,0,0,1-2.67,0,12.078,12.078,0,0,1,2.67,0Z" transform="translate(-381.021 -237.777)"/></g><g transform="translate(4.655 23.077)"><path class="e" d="M394.191,238.057a17.233,17.233,0,0,1-3.191,0,17.233,17.233,0,0,1,3.191,0Z" transform="translate(-391 -237.983)"/></g><g transform="translate(8.432 23.077)"><path class="e" d="M403.837,238.057a17.233,17.233,0,0,1-3.191,0,17.233,17.233,0,0,1,3.191,0Z" transform="translate(-400.646 -237.983)"/></g><g transform="translate(12.209 23.077)"><path class="e" d="M413.483,238.057a17.233,17.233,0,0,1-3.191,0,17.233,17.233,0,0,1,3.191,0Z" transform="translate(-410.292 -237.983)"/></g><g transform="translate(15.986 23.077)"><path class="e" d="M423.129,238.057a17.233,17.233,0,0,1-3.191,0,17.233,17.233,0,0,1,3.191,0Z" transform="translate(-419.938 -237.983)"/></g><g transform="translate(19.763 23.077)"><path class="e" d="M432.775,238.057a17.237,17.237,0,0,1-3.191,0,17.237,17.237,0,0,1,3.191,0Z" transform="translate(-429.584 -237.983)"/></g><g transform="translate(23.54 23.077)"><path class="e" d="M442.421,238.057a17.237,17.237,0,0,1-3.191,0,17.237,17.237,0,0,1,3.191,0Z" transform="translate(-439.23 -237.983)"/></g><g transform="translate(27.317 23.077)"><path class="e" d="M452.068,238.057a17.233,17.233,0,0,1-3.191,0,17.233,17.233,0,0,1,3.191,0Z" transform="translate(-448.877 -237.983)"/></g><g transform="translate(31.094 23.077)"><path class="e" d="M461.714,238.057a17.233,17.233,0,0,1-3.191,0,17.233,17.233,0,0,1,3.191,0Z" transform="translate(-458.523 -237.983)"/></g><g transform="translate(34.871 23.077)"><path class="e" d="M471.36,238.057a17.233,17.233,0,0,1-3.191,0,17.233,17.233,0,0,1,3.191,0Z" transform="translate(-468.169 -237.983)"/></g><g class="h" transform="translate(4.325 6.823)"><rect class="i" width="1.799" height="13.267"/></g><g class="h" transform="translate(11.27 0.776)"><rect class="i" width="1.799" height="19.314"/></g><g class="h" transform="translate(18.216 9.753)"><rect class="i" width="1.799" height="10.336"/></g><g class="h" transform="translate(25.162 5.312)"><rect class="i" width="1.799" height="14.778"/></g><g class="h" transform="translate(32.108 8.253)"><rect class="i" width="1.799" height="11.837"/></g></g><g transform="translate(9.356 11.275)"><path class="g" d="M254.017,117.621a1.732,1.732,0,1,1-1.731-1.731A1.732,1.732,0,0,1,254.017,117.621Z" transform="translate(-250.554 -115.89)"/></g><g transform="translate(16.51 11.539)"><path class="g" d="M294.9,116.666c0,.056-5.838.1-13.039.1s-13.04-.045-13.04-.1,5.837-.1,13.04-.1S294.9,116.609,294.9,116.666Z" transform="translate(-268.825 -116.564)"/></g><g transform="translate(16.7 13.633)"><path class="g" d="M279.59,122.013a1.58,1.58,0,0,1-.4.04c-.26.012-.637.023-1.1.033-.93.018-2.215.03-3.634.03s-2.7-.011-3.634-.03c-.465-.009-.841-.02-1.1-.033a1.585,1.585,0,0,1-.4-.04,1.549,1.549,0,0,1,.4-.04c.26-.012.636-.023,1.1-.033.93-.018,2.215-.03,3.634-.03s2.7.011,3.634.03c.465.009.841.02,1.1.033A1.544,1.544,0,0,1,279.59,122.013Z" transform="translate(-269.311 -121.911)"/></g></g><g transform="translate(0 6.215)"><g transform="translate(0.102 0.102)"><rect class="b" width="54.782" height="62.522"/></g><path class="e" d="M136.187,165.59s0-.1-.005-.3,0-.488-.005-.869c0-.767-.006-1.9-.011-3.374-.005-2.952-.014-7.271-.024-12.757-.011-10.962-.027-26.581-.045-45.225l.09.09-54.777.012H81.4l.1-.1c-.006,23.05-.011,44.546-.016,62.522L81.4,165.5l39.734.044,11.11.022,2.928.01c.663,0,1.01.01,1.01.01s-.334.006-.991.009l-2.912.01-11.09.022-39.789.044h-.086v-.086c0-17.976-.01-39.471-.016-62.522v-.1h.108l54.777.012h.09v.09c-.019,18.667-.034,34.306-.045,45.283-.01,5.477-.018,9.789-.023,12.736,0,1.467-.008,2.593-.011,3.357q0,.565-.005.859C136.19,165.5,136.187,165.59,136.187,165.59Z" transform="translate(-81.302 -102.967)"/><g transform="translate(6.822 30.616)"><path class="g" d="M142.079,182.569c-.018.037-.607-.3-1.762-.67a11.329,11.329,0,0,0-5.052-.375,11.046,11.046,0,0,0-3.332,1.071,15.693,15.693,0,0,0-3.276,2.356c-1.074.948-2.141,2.024-3.37,3.02a11.635,11.635,0,0,1-4.3,2.329,6.5,6.5,0,0,1-2.512.151,8.143,8.143,0,0,1-2.328-.718,40.7,40.7,0,0,1-3.9-2.319,12.171,12.171,0,0,0-3.667-1.644,10.9,10.9,0,0,0-3.488-.267,11.241,11.241,0,0,0-4.815,1.568c-1.033.632-1.521,1.107-1.548,1.073a2.42,2.42,0,0,1,.35-.344,8.366,8.366,0,0,1,1.121-.852,10.984,10.984,0,0,1,8.454-1.478,12.358,12.358,0,0,1,3.775,1.651,41.751,41.751,0,0,0,3.873,2.28,6.636,6.636,0,0,0,4.594.538,11.362,11.362,0,0,0,4.165-2.252c1.211-.973,2.282-2.042,3.372-2.992a15.761,15.761,0,0,1,3.364-2.374,11.158,11.158,0,0,1,8.569-.557,8.935,8.935,0,0,1,1.294.557A2.4,2.4,0,0,1,142.079,182.569Z" transform="translate(-98.726 -181.159)"/><g transform="translate(2.331 2.41)"><g transform="translate(6.027 7.397)"><rect class="g" width="4.657" height="12.596"/></g><g transform="translate(25.79 7.397)"><rect class="g" width="4.657" height="12.596"/></g><g transform="translate(32.378)"><rect class="g" width="4.657" height="19.993"/></g><g transform="translate(0 16.028)"><rect class="g" width="4.657" height="4.239"/></g><g transform="translate(12.615 13.085)"><rect class="g" width="4.658" height="6.908"/></g><g transform="translate(19.202 11.499)"><rect class="g" width="4.657" height="8.494"/></g></g><g transform="translate(2.376 23.701)"><g transform="translate(5.795)"><path class="e" d="M124.627,241.877a8.619,8.619,0,0,1-2.516.187,8.621,8.621,0,0,1-2.516-.187,8.621,8.621,0,0,1,2.516-.187A8.619,8.619,0,0,1,124.627,241.877Z" transform="translate(-119.594 -241.69)"/></g><path class="e" d="M109.826,241.877a8.623,8.623,0,0,1-2.516.187,8.619,8.619,0,0,1-2.516-.187,8.619,8.619,0,0,1,2.516-.187A8.623,8.623,0,0,1,109.826,241.877Z" transform="translate(-104.793 -241.69)"/><g transform="translate(32.22)"><path class="e" d="M192.77,241.877a21.707,21.707,0,0,1-5.689,0,21.707,21.707,0,0,1,5.689,0Z" transform="translate(-187.081 -241.69)"/></g><g transform="translate(25.301 0)"><ellipse class="e" cx="2.844" cy="0.187" rx="2.844" ry="0.187"/></g><g transform="translate(18.783)"><path class="e" d="M157.8,241.877a16.973,16.973,0,0,1-5.033,0,17.008,17.008,0,0,1,5.033,0Z" transform="translate(-152.764 -241.69)"/></g><g transform="translate(11.977)"><path class="e" d="M140.414,241.877a16.973,16.973,0,0,1-5.033,0,17.008,17.008,0,0,1,5.033,0Z" transform="translate(-135.381 -241.69)"/></g></g></g><g transform="translate(9.044 9.216)"><rect class="a" width="38.063" height="15.807"/><g transform="translate(4.359 3.221)"><path class="e" d="M119.082,136.508a1.774,1.774,0,1,1-1.774-1.775A1.774,1.774,0,0,1,119.082,136.508Z" transform="translate(-115.533 -134.733)"/><g transform="translate(5.323 0.549)"><rect class="e" width="12.364" height="0.686"/></g><g transform="translate(5.323 2.109)"><rect class="i" width="24.051" height="0.686"/></g></g><g transform="translate(4.359 8.677)"><path class="g" d="M119.082,150.439a1.774,1.774,0,1,1-1.774-1.775A1.774,1.774,0,0,1,119.082,150.439Z" transform="translate(-115.533 -148.665)"/><g transform="translate(5.323 0.549)"><rect class="g" width="6.314" height="0.686"/></g><g transform="translate(5.323 2.109)"><rect class="i" width="24.051" height="0.686"/></g></g></g></g></g><g transform="translate(22.108 121.572)"><g transform="translate(196.06 0)"><g transform="translate(14.413)"><g transform="translate(9.096 1.163)"><path class="e" d="M586.523,198.261c1.256-2.109,1.623-4.923,1.946-7.358.152-1.145.419-2.776-.386-3.5-.861-.77-.94-1.955-1.931-2.55a3.048,3.048,0,0,0-3.273.027" transform="translate(-582.88 -184.395)"/></g><g transform="translate(0.018)"><g transform="translate(2.323 2.321)"><path class="j" d="M572.539,207.535h0a3.391,3.391,0,0,1-3.648-3.251c-.071-1.846-.133-3.711-.133-3.711a3.332,3.332,0,0,1-3-3.03c-.2-2.768-.11-9.159-.11-9.159h0a9.645,9.645,0,0,1,9.748.627l-.172,9.742v5.241C575.205,205.752,574.292,207.4,572.539,207.535Z" transform="translate(-565.627 -187.352)"/></g><path class="e" d="M564.908,190.556a1.419,1.419,0,0,1,1.892-.413,1.609,1.609,0,0,1,.536,2.012,2.12,2.12,0,0,1-1.358,1.027,1.063,1.063,0,0,0-.832,1.145c.08.695,1.236.956,1.757,1.531.811.895,2.592,1.273,3.791,1.415,1.179.139,1.037.151,1.723-.818a3.717,3.717,0,0,0,.673-2.247q.064-3.062.127-6.123a8.772,8.772,0,0,0-.139-2.2,2.951,2.951,0,0,0-1.159-1.817,9.053,9.053,0,0,0-2.293-.729,18.937,18.937,0,0,1-2.67-1.4,3.284,3.284,0,0,0-2.9-.281c-.646.325-1.079.969-1.708,1.327-.895.509-2.113.394-2.548,1.709a2.234,2.234,0,0,0,.015,1.408,3.253,3.253,0,0,0,4.423,1.739,4.379,4.379,0,0,0,.052,1.937c.1.306.138.773.617.782" transform="translate(-559.695 -181.423)"/></g><g transform="translate(5.716 9.515)"><path class="k" d="M574.257,207.069c.021-.018.115.146.346.132a.644.644,0,0,0,.518-.632.692.692,0,0,0-.475-.689c-.228-.084-.391-.041-.4-.073s.152-.125.438-.065a.827.827,0,0,1,.435.25.8.8,0,0,1,.2.588.764.764,0,0,1-.72.766.414.414,0,0,1-.309-.155C574.245,207.122,574.245,207.074,574.257,207.069Z" transform="translate(-574.246 -205.724)"/></g><g transform="translate(8.607 1.932)"><path class="f" d="M581.63,186.939c-.007-.006.06-.106.232-.235a1.853,1.853,0,0,1,.841-.327,2.423,2.423,0,0,1,1.325.2,3.038,3.038,0,0,1,1.221,1.092,6.2,6.2,0,0,1,.859,2.8,7.244,7.244,0,0,1,.073,1.209,7.051,7.051,0,0,1-.216-1.19,6.685,6.685,0,0,0-.886-2.708,2.959,2.959,0,0,0-1.132-1.035,2.223,2.223,0,0,0-2.318.19Z" transform="translate(-581.63 -186.356)"/></g><g transform="translate(0 1.348)"><path class="f" d="M560.461,188.863c0,.006-.038.007-.105-.008a.794.794,0,0,1-.276-.124,1,1,0,0,1-.321-.361.919.919,0,0,1-.087-.641,1.053,1.053,0,0,1,.449-.646,1.5,1.5,0,0,1,.875-.172,1.212,1.212,0,0,0,.836-.211,6.134,6.134,0,0,0,.677-.73,3.451,3.451,0,0,1,1.724-.995,3.671,3.671,0,0,1,1.624-.036,3.147,3.147,0,0,1,1.021.392,1.189,1.189,0,0,1,.316.244,4.8,4.8,0,0,0-1.363-.495,3.7,3.7,0,0,0-1.552.076,3.353,3.353,0,0,0-1.62.951,5.749,5.749,0,0,1-.707.752,1.135,1.135,0,0,1-.477.214,2.314,2.314,0,0,1-.481.025,1.364,1.364,0,0,0-.783.126.914.914,0,0,0-.4.537.891.891,0,0,0,.315.9A2.135,2.135,0,0,0,560.461,188.863Z" transform="translate(-559.648 -184.865)"/></g><g transform="translate(5.709 4.386)"><path class="f" d="M576.738,201.286c-.007-.017.139-.069.365-.221a2.287,2.287,0,0,0,.755-.841,2.132,2.132,0,0,0-.375-2.455,4.01,4.01,0,0,0-.865-.633c-.323-.188-.652-.363-.953-.567a3.219,3.219,0,0,1-.766-.722,3.344,3.344,0,0,1-.648-1.639,3.032,3.032,0,0,1,.09-1.182,1.8,1.8,0,0,1,.111-.3c.031-.067.05-.1.056-.1a4.107,4.107,0,0,0-.114,1.565,3.306,3.306,0,0,0,.654,1.543,3.1,3.1,0,0,0,.73.671c.29.195.614.365.944.557a4.088,4.088,0,0,1,.906.669,2.247,2.247,0,0,1,.539.915,2.2,2.2,0,0,1-1.02,2.588A.974.974,0,0,1,576.738,201.286Z" transform="translate(-574.228 -192.625)"/></g><g transform="translate(6.469 4.141)"><path class="f" d="M582.719,196.843a1.267,1.267,0,0,1-.357.079,5.167,5.167,0,0,1-1,.03,6.168,6.168,0,0,1-3.088-1.062,4.888,4.888,0,0,1-2.026-2.549,2.106,2.106,0,0,1-.041-1,.8.8,0,0,1,.137-.341,2.444,2.444,0,0,0,.042,1.3,5.02,5.02,0,0,0,2,2.421,6.493,6.493,0,0,0,2.986,1.087C582.2,196.9,582.715,196.8,582.719,196.843Z" transform="translate(-576.17 -191.999)"/></g><g transform="translate(13.037 5.355)"><path class="e" d="M593.365,196.833a4.889,4.889,0,0,1,3.816-1.728,3.515,3.515,0,0,1,3.2,2.479,8.817,8.817,0,0,1-.2,3.233,3.126,3.126,0,0,0,.876,2.979,5.094,5.094,0,0,0,1.854.611,2.026,2.026,0,0,1,1.536,1.092,1.558,1.558,0,0,1-.953,1.813,3.507,3.507,0,0,1-2.215.031,1.855,1.855,0,0,1-.821,2.219,2.453,2.453,0,0,1-2.459-.1,3.673,3.673,0,0,1-1.5-2.036,1.825,1.825,0,0,1-2.518.478,2.641,2.641,0,0,1-1.018-2.531,4.935,4.935,0,0,1,1.276-2.53,6.255,6.255,0,0,0,.892-1.135,1.447,1.447,0,0,0,.056-1.383.837.837,0,0,0-1.232-.247" transform="translate(-592.944 -195.098)"/></g><g transform="translate(13.058 6.124)"><path class="g" d="M595.065,200.934a.954.954,0,0,1-.832-.009,2,2,0,0,1-1.207-1.576,2.063,2.063,0,0,1,.132-1.124,2.142,2.142,0,0,1,.531-.751,1.358,1.358,0,0,1,.728-.406,6.43,6.43,0,0,0-.627.509,2.051,2.051,0,0,0-.562,1.74,1.767,1.767,0,0,0,1.838,1.617Z" transform="translate(-592.999 -197.065)"/></g><g transform="translate(2.357 12.834)"><path class="k" d="M568.69,216.863a1.3,1.3,0,0,1-.632-.062,3.407,3.407,0,0,1-2.243-1.98,1.306,1.306,0,0,1-.141-.619,4.076,4.076,0,0,1,.272.56,3.91,3.91,0,0,0,2.155,1.9A4.056,4.056,0,0,1,568.69,216.863Z" transform="translate(-565.667 -214.202)"/></g><g transform="translate(13.395 8.01)"><path class="f" d="M596.5,211.636c0,.007-.048,0-.136-.02a1.354,1.354,0,0,1-.36-.161,1.97,1.97,0,0,1-.786-1.2,2.448,2.448,0,0,1-.034-1.006,4.044,4.044,0,0,1,.365-1.089c.349-.73.9-1.423,1.306-2.229a3.963,3.963,0,0,0,.41-1.232,2.384,2.384,0,0,0-1.538-2.566,2.545,2.545,0,0,0-1.37-.085c-.325.068-.49.16-.5.141s.036-.032.114-.076a1.934,1.934,0,0,1,.365-.143,2.455,2.455,0,0,1,2.969,1.482,2.531,2.531,0,0,1,.156,1.272,4.09,4.09,0,0,1-.425,1.3c-.422.833-.975,1.517-1.32,2.22a2.962,2.962,0,0,0-.359,1.98,1.959,1.959,0,0,0,.691,1.163A3.632,3.632,0,0,0,596.5,211.636Z" transform="translate(-593.86 -201.881)"/></g><g transform="translate(13.407 7.633)"><path class="f" d="M600.7,213.074a.562.562,0,0,1-.175.01,1.93,1.93,0,0,1-.494-.088,2.782,2.782,0,0,1-1.442-1.124,4.275,4.275,0,0,1-.622-2.638,26.97,26.97,0,0,1,.534-3.278,7.676,7.676,0,0,0,.117-1.686,4.344,4.344,0,0,0-.355-1.513,2.758,2.758,0,0,0-1.943-1.622,4.042,4.042,0,0,0-1.782.006c-.417.093-.638.185-.645.168a.558.558,0,0,1,.154-.081,3.46,3.46,0,0,1,.472-.164,3.891,3.891,0,0,1,1.833-.07,2.937,2.937,0,0,1,1.171.525,2.989,2.989,0,0,1,.911,1.159,4.478,4.478,0,0,1,.383,1.579,7.724,7.724,0,0,1-.115,1.731,29.241,29.241,0,0,0-.547,3.254,4.194,4.194,0,0,0,.554,2.549,2.8,2.8,0,0,0,1.347,1.128A4.272,4.272,0,0,0,600.7,213.074Z" transform="translate(-593.889 -200.916)"/></g></g><path class="j" d="M604.24,264.165l-5.9,4.6,2.474,4.062,7.1-5.231Z" transform="translate(-568.78 -231.768)"/><path class="j" d="M550.963,218.458s.029-.492-1.257-.563a13.514,13.514,0,0,0-1.429-.048,3.276,3.276,0,0,1-.615-1.192,3.575,3.575,0,0,1,.275-1.211l1.3-.119-.353-.884-.917.064-2.59.311-1.031,4.535-7.069,13.2a3.407,3.407,0,0,0,1.35,4.961h0c1.828.883,4.277-.992,4.954-2.905l3.912-14.678,1.376-1.075,1.972-.362" transform="translate(-531.274 -201.513)"/><path class="j" d="M531.966,349.247l9.625-55.371-.014,0c.02-.082.04-.16.061-.24l0-.011h0c1.637-6.495,4.163-8.577,4.163-8.577l14.729.924c1.252,2.251,1.411,7.652,1.411,7.652.171.662-3.112,54.314-3.112,54.314l-4.926-.136-2.672-50.76L536.9,349.458Z" transform="translate(-528.392 -244.473)"/><g transform="translate(0 104.771)"><g transform="translate(0.016)"><path class="g" d="M526.321,449.505l.019-.5,5.067.146-.044,1.65-.313.01c-1.394.034-7.091.084-8.013-.2C522.008,450.288,526.321,449.505,526.321,449.505Z" transform="translate(-522.878 -449.005)"/><g class="l" transform="translate(6.658 0.409)"><path class="i" d="M539.881,451.352a1.621,1.621,0,0,1,.675-.983,1.8,1.8,0,0,1,1.19-.309l-.04,1.311Z" transform="translate(-539.881 -450.051)"/></g></g><g class="l" transform="translate(0 0.952)"><path class="i" d="M524.187,451.436s-1.515.363-1.334.6,5.939.386,8.486.247l0-.1-6.719-.123S524.48,451.456,524.187,451.436Z" transform="translate(-522.838 -451.436)"/></g><g transform="translate(0.016 1.47)"><path class="e" d="M531.438,452.979a.513.513,0,0,1-.087.006l-.249.007-.918.013c-.775.006-1.846,0-3.029-.03s-2.253-.08-3.026-.125l-.916-.06-.249-.02a.465.465,0,0,1-.086-.011.509.509,0,0,1,.087,0l.249.009.917.042c.774.035,1.843.078,3.026.108s2.252.042,3.027.047l.918.005.249,0A.516.516,0,0,1,531.438,452.979Z" transform="translate(-522.878 -452.758)"/></g><g transform="translate(1.314 0.893)"><path class="e" d="M526.656,452.034a1.813,1.813,0,0,0-.159-.412,1.986,1.986,0,0,0-.3-.334.669.669,0,0,1,.356.306A.592.592,0,0,1,526.656,452.034Z" transform="translate(-526.194 -451.287)"/></g><g transform="translate(3.028 0.58)"><path class="e" d="M530.829,450.884c-.014.008-.083-.074-.154-.184s-.115-.205-.1-.213.083.074.153.184S530.844,450.875,530.829,450.884Z" transform="translate(-530.572 -450.486)"/></g><g transform="translate(3.392 0.515)"><path class="e" d="M531.809,450.593c-.012.012-.09-.04-.175-.115s-.144-.145-.132-.156.09.04.175.115S531.821,450.582,531.809,450.593Z" transform="translate(-531.5 -450.32)"/></g><g transform="translate(3.445 0.319)"><path class="e" d="M532.162,449.852a1.24,1.24,0,0,1-.527-.008,1.238,1.238,0,0,1,.527.008Z" transform="translate(-531.635 -449.819)"/></g><g transform="translate(3.472 0.037)"><path class="e" d="M532.3,449.1a.793.793,0,0,1-.6.026,25.645,25.645,0,0,0,.6-.026Z" transform="translate(-531.705 -449.099)"/></g><g transform="translate(2.184 0.125)"><path class="e" d="M529.359,449.764a1.009,1.009,0,0,1-.324-.011,2,2,0,0,1-.343-.08.984.984,0,0,1-.2-.081.165.165,0,0,1-.077-.1.115.115,0,0,1,.053-.119.621.621,0,0,1,.73.181.516.516,0,0,1,.1.2c.011.052.01.081.006.081a.813.813,0,0,0-.14-.261.585.585,0,0,0-.272-.175.539.539,0,0,0-.387.014c-.053.034-.034.091.022.124a.97.97,0,0,0,.18.077,2.318,2.318,0,0,0,.331.09C529.236,449.751,529.36,449.755,529.359,449.764Z" transform="translate(-528.417 -449.325)"/></g><g transform="translate(3.007 0.002)"><path class="e" d="M530.553,449.584a.281.281,0,0,1-.031-.21.477.477,0,0,1,.1-.218.33.33,0,0,1,.275-.146.12.12,0,0,1,.1.142.318.318,0,0,1-.059.133.913.913,0,0,1-.159.178.477.477,0,0,1-.189.117c-.005-.008.066-.052.159-.146a1.076,1.076,0,0,0,.141-.177c.046-.062.08-.176,0-.192a.3.3,0,0,0-.217.122.481.481,0,0,0-.1.194A1.046,1.046,0,0,0,530.553,449.584Z" transform="translate(-530.517 -449.009)"/></g><g transform="translate(6.679 0.365)"><path class="e" d="M541.728,449.977c0,.011-.144-.017-.373,0a1.7,1.7,0,0,0-.823.29,1.528,1.528,0,0,0-.529.654c-.083.2-.094.334-.106.332a.241.241,0,0,1,0-.094,1.139,1.139,0,0,1,.063-.251,1.456,1.456,0,0,1,.532-.686,1.634,1.634,0,0,1,.856-.285,1.409,1.409,0,0,1,.277.014A.3.3,0,0,1,541.728,449.977Z" transform="translate(-539.896 -449.938)"/></g><g transform="translate(4.578 1.205)"><path class="e" d="M536,452.114a4.452,4.452,0,0,1-1.475-.026c0-.016.331.011.737.018S536,452.1,536,452.114Z" transform="translate(-534.53 -452.083)"/></g><g transform="translate(6.89 1.259)"><path class="e" d="M540.586,452.222c.012.012-.029.064-.065.134s-.056.131-.073.13-.024-.075.018-.155S540.575,452.21,540.586,452.222Z" transform="translate(-540.435 -452.22)"/></g><g transform="translate(7.23 0.837)"><path class="e" d="M541.5,451.145c.011.011-.023.06-.076.107s-.106.077-.118.066.022-.059.076-.107S541.488,451.134,541.5,451.145Z" transform="translate(-541.303 -451.143)"/></g><g transform="translate(7.676 0.628)"><path class="e" d="M542.732,450.637c0,.016-.071.013-.146.036s-.129.058-.142.047.031-.074.124-.1S542.737,450.622,542.732,450.637Z" transform="translate(-542.441 -450.608)"/></g><g transform="translate(8.194 0.562)"><path class="e" d="M543.92,450.452c.005.015-.024.038-.067.052s-.081.013-.087,0,.024-.038.066-.052S543.914,450.437,543.92,450.452Z" transform="translate(-543.766 -450.441)"/></g></g><g transform="translate(5.261 18.223)"><g transform="translate(22.943 0.28)"><path class="m" d="M594.871,228.679a9.7,9.7,0,0,1,3.9,1.535c4.658,3.019,12.446,9.4,11.8,12.359-.55,2.517-6.625,5.573-6.625,5.573L600,243.4l2.419-1.383-5.946-3.955Z" transform="translate(-594.871 -228.679)"/></g><path class="m" d="M561.874,237.856l-.193.708L561,241.836l-.169,4.8c3.533,4.549,3.586,8.378,3.586,8.378l-17.844,2.084a34.809,34.809,0,0,1,1.289-7.963c1.033-1.751.983-6.99.79-7.181-1.115-1.1-1.385-1.915-.495-3.33,0,0-5.532,5.811-6.1,6.333-1.954,1.791-3.834,1.292-4.707.513-2.443-2.18.065-4.992.065-4.992l9.317-10.679a4.637,4.637,0,0,1,2.421-1.476c.993-.235,2-.354,2-.354l6.221.053a10.445,10.445,0,0,1,1.854.227,4.449,4.449,0,0,1,2.717,3.367A20.13,20.13,0,0,1,561.874,237.856Z" transform="translate(-536.275 -227.965)"/><g transform="translate(24.531 5.614)"><path class="f" d="M600.189,242.3a2.513,2.513,0,0,1,.038.517c.008.333,0,.816-.034,1.411a37.527,37.527,0,0,1-.614,4.613c-.117.609-.24,1.2-.368,1.739l0-.019c-.055,1.386-.11,2.585-.157,3.436-.025.4-.046.728-.064,1a.181.181,0,1,1-.067,0c0-.271,0-.6.007-1,.013-.853.042-2.052.085-3.439v-.009l0-.01c.122-.539.242-1.125.359-1.731.339-1.779.565-3.4.671-4.586.054-.59.082-1.07.1-1.4A2.534,2.534,0,0,1,600.189,242.3Z" transform="translate(-598.926 -242.302)"/></g><g transform="translate(25.853 10.409)"><path class="f" d="M602.3,254.551a74.187,74.187,0,0,1,6.4,4.428,74.272,74.272,0,0,1-6.4-4.428Z" transform="translate(-602.304 -254.55)"/></g><g transform="translate(10.093 3.418)"><path class="f" d="M566.278,236.694c0-.005.036.019.092.069a1.867,1.867,0,0,1,.222.242,2.7,2.7,0,0,1,.482,1.106,3.649,3.649,0,0,1-.1,1.788,7.279,7.279,0,0,1-1,1.945,6.968,6.968,0,0,1-.736.865c-.259.264-.536.48-.779.7-.493.442-.919.862-1.271,1.22s-.629.655-.821.861a1.968,1.968,0,0,1-.312.309,1.7,1.7,0,0,1,.251-.36c.174-.222.436-.536.776-.908s.758-.806,1.249-1.26c.245-.231.517-.449.764-.7a7.03,7.03,0,0,0,.712-.844,7.477,7.477,0,0,0,.987-1.883,3.637,3.637,0,0,0,.139-1.7A3.2,3.2,0,0,0,566.278,236.694Z" transform="translate(-562.052 -236.693)"/></g><g transform="translate(12.242 16.794)"><path class="f" d="M567.54,273.253l.206-2.4h12.17l-.066,1.873Z" transform="translate(-567.54 -270.856)"/></g><g transform="translate(2.278 12.333)"><path class="n" d="M542.094,259.462" transform="translate(-542.094 -259.462)"/></g><g transform="translate(0.271 12.035)"><path class="f" d="M538.557,258.7c.022.031-.307.23-.675.7a3.243,3.243,0,0,0,.173,4.252,9.747,9.747,0,0,0,.729.648c-.005.011-.1-.02-.249-.1a2.764,2.764,0,0,1-.585-.444,3.218,3.218,0,0,1-.181-4.443,2.766,2.766,0,0,1,.547-.49C538.462,258.731,538.55,258.693,538.557,258.7Z" transform="translate(-536.967 -258.702)"/></g></g><g transform="translate(25.514 103.328)"><path class="g" d="M592.925,445.455l1.38,3.211-6.176-.074L588,445.319Z" transform="translate(-587.999 -445.319)"/><g transform="translate(0.085 2.621)"><path class="e" d="M588.216,452.11a5.661,5.661,0,0,0,.865.044c.535.009,1.274.006,2.089-.007l2.085-.043a6.476,6.476,0,0,0,.864-.044,5.737,5.737,0,0,0-.865-.042c-.535-.009-1.274-.005-2.089.008l-2.085.042A6.525,6.525,0,0,0,588.216,452.11Z" transform="translate(-588.216 -452.014)"/></g><g transform="translate(2.61 0.066)"><path class="e" d="M594.714,445.487a8.677,8.677,0,0,0,.144,2.594,8.677,8.677,0,0,0-.144-2.594Z" transform="translate(-594.665 -445.487)"/></g><path class="o" d="M594.428,452.806l-6.173-.207-.039-.586,5.9.051.313.672" transform="translate(-588.131 -449.392)"/></g><g transform="translate(1.123 36.891)"><path class="g" d="M557.588,280.926c4.646,14.664-1.343,32.463.093,49.549.141,1.679.823,3.687-.747,4.643a2.565,2.565,0,0,1-1.417.346,10.225,10.225,0,0,1-3.422-1.139,10.168,10.168,0,0,0-6.734-.261c-1.482.462-2.952,1.279-4.488,1.047-2.039-.308-3.36-2.324-5.237-3.178-1.757-.8-3.787-.5-5.716-.55l-.058,0a4.331,4.331,0,0,1-4-5.484c2.8-10.272,12.107-43.642,16.224-49.734l12.31-.524A17.916,17.916,0,0,1,557.588,280.926Z" transform="translate(-525.707 -275.64)"/><g transform="translate(21.959 12.188)"><path class="e" d="M587.4,306.77a5.452,5.452,0,0,1-.67.842,19.2,19.2,0,0,1-1.817,1.858,12.212,12.212,0,0,1-2.145,1.475,4.691,4.691,0,0,1-.977.452,30.341,30.341,0,0,0,2.989-2.081c.756-.659,1.381-1.329,1.845-1.8A5.786,5.786,0,0,1,587.4,306.77Z" transform="translate(-581.79 -306.769)"/></g><g class="p" transform="translate(14.87 17.723)"><path d="M570.947,320.9a52.451,52.451,0,0,0-2.062,31.387,3.409,3.409,0,0,1-.064,2.684,2.206,2.206,0,0,1-3.165.146,5.424,5.424,0,0,1-1.493-3.184c-1.69-8.748,1.371-17.539,4.677-25.813" transform="translate(-563.683 -320.903)"/></g></g></g><g transform="translate(0 43.241)"><g transform="translate(21.402 12.01)"><path class="e" d="M76.912,356.8c-.046,0-.1-7.671-.132-17.132s-.011-17.134.035-17.134.1,7.669.132,17.134S76.958,356.8,76.912,356.8Z" transform="translate(-76.768 -322.532)"/></g><g transform="translate(24.593 27.079)"><path class="e" d="M87.066,361.017A.8.8,0,0,1,87,361.2l-.208.5-.152.357-.155.435-.18.5c-.062.177-.111.37-.172.57a23.147,23.147,0,0,0-.652,2.855,34.851,34.851,0,0,0-.361,3.571,48.1,48.1,0,0,0,.184,6.522c.075.833.15,1.505.206,1.97.024.218.043.4.059.536a.818.818,0,0,1,.009.189.787.787,0,0,1-.043-.184l-.09-.532c-.075-.462-.169-1.134-.259-1.967a42.93,42.93,0,0,1-.233-6.541,32.454,32.454,0,0,1,.376-3.588,21.628,21.628,0,0,1,.691-2.865c.065-.2.118-.392.185-.569l.193-.5.169-.433c.058-.13.116-.247.166-.353l.237-.485A.82.82,0,0,1,87.066,361.017Z" transform="translate(-84.919 -361.017)"/></g><g transform="translate(23.117 20.874)"><path class="e" d="M84.175,345.171a1.554,1.554,0,0,1-.074.253l-.243.713-.178.514-.188.619c-.136.444-.294.948-.435,1.516l-.234.887-.218.97c-.163.668-.28,1.393-.431,2.151-.257,1.524-.484,3.208-.64,4.984s-.211,3.477-.234,5.023c0,1.545.015,2.938.078,4.106.021.585.058,1.112.088,1.576s.056.863.086,1.189.043.565.057.751a1.609,1.609,0,0,1,.009.264,1.56,1.56,0,0,1-.042-.26l-.088-.749c-.04-.325-.078-.724-.114-1.188s-.085-.991-.113-1.576c-.078-1.169-.11-2.565-.114-4.114.014-1.549.074-3.253.222-5.036s.388-3.47.654-5c.155-.759.278-1.486.447-2.154l.228-.971q.128-.462.245-.887c.148-.567.315-1.07.46-1.513l.2-.617.192-.51.273-.7A1.59,1.59,0,0,1,84.175,345.171Z" transform="translate(-81.148 -345.171)"/></g><g transform="translate(15.628 13.047)"><path class="e" d="M66.465,359.767a.345.345,0,0,1-.013-.09l-.022-.264c-.016-.245-.04-.584-.069-1.016-.056-.9-.136-2.168-.234-3.737-.2-3.154-.5-7.513-1.026-12.305-.271-2.4-.586-4.672-.913-6.735-.174-1.03-.331-2.01-.51-2.922s-.341-1.761-.5-2.534-.324-1.469-.462-2.082-.266-1.137-.375-1.566l-.242-.988c-.024-.106-.043-.191-.059-.258a.382.382,0,0,1-.014-.09.372.372,0,0,1,.031.085l.075.254.273.981c.119.426.259.949.4,1.56s.325,1.3.486,2.078.354,1.619.524,2.533c.185.912.348,1.892.526,2.923.336,2.065.655,4.343.927,6.741.531,4.8.805,9.16.978,12.317.086,1.579.145,2.857.181,3.74.016.432.028.773.037,1.017,0,.109,0,.2.005.265A.385.385,0,0,1,66.465,359.767Z" transform="translate(-62.022 -325.181)"/></g><g transform="translate(14.021 13.78)"><path class="g" d="M65.253,328.97a2.312,2.312,0,0,0-2.291-1.918,3.607,3.607,0,0,0-2.776,1.507,8.683,8.683,0,0,0-1.337,2.967,20.157,20.157,0,0,0-.823,7.9,11.951,11.951,0,0,0,3.286,7.118,1.345,1.345,0,0,0,1.132.517,1.366,1.366,0,0,0,.6-.369,17.67,17.67,0,0,0,5.734-13.436,5.458,5.458,0,0,0-.719-2.891c-.557-.838-1.856-1.728-2.8-1.392" transform="translate(-57.918 -327.052)"/></g><g transform="translate(7.237)"><g transform="translate(0.025 3.015)"><path class="g" d="M46.6,303.537l-1.537,2.784c-.036.065-.083.137-.157.144s-.141-.07-.185-.138l-4.064-6.237.937-.531Z" transform="translate(-40.655 -299.559)"/></g><g class="q" transform="translate(0.025 3.015)"><path d="M46.6,303.537l-1.537,2.784c-.036.065-.083.137-.157.144s-.141-.07-.185-.138l-4.064-6.237.937-.531Z" transform="translate(-40.655 -299.559)"/></g><path class="g" d="M54.8,303.869l-13.864-8.181a.647.647,0,0,1-.338-.341c-.055-.205.1-.4.247-.556a9.555,9.555,0,0,1,7.409-2.911,8.464,8.464,0,0,1,6.7,4.166,7.637,7.637,0,0,1-.152,7.822" transform="translate(-40.592 -291.859)"/><g transform="translate(2.347 1.167)"><path class="e" d="M46.586,294.891a.782.782,0,0,1,.182-.023c.119-.006.3-.027.524-.025a10.452,10.452,0,0,1,1.924.153,11.243,11.243,0,0,1,8.973,8.12,10.425,10.425,0,0,1,.344,1.9,3.86,3.86,0,0,1,.021.4.681.681,0,0,1-.107.3,2.356,2.356,0,0,0,.022-.7,11.794,11.794,0,0,0-.392-1.873,11.325,11.325,0,0,0-8.881-8.036,11.835,11.835,0,0,0-1.9-.2C46.838,294.9,46.587,294.905,46.586,294.891Z" transform="translate(-46.586 -294.841)"/></g><g transform="translate(7.345 6.36)"><path class="e" d="M64.342,308.1a3.347,3.347,0,0,1-.7.319c-.442.174-1.059.4-1.749.616s-1.323.394-1.784.506a3.321,3.321,0,0,1-.756.144,3.777,3.777,0,0,1,.725-.257l1.766-.552,1.76-.568A3.775,3.775,0,0,1,64.342,308.1Z" transform="translate(-59.351 -308.101)"/></g><g transform="translate(10.126 0.499)"><path class="e" d="M66.48,293.133a9.68,9.68,0,0,1,.078,3.1,29.235,29.235,0,0,1-.078-3.1Z" transform="translate(-66.453 -293.133)"/></g><g transform="translate(0.228 1.965)"><path class="e" d="M41.174,298.587a6.23,6.23,0,0,1,1.007-.354c.63-.194,1.507-.44,2.485-.676s1.871-.416,2.52-.53a6.24,6.24,0,0,1,1.058-.143,7.4,7.4,0,0,1-1.035.258c-.642.143-1.529.341-2.5.576s-1.855.462-2.491.627A7.369,7.369,0,0,1,41.174,298.587Z" transform="translate(-41.174 -296.879)"/></g></g><g transform="translate(0 12.306)"><path class="g" d="M37.71,324.322a5.686,5.686,0,0,0-3.948-1.023,12.066,12.066,0,0,0-4.322,1.115,13.323,13.323,0,0,0-5.932,4.669,7.794,7.794,0,0,0-.837,7.292,1.037,1.037,0,0,0,.474.574,1.131,1.131,0,0,0,.782-.06,43.786,43.786,0,0,0,7.781-3.1,14.678,14.678,0,0,0,5.982-5.717,4.915,4.915,0,0,0,.63-1.9,2.358,2.358,0,0,0-.61-1.853" transform="translate(-22.108 -323.289)"/><g transform="translate(0.919 0.752)"><path class="e" d="M39.161,325.209a.969.969,0,0,1-.191.078l-.557.191-.4.135c-.146.052-.3.118-.471.184-.336.136-.727.272-1.138.471l-.652.3c-.226.1-.452.233-.691.355-.482.237-.97.539-1.489.846a23.533,23.533,0,0,0-5.865,5.16c-.37.476-.733.921-1.029,1.369-.151.222-.307.429-.44.64l-.377.609c-.25.382-.435.752-.613,1.069-.087.16-.171.306-.242.444l-.185.383-.261.528a1.013,1.013,0,0,1-.1.18.956.956,0,0,1,.071-.193l.233-.542.172-.39c.067-.141.148-.29.231-.452.171-.322.349-.7.594-1.086l.371-.618c.13-.214.284-.424.434-.649.293-.454.653-.905,1.023-1.387a22.782,22.782,0,0,1,5.9-5.195c.525-.305,1.018-.6,1.506-.838.242-.12.47-.246.7-.348l.66-.289c.416-.193.812-.323,1.153-.451.171-.061.33-.123.478-.172l.41-.121.567-.162A.978.978,0,0,1,39.161,325.209Z" transform="translate(-24.454 -325.208)"/></g><g transform="translate(0.463 5.793)"><path class="e" d="M29.137,338.087a27.977,27.977,0,0,1-2.9.935,27.892,27.892,0,0,1-2.947.775,28.1,28.1,0,0,1,2.9-.934A28.033,28.033,0,0,1,29.137,338.087Z" transform="translate(-23.29 -338.083)"/></g><g transform="translate(6.116 6.03)"><path class="e" d="M37.8,344.857a4.614,4.614,0,0,1-.064-.9c-.015-.559-.018-1.331.006-2.184s.07-1.624.116-2.181a4.65,4.65,0,0,1,.114-.9,5.152,5.152,0,0,1,0,.905c-.019.612-.042,1.356-.067,2.179s-.039,1.567-.054,2.179A5.229,5.229,0,0,1,37.8,344.857Z" transform="translate(-37.727 -338.69)"/></g><g transform="translate(11.175 2.382)"><path class="e" d="M51.147,336.395c-.046,0-.192-1.566-.326-3.5s-.206-3.514-.16-3.517.191,1.566.325,3.505S51.192,336.392,51.147,336.395Z" transform="translate(-50.648 -329.373)"/></g><g transform="translate(4.849 2.201)"><path class="e" d="M34.492,328.939a5.189,5.189,0,0,1,.93-.028c.573,0,1.365.021,2.238.05s1.664.065,2.237.1a5.142,5.142,0,0,1,.926.09,5.179,5.179,0,0,1-.928.028c-.573,0-1.365-.021-2.24-.05s-1.666-.064-2.238-.1A5.136,5.136,0,0,1,34.492,328.939Z" transform="translate(-34.492 -328.91)"/></g></g><g transform="translate(17.946 15.736)"><path class="e" d="M68.006,349.945a.776.776,0,0,1-.02-.186c-.006-.139-.014-.316-.024-.533-.021-.463-.026-1.134-.008-1.963s.071-1.816.171-2.908.264-2.289.488-3.535.505-2.423.789-3.484.587-2,.865-2.787.517-1.412.7-1.84l.211-.492a.812.812,0,0,1,.084-.168.777.777,0,0,1-.053.18l-.182.5c-.164.434-.388,1.067-.649,1.853s-.546,1.731-.828,2.789-.545,2.233-.774,3.474-.383,2.434-.5,3.522-.176,2.071-.206,2.9-.046,1.5-.045,1.959c0,.217-.005.394-.007.533A.788.788,0,0,1,68.006,349.945Z" transform="translate(-67.943 -332.049)"/></g><g transform="translate(14.539 24.555)"><g transform="translate(0)"><path class="e" d="M63.442,354.571a3.828,3.828,0,0,1-.553.607c-.359.358-.868.838-1.449,1.347s-1.124.951-1.526,1.26a3.8,3.8,0,0,1-.674.469,4.251,4.251,0,0,1,.6-.56L61.33,356.4l1.478-1.308A4.216,4.216,0,0,1,63.442,354.571Z" transform="translate(-59.239 -354.57)"/></g></g><g transform="translate(19.21 22.459)"><path class="e" d="M75.09,354.849a6.551,6.551,0,0,1-.589-.816l-1.37-2-1.4-1.98a6.437,6.437,0,0,1-.56-.836,5.685,5.685,0,0,1,.654.766c.384.488.9,1.176,1.441,1.955s1.008,1.5,1.332,2.031A5.606,5.606,0,0,1,75.09,354.849Z" transform="translate(-71.171 -349.218)"/></g><g transform="translate(14.229 16.972)"><g transform="translate(0)"><path class="e" d="M65.05,335.206c.025.039-1.433,1.02-3.255,2.191s-3.321,2.091-3.346,2.052,1.433-1.02,3.256-2.192S65.025,335.168,65.05,335.206Z" transform="translate(-58.448 -335.205)"/></g></g><g transform="translate(20.646 17.215)"><path class="e" d="M79.132,340.02a27.1,27.1,0,0,1-2.2-2.037,27.194,27.194,0,0,1-2.089-2.156,27.175,27.175,0,0,1,2.2,2.037A27.275,27.275,0,0,1,79.132,340.02Z" transform="translate(-74.838 -335.826)"/></g><g transform="translate(25.974 12.162)"><path class="g" d="M88.446,332.079l1.251-.1a6.188,6.188,0,0,0,2.527-.773,10.092,10.092,0,0,1,1.178-.592,15.167,15.167,0,0,1,4.939-.594,20.446,20.446,0,0,0,7.856-2.009.764.764,0,0,0,.342-.311c.257-.468-.22-.885-.631-1.138a25.8,25.8,0,0,0-6.645-3.259,8.7,8.7,0,0,0-7.145.868c-2.395,1.648-3.267,5.033-3.672,7.911" transform="translate(-88.446 -322.921)"/><g transform="translate(0.027 1.186)"><path class="e" d="M106.608,329.387a1.253,1.253,0,0,1-.212-.1l-.593-.311c-.514-.271-1.255-.67-2.191-1.119a20.486,20.486,0,0,0-3.391-1.307,11.193,11.193,0,0,0-4.4-.356,7.514,7.514,0,0,0-4.007,1.72,8.914,8.914,0,0,0-2.086,2.93,24.488,24.488,0,0,0-.908,2.282l-.223.631a1.238,1.238,0,0,1-.088.217,1.261,1.261,0,0,1,.056-.227l.193-.641a20.784,20.784,0,0,1,.863-2.311,8.868,8.868,0,0,1,2.091-3,7.6,7.6,0,0,1,4.087-1.771,11.186,11.186,0,0,1,4.457.374,19.678,19.678,0,0,1,3.4,1.349c.933.464,1.665.879,2.17,1.167l.578.338A1.224,1.224,0,0,1,106.608,329.387Z" transform="translate(-88.514 -325.949)"/></g><g transform="translate(7.897 1.37)"><path class="e" d="M115.833,331.287c-.025.038-1.662-1.021-3.655-2.364s-3.588-2.464-3.563-2.5,1.662,1.02,3.656,2.365S115.859,331.249,115.833,331.287Z" transform="translate(-108.615 -326.419)"/></g><g transform="translate(10.963 1.272)"><path class="e" d="M118.852,326.182a3.963,3.963,0,0,1-1.191.215,4.053,4.053,0,0,1-1.215-.016,7.819,7.819,0,0,1,1.2-.123A7.93,7.93,0,0,1,118.852,326.182Z" transform="translate(-116.445 -326.17)"/></g><g transform="translate(4.984 0.35)"><path class="e" d="M102.4,323.816a3.164,3.164,0,0,1-.537.839,3.592,3.592,0,0,1-.68.773,3.164,3.164,0,0,1,.537-.839A3.59,3.59,0,0,1,102.4,323.816Z" transform="translate(-101.175 -323.815)"/></g><g transform="translate(2.693 3.68)"><path class="e" d="M100.3,335.841a4.3,4.3,0,0,1-.787-.427c-.473-.287-1.112-.708-1.794-1.2S96.435,333.246,96,332.9a4.794,4.794,0,0,1-.679-.583,4.775,4.775,0,0,1,.75.489l1.744,1.267c.681.494,1.305.928,1.76,1.239A5.384,5.384,0,0,1,100.3,335.841Z" transform="translate(-95.323 -332.319)"/></g></g><g transform="translate(24.886 26.072)"><path class="g" d="M88.6,359.011a2.645,2.645,0,0,0-2.862,2.055,5.8,5.8,0,0,0,.739,3.562,18.166,18.166,0,0,0,4.936,6.458,12.2,12.2,0,0,0,7.547,2.778c-.5-2.343.134-4.792-.148-7.173a9.33,9.33,0,0,0-8.264-8.182c-.762-.083-1.644-.2-1.948.5" transform="translate(-85.666 -358.446)"/><g transform="translate(2.93 0.565)"><path class="e" d="M103.508,374.742a.786.786,0,0,1-.17-.079,3.142,3.142,0,0,1-.446-.3,4.658,4.658,0,0,1-1.179-1.576c-.19-.37-.4-.771-.611-1.215s-.416-.921-.642-1.419a13.652,13.652,0,0,0-.789-1.517,11.859,11.859,0,0,0-1.086-1.477c-.817-.96-1.694-1.79-2.454-2.584a16.877,16.877,0,0,1-1.871-2.245,8.234,8.234,0,0,1-.914-1.746,5.315,5.315,0,0,1-.16-.512.788.788,0,0,1-.038-.183c.016,0,.083.244.258.672a9,9,0,0,0,.951,1.7,17.739,17.739,0,0,0,1.884,2.2c.763.785,1.645,1.613,2.471,2.583a11.768,11.768,0,0,1,1.1,1.5,13.537,13.537,0,0,1,.79,1.539l.628,1.425c.2.442.407.848.59,1.219a4.821,4.821,0,0,0,1.116,1.58C103.282,374.615,103.518,374.726,103.508,374.742Z" transform="translate(-93.148 -359.889)"/></g><g transform="translate(7.112 8.164)"><path class="e" d="M103.836,384.6a3.6,3.6,0,0,1,.11-.8c.094-.491.247-1.166.453-1.9s.429-1.391.606-1.859a3.616,3.616,0,0,1,.326-.742,4.3,4.3,0,0,1-.215.781c-.148.476-.35,1.134-.557,1.866s-.377,1.4-.5,1.882A4.308,4.308,0,0,1,103.836,384.6Z" transform="translate(-103.83 -379.297)"/></g><g transform="translate(7.333 6.419)"><path class="e" d="M110.125,376.138a4.9,4.9,0,0,1-.841-.193c-.514-.135-1.224-.318-2.015-.5s-1.511-.316-2.033-.415a4.923,4.923,0,0,1-.843-.186,4.084,4.084,0,0,1,.861.07c.529.07,1.256.191,2.051.369s1.5.382,2.011.546A4.075,4.075,0,0,1,110.125,376.138Z" transform="translate(-104.394 -374.84)"/></g><g transform="translate(2.684 3.207)"><path class="e" d="M92.525,372.818a4.886,4.886,0,0,1,.129-.93c.1-.57.272-1.353.5-2.209s.46-1.621.648-2.169a4.826,4.826,0,0,1,.342-.874,5.716,5.716,0,0,1-.23.909c-.158.556-.376,1.323-.6,2.176s-.407,1.629-.541,2.191A5.655,5.655,0,0,1,92.525,372.818Z" transform="translate(-92.52 -366.636)"/></g><g transform="translate(3.688 1.991)"><path class="e" d="M101.722,364.244c0,.046-1.495-.075-3.327-.269s-3.316-.389-3.311-.434,1.495.075,3.328.269S101.727,364.2,101.722,364.244Z" transform="translate(-95.084 -363.53)"/></g></g><g transform="translate(10.723 43.615)"><g transform="translate(0.04 0.04)"><rect class="f" width="23.319" height="3.204"/></g><path class="f" d="M72.892,406.534h-23.4V403.25h23.4Zm-23.319-.08H72.812V403.33H49.573Z" transform="translate(-49.494 -403.25)"/></g><g transform="translate(12.925 45.793)"><path class="f" d="M55.117,408.812l3.357,16.559H70.893l3.245-15.492Z" transform="translate(-55.117 -408.812)"/></g><g transform="translate(12.925 60.785)"><path class="f" d="M55.117,447.1l1.79,2.461H72l2.135-2.461Z" transform="translate(-55.117 -447.102)"/></g><g transform="translate(10.724 46.763)"><path class="e" d="M72.893,411.372c0,.046-5.238.083-11.7.083s-11.7-.037-11.7-.083,5.237-.083,11.7-.083S72.893,411.326,72.893,411.372Z" transform="translate(-49.497 -411.289)"/></g><g transform="translate(14.712 53.503)"><g transform="translate(0)"><path class="b" d="M75.447,428.586c0,.046-3.529.083-7.881.083s-7.882-.037-7.882-.083,3.528-.083,7.882-.083S75.447,428.54,75.447,428.586Z" transform="translate(-59.683 -428.503)"/></g></g><g transform="translate(14.85 54.467)"><path class="b" d="M75.523,431.048c0,.046-3.468.083-7.744.083s-7.745-.037-7.745-.083,3.467-.083,7.745-.083S75.523,431,75.523,431.048Z" transform="translate(-60.034 -430.965)"/></g><g transform="translate(14.308 52.709)"><path class="b" d="M74.956,426.558c0,.046-3.65.083-8.152.083s-8.153-.037-8.153-.083,3.65-.083,8.153-.083S74.956,426.512,74.956,426.558Z" transform="translate(-58.651 -426.475)"/></g></g></g><g transform="translate(120.643 139.474)"><g transform="translate(0 0)"><g transform="translate(19.638 26.388)"><g transform="translate(7.992 15.265)"><rect class="e" width="23.331" height="1.135"/></g><path class="e" d="M328.293,310.938l-4.376-16.4h18.217l3.963,16.4Z" transform="translate(-323.917 -294.539)"/><g transform="translate(1.026 0.758)"><path class="d" d="M346.6,310.874H330.325l-3.788-14.4H342.9Z" transform="translate(-326.537 -296.474)"/></g><g transform="translate(1.026 0.758)"><path class="c" d="M326.81,297.509H343.17l-.275-1.035H326.537Z" transform="translate(-326.537 -296.474)"/></g><g transform="translate(1.834 1.097)"><g transform="translate(1.231)"><path class="b" d="M331.745,297.519a.179.179,0,1,0,.179-.179A.179.179,0,0,0,331.745,297.519Z" transform="translate(-331.745 -297.34)"/></g><g transform="translate(0.616)"><path class="b" d="M330.173,297.519a.179.179,0,1,0,.179-.179A.179.179,0,0,0,330.173,297.519Z" transform="translate(-330.173 -297.34)"/></g><path class="b" d="M328.6,297.519a.179.179,0,1,0,.179-.179A.179.179,0,0,0,328.6,297.519Z" transform="translate(-328.601 -297.34)"/></g><g transform="translate(4.661 4.429)"><g transform="translate(6.04 1.06)"><path class="g" d="M354.14,311.173l1.791,2.05a2.533,2.533,0,0,0,1.1-2.061,2.907,2.907,0,0,0-5.784.023Z" transform="translate(-351.248 -308.56)"/></g><g transform="translate(5.798 3.956)"><path class="e" d="M353.536,316a4.107,4.107,0,0,1,.511.513c.32.343.777.844,1.325,1.456l.062.069-.077.058a3.1,3.1,0,0,1-3.021.3,2.953,2.953,0,0,1-1.242-1,2.545,2.545,0,0,1-.461-1.345l0-.091h.089c.857,0,1.567,0,2.059.007a4.433,4.433,0,0,1,.758.036,5.33,5.33,0,0,1-.789.061c-.494.023-1.191.049-2.026.07l.086-.092a2.41,2.41,0,0,0,.446,1.24,2.8,2.8,0,0,0,1.164.926,2.969,2.969,0,0,0,2.84-.25l-.015.127c-.519-.607-.947-1.119-1.246-1.484A4.941,4.941,0,0,1,353.536,316Z" transform="translate(-350.629 -315.955)"/></g><g transform="translate(7.535 1.964)"><path class="e" d="M355.064,311.03a.162.162,0,1,0,.162-.163A.162.162,0,0,0,355.064,311.03Z" transform="translate(-355.064 -310.867)"/></g><g transform="translate(4.312 0.843)"><path class="e" d="M346.833,308.115a9.279,9.279,0,0,1,1.935-.11h.3l.029.029a7.645,7.645,0,0,1,1.12,1.253,7.61,7.61,0,0,1-1.262-1.11l.071.029-.258,0A9.263,9.263,0,0,1,346.833,308.115Z" transform="translate(-346.833 -308.005)"/></g><path class="e" d="M336.469,308.856a6.042,6.042,0,0,1-.185-.756c-.11-.5-.265-1.224-.443-2.114l-.02-.1h.1l4.049-.035.1.083h0v.011l0,.012,0,.024.009.048.018.1.036.192.072.38.138.74c.089.482.174.945.255,1.382l.02.11h-.111c-1.216,0-2.24-.018-2.95-.032l-.821-.022a1.172,1.172,0,0,1-.278-.022,1.863,1.863,0,0,1,.314-.025l.84-.029c.715-.02,1.716-.043,2.9-.055l-.09.11-.269-1.379-.142-.739-.072-.379-.037-.192-.018-.1-.009-.048,0-.024,0-.012v-.011h0l.1.083-4.049,0,.081-.1c.154.86.272,1.576.352,2.084A7.718,7.718,0,0,1,336.469,308.856Z" transform="translate(-335.821 -305.852)"/><g transform="translate(4.515 5.224)"><g transform="translate(2.779)"><path class="e" d="M354.449,319.357a.162.162,0,1,0,.162-.163A.162.162,0,0,0,354.449,319.357Z" transform="translate(-354.449 -319.194)"/></g><g transform="translate(0 0.066)"><path class="e" d="M347.351,319.47a10.673,10.673,0,0,1,2.941-.012,10.673,10.673,0,0,1-2.941.012Z" transform="translate(-347.351 -319.362)"/></g></g><g transform="translate(0.019 4.422)"><path class="e" d="M336.513,319.4a3.486,3.486,0,0,1-.178-.541c-.107-.361-.26-.894-.44-1.559l-.025-.094.1,0c1.1-.02,2.569-.036,4.175-.042l.1.077h0v.006l0,.009,0,.017.009.035.018.07.036.139.07.276.137.54.258,1.025.03.12h-.123c-1.238,0-2.294-.016-3.031-.031l-.854-.023a1.19,1.19,0,0,1-.291-.024,1.8,1.8,0,0,1,.327-.027l.872-.03c.741-.021,1.773-.043,2.976-.055l-.092.119-.267-1.023-.14-.54-.071-.276-.036-.139-.018-.07-.009-.035,0-.018,0-.009v-.007h0l.1.076c-1.606.006-3.073,0-4.175-.009l.074-.1c.155.64.274,1.167.355,1.539A4.649,4.649,0,0,1,336.513,319.4Z" transform="translate(-335.87 -317.145)"/></g><g transform="translate(0.969 0.896)"><path class="e" d="M338.3,308.247a9.473,9.473,0,0,1,2.77-.011,9.44,9.44,0,0,1-2.77.011Z" transform="translate(-338.296 -308.14)"/></g><g transform="translate(1.003 1.349)"><path class="e" d="M338.383,309.405a9.587,9.587,0,0,1,2.787-.011,9.547,9.547,0,0,1-2.787.011Z" transform="translate(-338.383 -309.298)"/></g><g transform="translate(1.086 1.787)"><path class="e" d="M338.594,310.522a8.917,8.917,0,0,1,2.69-.011,8.917,8.917,0,0,1-2.69.011Z" transform="translate(-338.594 -310.415)"/></g><g transform="translate(1.051 5.254)"><path class="e" d="M338.505,319.377a8.6,8.6,0,0,1,2.641-.011,8.6,8.6,0,0,1-2.641.011Z" transform="translate(-338.505 -319.27)"/></g><g transform="translate(1.215 5.756)"><path class="e" d="M338.924,320.659a6.266,6.266,0,0,1,2.252-.009,6.266,6.266,0,0,1-2.252.009Z" transform="translate(-338.924 -320.553)"/></g></g></g><g transform="translate(0 42.734)"><path class="e" d="M273.763,336.285v2.151h1.408V381.98h2.89V338.436H293.4V381.98h2.89V338.436h66.536V381.97h2.89V338.436h1.251v-2.151Z" transform="translate(-273.763 -336.285)"/></g><g transform="translate(62.662 58.88)"><path class="e" d="M433.8,377.6a22.466,22.466,0,0,0,3.758,0,22.371,22.371,0,0,0-3.758,0Z" transform="translate(-433.8 -377.522)"/></g><g transform="translate(35.189 59.303)"><ellipse class="f" cx="0.102" cy="0.05" rx="0.102" ry="0.05"/></g><g transform="translate(28.576)"><g transform="translate(8.72 4.012)"><path class="r" d="M385.426,254.025l-10.794-10.966-.233-1.187c-.045-.217-.09-.46-.132-.735a2.921,2.921,0,0,1,.017-.966,4.382,4.382,0,0,1,.333-1.149c.182-.318-.109-.7-.41-.57a3.06,3.06,0,0,0-.935,2.178c-.112,1.184-1.123-.387-1.5-.953a11.219,11.219,0,0,0-1.889-2.282c-.382-.029-.48.384-.089.941s1.448,2.309,1.148,2.5l-.011,0a1.412,1.412,0,0,0-1.491.74c-.272.523-.576,1.265-.327,1.608A19.407,19.407,0,0,0,370.831,245l.361.311s9.338,13.532,11.374,13.971c1.266.273,20.836,1.9,20.836,1.9l1.476-5.391Z" transform="translate(-369.017 -237.392)"/><g transform="translate(0.007 4.797)"><g transform="translate(0.001 0.001)"><path class="r" d="M369.04,250.405l1,.959a1.18,1.18,0,0,0,.376.276.358.358,0,0,0,.495-.471,1.188,1.188,0,0,0-.229-.355l-.971-1.166" transform="translate(-369.04 -249.647)"/></g><path class="s" d="M369.707,249.645c.022-.018.209.168.495.482l.493.559a1.83,1.83,0,0,1,.275.373.528.528,0,0,1-.027.554.489.489,0,0,1-.546.125,1.1,1.1,0,0,1-.391-.275l-.523-.533a2.351,2.351,0,0,1-.446-.528,2.356,2.356,0,0,1,.545.424l.552.5a.966.966,0,0,0,.327.222.3.3,0,0,0,.321-.063.337.337,0,0,0,.007-.342,1.818,1.818,0,0,0-.239-.339l-.46-.587A2.358,2.358,0,0,1,369.707,249.645Z" transform="translate(-369.036 -249.644)"/></g><g transform="translate(0.716 4.099)"><g transform="translate(0.001 0.001)"><path class="r" d="M370.85,248.623l1,.959a1.186,1.186,0,0,0,.376.276.358.358,0,0,0,.495-.471,1.179,1.179,0,0,0-.23-.356l-.97-1.166" transform="translate(-370.85 -247.865)"/></g><path class="s" d="M371.517,247.863c.022-.018.209.167.495.482l.494.559a1.842,1.842,0,0,1,.275.373.528.528,0,0,1-.027.554.489.489,0,0,1-.546.125,1.1,1.1,0,0,1-.391-.275l-.523-.533a2.366,2.366,0,0,1-.446-.527,2.332,2.332,0,0,1,.545.424l.552.5a.97.97,0,0,0,.327.223.3.3,0,0,0,.321-.063.338.338,0,0,0,.007-.343,1.816,1.816,0,0,0-.239-.338l-.46-.587A2.36,2.36,0,0,1,371.517,247.863Z" transform="translate(-370.846 -247.862)"/></g><g transform="translate(1.494 3.527)"><g transform="translate(0.002 0.001)"><path class="r" d="M372.836,247.161l1,.959a1.193,1.193,0,0,0,.376.276.358.358,0,0,0,.495-.471,1.187,1.187,0,0,0-.23-.356l-.97-1.166" transform="translate(-372.836 -246.403)"/></g><path class="s" d="M373.5,246.4c.022-.018.209.168.495.482l.494.559a1.831,1.831,0,0,1,.275.373.528.528,0,0,1-.027.554.489.489,0,0,1-.546.125,1.1,1.1,0,0,1-.391-.275l-.523-.533a2.354,2.354,0,0,1-.446-.527,2.332,2.332,0,0,1,.545.424l.552.5a.972.972,0,0,0,.326.223.3.3,0,0,0,.322-.063.339.339,0,0,0,.007-.343,1.834,1.834,0,0,0-.239-.338l-.46-.587A2.35,2.35,0,0,1,373.5,246.4Z" transform="translate(-372.832 -246.4)"/></g><g transform="translate(3.073 4.318)"><path class="s" d="M376.867,250.047c0-.032.247-.082.608.029l-.115.1a1.708,1.708,0,0,1-.025-.686,1.749,1.749,0,0,1,.374-.834c.154-.18.284-.251.3-.231a3.575,3.575,0,0,0-.473,1.1,2.031,2.031,0,0,0-.006.619l.021.157-.136-.058C377.1,250.105,376.865,250.087,376.867,250.047Z" transform="translate(-376.867 -248.419)"/></g></g><g transform="translate(27.814)"><g transform="translate(1.696 2.356)"><path class="r" d="M431.871,235.01l.046,15.022-5.857.279-.237-3.6s-2.825.429-3.416-1.7c-.377-1.358-.283-11.853-.283-11.853Z" transform="translate(-422.113 -233.161)"/></g><path class="e" d="M418.032,230.982a12.768,12.768,0,0,0,2.5,2.54l.934,2.5c.811-.635,1.9-.6,2.106.827.149,1.03-1.132,1.238-1.132,1.238a18.682,18.682,0,0,0,2.337,3.5,3.457,3.457,0,0,0,3.107,1.459h1.4s2.875-2.4,2.307-8.73-6.257-4.481-7.614-6.062C421.772,225.684,416.584,227.986,418.032,230.982Z" transform="translate(-417.781 -227.145)"/><g transform="translate(0.308 2.417)"><path class="f" d="M431.756,243.366a2.018,2.018,0,0,1-.7-.032,3.615,3.615,0,0,1-1.679-.863,9.126,9.126,0,0,1-1.7-2.244,8.079,8.079,0,0,0-2.153-2.632,8.623,8.623,0,0,0-3.245-1.031,6.125,6.125,0,0,1-2.621-1,2.817,2.817,0,0,1-1.05-1.555,1.614,1.614,0,0,1-.029-.695,2.388,2.388,0,0,0,.06.687,2.816,2.816,0,0,0,1.054,1.517,6.127,6.127,0,0,0,2.6.969,8.611,8.611,0,0,1,3.276,1.037,8.078,8.078,0,0,1,2.171,2.661,9.218,9.218,0,0,0,1.67,2.239,3.651,3.651,0,0,0,1.646.876,2.849,2.849,0,0,0,.509.06C431.693,243.363,431.756,243.366,431.756,243.366Z" transform="translate(-418.566 -233.317)"/></g><g transform="translate(0.382 1.58)"><path class="f" d="M432.2,236.92s-.1-.031-.3-.092a4.513,4.513,0,0,0-.881-.2,1.979,1.979,0,0,0-1.357.3,1.115,1.115,0,0,0-.472.713.991.991,0,0,0,.273.9.754.754,0,0,0,.473.188.993.993,0,0,0,.522-.143,1.6,1.6,0,0,0,.708-.9,2.242,2.242,0,0,0-1.89-2.94,3.937,3.937,0,0,0-1.456.191,10.324,10.324,0,0,1-1.507.362,6.13,6.13,0,0,1-1.6,0,5.269,5.269,0,0,1-1.541-.427,1.862,1.862,0,0,1-1.055-1.112,1.454,1.454,0,0,1,.358-1.419,1.251,1.251,0,0,1,1.376-.2,1.052,1.052,0,0,1,.51.48,1.148,1.148,0,0,1,.108.674,1.531,1.531,0,0,1-.686,1.074,2.2,2.2,0,0,1-1.157.322,3.413,3.413,0,0,1-1.1-.169,3.929,3.929,0,0,1-1.612-.994,4.138,4.138,0,0,1-1.115-2.035c-.035-.205-.049-.313-.049-.313s.025.106.065.309a4.4,4.4,0,0,0,.3.85,4.141,4.141,0,0,0,.827,1.157,3.9,3.9,0,0,0,1.6.971,3.367,3.367,0,0,0,1.079.161,2.141,2.141,0,0,0,1.122-.316,1.464,1.464,0,0,0,.651-1.026,1.007,1.007,0,0,0-.579-1.077,1.176,1.176,0,0,0-1.291.191,1.377,1.377,0,0,0-.335,1.341,1.785,1.785,0,0,0,1.013,1.061,5.2,5.2,0,0,0,1.516.419,6.054,6.054,0,0,0,1.577,0,10.219,10.219,0,0,0,1.5-.359,4,4,0,0,1,1.485-.191,2.313,2.313,0,0,1,1.946,3.039,1.664,1.664,0,0,1-.741.937,1.061,1.061,0,0,1-.555.148.816.816,0,0,1-.51-.206,1.044,1.044,0,0,1-.286-.948,1.162,1.162,0,0,1,.5-.74,2.006,2.006,0,0,1,1.387-.3,4.31,4.31,0,0,1,.883.212C432.1,236.879,432.2,236.92,432.2,236.92Z" transform="translate(-418.756 -231.18)"/></g></g><g transform="translate(31.91 78.69)"><path class="g" d="M430.531,434.187l-1.915-2.456,4.578-3.616,2.839,3.564-.269.242c-1.208,1.068-6.217,5.344-7.264,5.755C427.333,438.135,430.531,434.187,430.531,434.187Z" transform="translate(-428.244 -428.115)"/><g class="t" transform="translate(0.002 3.468)"><path class="i" d="M429.025,441.572s-1.053,1.47-.706,1.56,5.572-4.041,7.717-6.065l-.088-.1-6.053,4.87S429.3,441.373,429.025,441.572Z" transform="translate(-428.25 -436.971)"/></g><g transform="translate(0.011 3.408)"><path class="e" d="M436.031,436.819a.5.5,0,0,1-.072.07l-.215.192-.8.693c-.682.581-1.636,1.371-2.708,2.22s-2.06,1.6-2.781,2.128l-.859.623-.237.165a.051.051,0,1,1-.009-.011l.229-.176.845-.641c.714-.542,1.7-1.294,2.767-2.143s2.029-1.632,2.72-2.2l.818-.676.224-.182A.536.536,0,0,1,436.031,436.819Z" transform="translate(-428.271 -436.819)"/></g><g transform="translate(0.701 8.004)"><path class="e" d="M431.039,448.962a1.539,1.539,0,0,0-1-.368.943.943,0,0,1,1,.368Z" transform="translate(-430.035 -448.557)"/></g><g transform="translate(1.971 6.46)"><path class="e" d="M433.822,444.81a.613.613,0,0,1-.283-.061c-.15-.052-.266-.11-.26-.128a.614.614,0,0,1,.283.061C433.712,444.734,433.828,444.791,433.822,444.81Z" transform="translate(-433.278 -444.614)"/></g><g transform="translate(2.242 6.113)"><path class="e" d="M434.457,443.781c0,.02-.112.028-.246.02s-.243-.031-.242-.051.112-.028.246-.02S434.458,443.761,434.457,443.781Z" transform="translate(-433.969 -443.727)"/></g><g transform="translate(2.148 5.548)"><path class="e" d="M434.2,442.286c.013.015-.084.113-.215.219s-.247.179-.259.164.084-.113.215-.219S434.192,442.271,434.2,442.286Z" transform="translate(-433.729 -442.284)"/></g><g transform="translate(1.952 5.181)"><path class="e" d="M433.741,441.348a.6.6,0,0,1-.205.288.589.589,0,0,1-.3.181c-.01-.018.118-.1.256-.233S433.723,441.336,433.741,441.348Z" transform="translate(-433.231 -441.347)"/></g><g transform="translate(0.944 6.279)"><path class="e" d="M431.755,444.251a1.076,1.076,0,0,1-.3.231,2.184,2.184,0,0,1-.368.178,1.089,1.089,0,0,1-.237.068.2.2,0,0,1-.145-.034.147.147,0,0,1-.048-.153.688.688,0,0,1,.791-.37.672.672,0,0,1,.251.121c.051.041.073.07.07.073a1.059,1.059,0,0,0-.332-.145.676.676,0,0,0-.38.036.579.579,0,0,0-.332.3c-.02.072.042.112.119.1a1.118,1.118,0,0,0,.221-.06,2.625,2.625,0,0,0,.365-.161C431.635,444.331,431.748,444.242,431.755,444.251Z" transform="translate(-430.656 -444.151)"/></g><g transform="translate(1.694 5.638)"><path class="e" d="M432.855,443.33c0,.007-.1-.034-.2-.177a.62.62,0,0,1-.09-.278.376.376,0,0,1,.126-.343.149.149,0,0,1,.2.064.406.406,0,0,1,.054.171,1.124,1.124,0,0,1,0,.287.536.536,0,0,1-.074.252c-.011,0,.017-.1.024-.256a1.319,1.319,0,0,0-.016-.274c-.009-.094-.07-.228-.154-.183a.337.337,0,0,0-.1.278.621.621,0,0,0,.068.257A1.307,1.307,0,0,0,432.855,443.33Z" transform="translate(-432.57 -442.514)"/></g><g transform="translate(5.748 2.229)"><path class="e" d="M443.864,433.809c.007.011-.141.091-.328.279a1.828,1.828,0,0,0-.443,1.9c.085.251.183.388.171.4a.344.344,0,0,1-.073-.092,1.565,1.565,0,0,1-.145-.286,1.772,1.772,0,0,1,.456-1.956,1.524,1.524,0,0,1,.256-.192A.331.331,0,0,1,443.864,433.809Z" transform="translate(-442.924 -433.809)"/></g><g transform="translate(4.707 0.7)"><path class="e" d="M440.266,429.9a20.373,20.373,0,0,1,1.511,1.862,20.328,20.328,0,0,1-1.511-1.862Z" transform="translate(-440.266 -429.903)"/></g><g transform="translate(3.845 4.848)"><path class="e" d="M439.392,440.5a4.793,4.793,0,0,1-1.327,1.07c-.011-.017.3-.235.667-.531S439.377,440.482,439.392,440.5Z" transform="translate(-438.064 -440.496)"/></g><g transform="translate(6.038 4.138)"><path class="e" d="M443.7,438.683c.02,0,.025.083.049.175s.055.167.038.178-.081-.054-.107-.161S443.676,438.679,443.7,438.683Z" transform="translate(-443.664 -438.683)"/></g><g transform="translate(6.018 3.45)"><path class="e" d="M443.669,436.926c.02,0,.028.073.018.159s-.033.153-.052.151-.028-.073-.018-.159S443.65,436.924,443.669,436.926Z" transform="translate(-443.613 -436.926)"/></g><g transform="translate(6.2 2.87)"><path class="e" d="M444.284,435.45c.009.018-.052.066-.1.143s-.069.151-.089.15-.032-.094.03-.188S444.278,435.433,444.284,435.45Z" transform="translate(-444.079 -435.445)"/></g><g transform="translate(6.574 2.51)"><path class="e" d="M445.138,434.528c.017.01.009.054-.017.1s-.061.073-.078.063-.009-.054.017-.1S445.121,434.518,445.138,434.528Z" transform="translate(-445.033 -434.526)"/></g><g class="h" transform="translate(1.525 1.794)"><path d="M437.2,433.014l-4.632,3.538-.428-.557,4.867-3.3Z" transform="translate(-432.138 -432.696)"/></g></g><g transform="translate(9.188 84.092)"><g transform="translate(0.017)"><path class="g" d="M374.195,445.049l.009-3.114,5.834-.022.036,4.556-.361.024c-1.61.1-8.19.371-9.267.049C369.242,446.183,374.195,445.049,374.195,445.049Z" transform="translate(-370.256 -441.913)"/></g><g class="t" transform="translate(0 3.776)"><path class="i" d="M371.748,451.557s-1.735.507-1.518.793,6.878.257,9.815-.013l-.01-.13-7.769.1S372.088,451.57,371.748,451.557Z" transform="translate(-370.212 -451.557)"/></g><g transform="translate(0.017 4.419)"><path class="e" d="M380.153,453.2a.554.554,0,0,1-.1.011l-.288.018-1.06.05c-.9.036-2.133.069-3.5.076s-2.606-.014-3.5-.041l-1.06-.04-.288-.016a.551.551,0,0,1-.1-.01.5.5,0,0,1,.1,0l.289,0,1.061.017c.9.015,2.133.027,3.5.021s2.6-.033,3.5-.056l1.061-.027.289-.006A.5.5,0,0,1,380.153,453.2Z" transform="translate(-370.254 -453.199)"/></g><g transform="translate(1.493 3.705)"><path class="e" d="M374.59,452.286a1.54,1.54,0,0,0-.563-.91.943.943,0,0,1,.563.91Z" transform="translate(-374.026 -451.374)"/></g><g transform="translate(3.462 3.25)"><path class="e" d="M379.366,450.7c-.016.011-.1-.089-.185-.223s-.142-.251-.125-.261.1.089.185.223S379.383,450.689,379.366,450.7Z" transform="translate(-379.053 -450.214)"/></g><g transform="translate(3.879 3.156)"><path class="e" d="M380.486,450.3c-.013.014-.105-.047-.206-.136s-.172-.175-.159-.189.105.046.206.136S380.5,450.286,380.486,450.3Z" transform="translate(-380.119 -449.973)"/></g><g transform="translate(3.933 2.901)"><path class="e" d="M380.866,449.352a1.329,1.329,0,1,1-.305-.031A.7.7,0,0,1,380.866,449.352Z" transform="translate(-380.256 -449.321)"/></g><g transform="translate(3.953 2.537)"><path class="e" d="M381,448.4a.857.857,0,0,1-.69.055,1.907,1.907,0,0,1,.345-.025A1.842,1.842,0,0,1,381,448.4Z" transform="translate(-380.308 -448.393)"/></g><g transform="translate(2.474 2.706)"><path class="e" d="M377.631,449.345a1.069,1.069,0,0,1-.375,0,2.178,2.178,0,0,1-.4-.086,1.083,1.083,0,0,1-.229-.093.2.2,0,0,1-.094-.116.148.148,0,0,1,.056-.15.687.687,0,0,1,.851.2.666.666,0,0,1,.123.249.207.207,0,0,1,.01.1,1.055,1.055,0,0,0-.172-.319.677.677,0,0,0-.321-.207.579.579,0,0,0-.446.033c-.06.044-.036.114.031.153a1.129,1.129,0,0,0,.211.089,2.55,2.55,0,0,0,.386.1C377.488,449.334,377.631,449.333,377.631,449.345Z" transform="translate(-376.53 -448.824)"/></g><g transform="translate(3.43 2.519)"><path class="e" d="M379.02,449.074a.369.369,0,0,1-.044-.26.615.615,0,0,1,.1-.275.376.376,0,0,1,.311-.192.149.149,0,0,1,.116.172.407.407,0,0,1-.063.168,1.126,1.126,0,0,1-.176.227.536.536,0,0,1-.214.153c-.006-.009.074-.068.177-.187a1.3,1.3,0,0,0,.156-.226c.051-.079.086-.222-.008-.238s-.189.085-.246.16a.621.621,0,0,0-.1.244A1.4,1.4,0,0,0,379.02,449.074Z" transform="translate(-378.973 -448.347)"/></g><g transform="translate(7.723 2.789)"><path class="e" d="M392,449.072c0,.013-.167-.015-.431.017a1.827,1.827,0,0,0-1.523,1.224c-.088.251-.1.419-.109.417a.338.338,0,0,1,0-.118A1.558,1.558,0,0,1,390,450.3a1.773,1.773,0,0,1,1.565-1.258,1.532,1.532,0,0,1,.321.007A.358.358,0,0,1,392,449.072Z" transform="translate(-389.936 -449.035)"/></g><g transform="translate(9.154 0.401)"><path class="e" d="M393.612,442.938a20.4,20.4,0,0,1,.041,2.4,20.4,20.4,0,0,1-.041-2.4Z" transform="translate(-393.592 -442.938)"/></g><g transform="translate(5.277 3.946)"><path class="e" d="M385.395,452a4.794,4.794,0,0,1-1.7.023c0-.021.383,0,.852-.006S385.392,451.977,385.395,452Z" transform="translate(-383.69 -451.991)"/></g><g transform="translate(7.96 3.944)"><path class="e" d="M390.707,451.987c.014.014-.031.081-.069.168s-.059.165-.079.164-.031-.092.015-.193S390.694,451.973,390.707,451.987Z" transform="translate(-390.541 -451.985)"/></g><g transform="translate(8.334 3.405)"><path class="e" d="M391.716,450.613c.014.014-.023.074-.084.136s-.12.1-.134.086.023-.074.083-.136S391.7,450.6,391.716,450.613Z" transform="translate(-391.495 -450.61)"/></g><g transform="translate(8.837 3.127)"><path class="e" d="M393.114,449.933c0,.02-.081.02-.167.05s-.147.076-.163.063.033-.094.139-.13S393.12,449.915,393.114,449.933Z" transform="translate(-392.782 -449.9)"/></g><g transform="translate(9.432 3.03)"><path class="e" d="M394.477,449.664c.007.018-.026.049-.074.067s-.094.02-.1,0,.026-.048.075-.067S394.47,449.646,394.477,449.664Z" transform="translate(-394.301 -449.651)"/></g><g class="h" transform="translate(3.953 1.857)"><path d="M386.189,447.391l-5.881.006.006-.7,5.853-.038Z" transform="translate(-380.308 -446.656)"/></g></g><g transform="translate(0 30.896)"><g transform="translate(7.921)"><path class="r" d="M386.6,308.631l-2.336,7.034c-.631,1.9-2.291,2.225-4.292,2.225H366.977v-2.915l11.871-1.7,2.829-7.227Z" transform="translate(-366.977 -306.053)"/></g><g transform="translate(0 5.764)"><path class="r" d="M353.239,323.327l-1.031-.488s-1.111-2.148-1.366-2.062-.33.718.117,1.7l-1.37-.391s-2.97,1.372-2.838,1.557a.685.685,0,0,0,1.021.292c.647-.331,1.494-.719,1.494-.719l1.6.457-2.063.262-1.94,1.766a.95.95,0,0,0,1.187-.029l5.04,1.083,1.579.089v-2.915Z" transform="translate(-346.746 -320.775)"/><g transform="translate(1.301 3.868)"><path class="s" d="M350.07,331.686c.021.014.115-.135.3-.333a1.538,1.538,0,0,1,.367-.283,1.5,1.5,0,0,1,.544-.142,7.552,7.552,0,0,0,1.513-.258,7.452,7.452,0,0,0-1.532.1,1.483,1.483,0,0,0-.6.173,1.407,1.407,0,0,0-.379.337A.89.89,0,0,0,350.07,331.686Z" transform="translate(-350.068 -330.653)"/></g><g transform="translate(2.072 4.717)"><path class="s" d="M352.058,333.208c.019,0,.035-.1.176-.134s.374-.054.612-.078a4.974,4.974,0,0,0,.886-.09,1.78,1.78,0,0,0-.9-.067,2.716,2.716,0,0,0-.634.13.253.253,0,0,0-.153.159C352.03,333.181,352.048,333.209,352.058,333.208Z" transform="translate(-352.039 -332.821)"/></g></g></g><g transform="translate(21.303 17.684)"><path class="m" d="M408.5,286.566l-1,3.385-6.342-2.871c.228-.709,1.277-3.866,3.285-8.876a8.612,8.612,0,0,1,6.574-5.3,37.6,37.6,0,0,1,6.073-.6c3.556.039,8.792,2.262,9.5,5.749.537,2.661.019,7.359.019,13.068l-.464,10.907-18.225.618Z" transform="translate(-401.154 -272.309)"/><g class="h" transform="translate(11.916 16.091)"><path d="M445.1,313.607c-2.218.454-4.495,0-6.754-.138-1.37-.081-2.89-.229-3.974.613a4.857,4.857,0,0,0-1.453,2.85,54.361,54.361,0,0,0-1.33,10.889l10.97.665Z" transform="translate(-431.587 -313.404)"/></g><g transform="translate(6.874 2.416)"><path class="e" d="M418.71,278.481c0,.016.182.027.485.146a2.53,2.53,0,0,1,1.05.85,3.538,3.538,0,0,1,.627,1.9,11.95,11.95,0,0,1-.192,2.5,41.845,41.845,0,0,1-1.018,4.468c-.15.547-.274,1-.368,1.342a3.156,3.156,0,0,0-.117.5,3.21,3.21,0,0,0,.176-.48c.1-.312.247-.766.417-1.329a34.71,34.71,0,0,0,1.067-4.473,11.518,11.518,0,0,0,.181-2.533,3.585,3.585,0,0,0-.683-1.956,2.48,2.48,0,0,0-1.117-.84,1.777,1.777,0,0,0-.373-.085A.428.428,0,0,0,418.71,278.481Z" transform="translate(-418.71 -278.478)"/></g><g transform="translate(0.198 13.906)"><path class="e" d="M401.66,307.824a6.094,6.094,0,0,0,.894.513c.563.3,1.352.684,2.236,1.083s1.7.733,2.292.959a6.133,6.133,0,0,0,.976.33,7.268,7.268,0,0,0-.933-.434c-.582-.253-1.386-.6-2.269-1s-1.676-.77-2.251-1.039A7.263,7.263,0,0,0,401.66,307.824Z" transform="translate(-401.659 -307.823)"/></g></g><g transform="translate(9.869 47.505)"><g transform="translate(5.341 1.351)"><path class="e" d="M388.977,351.922a6.5,6.5,0,0,0-2.652,8.7l15.863,27.235,7.318-4.42-12.318-24.59,8.927-5.827" transform="translate(-385.591 -351.922)"/></g><path class="e" d="M399.992,348.472l-21.775.771a6.5,6.5,0,0,0-6.265,6.592l.9,31.1,9.158-.02-.305-29.405,18.283-.481Z" transform="translate(-371.951 -348.472)"/><g transform="translate(9.74 10.102)"><path class="f" d="M396.844,374.271a1.588,1.588,0,0,1,.026.287c.009.209.021.483.035.825.027.717.055,1.755.082,3.036.055,2.565.092,6.108.111,10.021s.038,7.437.051,10.021c.007,1.266.013,2.3.017,3.037,0,.343,0,.617,0,.826a1.553,1.553,0,0,1-.015.288,1.5,1.5,0,0,1-.026-.287c-.009-.209-.021-.483-.036-.825-.027-.717-.055-1.754-.082-3.036-.055-2.564-.092-6.108-.111-10.022s-.038-7.436-.051-10.02c-.007-1.265-.013-2.3-.017-3.037,0-.343,0-.617,0-.826A1.505,1.505,0,0,1,396.844,374.271Z" transform="translate(-396.826 -374.271)"/></g></g></g><g transform="translate(48.042 27.769)"><path class="f" d="M424.338,298.066H417.75a4.8,4.8,0,0,0-4.8,4.8v22.984H399.786a3.325,3.325,0,0,0-3.325,3.325h30.053c0-.006,0-.013,0-.019a2.742,2.742,0,0,0,2.626-2.739V302.868A4.8,4.8,0,0,0,424.338,298.066Z" transform="translate(-396.461 -298.066)"/><g transform="translate(18.301 0.758)"><path class="e" d="M443.3,300c.056,0,.1,6.755.1,15.085s-.046,15.086-.1,15.086-.1-6.753-.1-15.086S443.246,300,443.3,300Z" transform="translate(-443.2 -300.002)"/></g><g transform="translate(7.302 31.124)"><path class="f" d="M425.378,401.668V377.556h-2.142v24.112c-1.307,2.578-4.381,4.322-8.126,5.75H434.2C430.326,405.842,426.826,404.632,425.378,401.668Z" transform="translate(-415.11 -377.556)"/></g></g></g></g><g transform="translate(64.302 162.145)"><g transform="translate(4.133)"><path class="e" d="M146.139,342.258a.94.94,0,0,1,.06-.143l.192-.409a10.275,10.275,0,0,0,.564-1.637,14.452,14.452,0,0,0-.048-6.324,33.94,33.94,0,0,0-1.173-4.248c-.5-1.508-1.073-3.107-1.544-4.836a18.709,18.709,0,0,1-.762-5.56,21.753,21.753,0,0,1,1.294-5.884,28.6,28.6,0,0,0,1.5-5.8,8.832,8.832,0,0,0-1.063-5.352c-.847-1.562-1.914-2.9-2.712-4.281a14.888,14.888,0,0,1-1.63-4.115,15.317,15.317,0,0,1-.1-6.376,11.86,11.86,0,0,1,.665-2.251.9.9,0,0,1-.04.15l-.135.432a16.347,16.347,0,0,0-.413,1.685,15.528,15.528,0,0,0,.165,6.328,14.835,14.835,0,0,0,1.636,4.063c.8,1.367,1.867,2.7,2.731,4.277a9.012,9.012,0,0,1,1.1,5.461,28.565,28.565,0,0,1-1.5,5.838,21.682,21.682,0,0,0-1.288,5.829,18.619,18.619,0,0,0,.744,5.5c.464,1.721,1.033,3.321,1.524,4.832a33.466,33.466,0,0,1,1.154,4.273,14.3,14.3,0,0,1-.016,6.371,9.479,9.479,0,0,1-.6,1.635l-.211.4A.872.872,0,0,1,146.139,342.258Z" transform="translate(-140.425 -285.046)"/></g><g transform="translate(6.786 5.834)"><path class="g" d="M147.65,308.218s-1.621-5.183,1.287-8.217a.18.18,0,0,1,.308.089C149.4,300.946,149.594,303.553,147.65,308.218Z" transform="translate(-147.2 -299.945)"/><g transform="translate(0.392 1.784)"><path class="e" d="M149.23,304.5a4.771,4.771,0,0,1-.109.956l-.37,2.285c-.136.854-.258,1.627-.363,2.286a5.235,5.235,0,0,1-.171.946,4.021,4.021,0,0,1,.029-.964c.054-.592.158-1.406.305-2.3s.3-1.7.429-2.279A4.309,4.309,0,0,1,149.23,304.5Z" transform="translate(-148.201 -304.5)"/></g></g><g transform="translate(9.108 19.659)"><g transform="translate(0.032)"><path class="g" d="M153.212,341.924s.991-5.338,4.98-6.661a.18.18,0,0,1,.231.223C158.159,336.315,157.112,338.71,153.212,341.924Z" transform="translate(-153.212 -335.254)"/></g><g transform="translate(0 1.388)"><path class="e" d="M157.056,338.8a4.791,4.791,0,0,1-.543.794l-1.4,1.847-1.39,1.85a5.2,5.2,0,0,1-.594.756,4.023,4.023,0,0,1,.476-.838c.324-.5.8-1.17,1.346-1.891s1.061-1.361,1.445-1.814A4.31,4.31,0,0,1,157.056,338.8Z" transform="translate(-153.131 -338.798)"/></g></g><g transform="translate(8.019 31.868)"><g transform="translate(0.003)"><path class="g" d="M150.4,374.29s-.6-5.4,2.831-7.82a.18.18,0,0,1,.285.146C153.5,367.485,153.194,370.081,150.4,374.29Z" transform="translate(-150.355 -366.435)"/></g><g transform="translate(0 1.669)"><path class="e" d="M152.583,370.7a4.728,4.728,0,0,1-.289.917l-.8,2.173-.792,2.174a5.246,5.246,0,0,1-.349.9,4.022,4.022,0,0,1,.212-.94c.166-.571.424-1.351.738-2.2s.621-1.61.856-2.155A4.334,4.334,0,0,1,152.583,370.7Z" transform="translate(-150.348 -370.697)"/></g></g><g transform="translate(11.025 45.449)"><g transform="translate(0.027)"><path class="g" d="M158.11,408.865s-.409-5.414,3.108-7.714a.18.18,0,0,1,.28.156C161.457,402.176,161.057,404.76,158.11,408.865Z" transform="translate(-158.096 -401.121)"/></g><g transform="translate(0 1.641)"><path class="e" d="M160.479,405.313a4.776,4.776,0,0,1-.322.906l-.876,2.143-.87,2.144a5.213,5.213,0,0,1-.381.883,4.01,4.01,0,0,1,.246-.932c.186-.565.471-1.335.816-2.173s.678-1.587.933-2.123A4.3,4.3,0,0,1,160.479,405.313Z" transform="translate(-158.026 -405.312)"/></g></g><g transform="translate(0 2.652)"><path class="g" d="M134.776,298.721s-4.813-2.513-4.907-6.714a.18.18,0,0,1,.281-.155C130.865,292.346,132.847,294.05,134.776,298.721Z" transform="translate(-129.869 -291.82)"/><g transform="translate(0.997 1.63)"><path class="e" d="M132.418,295.982a4.768,4.768,0,0,1,.6.753l1.357,1.876,1.361,1.871a5.24,5.24,0,0,1,.549.79,4,4,0,0,1-.661-.7c-.381-.456-.884-1.106-1.413-1.841s-.989-1.414-1.31-1.914A4.323,4.323,0,0,1,132.418,295.982Z" transform="translate(-132.416 -295.981)"/></g></g><g transform="translate(4.769 14.081)"><path class="g" d="M147.355,327.611s-4.957-2.217-5.306-6.4a.18.18,0,0,1,.271-.172C143.063,321.485,145.146,323.065,147.355,327.611Z" transform="translate(-142.048 -321.008)"/><g transform="translate(1.084 1.577)"><path class="e" d="M144.818,325.037a4.769,4.769,0,0,1,.645.715l1.468,1.79,1.473,1.785a5.206,5.206,0,0,1,.6.755,3.991,3.991,0,0,1-.7-.659c-.408-.432-.949-1.05-1.522-1.752s-1.074-1.352-1.424-1.831A4.315,4.315,0,0,1,144.818,325.037Z" transform="translate(-144.817 -325.036)"/></g></g><g transform="translate(4.99 24.866)"><path class="g" d="M144.847,356.784s-3.4-4.231-1.807-8.118a.179.179,0,0,1,.319-.03C143.817,349.376,144.95,351.731,144.847,356.784Z" transform="translate(-142.614 -348.552)"/><g transform="translate(0.755 1.836)"><path class="e" d="M144.551,353.242a4.745,4.745,0,0,1,.248.93c.142.652.308,1.417.492,2.262l.5,2.26a5.215,5.215,0,0,1,.186.943,4.014,4.014,0,0,1-.325-.907c-.167-.571-.368-1.367-.558-2.253s-.34-1.692-.434-2.278A4.345,4.345,0,0,1,144.551,353.242Z" transform="translate(-144.542 -353.242)"/></g></g><g transform="translate(5.396 41.019)"><path class="g" d="M148.849,396.494s-4.919-2.3-5.2-6.492a.18.18,0,0,1,.274-.168C144.662,390.3,146.716,391.912,148.849,396.494Z" transform="translate(-143.651 -389.807)"/><g transform="translate(1.061 1.592)"><path class="e" d="M146.361,393.874a4.755,4.755,0,0,1,.632.726l1.438,1.814,1.442,1.81a5.231,5.231,0,0,1,.583.765,4,4,0,0,1-.691-.671c-.4-.439-.932-1.065-1.493-1.777s-1.051-1.369-1.393-1.854A4.315,4.315,0,0,1,146.361,393.874Z" transform="translate(-146.359 -393.873)"/></g></g><g transform="translate(9.39 25.124)"><g transform="translate(1.609 1.235)"><path class="e" d="M167.354,352.364a.4.4,0,0,1,.006.12c0,.094-.005.209-.009.347-.014.326-.034.767-.058,1.316-.063,1.157-.152,2.771-.258,4.7v.011a18.251,18.251,0,0,1-2.7,6.257c-.986,1.558-2.02,2.973-2.911,4.29a30.443,30.443,0,0,0-2.182,3.608,15.313,15.313,0,0,0-1.021,2.647c-.086.324-.151.577-.189.75a1.333,1.333,0,0,1-.072.262A1.376,1.376,0,0,1,158,376.4c.024-.176.077-.433.152-.762a13.992,13.992,0,0,1,.968-2.69,28.8,28.8,0,0,1,2.156-3.65c.885-1.326,1.913-2.744,2.894-4.294a18.5,18.5,0,0,0,2.7-6.181l0,.011c.135-1.929.249-3.541.33-4.7.045-.549.08-.988.106-1.314l.034-.345A.4.4,0,0,1,167.354,352.364Z" transform="translate(-157.961 -352.364)"/></g><g transform="translate(6.982 5.215)"><path class="g" d="M172.774,370.9s2.083-5.014-.537-8.3a.18.18,0,0,0-.315.061C171.69,363.5,171.261,366.076,172.774,370.9Z" transform="translate(-171.683 -362.529)"/><g transform="translate(0.696 1.818)"><path class="e" d="M173.477,367.172a4.327,4.327,0,0,1,.165.949c.074.589.156,1.4.221,2.309s.1,1.725.1,2.319a3.987,3.987,0,0,1-.058.962,5.216,5.216,0,0,1-.085-.958c-.045-.665-.1-1.446-.155-2.309s-.115-1.644-.161-2.31A4.789,4.789,0,0,1,173.477,367.172Z" transform="translate(-173.462 -367.172)"/></g><g class="h"><path d="M172.774,370.9s2.083-5.014-.537-8.3a.18.18,0,0,0-.315.061C171.69,363.5,171.261,366.076,172.774,370.9Z" transform="translate(-171.683 -362.529)"/></g></g><g transform="translate(0 17.38)"><path class="g" d="M155.472,401.886s1.67-5.167-1.208-8.228a.18.18,0,0,0-.309.086C153.791,394.6,153.572,397.2,155.472,401.886Z" transform="translate(-153.851 -393.6)"/><g transform="translate(0.703 1.788)"><path class="e" d="M155.655,398.166a4.317,4.317,0,0,1,.242.932c.121.581.27,1.388.407,2.283s.235,1.711.283,2.3a4.017,4.017,0,0,1,.02.964,5.2,5.2,0,0,1-.162-.948l-.341-2.289-.348-2.289A4.77,4.77,0,0,1,155.655,398.166Z" transform="translate(-155.647 -398.166)"/></g><g class="h"><path d="M155.472,401.886s1.67-5.167-1.208-8.228a.18.18,0,0,0-.309.086C153.791,394.6,153.572,397.2,155.472,401.886Z" transform="translate(-153.851 -393.6)"/></g></g><g transform="translate(10.726)"><path class="g" d="M181.244,356.666s4.448-3.114,4-7.292a.18.18,0,0,0-.3-.118C184.3,349.84,182.554,351.785,181.244,356.666Z" transform="translate(-181.244 -349.211)"/><g class="h"><path d="M181.244,356.666s4.448-3.114,4-7.292a.18.18,0,0,0-.3-.118C184.3,349.84,182.554,351.785,181.244,356.666Z" transform="translate(-181.244 -349.211)"/></g><g transform="translate(0.042 1.723)"><path class="e" d="M184.5,353.612a4.309,4.309,0,0,1-.37.889c-.254.537-.622,1.27-1.052,2.067s-.845,1.507-1.164,2.008a4.007,4.007,0,0,1-.565.78,5.21,5.21,0,0,1,.442-.854l1.108-2.031,1.1-2.036A4.791,4.791,0,0,1,184.5,353.612Z" transform="translate(-181.35 -353.612)"/></g></g><g transform="translate(3.414 15.516)"><path class="g" d="M162.571,393.866s5.365-.836,6.8-4.785a.179.179,0,0,0-.216-.237C168.321,389.083,165.9,390.061,162.571,393.866Z" transform="translate(-162.571 -388.837)"/><g class="h"><path d="M162.571,393.866s5.365-.836,6.8-4.785a.179.179,0,0,0-.216-.237C168.321,389.083,165.9,390.061,162.571,393.866Z" transform="translate(-162.571 -388.837)"/></g><g transform="translate(0.033 1.289)"><path class="e" d="M168.015,392.129a4.307,4.307,0,0,1-.723.635c-.464.37-1.118.866-1.855,1.392s-1.422.981-1.929,1.291a4.045,4.045,0,0,1-.851.452,5.17,5.17,0,0,1,.773-.572l1.89-1.336,1.887-1.342A4.788,4.788,0,0,1,168.015,392.129Z" transform="translate(-162.656 -392.128)"/></g></g></g><g transform="translate(6.122 55.542)"><path class="f" d="M147.068,426.9,145.5,437.43h9.753L153.992,426.9Z" transform="translate(-145.503 -426.897)"/></g><g transform="translate(7.134 58.704)"><path class="e" d="M155.955,435.075a38.227,38.227,0,0,1-3.933.1,38.214,38.214,0,0,1-3.933-.1,38.022,38.022,0,0,1,3.933-.1A38.035,38.035,0,0,1,155.955,435.075Z" transform="translate(-148.09 -434.973)"/></g><g transform="translate(7.07 59.542)"><path class="e" d="M156.048,437.215c0,.056-1.819.1-4.062.1s-4.062-.045-4.062-.1,1.818-.1,4.062-.1S156.048,437.159,156.048,437.215Z" transform="translate(-147.925 -437.114)"/></g></g></g></svg>