<svg xmlns="http://www.w3.org/2000/svg" width="240" height="203.01" viewBox="0 0 240 203.01"><defs><style>.a{fill:#7c473a;}.b{fill:#ffdbdd;}.c{fill:#20324c;}.d{fill:#f0f7ff;}.e{fill:#5ece97;}.f{fill:#ffc3a1;}.g{fill:#e88364;}.h{fill:#e6a075;}.i{fill:#dfe6ed;}.j{fill:#ebf3fa;}.k{fill:#385578;}.l{fill:#593127;}.m{fill:#c4ccf2;}.n{fill:#7d483b;}.o{fill:#d0c165;}.p{fill:#c1a95b;}.q{fill:#945d4e;}</style></defs><g transform="translate(-1029.09 -515.667)"><g transform="translate(1029.09 515.666)"><path class="a" d="M1143.237,540.25c-3.74-1.352-8.458.022-12.029,1.3-1.639.584-8.2,2.526-6.82,5.237a21.886,21.886,0,0,0,1.731,2.148,16.8,16.8,0,0,1,1.446,2.481c.788,1.674,1.01,3.611,2.155,5.093.279.361.791.158,1.006-.13,1.061-1.42,3.353-1.657,4.965-1.993,2.037-.425,4.086-.63,6.139-.934,2.734-.405,4.444-3.772,5.649-5.965a.6.6,0,0,0,.046-.516C1148.331,544.458,1145.436,541.045,1143.237,540.25Z" transform="translate(-1094.694 -532.24)"/><path class="b" d="M1134.436,1110.753q-.459-7.458-.535-14.931a.9.9,0,0,0-.309-.706.83.83,0,0,0-.954-.63,12.888,12.888,0,0,0-3.5.888,1.007,1.007,0,0,0-.592.64.949.949,0,0,0-.241.67l.186,13.853a.922.922,0,0,0,.976.936,1,1,0,0,0,.4.184,9.607,9.607,0,0,0,3.451.154,1.377,1.377,0,0,0,.249-.062A.909.909,0,0,0,1134.436,1110.753Z" transform="translate(-1097.525 -914.92)"/><path class="b" d="M1247.772,1109.208q-1.145-7.384-1.91-14.818a.9.9,0,0,0-.373-.674.83.83,0,0,0-1.009-.54,12.882,12.882,0,0,0-3.4,1.207,1.006,1.006,0,0,0-.531.692.953.953,0,0,0-.179.689l1.463,13.776a.922.922,0,0,0,1.058.842,1,1,0,0,0,.419.147,9.613,9.613,0,0,0,3.45-.165,1.332,1.332,0,0,0,.242-.085A.909.909,0,0,0,1247.772,1109.208Z" transform="translate(-1174.821 -914.004)"/><path class="c" d="M1134.078,1103.434q-.138-3.8-.178-7.613a.9.9,0,0,0-.309-.706.83.83,0,0,0-.954-.63,12.884,12.884,0,0,0-3.5.888,1.006,1.006,0,0,0-.592.64.951.951,0,0,0-.241.67l.1,7.8A30.441,30.441,0,0,0,1134.078,1103.434Z" transform="translate(-1097.525 -914.919)"/><path class="c" d="M1240.964,1101.383c1.864-.262,3.726-.69,5.568-1.12-.241-1.956-.469-3.913-.67-5.873a.9.9,0,0,0-.373-.674.83.83,0,0,0-1.009-.54,12.882,12.882,0,0,0-3.4,1.207,1.006,1.006,0,0,0-.531.692.954.954,0,0,0-.179.689Z" transform="translate(-1174.821 -914.004)"/><path d="M1187.023,860.319c-1.812-13.288-2.208-33.028-4.814-46.189-2.566-12.962-6.129-25.679-9.52-38.441-1.261-4.745-2.312-9.541-3.454-14.316-.57-2.384-1.155-4.766-1.811-7.128-.56-2.016-1.011-2.256-2.9-2.938-4.622-1.666-12.445-3.4-15.068,2.289-1.557,3.378-.893,7.473-.71,11.054.674,13.132.968,26.452,5.469,38.971,3.039,8.441,6.4,16.781,9.724,25.114,3.69,9.264,6.388,23.862,10.371,33,.308.707,8.427.5,12.01-.182A1.033,1.033,0,0,0,1187.023,860.319Z" transform="translate(-1111.421 -677.092)"/><path class="c" d="M1180.327,890.951c-2.595.342-5.174.787-7.771,1.12-3.962.508-7.953.936-11.846,1.817q.585,2.337,1.33,4.645c3.969-1.253,8.055-1.983,12.128-2.841,4.139-.871,8.24-1.911,12.37-2.822-.244-.964-.5-1.927-.745-2.89A44.43,44.43,0,0,1,1180.327,890.951Z" transform="translate(-1119.879 -773.86)"/><path class="c" d="M1155.37,760.358c2.739,1.368,5.2,3.2,7.87,4.678,2.531,1.4,4.773,1.79,7.012.546q-.491-2.105-.99-4.208c-.57-2.384-1.155-4.766-1.811-7.128-.56-2.016-1.011-2.256-2.9-2.938-4.622-1.666-12.445-3.4-15.068,2.289a12.281,12.281,0,0,0-1,4.792A16.665,16.665,0,0,1,1155.37,760.358Z" transform="translate(-1111.448 -677.092)"/><path class="c" d="M1177.062,890.213a34.9,34.9,0,0,0-2.61,7.451,45.774,45.774,0,0,0-.664,8.554q1.461,3.873,2.977,7.728C1176.679,912.525,1177.384,895.98,1177.062,890.213Z" transform="translate(-1128.899 -774.022)"/><path class="c" d="M1148.885,788.951c.756-2.478,1.34-5,1.98-7.515a11.75,11.75,0,0,0-2.4-.323c.021,1.766.208,3.545.294,5.213Q1148.822,787.637,1148.885,788.951Z" transform="translate(-1111.43 -698.766)"/><path d="M1134.457,757.49c-1.75-3.1-4.395-5.91-7.951-6.807-3.1-.782-10.185,2.872-10.32,3.6-4.978,26.823-3.44,54.279-2.655,81.387l.307,28.095a1.019,1.019,0,0,0,.739.971,32.254,32.254,0,0,0,12.767-.615s3.313-41.329,5.919-58.7c1.293-8.621,3.237-17.068,4.86-25.622A33.113,33.113,0,0,0,1134.457,757.49Z" transform="translate(-1086.746 -677.701)"/><path class="c" d="M1124.472,845.477c-2.214,1.478-4.255,3.291-6.71,4.371a28.469,28.469,0,0,1-4.918,1.455q-.152,5.08-.158,10.17c3.118,1.026,6.143,2.526,9.116,3.766,3.673,1.532,8.287,3.1,12.243,2.259,1.263-8.043,2.489-15.933,3.994-23.923C1134.349,840.769,1127.783,843.266,1124.472,845.477Z" transform="translate(-1086.752 -740.991)"/><path class="c" d="M1118.755,790.512c-.124.907-.245,1.815-.355,2.723a58.81,58.81,0,0,0,7.7,2.949c.544.192,1.085.391,1.625.592.371-1.1.7-2.217,1-3.337C1125.346,792.659,1122.064,791.539,1118.755,790.512Z" transform="translate(-1090.694 -705.25)"/><path class="c" d="M1168.957,793.677c-.713-.725-2.067-1.416-2.293-2.506-.2-.968.794-1.7,1.327-2.371.287-.36.586-.709.891-1.052-1.437.571-2.874,1.141-4.333,1.65a73.419,73.419,0,0,1-7.944,1.957,34.575,34.575,0,0,0-6.747,2.346c.471,9.629.915,19.319,3.127,28.685,3.22-.728,6.508-1.149,9.789-1.557.1-.179.2-.355.305-.526a.482.482,0,0,1,.046-.366c1.816-3.383,3.554-6.807,5.153-10.3,1.482-3.236,3.292-6.735,3.084-10.4A8.757,8.757,0,0,0,1168.957,793.677Z" transform="translate(-1112.393 -703.343)"/><path class="c" d="M1128.919,759a15.977,15.977,0,0,1,7.578,1.971c2.4,1.2,4.577,2.749,6.876,4.109a32.761,32.761,0,0,0-3.088-7.586c-1.75-3.1-4.395-5.91-7.951-6.807-3.1-.782-10.185,2.872-10.32,3.6q-.485,2.615-.889,5.239C1123.714,759.245,1126.33,759.076,1128.919,759Z" transform="translate(-1092.574 -677.701)"/><path class="d" d="M1168.324,773.762c-.5-2.906-1.992-9.666-2.626-9.737-3.221-.361-6.868-.272-10.089-.634-3.027-.339-6.208-1.012-9.254-.844a1.059,1.059,0,0,0-.7,1.766.885.885,0,0,0,.711.8,57.348,57.348,0,0,1,20.881,10C1168.029,775.707,1168.455,774.517,1168.324,773.762Z" transform="translate(-1109.309 -685.942)"/><path class="e" d="M1202.334,674.122c-.856-3.584-2.591-6.935-4.008-10.317q-2.191-5.227-4.147-10.55c-1.451-3.948-2.618-7.084-4.161-10.993-1.2-3.043-3.861-7.009-6.961-8.547-.273-.135.314.585.119.69a1.023,1.023,0,0,0-1.5.868q-.131,5.867-.262,11.735c-.085,3.815-.411,7.71-.236,11.521.147,3.218,2.788,5.653,4.649,8.069q3.535,4.592,7.071,9.183a34.187,34.187,0,0,0,2.935,3.559,2.909,2.909,0,0,0,3.443.577C1202.128,678.908,1203.027,677.02,1202.334,674.122Z" transform="translate(-1133.966 -597.082)"/><path class="f" d="M1175.929,783.41a7.656,7.656,0,0,0-5.391.939c-1.141.724-2.134,1.993-1.182,3.247a10.4,10.4,0,0,0,4.7,3.122,1.015,1.015,0,0,0,1.239-.7c.29-1.208,1.274-1.771,2.271-2.359a.916.916,0,0,0,.482-.845,1.086,1.086,0,0,0,.069-.176C1178.518,785.2,1177.275,783.827,1175.929,783.41Z" transform="translate(-1125.579 -700.229)"/><path class="e" d="M1116.459,643.479c-.028-5.585,1.7-11.649-.428-17.106-1.961-5.028-7.259-7.809-12.049-9.583A55.229,55.229,0,0,0,1084,613.4c-2.514.044-5.177.422-6.82,2.536-1.737,2.234-1.927,5.446-1.773,8.157.367,6.477,2.384,12.956,4.79,18.937,2.745,6.822,8.683,21.7,9.614,21.4,4.018-1.285,9.41-1.769,13.654-1.988,4.26-.221,11.351.38,15.3,1.891C1119.277,664.539,1116.491,649.684,1116.459,643.479Z" transform="translate(-1061.005 -583.078)"/><path class="f" d="M1143.15,569.93a33.936,33.936,0,0,0-4.963-7.109.78.78,0,0,0-1.059-.193,7.215,7.215,0,0,0-1.123-.117.969.969,0,0,0-.961.961,50.223,50.223,0,0,1-2.081,17.558.85.85,0,0,0,.4,1.034c.112.155,8.291,2.821,8.339,1.908.313-6.027,1.7-8.561,2.547-12.842A1.021,1.021,0,0,0,1143.15,569.93Z" transform="translate(-1100.708 -547.971)"/><path class="e" d="M1194.927,743.869c-2.16-.647-4.193.581-5.864,1.884-4.271,3.331-8.433,6.812-12.643,10.218-.972.787,5.207,7.071,7.669,6.024,2.3-.979,12.394-6.033,14.233-7.678C1199.856,752.944,1198.73,745.008,1194.927,743.869Z" transform="translate(-1130.645 -672.953)"/><path class="g" d="M1148.84,577.134a.5.5,0,0,0,.7-.33c.486-1.884,1.033-3.568,1.451-5.674a1.022,1.022,0,0,0-1.1-1.2,33.935,33.935,0,0,0-4.963-7.109.78.78,0,0,0-1.059-.193,7.239,7.239,0,0,0-1.175-.118l-.006.006C1143.347,567.414,1143.962,574.74,1148.84,577.134Z" transform="translate(-1107.445 -547.971)"/><path class="f" d="M1153.5,524.291c-3.136-2.913-8.655-2.515-11.987-.157a6.03,6.03,0,0,0-2.773,4.925,33.75,33.75,0,0,0,.855,7.135c.418,2.1.528,4.6,1.363,6.57a8.592,8.592,0,0,0,3.353,3.578c2.714,1.857,5.839,2.745,7.77-.548a32.207,32.207,0,0,0,3.955-11.472c.5-3.35.155-7.422-2.427-9.928C1153.574,524.359,1153.538,524.325,1153.5,524.291Z" transform="translate(-1104.724 -520.197)"/><path d="M1187.024,568.9c-.217.72-.7,1.211-1.084,1.1s-.517-.792-.3-1.512.7-1.21,1.084-1.1S1187.241,568.182,1187.024,568.9Z" transform="translate(-1137.004 -551.333)"/><path class="d" d="M1135.2,609.674c-.2-.318-.593-.475-.688-.01a16.114,16.114,0,0,1-2.025,5.165c-3.527-2.1-5.812-6.975-5.98-6.976a.571.571,0,0,0-.248.024,8.053,8.053,0,0,0-4.458,1.692c-.207.177,4.391,8.231,8.64,11.233a.417.417,0,0,0,.406.256c.341.1.624-.28.545-.609.394-1.655.8-2.421,1.217-4.032,1.031,1.483,2.723,2.952,3.755,4.435a.478.478,0,0,0,.478.206C1137.124,621.135,1136.707,611.988,1135.2,609.674Z" transform="translate(-1093.036 -579.251)"/><path class="g" d="M1180.8,566.87a.16.16,0,0,0-.32,0c-.007.788-.043,1.573-.12,2.358a3,3,0,0,1-.255,1.26c-.329.537-.958.534-1.49.545a.16.16,0,0,0,0,.32c.775-.016,1.546-.123,1.866-.925A10.5,10.5,0,0,0,1180.8,566.87Z" transform="translate(-1132.123 -550.879)"/><path class="g" d="M1175.473,577.086a7.806,7.806,0,0,0-1.086-.086.16.16,0,0,0,0,.32,7.147,7.147,0,0,1,1,.074C1175.59,577.424,1175.677,577.116,1175.473,577.086Z" transform="translate(-1129.207 -557.973)"/><path class="g" d="M1170.085,587.124a4.186,4.186,0,0,1-2.9-1.188c-.149-.143-.375.083-.226.226a4.531,4.531,0,0,0,3.124,1.282A.16.16,0,0,0,1170.085,587.124Z" transform="translate(-1124.157 -564.105)"/><path class="g" d="M1171.09,592.491a1.861,1.861,0,0,1-.965-.142c-.187-.083-.35.193-.162.276a2.173,2.173,0,0,0,1.127.186C1171.293,592.79,1171.3,592.47,1171.09,592.491Z" transform="translate(-1126.204 -568.55)"/><path d="M1167.182,562.97c-.217.72-.736,1.2-1.159,1.073s-.592-.814-.375-1.534.736-1.2,1.159-1.073S1167.4,562.25,1167.182,562.97Z" transform="translate(-1123.22 -547.223)"/><path class="f" d="M1137.226,560.4c-.329-.783-.684-1.852-1.545-2.19a1.544,1.544,0,0,0-2,1.108c-.558,1.935,1.141,4.119,2.574,5.184a.741.741,0,0,0,1.079-.439A9.261,9.261,0,0,0,1137.226,560.4Z" transform="translate(-1101.161 -544.944)"/><path class="g" d="M1138.945,560.851a2.167,2.167,0,0,1-.843-1.719c.016-.482.2-.943.2-1.427a1.292,1.292,0,0,0-.817-1.267c-.191-.078-.273.231-.085.309,1.129.464.213,2.059.4,2.948a2.936,2.936,0,0,0,.92,1.383C1138.864,561.224,1139.09,561,1138.945,560.851Z" transform="translate(-1103.727 -543.781)"/><path class="a" d="M1168.284,553.5a1.233,1.233,0,0,0-.191-.236,2.892,2.892,0,0,0-2.871-.07.275.275,0,0,0-.1.447.877.877,0,0,0,.274.222c.446.265.934.493,1.4.718a2.025,2.025,0,0,0,1.353.29C1168.493,554.771,1168.6,553.979,1168.284,553.5Z" transform="translate(-1122.869 -541.31)"/><path class="a" d="M1188.643,559.157c-.5-.613-1.544-.985-1.883-.035a1.255,1.255,0,0,0-.045.87c.148.277.539.251.8.23a6.66,6.66,0,0,1,1,.022.4.4,0,0,0,.448-.4A1.17,1.17,0,0,0,1188.643,559.157Z" transform="translate(-1137.773 -545.243)"/><path class="a" d="M1144.35,525.349a5.287,5.287,0,0,0-.618-2.872c-1.084-1.9-2.72-2.287-4.591-2.868-1.249-.387-1.827-1.371-2.779-2.2a7.259,7.259,0,0,0-7.4-1.225c-1.09.451-1.778,1.021-3.015,1.013a6.472,6.472,0,0,0-2.762.616,7.685,7.685,0,0,0-4.062,4.087c-.2.606.035,1.868-.147,2.133-.214.313-1.069.594-1.411.878a4.313,4.313,0,0,0-.871.93,3,3,0,0,0,1,4.356,7.916,7.916,0,0,0,5.585.837.541.541,0,0,1,.539.3.6.6,0,0,0,.227.227,2.909,2.909,0,0,0,3.44-.339,8.127,8.127,0,0,0,1.541-2.15c.76-1.2,1.788-1.116,2.984-1.546a5.574,5.574,0,0,0,3.559-4.178.575.575,0,0,1,.9-.357,6.2,6.2,0,0,1,2.3,4.652c.181,2.2,2.127,3.435,1.111,5.834-.162.383,1.076-.451,1.167-.523a13.052,13.052,0,0,0,2.743-2.159,2.216,2.216,0,0,0,.448-1.716c-.063-.306-.21-.59-.264-.9-.008-.045-.014-.091-.019-.136A20.013,20.013,0,0,1,1144.35,525.349Z" transform="translate(-1089.132 -515.666)"/><path class="h" d="M1142.5,1148.686c-1.221-.6-6.425-2.531-8.687-4.477a.117.117,0,0,1-.035-.052,5.871,5.871,0,0,0-1.065-1.9,2.842,2.842,0,0,0-2.194-.378c-.611.038-1.241.055-1.606.569a6.483,6.483,0,0,0-.46,1.123.152.152,0,0,1-.21.077c-.393-.191-1.442-.655-2.027-.913a.433.433,0,0,0-.577.234,10.679,10.679,0,0,0-.579,3.172,8.712,8.712,0,0,0,.073,3.248.457.457,0,0,0,.131.236c.186.146.674.1.9.122l1.2.1q1.177.093,2.355.18,2.355.173,4.712.314a48.7,48.7,0,0,0,6.152.214c.038,0,.076-.009.114-.009.837-.083,2.748-.2,2.724-.268l-.356-.976A1.119,1.119,0,0,0,1142.5,1148.686Z" transform="translate(-1095.206 -947.588)"/><path class="h" d="M1258.6,1145.282c-2.7-1.33-5.365-2.139-8.064-3.469a22.457,22.457,0,0,0-2.243-1.585c-.471-.281-1.155-.816-1.745-.763-.907.081-1.8,1.215-2.391,2.043q-1.382-.688-2.826-1.237a.734.734,0,0,0-1.244.184,11.821,11.821,0,0,0-1.032,4.914,2.648,2.648,0,0,0,.229,1.162.765.765,0,0,0,.778.477c3.2.1,6.387-.044,9.588-.119,1.53-.036,3.059-.129,4.59-.162s3.083.037,4.625.037C1259.35,1146.783,1259.048,1145.5,1258.6,1145.282Z" transform="translate(-1173.919 -945.947)"/><path class="i" d="M1161.067,816.331a.7.7,0,0,0-.761-.691l-29.722,1.306,2.7-7.245,2.015-5.415c1.42-3.817,2.509-7.4.489-11.326-.872-1.694-2.667-2.187-4.325-2.851q-6.283-2.519-12.786-4.42c-2.36-.7-3.369,2.986-1.015,3.68q5.016,1.479,9.919,3.308c1.355.509,3.321.918,4.486,1.777a3.113,3.113,0,0,1,.927,2.036l-17.518-6.519a2.27,2.27,0,0,0-2.918,1.336l-9.3,24.988a2.269,2.269,0,0,0,1.335,2.918l19.965,7.429a2.269,2.269,0,0,0,2.918-1.335l1-2.681q15.807-3.3,31.853-5.251A.88.88,0,0,0,1161.067,816.331Z" transform="translate(-1080.149 -701.863)"/><path class="j" d="M1131.473,824.722a26.129,26.129,0,0,1-9.278,6.953c-3.6,1.6-7.653,2.362-11.12,4.226a15.892,15.892,0,0,0-5,4.476,2.264,2.264,0,0,0,.56.3l4.521,1.682c.605-.55,1.234-1.077,1.893-1.573,4.055-3.048,9.06-3.733,13.431-6.139,5.892-3.245,7.758-10.36,12.512-14.716a16.844,16.844,0,0,0-.364-3.209C1135.762,818.878,1133.8,822,1131.473,824.722Z" transform="translate(-1082.192 -723.332)"/><path class="j" d="M1231.018,884.276c-.735,1.239-1.443,2.5-2.242,3.7q2.275-.389,4.554-.75c.131-.2.266-.4.4-.61.526-.838,1.032-1.7,1.576-2.528Z" transform="translate(-1166.83 -769.797)"/><path class="f" d="M1174.05,794.652l-1.259-4.046a1.1,1.1,0,0,0-1.465-.676c-.019-.094-.042-.188-.06-.283a.975.975,0,0,0-1.432-.67,1.275,1.275,0,0,0-1.516-.291,1.153,1.153,0,0,0-1.176-.508c-2.628.427-1.218,4.423-.651,5.916a1.192,1.192,0,0,0,1.689.582c.024.026.044.053.069.078a1.932,1.932,0,0,0,1.386.542,1.048,1.048,0,0,0,.823-.111c.013.039.025.078.038.117a1.177,1.177,0,0,0,1.833.487C1173.074,796.286,1174.381,795.717,1174.05,794.652Z" transform="translate(-1123.254 -703.628)"/><path class="f" d="M1131.777,778.123a8.361,8.361,0,0,1-3.616-.209,17.112,17.112,0,0,0-2.791-.874c-1.748-.194-3.1.753-4.337,1.86-1.852-.886-3.955-1.686-5.735-2.47-2.177-.959-3.367,3.59-1.2,4.548,2.048.9,3.778,1.4,6.027,2.357a13.879,13.879,0,0,0,2.2,1.86,7.491,7.491,0,0,0,3.417,2.477.968.968,0,0,0,.5.051,4.467,4.467,0,0,0,.911.291,1.139,1.139,0,0,0,1.012-.274,3.369,3.369,0,0,0,.788.4.99.99,0,0,0,1.261-1.182c1.02.717,2.4-.695,1.4-1.537-.967-.809-3.192-2.738-2.477-4.411a.137.137,0,0,1,.136-.081,4.937,4.937,0,0,0,3.272-.763,1.15,1.15,0,0,0,.205-.182C1133.5,779.456,1132.928,777.945,1131.777,778.123Z" transform="translate(-1086.937 -695.446)"/><path class="e" d="M1052.854,613.367c-6.267-.167-7.872,2.422-9.7,5.24a140.353,140.353,0,0,0-10.614,20.516c-2.087,4.84-3.136,7.446-3.435,12.756-.122,2.17.28,4.482,1.994,5.971,4.086,3.55,6.665-2.916,9.02-5.812,3.7-4.546,6.948-6.106,9.783-11.212,2.419-4.356,4.645-9.255,5.214-14.206C1056.148,621.9,1058.22,613.51,1052.854,613.367Z" transform="translate(-1029.09 -583.053)"/><path class="e" d="M1063.929,741.167c-2.567-1.34-5.141-2.668-7.7-4.021a27.723,27.723,0,0,1-6.879-5.141c-3.341-3.352-6.418-9.522-11.53-8.512a.971.971,0,0,0-.395.167,7.666,7.666,0,0,0-4.676,3.107,1.049,1.049,0,0,0-.373.47c-.915,2.227-1.1,4.97.8,6.737,2.624,2.434,20.352,11.82,27.145,13.445C1060.459,747.451,1064.167,741.292,1063.929,741.167Z" transform="translate(-1030.896 -658.945)"/><path class="c" d="M1205.953,690.918c-2.554-.119-4.692,1.418-6.67,2.841-.412.3-.821.6-1.229.9a.172.172,0,0,0,0-.043,58.631,58.631,0,0,1-.834-14.076c.141-2.313.365-4.621.328-6.941a39.855,39.855,0,0,0-.689-6.7c-.04-.212-.363-.122-.324.089a39.219,39.219,0,0,1,.682,7.106c.006,2.377-.248,4.742-.371,7.113a58.518,58.518,0,0,0,.885,13.5.134.134,0,0,0,.1.114q-2.624,1.952-5.141,4.045c-.166.138.073.375.238.238q3.053-2.539,6.268-4.872c2-1.445,4.16-3.1,6.754-2.979C1206.169,691.264,1206.168,690.928,1205.953,690.918Z" transform="translate(-1141.902 -619.9)"/><path class="c" d="M1095.627,635.378c-.1-.193-.387-.023-.29.169,3.44,6.856.3,14.463-3.8,20.23-.125.176.166.344.29.17C1096.005,650.071,1099.123,642.345,1095.627,635.378Z" transform="translate(-1072.143 -598.182)"/><path class="k" d="M1185.227,888.652a3.563,3.563,0,0,0-.383,3.469c.082.2.407.11.323-.089a3.259,3.259,0,0,1,.35-3.21C1185.641,888.645,1185.35,888.477,1185.227,888.652Z" transform="translate(-1136.33 -772.894)"/><path class="g" d="M1169.4,786.868c-.837.641-2.024,0-2.831.771-.157.149.081.387.237.237.743-.708,1.945-.092,2.763-.719C1169.739,787.028,1169.572,786.736,1169.4,786.868Z" transform="translate(-1123.885 -702.713)"/><path class="g" d="M1159.9,798.242a12.766,12.766,0,0,1-3.572-4.089c-.1-.189-.395-.02-.29.17a13.142,13.142,0,0,0,3.692,4.209C1159.908,798.661,1160.075,798.37,1159.9,798.242Z" transform="translate(-1116.643 -707.705)"/><path class="g" d="M1153.592,800.814a8.389,8.389,0,0,1-3.193-3.789c-.085-.2-.374-.027-.29.17a8.684,8.684,0,0,0,3.314,3.909C1153.6,801.221,1153.773,800.931,1153.592,800.814Z" transform="translate(-1112.556 -709.682)"/><path class="g" d="M1149.086,803.538a4.265,4.265,0,0,1-2.333-2.376c-.1-.193-.387-.023-.29.169a4.573,4.573,0,0,0,2.534,2.53C1149.2,803.927,1149.291,803.6,1149.086,803.538Z" transform="translate(-1110.038 -712.537)"/><path class="g" d="M1184.87,799.152a5.363,5.363,0,0,1-1.124-4.015c.025-.214-.311-.212-.336,0a5.687,5.687,0,0,0,1.222,4.252C1184.766,799.558,1185,799.319,1184.87,799.152Z" transform="translate(-1135.509 -708.33)"/><path class="g" d="M1178.777,798.014a6.969,6.969,0,0,1-.764-4.65c.038-.211-.286-.3-.324-.089a7.359,7.359,0,0,0,.8,4.909C1178.591,798.373,1178.881,798.2,1178.777,798.014Z" transform="translate(-1131.507 -707.072)"/><path class="g" d="M1172.065,795.919a5.852,5.852,0,0,1-.5-4.342.168.168,0,0,0-.324-.089,6.22,6.22,0,0,0,.539,4.6C1171.877,796.279,1172.167,796.11,1172.065,795.919Z" transform="translate(-1126.99 -705.841)"/><path class="c" d="M1050.794,728a10.916,10.916,0,0,0-7.069.267c-.2.076-.113.4.089.324a10.611,10.611,0,0,1,6.89-.267A.168.168,0,0,0,1050.794,728Z" transform="translate(-1039.107 -661.814)"/><path class="l" d="M1129.14,564.15a2.392,2.392,0,0,1-1.584-.23c-.183-.095-.345.182-.162.277a2.751,2.751,0,0,0,1.831.262C1129.427,564.419,1129.341,564.11,1129.14,564.15Z" transform="translate(-1096.843 -548.937)"/><path class="l" d="M1152.312,524.307a2.812,2.812,0,0,0-1.927.067,3.056,3.056,0,0,0-.787.451c-.274.217-.461.664-.721.85s-.809.013-1.116.014a6.746,6.746,0,0,0-1.2.11,6.656,6.656,0,0,0-2.434.96,6.825,6.825,0,0,0-2.843,4.028.16.16,0,0,0,.309.085,6.431,6.431,0,0,1,7.288-4.765.165.165,0,0,0,.181-.074,2.536,2.536,0,0,1,4.833,1.445c-.027.2.294.2.32,0A2.962,2.962,0,0,0,1152.312,524.307Z" transform="translate(-1106.473 -521.531)"/><path class="l" d="M1143.822,526.993a4.112,4.112,0,0,0-4.267.672c-.159.132.069.358.226.226a3.812,3.812,0,0,1,3.879-.622A.16.16,0,0,0,1143.822,526.993Z" transform="translate(-1105.249 -523.239)"/><path class="l" d="M1192.749,538.16c-.186-.084-.349.192-.162.277a3.266,3.266,0,0,1,1.7,4.316c-.078.19.232.274.309.085A3.566,3.566,0,0,0,1192.749,538.16Z" transform="translate(-1141.81 -531.171)"/><path class="c" d="M1261.936,1150a10.633,10.633,0,0,1-5.226-2.406.168.168,0,0,0-.237.238,10.944,10.944,0,0,0,5.374,2.492A.168.168,0,0,0,1261.936,1150Z" transform="translate(-1185.901 -951.522)"/><path class="c" d="M1141.445,1154.176a7.347,7.347,0,0,1-4.4-3.953c-.09-.2-.379-.026-.29.169a7.671,7.671,0,0,0,4.6,4.107C1141.562,1154.568,1141.65,1154.244,1141.445,1154.176Z" transform="translate(-1103.343 -953.312)"/></g><g transform="translate(1171.145 624.527)"><path class="m" d="M1674.287,1105.767c.206,1.069,3.845,1.3,4.75,1.288.574-.007,6.889-.847,8.339-1.62,1.219-.65,3.509-11.1,4.323-14.852.49-2.262-.091-4.471-2.7-3.721a16.171,16.171,0,0,0-7.347,5.253.856.856,0,0,0-.166.5l-.951,4.1a4.1,4.1,0,0,0-.217,2.329c.306.762.842.7,1.412,1.091.53.362.308.035.436.766a3.3,3.3,0,0,1,0,.686l-3.315,1.831C1677.98,1103.9,1674.038,1104.479,1674.287,1105.767Z" transform="translate(-1616.181 -1018.424)"/><path class="f" d="M1563.774,1009.484a.68.68,0,0,0-.191-.455,18.132,18.132,0,0,0-7.04-4.756c-.673-.254-1.1.49-.877,1.008a129.862,129.862,0,0,0-4.159,12.7l-12.157,8.642a.637.637,0,0,0-.25.325.58.58,0,0,0-.2.525,16.7,16.7,0,0,0,.551,3.251,1.586,1.586,0,0,0,1.519.321,99.024,99.024,0,0,0,11.893-5.965c1.742-1.03,2.59-1.477,4.243-2.646a7.3,7.3,0,0,0,2.45-3.073c1.077-2.3,3.035-6.814,4.206-9.232A.76.76,0,0,0,1563.774,1009.484Z" transform="translate(-1522.799 -961.523)"/><path class="e" d="M1647.137,981.391c1.054-2.934.525-9.714.4-10.8-.789-7.012-3.795-12.6-8.179-18.064a69.737,69.737,0,0,0-15.182-14.084,44.234,44.234,0,0,0-13.635-6.4c-3.552-.912-7.321-.374-10.945.044-3.54.409-7.417.6-10.543,2.35-5.909,3.309-8.73,15.749-9.544,19.915a2.851,2.851,0,0,0-.065,2.357c.711,1.047,2.958,1.431,4.064,1.809a65.866,65.866,0,0,0,10.925,2.669.889.889,0,0,0,.814-.413,33.076,33.076,0,0,0,1.78-3.681,45.867,45.867,0,0,0,5.87,4.682,62.4,62.4,0,0,0,12.164,6.269c-.363,2.508-.542,2.459-.213,5a.909.909,0,0,0,.5,1.278c9.7,3.545,20.458,7.535,30.756,6.731C1646.566,981,1646.852,982.184,1647.137,981.391Z" transform="translate(-1550.608 -911.386)"/><path class="c" d="M1722.39,990.827a36.861,36.861,0,0,0-6.036-7.6c-5.073-5.014-10.094-9.184-17.4-9.688l-.839-.043a.531.531,0,0,0-.49.259c-3.809,6.661,8.4,18.752,12.8,21.007.57.292,1.852-1.245,2.648-1.69a.528.528,0,0,1,.608.076c.68.608,2.79,2.507,3.586,3.4a.534.534,0,0,1,.073.6c-.293.57-1.666,2.647-2.128,3.458-.174.305.726-.154,1.068-.073l.007,0c2.732.647,6.132-.337,9.024-.3a.539.539,0,0,0,.535-.623A25.809,25.809,0,0,0,1722.39,990.827Z" transform="translate(-1631.787 -940.332)"/><path class="c" d="M1720.293,1063.332c1.482-1.777,5.1-5.278,5.989-11.434-3.283-2.306-9.307,2.266-13.244,1.43a112.716,112.716,0,0,0-12.747-1.929c-2.057-.194-4.258-.515-6.44-.639a10.872,10.872,0,0,0-.14,4.51.909.909,0,0,0,.5,1.277C1702.452,1059.559,1711.456,1062.89,1720.293,1063.332Z" transform="translate(-1629.469 -993.625)"/><path class="f" d="M1658.091,937.085c-4.217-1.228-8.458-2.4-12.878-2.383a.7.7,0,0,0-.531-.1c-2.207.42-1.947,4.411-1.721,6.045.317,2.292,1.412,5.187,3.726,6.143,2.373.98,4.715-.414,6.471-1.938a16.612,16.612,0,0,0,4.892-6.373A.732.732,0,0,0,1658.091,937.085Z" transform="translate(-1594.481 -913.491)"/><path class="f" d="M1648.747,924.931a12.371,12.371,0,0,1-2.477-3.886c-.222-.637-.225-1.88-.9-2.272-.652-.38-1.457.273-1.94.66-2.146,1.72-2.937,4.525-4.485,6.706a.59.59,0,0,0-.08.591.675.675,0,0,0-.2,1.042q2.441,2.82,5.073,5.463a.661.661,0,0,0,.415.2.64.64,0,0,0,.694-.107q1.946-1.641,3.839-3.343c.648-.585,1.833-1.278,1.836-2.256C1650.528,926.775,1649.307,925.6,1648.747,924.931Z" transform="translate(-1591.503 -902.503)"/><path class="g" d="M1640.846,930.205a22.048,22.048,0,0,0,3.078-4.243,26.566,26.566,0,0,0,1.969-6.468,1.3,1.3,0,0,0-.521-.722c-.652-.38-1.457.273-1.94.66-2.146,1.72-2.937,4.525-4.485,6.706a.59.59,0,0,0-.08.591.675.675,0,0,0-.2,1.042Q1639.738,929.006,1640.846,930.205Z" transform="translate(-1591.503 -902.503)"/><path class="f" d="M1624.612,888.813a4.65,4.65,0,0,1-.576-2.969c.733-2.785,1.939-5.4,2.148-8.315.291-4.061-4.826-7.475-8.47-5.8a.676.676,0,0,0-.6-.024,14.584,14.584,0,0,0-8.128,10.756,18.958,18.958,0,0,0,.553,8.245,18.47,18.47,0,0,0,3.4,6.643c.9,1.026,3.579,1.006,5.316.079,2.321-1.239,5.576-3.815,6.524-6.355A3.016,3.016,0,0,0,1624.612,888.813Z" transform="translate(-1570.987 -869.831)"/><path d="M1636.276,920.289c-.039.741-.456,1.322-.933,1.3s-.832-.646-.794-1.387.456-1.323.933-1.3S1636.315,919.548,1636.276,920.289Z" transform="translate(-1588.777 -902.671)"/><path d="M1614.851,919.171c-.039.741-.418,1.325-.847,1.3s-.747-.641-.709-1.383.418-1.325.848-1.3S1614.89,918.43,1614.851,919.171Z" transform="translate(-1574.116 -901.903)"/><path class="g" d="M1621.584,924.4c-.269-.186-.733-.373-.914-.647a2.4,2.4,0,0,1-.122-1.7c.142-1.033.312-2.061.505-3.086.04-.212-.282-.321-.323-.107a29.122,29.122,0,0,0-.623,4.023c-.044.98.557,1.294,1.289,1.8C1621.578,924.811,1621.764,924.526,1621.584,924.4Z" transform="translate(-1578.816 -902.565)"/><path class="g" d="M1627.614,934.107l-1.01-.2c-.212-.042-.321.28-.107.323l1.01.2C1627.719,934.472,1627.828,934.15,1627.614,934.107Z" transform="translate(-1583.144 -913.017)"/><path class="g" d="M1625.814,941.518a8.237,8.237,0,0,1-1.525.582c-.435.1-1.483.23-1.892-.153a.171.171,0,0,0-.035-.065l-.014-.017a.171.171,0,0,0-.2-.037l-.025.015a.173.173,0,0,0-.048.265c.33.45,1.3.46,1.774.413a6.8,6.8,0,0,0,2.126-.7C1626.17,941.729,1626.013,941.427,1625.814,941.518Z" transform="translate(-1580.143 -918.26)"/><path class="m" d="M1750.811,1138.058c-.574-.859-5.691-6.286-7.536-8.372a.715.715,0,0,0-.307-.208.757.757,0,0,0-1.082.129l-2.049,2.7a4.178,4.178,0,0,0-1.076,1.751c-.1.788.141,1.2.818,1.982-3,1.857-5.649,2.466-8.823,4.011a.739.739,0,0,0,.3,1.384c3.8.221,15.828-1.257,18.338-2.053C1749.794,1139.258,1751.1,1138.487,1750.811,1138.058Z" transform="translate(-1654.874 -1047.806)"/><path class="c" d="M1685.608,1103.422a10,10,0,0,1-1.543.512c3.631.067,7.262.13,10.894.087,1.238-3.114,2.839-10.425,3.492-13.437.49-2.262-.091-4.471-2.7-3.721a16.17,16.17,0,0,0-7.347,5.253.857.857,0,0,0-.166.5l-.951,4.1a4.1,4.1,0,0,0-.218,2.329c.306.762.842.7,1.412,1.091.53.362.308.035.436.766a3.3,3.3,0,0,1,0,.686Z" transform="translate(-1622.934 -1018.424)"/><path class="c" d="M1762.982,1130.9c-.427-.468-.8-.885-1.1-1.216a.71.71,0,0,0-.307-.207.756.756,0,0,0-1.082.129l-2.049,2.7a4.181,4.181,0,0,0-1.076,1.751,1.964,1.964,0,0,0,.575,1.69A14.945,14.945,0,0,0,1762.982,1130.9Z" transform="translate(-1673.484 -1047.806)"/><path d="M1614.151,1114c.047-.061-3.693-1.218-3.729-1.278a.892.892,0,0,0-.541-.583c-2.93-1.185-6.4-.8-9.481-.625a85.09,85.09,0,0,0-29.719,7.134.831.831,0,0,0-.266,1.351.7.7,0,0,0,.2.713c2.487,1.764,4.922,1.852,7.364,1.966,3.734.174,31.494-1.882,31.287-2.288A22.47,22.47,0,0,0,1614.151,1114Z" transform="translate(-1544.378 -1035.392)"/><path class="c" d="M1652.1,1112.337a42.488,42.488,0,0,0,10.8,8.444,11.539,11.539,0,0,0,2.628-.391,22.473,22.473,0,0,0,4.887-6.39c.047-.061-3.693-1.218-3.729-1.278a.891.891,0,0,0-.54-.583c-2.93-1.185-6.4-.8-9.482-.625q-2.464.14-4.917.418C1651.862,1112.068,1651.979,1112.2,1652.1,1112.337Z" transform="translate(-1600.64 -1035.392)"/><path class="g" d="M1627.655,946.524a1.689,1.689,0,0,1-.943.144c-.217-.027-.234.312-.018.339a2.02,2.02,0,0,0,1.117-.181C1628.009,946.734,1627.853,946.432,1627.655,946.524Z" transform="translate(-1583.255 -921.713)"/><path class="f" d="M1656.32,916.492a1.383,1.383,0,0,0-1.677-.984,3,3,0,0,0-1.895,1.983c-.107.272-.254,1.608-.355,2.087-.184.873-.5,1.922.315,2.532a.869.869,0,0,0,1.036-.079,6.183,6.183,0,0,0,1.825-2.545C1655.94,918.655,1656.574,917.416,1656.32,916.492Z" transform="translate(-1600.938 -900.305)"/><path d="M1615.142,1076.065c-.459-.488-19.343-2.576-28.284-1.5-7.329.88-15.989,3.344-21.3,8.806a8.014,8.014,0,0,0-1.656,9.419,6.293,6.293,0,0,0,2.794,3.082c1.809.879,24.64-2.788,33.929-5.055,4.753-1.16,16.5-7.446,16.59-9.476A7.22,7.22,0,0,0,1615.142,1076.065Z" transform="translate(-1539.461 -1009.834)"/><path class="c" d="M1633.229,1112.722a.89.89,0,0,0-.54-.583c-2.93-1.185-6.4-.8-9.481-.625a86.337,86.337,0,0,0-10.037,1.153,83.949,83.949,0,0,0-8.649,2,.4.4,0,0,1-.16.422c-1.1.884-1.763,2.067-.169,2.913a27.275,27.275,0,0,0,2.593,1.023,21.839,21.839,0,0,0,5.245,1.72c1.346.2,2.7.309,4.059.4a29.528,29.528,0,0,0,3.469.487c6.724-.51,12.61-1.05,12.514-1.238a22.464,22.464,0,0,0,4.887-6.39C1637.005,1113.939,1633.265,1112.782,1633.229,1112.722Z" transform="translate(-1567.185 -1035.392)"/><path class="c" d="M1649.287,1076.065c-.459-.488-19.343-2.576-28.284-1.5-.331.04-.667.086-1,.133-.8,4.412,2.242,8.873,5.062,12.083a33.608,33.608,0,0,0,3.253,3.128,81.524,81.524,0,0,1-15.576,2.078c-.234.008-.255.375-.019.366a82.072,82.072,0,0,0,15.94-2.151c.979.825,1.959,1.595,2.8,2.215,1.587-.329,2.285-.563,3.491-.858,4.754-1.16,16.324-8.19,16.414-10.219A7.219,7.219,0,0,0,1649.287,1076.065Z" transform="translate(-1573.606 -1009.834)"/><path class="n" d="M1629.029,878.525c-1.255-3.476-2.484-7.411-5.607-9.677a11.263,11.263,0,0,0-10.091-1.761,19.882,19.882,0,0,0-8.521,5.836c-1.3,1.467-2.587,3.468-2.474,5.491a2.617,2.617,0,0,0,1.913,2.741.157.157,0,0,0,.108,0,9.043,9.043,0,0,1,5.571-8.307.484.484,0,0,1,.717.413,4.674,4.674,0,0,0,.717,2.471,15.939,15.939,0,0,0,6.406,5.461,1.774,1.774,0,0,1,.909,1.2,16.3,16.3,0,0,0,5.19,8.458c2.707,2.1,13.845,1.307,12.71.214C1634.216,888.793,1630.528,882.68,1629.029,878.525Z" transform="translate(-1566.553 -866.582)"/><path d="M1675.081,1068.6c-1.682-1.2-8.516-5.551-10.119-6.8-3.4-2.657-7.12-5-10.714-7.379-3.179-2.106-6.621-4.093-10.476-4.542-2.842-.331-5.536-1.659-6.821,1.364-2.209,5.195.142,8.658,2,11.1,4.52,5.93,11.86,10.057,18.39,13.37a67.777,67.777,0,0,0,12.457,4.942c1.42.4,3.433,1.337,4.723.205.649-.57,3.767-5.534,4.5-6.664C1680.4,1072.055,1676.955,1069.929,1675.081,1068.6Z" transform="translate(-1589.819 -992.614)"/><path class="n" d="M1635.35,908.347a3.2,3.2,0,0,0-2.644-.739,1.131,1.131,0,0,0-.811.895c-.089,1.243,2.193,1.107,3.011,1.146a.716.716,0,0,0,.46-1.289Z" transform="translate(-1586.947 -894.823)"/><path d="M1680.8,1066.292c3.342-3.1,5.4-7.186,4.918-11.75-.083-.779-14.938-7.8-21.587-10.907a67.463,67.463,0,0,0-10.541-4.019c-3.251-.9-6.954-1.756-10.347-1.463-2.96.256-4.577,2.266-5.683,4.844-1.286,3-1.37,5.542.678,8.216,3.824,4.992,25.931,16.075,40.462,16.8A11.667,11.667,0,0,0,1680.8,1066.292Z" transform="translate(-1590.224 -984.887)"/><path class="n" d="M1613.573,908.458a1.193,1.193,0,0,0-1.4-.98,2.761,2.761,0,0,0-1.418.813c-.528.5-.25,1.409.408,1.335C1611.313,909.61,1613.758,909.466,1613.573,908.458Z" transform="translate(-1572.176 -894.777)"/><path class="b" d="M1767.229,1075.994a29.588,29.588,0,0,0-3.687-6.072.806.806,0,0,0-.256-.171c.163.031-7.193-1.6-11.128-2.02-.233-.113-.465-.226-.7-.332-.215-.1-.226.046-.013.141.141.063,10.078,7.037,12.95,11.991a.186.186,0,0,0,.316.016l2.51-3.369A.184.184,0,0,0,1767.229,1075.994Z" transform="translate(-1669.303 -1005.079)"/><path class="c" d="M1762.343,1068.881c-3.884-.759-8.016-2-11.951-2.418-.233-.112-1.345.281-1.581.175-.215-.1,7.076,4.677,9.415,7.1A17.071,17.071,0,0,0,1762.343,1068.881Z" transform="translate(-1667.591 -1004.442)"/><path class="c" d="M1698.848,1097.854q-15.316-7.857-31.3-14.3c-.219-.088-.334.26-.116.348q15.923,6.415,31.215,14.258C1698.855,1098.267,1699.058,1097.962,1698.848,1097.854Z" transform="translate(-1611.38 -1016.236)"/><path class="f" d="M1747.786,1017.627c-.345-2.326-2.678-4.677-3.946-6.425q-3.134-4.32-6.543-8.428a.692.692,0,0,0-1.156.142.7.7,0,0,0-.409.187,35.156,35.156,0,0,0-4.46,4.831.661.661,0,0,0-.147.4.707.707,0,0,0,.123.715,62.079,62.079,0,0,0,7.379,7.676,47.561,47.561,0,0,1-13.876,13.077.758.758,0,0,0-.315.989c.413.983,2.027,3.663,2.4,3.514a59.09,59.09,0,0,0,12.177-6.939c1.785-1.251,3.3-2.69,4.989-4.136C1745.019,1022.357,1747.663,1019.55,1747.786,1017.627Z" transform="translate(-1650.731 -960.349)"/><path class="e" d="M1718.366,969.087a70.393,70.393,0,0,0-4.321-5.794,57.755,57.755,0,0,0-8.56-7.491c-2.416-1.8-6.158-3.968-9.016-1.906-3.663,2.643-4.146,7.718-2.021,11.48,1.4,2.469,11.861,14.325,13.763,13.687C1710.33,978.352,1718.366,969.087,1718.366,969.087Z" transform="translate(-1629.225 -926.231)"/><path class="n" d="M1664.032,1094.086q-9.027,2.167-17.954,4.715c-2.031.58-1.339,3.81.712,3.224q8.926-2.548,17.953-4.715C1666.806,1096.816,1666.106,1093.589,1664.032,1094.086Z" transform="translate(-1595.891 -1023.474)"/><path class="m" d="M1519.31,1067.8a15.42,15.42,0,0,0-2.72-3.51c-.857-.808-2.238-2.206-3.482-2.31-1.146-.1-2.438,1.072-3.289,1.713a33.249,33.249,0,0,0-3.177,2.8,18.892,18.892,0,0,0-4.95.967,20.183,20.183,0,0,0-2.763,1.746,28.536,28.536,0,0,1-3.351,1.737.742.742,0,0,0-.065,1.265c1.241.972,2.485.19,3.691-.491.869-.491,1.716-1,2.583-1.472.06.341-.749.854-1.081,1.153-.6.54-1.212,1.064-1.788,1.631a32.473,32.473,0,0,0-2.982,3.41.741.741,0,0,0,.771,1.119l1.214-.294a27.273,27.273,0,0,0,7.239-1.318,32.834,32.834,0,0,0,5.438-2.96,36.918,36.918,0,0,0,8.425-3.987.739.739,0,0,0,.353-.636A.641.641,0,0,0,1519.31,1067.8Z" transform="translate(-1492.652 -1001.362)"/><path class="m" d="M1687.867,1077.982a.568.568,0,0,0-.655-.236.594.594,0,0,0-.489.1q-2.53,1.66-5.06,3.32c-1.31.855-2.373.666-3.818.185a5.628,5.628,0,0,0-1.971-.471c-1.45.066-2.9,1.3-4.185,1.892a29.852,29.852,0,0,1-5.9,1.953.722.722,0,0,0-.376,1.175c1.017,1.234,2.651.806,3.98.366a38.457,38.457,0,0,1,3.979-1.4,28.752,28.752,0,0,1-6.664,3.689.717.717,0,0,0,.117,1.409c2.511.408,5.114.26,7.651.508a45.51,45.51,0,0,0,9.513-1.49.814.814,0,0,0,.175-.09,26.3,26.3,0,0,0,6.5-1,.739.739,0,0,0,.559-.66C1691.5,1083.739,1689.875,1080.717,1687.867,1077.982Z" transform="translate(-1609.95 -1012.219)"/><path class="c" d="M1621.921,992.2c-2.59-2.133-3.684-5.448-5.626-8.093-.14-.19-.411.057-.272.246,1.969,2.681,3.068,5.989,5.7,8.154C1621.9,992.657,1622.1,992.349,1621.921,992.2Z" transform="translate(-1575.973 -947.601)"/><path class="c" d="M1700.4,957.461c-3.744,1.3-4.543,5.533-3.676,8.982.058.228.416.151.358-.079-.812-3.226-.158-7.311,3.4-8.544C1700.7,957.742,1700.623,957.383,1700.4,957.461Z" transform="translate(-1631.446 -929.261)"/><path class="c" d="M1514.464,1092.441a13.439,13.439,0,0,0-2.811,1.564,8.523,8.523,0,0,1-3.4,1.308,6.807,6.807,0,0,0-4.266,2.423c-.139.192.169.392.306.2,1.255-1.744,3.3-2.056,5.247-2.521,1.895-.453,3.292-1.927,5.091-2.649C1514.851,1092.679,1514.682,1092.353,1514.464,1092.441Z" transform="translate(-1498.696 -1022.365)"/><path class="c" d="M1685.711,1106.255a21.741,21.741,0,0,1-7.178,3.133.183.183,0,0,0,.079.358,22.015,22.015,0,0,0,7.268-3.166C1686.073,1106.45,1685.907,1106.123,1685.711,1106.255Z" transform="translate(-1619.023 -1031.882)"/><path class="c" d="M1694.475,1111.594a13.934,13.934,0,0,1-5.39,1.894c-.234.031-.154.389.079.358a14.168,14.168,0,0,0,5.479-1.927C1694.844,1111.8,1694.677,1111.472,1694.475,1111.594Z" transform="translate(-1626.3 -1035.568)"/><path class="h" d="M1504.772,1088.275a2.208,2.208,0,0,0-1.373-1.869,2.536,2.536,0,0,0-2.926.775,4.674,4.674,0,0,0-2.753.779,4.891,4.891,0,0,0-1.127,1.254c-.424.611-.362.412-1.118.695-1.891.708-2.663,3.771-.959,5.055a2.23,2.23,0,0,0,2.6-.138,12.5,12.5,0,0,1,1.913-1.409c.767-.317,1.653-.183,2.439-.439C1503.706,1092.25,1506.123,1090.527,1504.772,1088.275Z" transform="translate(-1491.536 -1018.074)"/><path class="h" d="M1499.6,1120.522a.734.734,0,0,0-.076,1.465A.734.734,0,0,0,1499.6,1120.522Z" transform="translate(-1495.179 -1041.744)"/><path class="h" d="M1487.928,1132.547a.734.734,0,0,0-.076,1.465A.734.734,0,0,0,1487.928,1132.547Z" transform="translate(-1487.127 -1050.039)"/><path class="h" d="M1487.785,1118.733a.747.747,0,0,0-.771.695l-.006.122a.734.734,0,1,0,1.465.076l.006-.122A.742.742,0,0,0,1487.785,1118.733Z" transform="translate(-1487.007 -1040.511)"/><path class="i" d="M1618.309,1104.373a13.46,13.46,0,0,0-1.1-3.06,46.685,46.685,0,0,0-2.51-5.381,1.779,1.779,0,0,0-1.426-.9,1.866,1.866,0,0,0-1.485.109c-2.5,1.169-11.366,7.471-11.476,9.483a1.679,1.679,0,0,0,1.6,1.848q4.823.484,9.688.7c2.07.091,5.51.7,6.532-1.465A2.39,2.39,0,0,0,1618.309,1104.373Z" transform="translate(-1565.159 -1024.086)"/><path class="j" d="M1623.967,1095.936a1.779,1.779,0,0,0-1.426-.9,1.7,1.7,0,0,0-.931-.072,20.358,20.358,0,0,0-1.87,3.972,16.271,16.271,0,0,1-3.1,4.618c-.988,1.093-1.982,2.112-2.894,3.158q1.345.114,2.693.208c1.063-.824,2.152-1.646,3.181-2.576,1.879-1.7,2.544-3.542,3.3-5.886a12.026,12.026,0,0,1,1.059-2.5Z" transform="translate(-1574.429 -1024.09)"/><path class="c" d="M1771.446,1147.624c-.315.233-.629.466-.945.7a1.869,1.869,0,0,1-1.746.281l-2.613-.7a.168.168,0,0,0-.089.324,22.8,22.8,0,0,0,3.37.885c.843.085,1.568-.742,2.192-1.2C1771.788,1147.786,1771.62,1147.495,1771.446,1147.624Z" transform="translate(-1679.406 -1060.417)"/><path class="l" d="M1655.439,887.017c-.12-.141-.323.063-.2.2a10.613,10.613,0,0,1,2.185,9.487.144.144,0,0,0,.277.077A10.915,10.915,0,0,0,1655.439,887.017Z" transform="translate(-1603.023 -880.645)"/><path class="l" d="M1671.864,901.62a27.722,27.722,0,0,1-4.05-8.473c-.786-2.6-1.033-5.63-2.822-7.794-.118-.143-.321.062-.2.2a10.168,10.168,0,0,1,1.814,4.122c.361,1.429.706,2.858,1.158,4.262a27.245,27.245,0,0,0,3.855,7.825C1671.724,901.912,1671.974,901.769,1671.864,901.62Z" transform="translate(-1609.613 -879.496)"/><path class="f" d="M1659.653,913.9c-1.329-.971-2.268.616-2.65,1.716a4.65,4.65,0,0,0,.372,4.189,1.041,1.041,0,0,0,1.234.544c.793-.2.96-1.084,1.17-1.76a11.733,11.733,0,0,0,.567-2.666A2.17,2.17,0,0,0,1659.653,913.9Z" transform="translate(-1604.043 -899.012)"/><path class="g" d="M1661.573,918.638c.054-.386.262-.692.863-.817a.17.17,0,0,0-.073-.332,1.464,1.464,0,0,0-1.124.922c-.27.752.468,1.781-.2,2.37-.165.145.063.4.227.253.573-.5.325-1.326.3-2.021a.405.405,0,0,1,.612.388.17.17,0,0,0,.339.018A.753.753,0,0,0,1661.573,918.638Z" transform="translate(-1607.01 -901.694)"/></g><path class="m" d="M1304.211,900.154c-2-4.771-5.6-8.368-9.065-12.207-.581-.642-1.289-.079-.71.561a43.373,43.373,0,0,1,7.862,12.358C1302.626,901.652,1304.545,900.952,1304.211,900.154Z" transform="translate(-182.881 -256.597)"/><path class="m" d="M1332.1,917.73c-1.963-3.09-4.916-5.095-7.627-7.554-.639-.58-1.317-.3-.675.277a39.279,39.279,0,0,1,6.8,8.066C1331.068,919.247,1332.569,918.463,1332.1,917.73Z" transform="translate(-203.108 -271.904)"/><g transform="translate(1141.591 635.096)"><path class="o" d="M1465.025,973.236c-.4-1-1.788-.852-2.627-.647-1.214.3-3.472,1.291-3.47,2.8a.569.569,0,0,0,.473.631,7.479,7.479,0,0,0,4.361-.575C1464.494,975.052,1465.4,974.151,1465.025,973.236Z" transform="translate(-1438.085 -950.17)"/><path class="o" d="M1432.525,969.693a1.909,1.909,0,0,0-.181-.161c-.915-.721-2.5-.473-3.475-.044-.672.3-2.035.941-1.456,1.9.506.837,1.9.771,2.717.669a3.276,3.276,0,0,0,2.594-1.634A.612.612,0,0,0,1432.525,969.693Z" transform="translate(-1416.25 -947.848)"/><path class="o" d="M1460.06,1019.215c-.912.416-1.021,1.725-1.04,2.6a4.958,4.958,0,0,0,.549,2.312c.218.416,1.6,1.74,1.837.633C1461.621,1023.76,1462.715,1018,1460.06,1019.215Z" transform="translate(-1438.148 -982.319)"/><path class="o" d="M1428.378,1067.7a.448.448,0,0,0-.241-.456,3.239,3.239,0,0,0-3.247.257c-.841.512-1.771,1.587-1.142,2.6.583.937,1.845.835,2.721.43a3.631,3.631,0,0,0,1.971-2.438A.474.474,0,0,0,1428.378,1067.7Z" transform="translate(-1413.676 -1015.337)"/><path class="o" d="M1465.723,1042.955c-.176-1.225-1.552-1.646-2.628-1.479a5.239,5.239,0,0,0-3.291,2.507.465.465,0,0,0-.087.226.518.518,0,0,0-.046.73C1461.1,1046.582,1466.11,1045.651,1465.723,1042.955Z" transform="translate(-1438.508 -997.766)"/><path class="p" d="M1430.686,1068.808a36.884,36.884,0,0,0-3.465,1.936c-.182.115-.014.406.169.29a36.842,36.842,0,0,1,3.465-1.936C1431.05,1069,1430.88,1068.713,1430.686,1068.808Z" transform="translate(-1416.161 -1016.629)"/><path class="p" d="M1463.393,976.128l-3.6,1.28c-.2.072-.115.4.089.324l3.6-1.28C1463.685,976.379,1463.6,976.055,1463.393,976.128Z" transform="translate(-1438.602 -952.706)"/><path class="p" d="M1435.29,971.686a23.322,23.322,0,0,1-3.193.463c-.214.016-.216.352,0,.336a23.89,23.89,0,0,0,3.282-.475C1435.591,971.964,1435.5,971.64,1435.29,971.686Z" transform="translate(-1419.467 -949.646)"/><path class="p" d="M1463.593,1027.216a9.993,9.993,0,0,1-.811-4.253.168.168,0,0,0-.336,0,10.386,10.386,0,0,0,.857,4.423C1463.4,1027.579,1463.688,1027.409,1463.593,1027.216Z" transform="translate(-1440.512 -984.907)"/><path class="p" d="M1464.784,1044.926l-4.815,1.706c-.2.072-.115.4.089.323l4.815-1.706C1465.075,1045.178,1464.988,1044.853,1464.784,1044.926Z" transform="translate(-1438.724 -1000.162)"/><path class="q" d="M1447.424,953.87c-1.372.783-2.743,1.571-4.118,2.349a15.689,15.689,0,0,1-4.065,1.766q2-4.014,3.849-8.1c.088-.2-.2-.366-.29-.17q-2.036,4.512-4.262,8.934-1.1,2.173-2.239,4.323a19.192,19.192,0,0,1-2.151,3.408c.373-6.205.567-12.419.443-18.641-.013-.639-.036-1.278-.056-1.917v0a141.309,141.309,0,0,0,6.724-19.868.168.168,0,0,0-.323-.089q-.959,3.726-2.122,7.394a41.7,41.7,0,0,1-1.11-9.947.168.168,0,0,0-.336,0,42.1,42.1,0,0,0,1.244,10.563h0q-1.818,5.649-4.1,11.134c-.041-1.138-.1-2.276-.16-3.413a.159.159,0,0,0-.009-.151c-.118-2.1-.272-4.193-.476-6.284-.021-.213-.357-.215-.336,0q.285,2.928.454,5.86a18.244,18.244,0,0,1-3.749-6.909.168.168,0,0,0-.324.089,18.637,18.637,0,0,0,4.1,7.366,216.96,216.96,0,0,1-.234,25.231.158.158,0,0,0-.011.192q-.242,3.919-.568,7.831a78.8,78.8,0,0,0-3.436-7.406.144.144,0,0,0,0-.019,113.423,113.423,0,0,0-1.662-12.352c-.041-.212-.364-.122-.324.089a112.574,112.574,0,0,1,1.588,11.537q-1.414-2.609-3.021-5.111c-.117-.181-.407-.013-.29.17a78.013,78.013,0,0,1,6.836,13.221.184.184,0,0,0,.291.066q-.189,2.281-.4,4.56c-.383,4.195-.807,8.385-1.231,12.576-.022.215.314.213.336,0,.85-8.394,1.7-16.8,2.222-25.23,2.014-2.2,3.234-5.187,4.564-7.815.123-.243.243-.488.365-.731a14.427,14.427,0,0,0,4.164-1.716c1.466-.823,2.922-1.666,4.382-2.5A.168.168,0,0,0,1447.424,953.87Z" transform="translate(-1415.395 -916.168)"/><path class="o" d="M1474.656,908.571c-1.684-.833-3.415.691-4.189,2.066a10.122,10.122,0,0,0-.705,7.19.465.465,0,0,0,.143.25.418.418,0,0,0,.658.181,15.464,15.464,0,0,0,4.794-5.118C1476.083,911.7,1476.422,909.445,1474.656,908.571Z" transform="translate(-1445.324 -905.95)"/><path class="o" d="M1457.214,903.946c-.229-1.362-1.147-3.828-2.991-3.193-1.795.618-2.213,3.456-2.084,5.042a10.187,10.187,0,0,0,3.017,6,.677.677,0,0,0,1-.218C1456.668,909.08,1457.648,906.53,1457.214,903.946Z" transform="translate(-1433.387 -900.65)"/><path class="o" d="M1447.09,942.531c-1.277.363-1.7,2.043-1.708,3.21a6.562,6.562,0,0,0,1.507,4.056.393.393,0,0,0,.4.166.491.491,0,0,0,.54-.346C1448.181,948.519,1450.253,941.631,1447.09,942.531Z" transform="translate(-1428.742 -929.483)"/><path class="o" d="M1433.158,950a8.051,8.051,0,0,0-1.446-3.779c-.512-.7-1.479-1.68-2.275-.722-.743.895-.1,2.475.433,3.3.55.844,1.547,2.184,2.668,1.982a.406.406,0,0,0,.352-.325A.388.388,0,0,0,1433.158,950Z" transform="translate(-1417.51 -931.312)"/><path class="o" d="M1479.846,995.549c-1.126-.825-2.464.132-3.065,1.127a6.332,6.332,0,0,0-.679,4.718.452.452,0,0,0,.608.47,5.886,5.886,0,0,0,3.327-2.905C1480.531,997.95,1480.929,996.342,1479.846,995.549Z" transform="translate(-1449.794 -965.894)"/><path class="o" d="M1495.6,1015.319a2.27,2.27,0,0,0-2.8-.461,4.311,4.311,0,0,0-2.243,2.726.44.44,0,0,0,.114.471.546.546,0,0,0,.475.519,5.26,5.26,0,0,0,3.658-.739C1495.563,1017.3,1496.228,1016.2,1495.6,1015.319Z" transform="translate(-1459.888 -979.241)"/><path class="o" d="M1429.307,1013.255c-.067-.907-.48-2.1-1.612-2.014-1.114.089-1.582,1.345-1.554,2.292a5.159,5.159,0,0,0,1.574,3.607.444.444,0,0,0,.619.058.473.473,0,0,0,.347-.141C1429.475,1016.292,1429.383,1014.267,1429.307,1013.255Z" transform="translate(-1415.469 -976.93)"/><path class="o" d="M1418.186,1036.43a6.684,6.684,0,0,0-1.4-4.352c-.745-.842-2.179-1.477-3.1-.522-.964,1-.42,2.693.289,3.668a3.944,3.944,0,0,0,3.5,1.786.531.531,0,0,0,.251-.1A.491.491,0,0,0,1418.186,1036.43Z" transform="translate(-1406.525 -990.617)"/><path class="p" d="M1475.3,911.755a27.613,27.613,0,0,0-3.571,8.775c-.046.211.278.3.324.089a27.33,27.33,0,0,1,3.537-8.695C1475.7,911.741,1475.413,911.572,1475.3,911.755Z" transform="translate(-1446.911 -908.256)"/><path class="p" d="M1460.036,905.364c-.009-.215-.345-.216-.336,0a74.056,74.056,0,0,0,1.056,9.736c.037.213.361.123.324-.089A73.359,73.359,0,0,1,1460.036,905.364Z" transform="translate(-1438.618 -903.79)"/><path class="p" d="M1450.846,945.27a.168.168,0,0,0-.336,0q-.074,3.253.048,6.505c.008.215.344.216.336,0Q1450.773,948.524,1450.846,945.27Z" transform="translate(-1432.26 -931.317)"/><path class="p" d="M1435.072,951.949q-1.071-2.411-2.306-4.744c-.1-.191-.391-.021-.29.17q1.235,2.332,2.306,4.743C1434.869,952.316,1435.159,952.146,1435.072,951.949Z" transform="translate(-1419.825 -932.706)"/><path class="p" d="M1479.438,999a44.229,44.229,0,0,1-2.145,5.128c-.1.193.194.363.29.169a44.844,44.844,0,0,0,2.179-5.208C1479.832,998.885,1479.508,998.8,1479.438,999Z" transform="translate(-1450.74 -968.411)"/><path class="p" d="M1494.267,1018.255a10.939,10.939,0,0,0-3.515,2.007c-.165.14.074.376.237.237a10.456,10.456,0,0,1,3.367-1.92C1494.559,1018.509,1494.472,1018.184,1494.267,1018.255Z" transform="translate(-1459.999 -981.765)"/><path class="p" d="M1431.22,1019.63q-.465-2.141-.723-4.315c-.025-.212-.361-.214-.336,0q.261,2.221.734,4.4C1430.942,1019.93,1431.266,1019.841,1431.22,1019.63Z" transform="translate(-1418.242 -979.633)"/><path class="p" d="M1420.915,1039.062q-1.42-2.157-2.956-4.234c-.127-.172-.418,0-.29.17q1.535,2.077,2.956,4.234C1420.743,1039.411,1421.034,1039.243,1420.915,1039.062Z" transform="translate(-1409.604 -993.154)"/><path class="q" d="M1421.823,1140.222a13.714,13.714,0,0,0-5.679-.909,71.291,71.291,0,0,0-15.987-.242,15.813,15.813,0,0,0-6.181,1.73c-1.2.694-3.258,2.1-1.632,3.349,2.3,1.759,7.466,1.619,10.343,1.918a108.536,108.536,0,0,0,12.548.573c2.486-.031,5.268-.211,7.412-1.482C1425.393,1143.529,1424.527,1141.421,1421.823,1140.222Z" transform="translate(-1391.741 -1064.871)"/></g></g></svg>