<svg xmlns="http://www.w3.org/2000/svg" width="179" height="166.601" viewBox="0 0 179 166.601"><defs><style>.a{fill:#c4ccf2;}.b{fill:#20324c;}.c{fill:#5ece97;}.d{fill:#ffc3a1;}.e{fill:#e88364;}.f{fill:#7d483b;}.g{fill:#945d4e;}.h{fill:#593127;}.i{fill:#d0c165;}.j{fill:#c1a95b;}</style></defs><g transform="translate(-220.511 -841.394)"><g transform="translate(220.511 841.394)"><path class="a" d="M373.749,1126.066c.735.081,1.047-.586,1.088-1.325.059-1.072-14.643-8.364-14.643-8.364-.253-.84-.406-4.162-.968-4.527-.139-.493-7.439-.568-7.59-.1a1.276,1.276,0,0,0-.372.594,60.576,60.576,0,0,0-2.125,10.008C348.986,1124.29,372.645,1125.944,373.749,1126.066Z" transform="translate(-285.284 -977.38)"/><path d="M363,1029.168a1.29,1.29,0,0,0-.867-.117,1.129,1.129,0,0,0-.74.248,404.929,404.929,0,0,0-50.467,44.4,1.335,1.335,0,0,0,1.008,2.229,35.316,35.316,0,0,0,14.518,6.217,1.372,1.372,0,0,0,.577-.013,1.212,1.212,0,0,0,.884-.156c11.943-6.964,23.863-14.236,34.014-23.712,4.276-3.992,8.844-8.766,9.058-14.982C371.16,1038.282,367.551,1031.44,363,1029.168Z" transform="translate(-265.857 -935.878)"/><path class="b" d="M336.729,1095.371c-3.529-2.216-7.4-3.778-10.756-6.25q-7.712,7.218-15.044,14.84a1.335,1.335,0,0,0,1.008,2.229,35.314,35.314,0,0,0,14.518,6.217,1.37,1.37,0,0,0,.577-.013,1.212,1.212,0,0,0,.884-.156c5.908-3.445,12.8-7.637,18.486-11.462C343.524,1098.728,339.723,1097.25,336.729,1095.371Z" transform="translate(-265.857 -966.142)"/><path d="M360.433,1037.736c-1.1-3.075-2.5-6.39-5.229-8.362-3.22-2.325-7.183-1.6-10.795-.793a126.479,126.479,0,0,0-13.4,3.769,130.77,130.77,0,0,0-28.63,13.9,1.39,1.39,0,0,0-.276.238c-2.867,1.552-6.122,3.231-8.346,5.563-1.931,2.026-1.793,4.452-.753,6.9a36.308,36.308,0,0,0,12.917,15.35,1.176,1.176,0,0,0,.674.225,1.307,1.307,0,0,0,1.131-.005c16.964-7.841,35.669-14.748,49.744-27.434C360.492,1044.357,361.855,1041.708,360.433,1037.736Z" transform="translate(-256.639 -935.265)"/><path class="b" d="M404.477,1040.285a92.243,92.243,0,0,0-7-11.807.49.49,0,0,1-.027-.592,30.66,30.66,0,0,0-4.461.735c-1.426.317-2.845.668-4.259,1.035a60.243,60.243,0,0,0,7.392,11.394c2.654,3.073,3.733,6.5,4.959,10.176,1.709-1.3,3.37-2.665,4.969-4.106q.615-.554,1.133-1.109C406.275,1044.1,405.443,1042.148,404.477,1040.285Z" transform="translate(-305.224 -935.307)"/><path d="M305.472,1064.361a.62.62,0,0,1-.124-.963,73.651,73.651,0,0,0,8.5-11.732q-5.886,3.014-11.465,6.6a1.4,1.4,0,0,0-.276.238c-2.867,1.552-6.122,3.231-8.346,5.563-1.931,2.025-1.793,4.451-.753,6.9a36.309,36.309,0,0,0,12.917,15.35,1.176,1.176,0,0,0,.674.225,1.308,1.308,0,0,0,1.131-.005c6.934-3.2,17.5-4.073,24.582-7.424C324.463,1074.937,313.622,1067.937,305.472,1064.361Z" transform="translate(-256.639 -947.281)"/><path class="a" d="M238.09,1120.442l-4.565-2.838a4.683,4.683,0,0,1,.055-.972c.235-1.027-.1-.579.674-1.053.836-.51,1.593-.385,2.082-1.443.466-1.008.043-2.3-.137-3.316l-1.047-5.883a1.218,1.218,0,0,0-.2-.727,22.952,22.952,0,0,0-10.028-7.985c-3.64-1.255-4.627,1.834-4.1,5.077.879,5.384,3.358,20.359,5.038,21.37,2,1.2,10.889,2.855,11.7,2.908,1.282.083,3.189-.155,3.56-1.656C241.573,1122.115,239.3,1121.191,238.09,1120.442Z" transform="translate(-220.603 -969.575)"/><path d="M276.4,1117.585c-6.7-2.353-37.807-6.519-37.62-5.541l1.976,10.391c.478,2.509.661,3.354,3.112,4.276,6.552,2.463,13.2,4.723,19.916,6.69,13.016,3.811,25.135,6.337,37.9,6.292C302.7,1139.69,287.188,1121.374,276.4,1117.585Z" transform="translate(-229.71 -977.612)"/><path class="b" d="M379.856,1068.823a98.772,98.772,0,0,1-21.793,15.367c-.3.154-.034.6.263.45a99.284,99.284,0,0,0,21.9-15.449C380.469,1068.962,380.1,1068.595,379.856,1068.823Z" transform="translate(-289.712 -955.884)"/><path d="M302.646,1090.779a136.945,136.945,0,0,0-26.311-15.733c-.106-.685-12.535,4.3-17.392,7.949-2.439,1.834-11.152,14.822-10.335,14.646,2.985,2.812,40.885,21.808,50.579,22.948,3.449.406,9.158,1.458,11.995-1.116,2.563-2.325,4.357-7.064,4.863-10.338C317.309,1100.965,308.449,1095.211,302.646,1090.779Z" transform="translate(-234.633 -959.022)"/><path class="b" d="M276.336,1075.047c-.013-.089-.239-.081-.626.006a77.065,77.065,0,0,0-15.211,12.421c-1.3,1.348-2.587,2.721-3.912,4.054l-1.577,1.229a15.673,15.673,0,0,1-4.43,2.784c-.389.134-.783.258-1.181.374-.647,1.085-.98,1.767-.79,1.726a52.121,52.121,0,0,0,7.165,4.273l.012-.016c1.386-1.788,2.634-3.678,3.84-5.59a102.72,102.72,0,0,1,7.9-11.623,108.4,108.4,0,0,1,9.288-9.411C276.656,1075.2,276.5,1075.121,276.336,1075.047Z" transform="translate(-234.633 -959.023)"/><path class="b" d="M249.024,1113.484a10.515,10.515,0,0,1-2.672,1.445,44.2,44.2,0,0,1-6.19,1.518l.7,3.695a36.334,36.334,0,0,0,7.274,3.036,2,2,0,0,0,1.776.014,7.769,7.769,0,0,0,1.646-1.906c1.386-1.787,2.634-3.677,3.84-5.59q.4-.63.791-1.263C253.683,1114.076,251.238,1113.752,249.024,1113.484Z" transform="translate(-230.407 -978.411)"/><path class="c" d="M295.692,916.191c-.6-2.111-2.533-4.024-3.856-5.637a25.183,25.183,0,0,0-7.446-6.466,21.964,21.964,0,0,0-16.471-1.8c-10.071,2.962-18.309,12.025-24.9,19.789a94.251,94.251,0,0,0-22.075,50.853c-1.645,14.658,1.139,31.185,13.37,40.514a2.976,2.976,0,0,0,4.012-.389c3.179-3.537,9.662-10.77,10.867-12.261,6.931-8.571,29.07-23.953,29.026-25.045-.082-2.03,1.106-11.574,1.044-15.494-.029-1.821,3.157-4.794,4.115-6.241a90.36,90.36,0,0,0,7.485-13.8C294.034,932.908,295.84,916.707,295.692,916.191Z" transform="translate(-220.511 -871.629)"/><path class="b" d="M310.679,975.935a134.3,134.3,0,0,0-5.889-13.372,79.067,79.067,0,0,0-16.041-21.826,1.452,1.452,0,0,0-2.218.269,16,16,0,0,0-1.888,4.012c-2.562,8.286,4.222,27.008,6.52,32.236a1.435,1.435,0,0,0,1.929.72c1.052-.5,2.553-1.207,3.711-1.77,2.3-1.118,3.729-2.721,4.513-1.408,1.822,3.052,7.378,16.148,8.957,19.05.217-3.439,1.048-10.708,1-14a2.314,2.314,0,0,1,.17-.835,1.475,1.475,0,0,0,.009-1.038C311.192,977.292,310.938,976.613,310.679,975.935Z" transform="translate(-252.519 -891.22)"/><path class="d" d="M323.087,916.692c-5.195-2.751-13.611-13.56-18.445-9.974-1.077.8-10.762,5.643-16.274,8.389a1.653,1.653,0,0,0,0,2.838l11.312,5.281c3.151,1.471,8.759,7.088,12.25,7.571C315.648,931.312,326.246,918.365,323.087,916.692Z" transform="translate(-254.276 -873.926)"/><path class="d" d="M406.207,1024.02a129.932,129.932,0,0,1-10.595-22.375,74.685,74.685,0,0,0-3.2-7.867,38.416,38.416,0,0,0-4.611-6.761c-.321-.406-.642-.812-.929-1.242-1.636-2.45-2.587-5.555-3.779-8.242q-1.99-4.485-4.029-8.948a1.738,1.738,0,0,0-1.787-1.1,1.816,1.816,0,0,0-1.71.154,21.957,21.957,0,0,0-6.73,6.2c-.012.017-.021.034-.033.051a1.86,1.86,0,0,0-.256,2.287q2.312,4.139,4.8,8.176c1.5,2.438,3.483,4.808,4.555,7.472a65,65,0,0,0,2.814,7.045,66.735,66.735,0,0,0,4.944,7.513q7.56,10.345,15.158,20.664C401.711,1028.263,407.263,1025.789,406.207,1024.02Z" transform="translate(-294.917 -904.817)"/><path class="d" d="M335.063,901.39a1.66,1.66,0,0,0,0-.5c-.754-4.838-4.777-11.918-10.306-12.064a1.381,1.381,0,0,0-1.09.427,1.467,1.467,0,0,0-.784.652c-2.955,4.871-11.83,13.577-11.987,14.174-.425.814,4.058,5.241,5.955,6.482a19.635,19.635,0,0,0,6.458,2.666,1.5,1.5,0,0,0,1.637-.278,107.734,107.734,0,0,0,9.821-10A1.522,1.522,0,0,0,335.063,901.39Z" transform="translate(-266.013 -865.281)"/><path class="c" d="M361.423,916.012a1.1,1.1,0,0,0-.085-.07,1.117,1.117,0,0,0-.308-.365c-5.143-3.965-4.975,8.214-5.184,10-.883,7.548-2.485,15-1.891,22.643a.832.832,0,0,0,.294.97q1.815,1.493,3.63,2.986a4.031,4.031,0,0,0,1.764,1.126,3.57,3.57,0,0,0,2.074-.827c1.389-.83,2.761-1.693,4.141-2.539,2.413-1.48,4.845-2.943,7.108-4.65,1.414-1.067,3.863-2.578,4.48-4.323C377.447,940.962,365.373,919.99,361.423,916.012Z" transform="translate(-287.645 -878.353)"/><path class="d" d="M352.431,1031.231a129.906,129.906,0,0,1-11.375-21.988,74.759,74.759,0,0,0-3.477-7.75,38.436,38.436,0,0,0-4.847-6.594c-.335-.394-.67-.789-.972-1.209-1.721-2.391-2.78-5.461-4.066-8.1q-2.146-4.413-4.341-8.8a1.738,1.738,0,0,0-1.824-1.035,1.818,1.818,0,0,0-1.7.214,21.961,21.961,0,0,0-6.508,6.433c-.011.017-.02.035-.031.052a1.859,1.859,0,0,0-.175,2.294q2.456,4.055,5.086,8c1.588,2.384,3.65,4.683,4.815,7.307a65.059,65.059,0,0,0,3.06,6.942,66.715,66.715,0,0,0,5.205,7.335q7.92,10.074,15.876,20.118C348.086,1035.63,353.548,1032.962,352.431,1031.231Z" transform="translate(-266.983 -908.99)"/><path class="e" d="M346.121,907.669c1.18-1.245,2.341-2.508,3.463-3.81a1.522,1.522,0,0,0,.294-1.559,1.662,1.662,0,0,0,0-.5c-.754-4.838-2.846-11.022-8.375-11.168-.008,0,2.411,1.109-1.214,3.046C340.9,899.862,341.119,906.081,346.121,907.669Z" transform="translate(-280.829 -866.191)"/><path class="d" d="M355.09,861.3a2.93,2.93,0,0,0-.359-1.157l0-.005c-1.533-3-3.107-6.358-6.027-8.259-3.113-2.027-7.255-2.194-10.768-1.3-6.584,1.674-11.256,6.886-13.3,13.148a2.6,2.6,0,0,0,.4,2.377c.758.993,1.543,1.968,2.21,3.024,1.5,2.372,2.4,5.06,3.846,7.465,0,.011,1.245.134,1.249.144,2.036,4.971,4.991,7.983,9.308,9.412,4.377,1.449,7.11,2.383,9.772-2.494a34.789,34.789,0,0,0,3.88-16.986C355.232,864.908,355.2,863.1,355.09,861.3Z" transform="translate(-272.88 -845.761)"/><path class="e" d="M373.832,886.956a.258.258,0,0,0-.5.136c.312,1.185.578,2.378.777,3.587.24,1.455.8,3.822-1.012,4.564-.3.124-.17.622.137.5a2.78,2.78,0,0,0,1.649-2.847A24.768,24.768,0,0,0,373.832,886.956Z" transform="translate(-297.265 -864.246)"/><path class="e" d="M369.042,901.545a5.124,5.124,0,0,0-1.355-.1c-.329.021-.331.536,0,.515a4.6,4.6,0,0,1,1.218.077C369.228,902.106,369.367,901.61,369.042,901.545Z" transform="translate(-294.5 -871.631)"/><path d="M358.993,891.02c.147,1.113-.3,2.09-.994,2.182s-1.38-.736-1.527-1.849.3-2.09.995-2.183S358.846,889.906,358.993,891.02Z" transform="translate(-288.963 -865.449)"/><path d="M380.267,888.236c.147,1.114-.222,2.081-.824,2.159s-1.209-.759-1.356-1.872.221-2.08.824-2.159S380.12,887.122,380.267,888.236Z" transform="translate(-299.846 -864.037)"/><path class="e" d="M369.665,908.95a6.754,6.754,0,0,1-5.593.911c-.318-.1-.453.4-.137.5a7.209,7.209,0,0,0,6.094-1.044C370.288,909.107,369.922,908.745,369.665,908.95Z" transform="translate(-292.645 -875.383)"/><path class="e" d="M371.247,912.945a5.536,5.536,0,0,1-2.057.548c-.329.022-.331.538,0,.515a6.222,6.222,0,0,0,2.317-.619C371.8,913.244,371.544,912.8,371.247,912.945Z" transform="translate(-295.257 -877.411)"/><path class="f" d="M357.495,880.255c-.763-.821-2.488-.33-3.318.109a6.7,6.7,0,0,0-2.622,2.876.729.729,0,0,0,.014.735c.1.334.392.586.742.375.912-.551,2.274-1,3.219-1.458C356.174,882.579,358.751,881.607,357.495,880.255Z" transform="translate(-286.454 -860.74)"/><path class="c" d="M317.353,919.609a.953.953,0,0,0-.55-.037c-.614-.155-.919.558-.837,1.355.653,6.36-6.608,7.371-11.078,4.456-2.51-1.637-5.023-5.876-6.065-7.777a4.44,4.44,0,0,0-3.408-2.328,15.783,15.783,0,0,0-6.376,1.154c-3.18,1.132-8.829,3.644-11.408,6.681-.5.2,11.916,6.062,16.778,8.451,4.395,2.159,9.673,5.4,14.719,5.206a12.448,12.448,0,0,0,10.583-6.691C321.568,926.473,321.836,921.2,317.353,919.609Z" transform="translate(-249.268 -878.582)"/><path class="f" d="M379.881,880.367a3.893,3.893,0,0,0-4.635-2.062c-1.036.431-.549,1.866.359,2.135a11.339,11.339,0,0,0,1.784.184,5.1,5.1,0,0,1,1.763.579C379.607,881.446,380.092,880.877,379.881,880.367Z" transform="translate(-298.138 -859.882)"/><path class="c" d="M314.713,948.884q-.752-1.914-1.556-3.807a133.9,133.9,0,0,0-8.288-16.675c-2.638-4.393-6.625-7.289-11.936-6.576a1.118,1.118,0,0,0-.305.089c-7.388,1.684-9.884,9.713-9.042,16.455,1.178,9.419,5.554,18.719,9.9,27.047.08.153,17.812-8.617,21.9-10.643a1.331,1.331,0,0,0,.723-1.439A29.285,29.285,0,0,0,314.713,948.884Z" transform="translate(-252.195 -881.843)"/><path class="f" d="M328.117,847.775c-2.893-4.208-8.634-6.05-13.323-6.333a21.158,21.158,0,0,0-16.73,6.056c-5.564,5.564-8.478,13.5-12.1,20.368-3.343,6.345-7.07,11.947-10.625,18.177-.667,1.168,13.908-4.242,14.891-4.809a19.329,19.329,0,0,1,6.324-2.083c6.631-1.358,9.346-7.816,11.985-13.417,4.972-2.372,13.321-11.375,14.7-12.394a1.21,1.21,0,0,1,1.52.04c3.042,2.666,5.873,9.757,5.873,9.757C330.743,863.078,332.836,854.64,328.117,847.775Z" transform="translate(-248.112 -841.394)"/><path class="a" d="M436.483,1064.036c-2.01-.56-3.194-1.722-4.9-2.782a14.1,14.1,0,0,0-4.888-1.371l-2.433-6.02a1.473,1.473,0,0,0-.135-.259,1.229,1.229,0,0,0-1.534-.855,15.413,15.413,0,0,0-7.98,5.1,1.31,1.31,0,0,0-.274,1.172,1.191,1.191,0,0,0,.214.737,32.378,32.378,0,0,0,4.746,4.767c.466.216.538,2,.646,2.457a8.024,8.024,0,0,0,1.712,3.192c1.061,1.3,2.883,2.684,3.147,4.432.3,1.966-1.277,3.738-2.221,5.3-.868,1.438.8,3.615,1.662,2.18s2.588-3.763,3.14-5.348a4.645,4.645,0,0,0,.245-1.269l.037-.02a12.741,12.741,0,0,1-1.412,5.865c-.76,1.49,1.217,3.173,1.979,1.679a23.625,23.625,0,0,0,1.2-2.568c.624.686,1.843,1.019,2.107-.141a21.529,21.529,0,0,0-.233-10.859l.039-.041a25.346,25.346,0,0,1,2.3,7.03,1.275,1.275,0,0,0,2.5-.5,27.668,27.668,0,0,0-3.322-9.206,1.333,1.333,0,0,0-.3-.727c-.129-.158-.268-.306-.4-.461.4.167.823.372.98.427l2.145.758a1.1,1.1,0,0,0,1.045-.117A1.317,1.317,0,0,0,436.483,1064.036Z" transform="translate(-318.1 -947.801)"/><path class="g" d="M422.317,1070.55c-2.961-1.337-7.168-1.293-10.355-1.576-5.151-.458-17.029-.877-17.029,6a41.189,41.189,0,0,0,5.483,20.1c1.492,2.648,14.438,1.735,17.754,1.136a6.54,6.54,0,0,0,2.4-.777C422.856,1093.975,428.07,1073.148,422.317,1070.55Z" transform="translate(-308.345 -955.884)"/><path class="a" d="M400.54,1092.186c-3.044-.964-6.985-3.175-8.16-6.415-1.577-4.35,6.8.717,8.224.6.983-.081,1.894-1.457.92-2.222-2.054-1.614-4.163-3.474-6.612-4.44-2.79-1.1-6.14-1.215-9.092-1.681a1.394,1.394,0,0,0-.415,0,18.194,18.194,0,0,0-2.647-5.057,1.268,1.268,0,0,0-1.266-.335c-1.792.664-3.286,2.443-4.621,3.761-1.157,1.143-3.414,2.861-3.859,4.492-.367,1.347.713,2.047,1.667,2.773,1.275.97,2.558,1.931,3.838,2.9a37.847,37.847,0,0,0,4.3,6.067c.012.014.025.023.037.036a19.244,19.244,0,0,0,5.551,8.066c1.046.9,2.939-.282,2.044-1.578l-.164-.239a17.187,17.187,0,0,0,4.7,2.328,1.3,1.3,0,0,0,1.476-1.867,5.2,5.2,0,0,0,1.583.366c1.361.074,1.673-1.763.657-2.425a19.151,19.151,0,0,1-5.712-5.742,16.28,16.28,0,0,0,6.86,3.124A1.3,1.3,0,0,0,400.54,1092.186Z" transform="translate(-297.268 -957.813)"/><path class="h" d="M326.542,854.292A26.374,26.374,0,0,0,317,866.332a35.672,35.672,0,0,1-2.37,5.57c-2.073,3.4-5.748,5.4-8.92,7.616a61.418,61.418,0,0,0-9.031,7.465c-.219.226.126.572.346.346a61.975,61.975,0,0,1,9.287-7.636c2.828-1.963,5.95-3.761,8.062-6.551,2.243-2.962,2.869-6.818,4.706-10.02a26.263,26.263,0,0,1,7.71-8.408C327.045,854.536,326.8,854.111,326.542,854.292Z" transform="translate(-258.832 -847.867)"/><path class="e" d="M348.468,1021.732a18.64,18.64,0,0,0-3.269-3.244c-.262-.2-.633.163-.368.368a18.624,18.624,0,0,1,3.27,3.244C348.306,1022.363,348.673,1021.993,348.468,1021.732Z" transform="translate(-283.069 -930.544)"/><path class="e" d="M397.379,1007.191l-1.027-3.519a.26.26,0,0,0-.5.139l1.026,3.519A.261.261,0,0,0,397.379,1007.191Z" transform="translate(-308.801 -923.021)"/><path class="d" d="M332.85,888.019c1.246,2.875.687,5.886-1.248,6.724s-4.513-.814-5.759-3.689-.687-5.886,1.248-6.724S331.6,885.143,332.85,888.019Z" transform="translate(-273.219 -862.905)"/><path class="e" d="M334.26,893.916c-1.959-.9-1.422-3.508-2.65-5a1.941,1.941,0,0,0-2.959-.271c-.225.242.138.607.364.364.923-.993,2.021-.133,2.54.791a1.758,1.758,0,0,0-2.118,2.124c.073.323.57.187.5-.137a1.231,1.231,0,0,1,1.905-1.3c.163.518.261,1.059.417,1.578A3.377,3.377,0,0,0,334,894.36C334.3,894.5,334.561,894.054,334.26,893.916Z" transform="translate(-274.931 -864.901)"/><path class="b" d="M292.506,1049.977a93.117,93.117,0,0,0-38.762,24.639c-.229.244.138.613.368.368a92.567,92.567,0,0,1,38.532-24.505C292.961,1050.376,292.826,1049.873,292.506,1049.977Z" transform="translate(-237.21 -946.423)"/><path class="i" d="M432.007,1013.247a5.746,5.746,0,0,0-.118-1.784c-.3-2.329-.892-4.85-2.562-6.634-1.254-1.339-3.294-1.349-4.147.368a6.97,6.97,0,0,0,.511,6.86,5.737,5.737,0,0,0,3.117,2.189,3.725,3.725,0,0,0,2.516-.113A1.227,1.227,0,0,0,432.007,1013.247Z" transform="translate(-323.24 -923.209)"/><path class="j" d="M434.837,1017.06a41.824,41.824,0,0,1-3.865-6.238c-.151-.3-.6-.036-.45.263a41.854,41.854,0,0,0,3.865,6.238C434.586,1017.588,435.038,1017.328,434.837,1017.06Z" transform="translate(-326.251 -926.647)"/><path class="b" d="M327.738,956.934c-1.621-6.4-3.1-12.984-5.66-19.092-1.911-4.56-4.728-8.942-9.332-11.12-.3-.143-.566.306-.263.449,4.85,2.3,7.648,7.061,9.528,11.886a152.63,152.63,0,0,1,5.225,18.015A.26.26,0,0,0,327.738,956.934Z" transform="translate(-266.758 -884.349)"/><path class="g" d="M438.829,1015.561a68.566,68.566,0,0,0-7.655,7.051,99.5,99.5,0,0,1,6.108-16.737c.142-.3-.349-.475-.49-.175a99.884,99.884,0,0,0-8.969,32.253.261.261,0,0,0,.519.039,99.319,99.319,0,0,1,2.555-14.335,68.613,68.613,0,0,1,8.273-7.7C439.432,1015.747,439.092,1015.354,438.829,1015.561Z" transform="translate(-324.906 -924.055)"/><path class="i" d="M454.157,978.569c-2.864-1.734-6.139,2.149-7.511,4.14-1.729,2.509-3.669,6.932-2.008,9.866.133.235.667.289.866.224a16.564,16.564,0,0,0,8.478-6.229C455.536,984.358,457.236,980.433,454.157,978.569Z" transform="translate(-333.056 -910.253)"/><path class="i" d="M461.84,1011.618c-1.9-2.038-5.257-1.7-7.464-.424a11.362,11.362,0,0,0-3.277,3.509c-.6.862-1.184,1.738-1.7,2.651-.13.227-.758,1.1-.634,1.333s.661.106.862.114c.451.016.9.048,1.35.051a21.831,21.831,0,0,0,2.726-.146,18.064,18.064,0,0,0,5.226-1.388C461.044,1016.375,464.09,1014.026,461.84,1011.618Z" transform="translate(-335.442 -926.382)"/><path class="b" d="M363.712,965.021a33.594,33.594,0,0,1-3.071,8.97c-.152.3.3.562.449.263a34.081,34.081,0,0,0,3.124-9.095C364.276,964.832,363.775,964.692,363.712,965.021Z" transform="translate(-291.061 -903.554)"/><path class="b" d="M263.159,1075.574a38.873,38.873,0,0,0-12.984,5.174c-.283.177-.022.628.263.45a38.479,38.479,0,0,1,12.86-5.122C263.626,1076.01,263.487,1075.508,263.159,1075.574Z" transform="translate(-235.387 -959.317)"/><path class="b" d="M295.485,1143.224a127.027,127.027,0,0,1-28.423-13.412c-.283-.18-.545.271-.263.45a127.58,127.58,0,0,0,28.548,13.464C295.666,1143.831,295.8,1143.328,295.485,1143.224Z" transform="translate(-243.759 -986.612)"/><path class="j" d="M452.082,985.1a94.814,94.814,0,0,0-6.527,10.265c-.161.294.288.557.449.263a94.86,94.86,0,0,1,6.527-10.265C452.729,985.093,452.278,984.833,452.082,985.1Z" transform="translate(-333.819 -913.704)"/><path class="j" d="M457.307,1017.156c-2.555,1.254-5.689,2.467-7.7,4.534-.234.24.134.609.368.368,1.969-2.021,5.1-3.226,7.6-4.453C457.871,1017.459,457.607,1017.009,457.307,1017.156Z" transform="translate(-335.837 -929.888)"/></g><path class="g" d="M512.68,1158.709c-1.063-3.034-9.754-5.9-11.6-6.244a125.533,125.533,0,0,0-18.521-1.712,161.46,161.46,0,0,0-20.074.591c-2.007.185-22.2,3.271-15.668,7.378,3.149,1.982,7.578,2.647,11.213,3.309,15.734,2.866,31.961,1.471,47.818.456C507.641,1162.373,513.819,1161.96,512.68,1158.709Z" transform="translate(-113.308 -155.741)"/></g></svg>