<svg xmlns="http://www.w3.org/2000/svg" width="206.133" height="202.301" viewBox="0 0 206.133 202.301"><defs><style>.a{fill:#ffdbdd;}.b{fill:#22314a;}.c{fill:#e6a075;}.d{fill:#20324c;}.e{fill:#f0f7ff;}.f{fill:#5ece97;}.g{fill:#7d483b;}.h{fill:#ffc3a1;}.i{fill:#e88364;}.j{fill:#593127;}.k{fill:#d0c165;}.l{fill:#c1a95b;}.m{fill:#945d4e;}.n{fill:#c4ccf2;}.o{fill:#ebf3fa;}.p{fill:#150506;}.q{fill:#dfe6ed;}</style></defs><g transform="translate(-1968.854 -440.242)"><g transform="translate(2089.133 454.334)"><path class="a" d="M2574.425,1149.977c1.253,2.277,3.962,2.035,6.353,1.314a13.637,13.637,0,0,0-.609-1.743.759.759,0,0,0-.084-.147c-.049-.79-.158-1.588-.193-2.317-.077-1.594-.117-3.194-.229-4.786-.178-2.526-2.4-2.118-4.409-1.518a.641.641,0,0,0-.447.416.548.548,0,0,0-.352.6c.243,2.639.439,5.281.6,7.925Z" transform="translate(-2529.906 -970.452)"/><path class="b" d="M2574.71,1143.932c1.136,1.215,3.241,1.517,5.177,1.432-.041-1.023-.083-2.047-.156-3.066-.178-2.526-2.4-2.118-4.409-1.518a.641.641,0,0,0-.447.416.549.549,0,0,0-.352.6Q2574.622,1142.862,2574.71,1143.932Z" transform="translate(-2529.975 -970.452)"/><path class="a" d="M2665.76,1149.669a.742.742,0,0,0-.093-.141c-.1-.785-1.382-8.453-1.59-10.035-.329-2.511-4.645-.826-4.7-.639-.215.1.161,3.108.208,3.417.4,2.62.756,5.245,1.079,7.875C2660.463,1150.244,2666.039,1150.226,2665.76,1149.669Z" transform="translate(-2591.695 -968.85)"/><path class="b" d="M2659.7,1143a13.651,13.651,0,0,0,5.074.942c-.312-1.922-.606-3.76-.7-4.447-.329-2.511-4.645-.826-4.7-.639-.215.1.161,3.108.208,3.417C2659.626,1142.513,2659.661,1142.756,2659.7,1143Z" transform="translate(-2591.695 -968.85)"/><path class="c" d="M2544.97,1176.281a12.438,12.438,0,0,1-1.657-1.537.982.982,0,0,0-1.087-.228c-3.8,1.594-7.55,3.558-11.361,5.11-.791.322-.471,1.562.3,1.328.192.065,18.044.4,18.12-.041a4.471,4.471,0,0,0,.266-1.183,13.714,13.714,0,0,0-.678-4.217.434.434,0,0,0-.585-.256A17.027,17.027,0,0,1,2544.97,1176.281Z" transform="translate(-2497.867 -995.28)"/><path class="c" d="M2651.171,1170.4a.643.643,0,0,0-1.061-.3c-.305.331-.586.679-.857,1.037a5.014,5.014,0,0,0-1.7-1.163c-1.167-.419-2.363.715-3.036,1.537-.091.111-4.089,5.308-5.216,6.988a.37.37,0,0,0,.27.576c1.244.12,4.228.316,5.5-.413,1.984-1.139,6.8-3.849,6.768-4.281A21.2,21.2,0,0,0,2651.171,1170.4Z" transform="translate(-2577.084 -991.964)"/><path d="M2567.169,800.183a7.553,7.553,0,0,0-1.168-3.972,6.942,6.942,0,0,0-3.418-2.155,85.489,85.489,0,0,0-11.356-3.011,1.175,1.175,0,0,0-1.21.448.962.962,0,0,0-1.188.848c-1.851,12.146-1.6,24.433-.725,36.653s1.3,27.338,2.79,39.512c.8,6.545,2.74,20.578,3.155,20.877.277.412,7.283.775,10.279.08.493-.115.7-29.692,1.67-43.955.486-7.165,1.355-17.183,1.37-24.362q.011-5.361.023-10.722A101.985,101.985,0,0,0,2567.169,800.183Z" transform="translate(-2510.262 -716.201)"/><path class="d" d="M2603.986,926.193c-1.751,1.091,1.446,34.821,1.95,37.67.229-8.847.386-14.1.843-20.836.343-5.056,1.235-12.974,1.314-18.031A8.783,8.783,0,0,0,2603.986,926.193Z" transform="translate(-2551.045 -813.719)"/><path class="d" d="M2568.849,800.183a7.558,7.558,0,0,0-1.168-3.972,6.942,6.942,0,0,0-3.418-2.155,85.489,85.489,0,0,0-11.356-3.011,1.175,1.175,0,0,0-1.21.448.961.961,0,0,0-1.188.848c-.315,2.064-.564,4.132-.764,6.2a16.3,16.3,0,0,0,3.556,1.595,13.836,13.836,0,0,1,5.154,2.846c1.775,1.587,3.381,3.489,5.728,4.229a12.47,12.47,0,0,1,2.5.79c.891.5,1.154,1.277,1.678,2.107.012.019.019.038.028.057.226.072.453.147.683.224A101.406,101.406,0,0,0,2568.849,800.183Z" transform="translate(-2511.941 -716.201)"/><path d="M2606.633,857.813c-.76-12.121-.486-27.188-1.949-39.25a117.116,117.116,0,0,0-3.9-19.57c-.1-.326-14.262,1.43-20.31,3.99-1.138.482,7.781,56.686,14.743,81.882.49,1.772,2.167,8.528,2.95,9.836.76,1.269,10.879,1.538,10.829.744Q2607.813,876.629,2606.633,857.813Z" transform="translate(-2534.234 -721.978)"/><path class="d" d="M2586.493,812.991a12.461,12.461,0,0,1,2.5.79c.891.5,1.154,1.277,1.678,2.107.012.019.018.038.028.057a15.539,15.539,0,0,0,4.318,1.043,6.826,6.826,0,0,0,3.167-1.119,8.219,8.219,0,0,1,2.921-.939c1.026-.106,2.088.06,3.11-.053a110.474,110.474,0,0,0-3.413-15.884c-.1-.326-14.261,1.43-20.31,3.99-.228.1-.024,2.308.5,5.985C2582.679,810.511,2584.247,812.283,2586.493,812.991Z" transform="translate(-2534.252 -721.978)"/><path class="e" d="M2593.207,812.195a.652.652,0,0,0-.719-.661l-23.724,1.419a1.314,1.314,0,0,0-.827,1.77c8.488,4.066,17.305,7.909,26.849,8.278a.753.753,0,0,0,.75-.751A42.321,42.321,0,0,0,2593.207,812.195Z" transform="translate(-2524.903 -731.133)"/><path class="f" d="M2504.884,625.78c-2.771.906-4.547,3.045-5.886,5.532-1.73,3.215-3.152,6.633-4.571,9.994q-2.3,5.452-4.288,11.029c-1.277,3.6-2.923,7.431-3.476,11.221-.467,3.2,1.361,6.093,3.337,8.475a5.163,5.163,0,0,0,3.067,2.134c1.5.159,2.625-1.016,3.618-2,5.177-5.152,9.042-16.1,9.355-19.652.384-4.344.146-8.764.435-13.125C2506.763,635.041,2505.283,625.65,2504.884,625.78Z" transform="translate(-2465.974 -595.93)"/><path class="f" d="M2568.108,653.159c-.058-3.686-.183-7.373-.512-11.046-.351-3.911.626-10.153-2.787-12.517-2.8-1.939-7.625-3.346-11.612-4.594a31.366,31.366,0,0,0-8.208-1.495c-2.441-.087-5.4.01-7.532,1.35-4.3,2.7-3.99,9.165-3.808,13.534.257,6.136.5,12.285.988,18.408.3,3.832.73,7.656,1.392,11.444.33,1.892.659,5.433.96,7.33.312,1.967,10.323,3.03,13.212,2.94,2.1-.066,18.765-.528,18.55-2.922C2568.083,668.127,2568.225,660.642,2568.108,653.159Z" transform="translate(-2500.162 -594.26)"/><path class="g" d="M2563.494,522.55c-.763-.58-1.664-.817-2.437-1.323-1.048-.686-1.378-1.905-2.268-2.742a10.622,10.622,0,0,0-5.84-2.314,9.108,9.108,0,0,0-8.191,3.5,13.454,13.454,0,0,1-2.516,2.614,6.812,6.812,0,0,0-2.179,3.171,6.442,6.442,0,0,0,.08,4.371,3.529,3.529,0,0,0,2.537,1.87c.491,0-.088,1.966-.2,2.434a.364.364,0,0,0,.136.373,60.014,60.014,0,0,0,8.258,5.428c.911.543,2.273,1.783,3.4,1.774a3.118,3.118,0,0,0,1.5-.687c.673-.425,1.342-.858,2.012-1.289a.5.5,0,0,0,.09-.019c3.43-1.076,6.692-4.147,5.621-8.069-.178-.652-.379-.961.089-1.533.331-.4.817-.7,1.161-1.1a4.169,4.169,0,0,0,1.066-2.225C2565.994,525.034,2564.8,523.541,2563.494,522.55Z" transform="translate(-2504.646 -516.096)"/><path class="h" d="M2578.578,585.664c-.086-1.124-8.663,5.778-8.491,6.306.834,2.571,3.429,10.555,3.429,10.555,2.525,1.662,5.809-.875,8.005-2.623a.936.936,0,0,0,.388-.944C2581.986,598.75,2579.042,591.735,2578.578,585.664Z" transform="translate(-2526.746 -566.642)"/><path class="i" d="M2576.318,592.151a32.708,32.708,0,0,0,2.377-5.321q-.073-.587-.117-1.166c-.086-1.124-8.663,5.778-8.491,6.306.321.988.867,2.551,1.418,4.1A10.16,10.16,0,0,0,2576.318,592.151Z" transform="translate(-2526.746 -566.642)"/><path class="h" d="M2567.368,530.729c-.523-3.293-2.23-6.46-5.78-7.035-2.533-.41-9.518-.419-11.659,9.938a29.273,29.273,0,0,0-.445,8.341c.166,2.177,1.005,5.284,2.808,6.8,1.457,1.223,4.015.96,5.649.253a11.221,11.221,0,0,0,4.624-4.317C2565.251,540.37,2568.189,535.9,2567.368,530.729Z" transform="translate(-2511.672 -521.535)"/><path class="i" d="M2562.916,579.128c-1.073-.765-1.03-1.732-.747-2.908.215-.893.479-1.772.776-2.641.062-.18-.224-.258-.285-.079a17.351,17.351,0,0,0-.972,3.632,2.227,2.227,0,0,0,1.079,2.25C2562.922,579.494,2563.07,579.237,2562.916,579.128Z" transform="translate(-2520.621 -557.805)"/><path class="i" d="M2569.358,591.62l-1.181-.35a.148.148,0,0,0-.079.285l1.181.35A.148.148,0,0,0,2569.358,591.62Z" transform="translate(-2525.225 -570.808)"/><path class="g" d="M2562.7,523.147a8.013,8.013,0,0,0-8.524-1.068c-3.487,1.471-5.837,4.565-8,7.533-.34.467.776,1.314,1.178,1.194,2.239-.671,3.935-2.236,5.8-3.561a4.969,4.969,0,0,0,2.648,5.137,8.291,8.291,0,0,0,1.908.761,9.308,9.308,0,0,1,1.275.256c.8.372.619.97.691,1.652a13.181,13.181,0,0,0,1.577,4.916c.106.193.249.406.468.427.626.059,1.379-1.066,1.668-1.5.463-.7.8-1.478,1.188-2.218a16.051,16.051,0,0,0,2.014-4.9C2567.075,528.668,2564.937,525.176,2562.7,523.147Z" transform="translate(-2509.295 -519.909)"/><path class="i" d="M2564.8,601.534a6.392,6.392,0,0,1-1.918-.019,4.015,4.015,0,0,1-1.762-.59.153.153,0,0,0-.031-.085l-.023-.029a.148.148,0,0,0-.179-.023l-.041.025a.15.15,0,0,0-.03.232,3.428,3.428,0,0,0,1.745.709,6.627,6.627,0,0,0,2.238.076C2564.991,601.805,2564.993,601.51,2564.8,601.534Z" transform="translate(-2519.974 -577.725)"/><path class="i" d="M2565.572,606.742a1.314,1.314,0,0,1-.816-.22c-.159-.1-.308.151-.149.255a1.585,1.585,0,0,0,.965.26C2565.761,607.027,2565.762,606.731,2565.572,606.742Z" transform="translate(-2522.71 -581.896)"/><path class="h" d="M2600.516,579.687c-.239-.95-1.5-1.01-2.436-.5-1.461.794-3.717,3.483-2.312,5.182C2597.538,586.506,2600.938,581.367,2600.516,579.687Z" transform="translate(-2545.118 -561.786)"/><path d="M2580.391,579.684c-.129.734-.592,1.265-1.034,1.188s-.7-.735-.567-1.469.592-1.265,1.034-1.188S2580.521,578.951,2580.391,579.684Z" transform="translate(-2533.059 -561.305)"/><path d="M2556.336,574.02c-.063.742-.477,1.313-.925,1.275s-.759-.671-.7-1.413.478-1.313.925-1.275S2556.4,573.278,2556.336,574.02Z" transform="translate(-2515.554 -557.227)"/><path class="g" d="M2583.864,568.058a3.725,3.725,0,0,0-3-1.9.875.875,0,0,0-.86.975c.151.9,1.123,1.238,1.9,1.4C2582.229,568.6,2584.468,569.021,2583.864,568.058Z" transform="translate(-2533.958 -552.528)"/><path class="h" d="M2611.926,833.246a.785.785,0,0,0-.55-.2.73.73,0,0,0-1.151-.249,45.23,45.23,0,0,0-3.851,3.123.957.957,0,0,1-.133-.042.6.6,0,0,0-.268-.169c-1.638-.513-3.078-1.32-4.644-1.976a7.228,7.228,0,0,0-3.278-.109c-.542.034-.885.845-.3,1.119.225.106.449.2.674.28-.846.323-1.67.7-2.406,1a.866.866,0,0,0,.562,1.637l3.974-.985a.067.067,0,0,1,.054.119c-1.1.781-2.208,1.553-3.329,2.3-.788.527-.124,1.993.757,1.535l.2-.106.192-.1a.936.936,0,0,0,.868.634,4.757,4.757,0,0,0,.907-.124,1.043,1.043,0,0,0,.45.9c.806.515,1.951-.005,2.785-.224.493-.129.983-.271,1.473-.414l.048.031c2.163,1.275,3.834-1.077,5.165-2.6a.945.945,0,0,0,.073-.1c.39-.369,2.739-2.173,3.045-2.964C2613.6,834.625,2612.521,833.76,2611.926,833.246Z" transform="translate(-2545.216 -746.471)"/><path class="h" d="M2425.417,684.127q-1.815-2.425-3.657-4.83a7.564,7.564,0,0,0,.685-3,6.428,6.428,0,0,0-.577-1.606,8.589,8.589,0,0,1-.533-2.422.738.738,0,0,0-.029-.527c0-.008,0-.015,0-.023a.751.751,0,0,0-1.5-.135,5.209,5.209,0,0,0,.071,2.187c.047.283.1.572.148.881.105.687.076,1.662-.863,1.372-.534-.165-1.246-1.15-1.634-1.55-1.789-1.841-3.3-4.082-5.49-5.5-.685-.445-1.619.443-1.012,1.092.177.189.373.408.582.648a.828.828,0,0,0,.068.169,27.638,27.638,0,0,1,1.425,2.994,18.731,18.731,0,0,0,1.119,2.9c.94,1.536,2.78,2.716,4.11,3.89a.745.745,0,0,0,.2.126c.429.53.755.861.843.8.344.653,3.219,2.971,4.189,4.15.441.537.371.71.514.2a.844.844,0,0,0,.478-.615A.777.777,0,0,0,2425.417,684.127Z" transform="translate(-2410.834 -627.28)"/><path class="g" d="M2554.789,558.259a2.343,2.343,0,0,0-1.79.246c-.347.169-.839.825-.27,1.11a5.761,5.761,0,0,0,2.487.843.776.776,0,0,0,.781-1.035A1.667,1.667,0,0,0,2554.789,558.259Z" transform="translate(-2513.925 -546.719)"/><path class="f" d="M2648.535,668.375c-1.515-3.4-3.3-6.663-5.039-9.948-3.437-6.495-7.268-15.549-14.854-18.119-.336-.114.032.5-.16.684a.738.738,0,0,0-.517.451c-2.865,6.329-3.489,13.065-.31,19.395a79.425,79.425,0,0,0,11.442,17.476c2.176,2.41,4.279,4.282,7.688,4.27,2.71-.01,4.666-1.616,4.734-4.4C2651.6,674.878,2649.85,671.322,2648.535,668.375Z" transform="translate(-2567.103 -606.496)"/><path class="f" d="M2665.4,746.846c-1.129-2.82-4.471-10.109-4.471-10.109-1.866,2.15-4.635,4.931-6.485,7.095-1.2,1.4-2.432,3.117-1.67,5.041a4.368,4.368,0,0,0,1.313,1.421c-.041.892-8.252,10.445-10.109,12.756a.924.924,0,0,0,0,1.274c1.733,1.751,5.657,5.236,6.009,4.941,2.745-2.3,13.083-12.2,14.776-14.962C2666.6,751.3,2666.514,749.636,2665.4,746.846Z" transform="translate(-2580.344 -676.692)"/><path class="f" d="M2464.718,730.619c-.608-4.181-3.293-7.54-6.341-10.3-3.315-3-8.048-5.8-11.5-8.653-.341-.383-4.863,5.581-4.57,5.76,2.092,3.655,9.824,14.112,16.646,18.346C2462.9,738.22,2464.8,731.157,2464.718,730.619Z" transform="translate(-2433.733 -658.431)"/><path class="e" d="M2580.57,619.365c-1.353,1.026-5.763,6.219-6.069,6.489-.378.333-.354.36-.647,0a32.726,32.726,0,0,1-2.285-5.1,26.411,26.411,0,0,0-1.3,6.078,20.607,20.607,0,0,0-.075,2.75c.03.772.01,2,1,1.029a28.121,28.121,0,0,0,2.749-3.514,27.552,27.552,0,0,0,1.134,4.124c.229.524.767.345,1.13.075a32.844,32.844,0,0,0,7.475-8.975C2583.823,622.012,2581.136,618.936,2580.57,619.365Z" transform="translate(-2526.814 -591.232)"/><path class="d" d="M2534.234,674.288a.15.15,0,0,0-.3,0,152.611,152.611,0,0,0,1.4,24.819c.026.19.316.109.29-.08A152.175,152.175,0,0,1,2534.234,674.288Z" transform="translate(-2500.398 -631.133)"/><path class="d" d="M2505.486,747.621A13.358,13.358,0,0,0,2502.5,744c-1.33-1.118-2.835-2.047-4.261-3.036-.159-.111-.309.15-.152.259,1.4.974,2.891,1.889,4.2,2.989a13.126,13.126,0,0,1,2.942,3.558A.15.15,0,0,0,2505.486,747.621Z" transform="translate(-2474.292 -679.751)"/><path class="d" d="M2633.624,693.783c-3.017-2.954-5.788-6.4-6.956-10.534-1.1-3.9-.609-8.394,2.115-11.526.126-.145-.085-.358-.212-.212a12.668,12.668,0,0,0-2.311,11.374c1.092,4.365,4,8.021,7.153,11.111C2633.55,694.13,2633.762,693.918,2633.624,693.783Z" transform="translate(-2567.314 -629.181)"/><path class="d" d="M2692.689,772.6a8.974,8.974,0,0,0-4.554,2.3c-.141.132.071.344.212.212a8.694,8.694,0,0,1,4.422-2.222C2692.958,772.858,2692.878,772.569,2692.689,772.6Z" transform="translate(-2612.637 -702.796)"/><path class="i" d="M2612.911,849.513a9.163,9.163,0,0,0-4.889,2.608c-.144.13.069.342.212.212a8.823,8.823,0,0,1,4.676-2.52C2613.1,849.789,2613.1,849.489,2612.911,849.513Z" transform="translate(-2554.325 -758.777)"/><path class="i" d="M2617.731,854.062a11.6,11.6,0,0,0-4.363,2.148c-.152.119.062.33.212.212a11.27,11.27,0,0,1,4.231-2.071A.15.15,0,0,0,2617.731,854.062Z" transform="translate(-2558.213 -762.085)"/><path class="i" d="M2423.247,684.813c-.843-.658-1.707-1.3-2.531-1.978a5.247,5.247,0,0,1-1.378-2.414,5.922,5.922,0,0,0-2.417-3.3c-.17-.093-.321.166-.152.259,1.555.859,2.054,2.6,2.665,4.145.629,1.59,2.3,2.487,3.6,3.5C2423.186,685.142,2423.4,684.931,2423.247,684.813Z" transform="translate(-2415.101 -633.285)"/><path class="d" d="M2588.281,896.856c-.445-2.354-.925-4.875-2.755-6.58-.141-.132-.354.08-.212.212,1.938,1.806,2.321,4.557,2.789,7.033l1.713,9.07c.035.19.325.109.289-.08Q2589.192,901.684,2588.281,896.856Z" transform="translate(-2537.797 -788.418)"/><path class="d" d="M2668.971,1175.274a8,8,0,0,1-2.5,3.578c-.133.13.071.333.2.2a8.271,8.271,0,0,0,2.575-3.705A.144.144,0,0,0,2668.971,1175.274Z" transform="translate(-2596.871 -995.813)"/><path class="d" d="M2565.258,1182.067a59.937,59.937,0,0,1-6.209,1.884c-.18.044-.1.322.077.278a59.932,59.932,0,0,0,6.209-1.884C2565.508,1182.281,2565.433,1182,2565.258,1182.067Z" transform="translate(-2518.64 -1000.825)"/><path class="j" d="M2585.119,535.068a3.849,3.849,0,0,0-3.1-1.981,2.193,2.193,0,0,1-.531-.089,1.312,1.312,0,0,1-.453-.926,5.75,5.75,0,0,0-.171-1,2.022,2.022,0,0,0-3.455-.915c-.12.124.07.314.189.189a1.784,1.784,0,0,1,3.007.8c.164.539.053,1.186.255,1.7.141.359.418.38.767.444,1.248.227,2.542.525,3.181,1.747a4.8,4.8,0,0,1,.169,3.448.134.134,0,0,0,.258.071A5.189,5.189,0,0,0,2585.119,535.068Z" transform="translate(-2532.048 -525.874)"/><path class="j" d="M2616.087,543.967c-.157-.066-.294.164-.135.231a2.625,2.625,0,0,1,1.532,2.82,3.618,3.618,0,0,1-2.119,2.611c-.155.075-.02.306.135.231a3.855,3.855,0,0,0,2.267-2.918A2.887,2.887,0,0,0,2616.087,543.967Z" transform="translate(-2559.655 -536.374)"/><path class="j" d="M2548.326,538.567a4.687,4.687,0,0,0-2.276,2.416,1.868,1.868,0,0,0,.882,2.225c.153.079.289-.152.135-.231a1.714,1.714,0,0,1-.521-2.472,5.51,5.51,0,0,1,1.915-1.706C2548.606,538.706,2548.471,538.474,2548.326,538.567Z" transform="translate(-2509.192 -532.436)"/></g><g transform="translate(2024.94 440.242)"><path class="k" d="M2214.742,580.465c-.067-.422-.289-.684-.8-.526-1.634-.871-4.221,2.318-5.124,3.325a3.471,3.471,0,0,0-.886,1.548,1.672,1.672,0,0,0,1.406,2.033,4,4,0,0,0,2.913-1.261,7.357,7.357,0,0,0,2.125-2.85A5.773,5.773,0,0,0,2214.742,580.465Z" transform="translate(-2198.928 -539.365)"/><path class="k" d="M2284.567,579.872c-1.211-.836-2.291.087-2.843,1.178-.9,1.772-.586,3.8-.1,5.635a.54.54,0,0,0,.2.306.635.635,0,0,0,.865.444,5.134,5.134,0,0,0,3.026-3.485C2286.026,582.612,2285.787,580.715,2284.567,579.872Z" transform="translate(-2252.25 -539.189)"/><path class="l" d="M2285.321,586.84a24.623,24.623,0,0,1-1.5,5.36c-.07.171.209.246.278.076a24.6,24.6,0,0,0,1.5-5.36C2285.628,586.735,2285.351,586.657,2285.321,586.84Z" transform="translate(-2254.182 -544.42)"/><path class="k" d="M2277.324,783.7c-1.321-.766-2.706.219-3.218,1.625a7.673,7.673,0,0,0,.265,5.6c-.013.49.478,1.025,1.018.74a6.154,6.154,0,0,0,3.011-3.724C2278.834,786.473,2278.708,784.505,2277.324,783.7Z" transform="translate(-2246.826 -687.591)"/><path class="k" d="M2328.511,859.742a8.06,8.06,0,0,0,.533-2.16,10.883,10.883,0,0,0,.127-3.233c-.148-1.149-.738-3.475-2.365-2.861-1.328.5-2.31,2.784-2.331,4.073a6.657,6.657,0,0,0,1.121,3.56c.427.68.91,1.665,1.883,1.492A1.447,1.447,0,0,0,2328.511,859.742Z" transform="translate(-2283.784 -737.05)"/><path class="k" d="M2351.292,1003.7c-.2-1.695-2.556-2.164-3.971-1.987-1.523.191-6.29,2.737-4.681,4.736,1.229,1.527,4.406.958,6.027.582A3.253,3.253,0,0,0,2351.292,1003.7Z" transform="translate(-2296.766 -846.444)"/><path class="l" d="M2333.42,858.8c-.023-.181-.312-.184-.288,0q.395,3.091.7,6.193c.018.183.306.185.288,0Q2333.816,861.887,2333.42,858.8Z" transform="translate(-2290.083 -742.343)"/><path class="l" d="M2348.905,1010.94a51.653,51.653,0,0,1-5.22.43c-.185.006-.186.294,0,.288a51.777,51.777,0,0,0,5.22-.43C2349.086,1011.2,2349.089,1010.916,2348.905,1010.94Z" transform="translate(-2297.664 -853.182)"/><path class="m" d="M2258.67,505.463a65.707,65.707,0,0,1-23.59,7.484q1.679-2.186,3.3-4.412,3.935-5.4,7.534-11.041a.121.121,0,0,0,.127-.137c0-.018,0-.036,0-.053q1.228-1.929,2.417-3.884,2.667-4.388,5.124-8.9c.089-.163-.16-.308-.249-.146q-3.459,6.341-7.331,12.443a50.758,50.758,0,0,1,1.373-16.437.144.144,0,0,0-.278-.076,51.014,51.014,0,0,0-1.351,16.917q-3.491,5.479-7.3,10.743a35.489,35.489,0,0,1-.859-12.492c.02-.184-.268-.183-.288,0a35.721,35.721,0,0,0,.893,12.667.129.129,0,0,0,.064.085q-2.061,2.835-4.21,5.6-1.536,1.975-3.117,3.914-.749.918-1.508,1.828a5.264,5.264,0,0,1-1.841,1.756q-.049-3.04-.1-6.079-.249-14.074-.572-28.147a.13.13,0,0,0,0-.172q-.105-4.767-.212-9.534a.144.144,0,0,0-.288,0q.1,4.617.2,9.233a94.014,94.014,0,0,1-10.5-12.4.121.121,0,0,0,.035-.068,34.356,34.356,0,0,0-.316-13.328c-.04-.181-.318-.1-.277.077a33.987,33.987,0,0,1,.341,13.015,93.825,93.825,0,0,1-6.863-11.411c-.084-.165-.333-.02-.249.145a94.158,94.158,0,0,0,9.525,15.017,39.343,39.343,0,0,1-14.455-6.828c-.148-.112-.292.138-.146.249a39.536,39.536,0,0,0,14.885,6.945,94.155,94.155,0,0,0,8.031,9.009q.237,10.771.45,21.542h0a58.507,58.507,0,0,1-12-13.413.134.134,0,0,0-.067-.1c-2.258-3.324-4.331-6.785-6.373-10.214a.144.144,0,0,0-.249.145c2.007,3.37,4.045,6.773,6.257,10.046a33.491,33.491,0,0,1-8.841-1.594,43.823,43.823,0,0,1-8.538-3.133c-.163-.088-.309.161-.145.249a44.141,44.141,0,0,0,8.607,3.161,33.307,33.307,0,0,0,9.116,1.608,75.642,75.642,0,0,0,5.3,6.965.141.141,0,0,0-.042.005,62.707,62.707,0,0,1-16.981,3.173c-.185.008-.186.3,0,.288a62.993,62.993,0,0,0,17.058-3.183.14.14,0,0,0,.1-.127,48.524,48.524,0,0,0,6.59,6.325.157.157,0,0,0,.208-.015q.349,18.207.512,36.417.033,4.3.044,8.591l-.026.026a.135.135,0,0,0,.027.217q.021,6.7,0,13.405c-4.281-3.13-7.722-7.2-10.974-11.352q-1.688-2.154-3.331-4.343a.146.146,0,0,0,.008-.028,38.874,38.874,0,0,0-.276-8.5.132.132,0,0,0,.045-.052,24.37,24.37,0,0,0,2.206-14.053c-.026-.183-.3-.105-.278.076a24.027,24.027,0,0,1-2.047,13.551,39.073,39.073,0,0,0-2.835-9.726c-.074-.169-.323-.023-.249.145a38.713,38.713,0,0,1,3.166,18.235q-3.531-4.694-6.889-9.514c-.1-.151-.355-.007-.249.145q2.027,2.913,4.117,5.781a47.092,47.092,0,0,1-15.452-1.171c-.18-.044-.257.234-.077.278a47.34,47.34,0,0,0,15.728,1.165q1.932,2.644,3.917,5.248c1.41,1.846,2.829,3.695,4.307,5.492a25.414,25.414,0,0,1-11.194-4.923c-.145-.112-.35.09-.2.2a25.7,25.7,0,0,0,11.668,5.058h.01c1.161,1.4,2.359,2.762,3.627,4.062a40.492,40.492,0,0,0,5.252,4.575h0c-.061,14.368-.3,28.734-.808,43.093a206.271,206.271,0,0,0-10.087-21.03.134.134,0,0,0,.083-.123,77.534,77.534,0,0,0-.991-15.4c-.03-.183-.308-.105-.278.077a77.143,77.143,0,0,1,.986,15.085c-.892-1.611-1.8-3.214-2.735-4.8a.144.144,0,0,0-.249.145q2.91,4.935,5.539,10.026c-5.105-3.926-10.494-7.725-14.624-12.717-.118-.143-.321.062-.2.2a49.649,49.649,0,0,0,6.429,6.325,20.066,20.066,0,0,1-8.265-.358.144.144,0,0,0-.077.278,20.433,20.433,0,0,0,8.588.333.125.125,0,0,0,.038-.015c2.7,2.24,5.538,4.32,8.289,6.445a.147.147,0,0,0,.091.03q4.067,7.926,7.442,16.183c-.013.349-.022.7-.035,1.048q-.1,2.663-.211,5.327a.144.144,0,0,0,0,.079q-.677,16.2-1.868,32.371c-.014.185.274.184.288,0q1.206-16.147,1.863-32.327a45.808,45.808,0,0,0,11.016-10.234q.528-.655,1.041-1.322a.148.148,0,0,0,.069,0c4.608-.925,8.5-3.7,12.815-5.41.171-.067.1-.346-.076-.278-4.229,1.674-8.06,4.373-12.548,5.349,1.091-1.423,2.145-2.876,3.177-4.343a37.544,37.544,0,0,0,4.136-6.937c.072-.171-.207-.245-.278-.076a37.244,37.244,0,0,1-4.107,6.868c-1.469,2.087-2.976,4.15-4.585,6.132a45.493,45.493,0,0,1-10.643,9.9c.08-1.928.274-6.113.241-6.193q.519-14.406.7-28.822.195-14.4.129-28.8,3.645-3.517,6.934-7.374a.11.11,0,0,0,.073.12c2.552,1.079,5.439.608,8.084.157a48.131,48.131,0,0,0,9.1-2.5c.172-.066.1-.344-.076-.278a48.679,48.679,0,0,1-6.439,1.968,27.365,27.365,0,0,1,6.869-4.609c.168-.079.022-.327-.145-.249a27.616,27.616,0,0,0-7.169,4.871.128.128,0,0,0-.043.1c-.458.1-.918.2-1.38.284-2.766.521-5.968,1.153-8.661.015a.147.147,0,0,0-.107,0q1.848-2.172,3.581-4.438a.127.127,0,0,0,.108-.141q1.9-2.5,3.66-5.109a.108.108,0,0,0,.017,0,15.743,15.743,0,0,0,6.8-3.63c2.3-1.933,4.4-4.12,6.562-6.21.134-.129-.07-.333-.2-.2-2.047,1.984-4.046,4.042-6.2,5.906a16.229,16.229,0,0,1-6.738,3.792q2.61-3.924,4.858-8.075a.108.108,0,0,0,.034-.062c.109-.2.222-.4.329-.6q2.219-4.161,4.055-8.508c.072-.169-.177-.316-.249-.145q-1.919,4.531-4.256,8.865a19.4,19.4,0,0,1-.6-7.933c.014-.185-.274-.184-.288,0a19.064,19.064,0,0,0,.708,8.275,105.506,105.506,0,0,1-8.579,13.312,24.273,24.273,0,0,1-1.052-4.852l.008-.005a11.266,11.266,0,0,0,3.013-5.156.144.144,0,0,0-.278-.076,10.962,10.962,0,0,1-2.783,4.866,24.109,24.109,0,0,1,.4-7.279c.038-.181-.24-.258-.278-.076a24.471,24.471,0,0,0,.753,12.858q-2.072,2.72-4.319,5.3-2.912,3.344-6.1,6.428-.057-15.934-.329-31.867c1.138-.382,1.9-1.689,2.629-2.57q1.426-1.725,2.816-3.479.92-1.161,1.823-2.337a.131.131,0,0,0,.063.007,66.091,66.091,0,0,0,23.906-7.545C2258.979,505.623,2258.833,505.374,2258.67,505.463Z" transform="translate(-2189.106 -452.701)"/><path class="m" d="M2338.456,828.084a24.018,24.018,0,0,1-6,3.445q-3.139,1.5-6.4,2.72,2.739-4.6,5.663-9.08c.1-.156-.147-.3-.249-.146a257.632,257.632,0,0,0-15.412,27.007c-.082.166.167.312.249.145q4.412-8.946,9.508-17.528,3.451-1.29,6.782-2.871a24.182,24.182,0,0,0,6.058-3.49C2338.8,828.162,2338.592,827.959,2338.456,828.084Z" transform="translate(-2277.648 -717.812)"/><path class="k" d="M2265.42,691.358c-.217-1.728-1.055-3.745-2.763-3.81-1.641-.063-2.288,1.812-2.229,3.462.082,2.326,1.427,4.159,2.586,5.912a.675.675,0,0,0,.094.114.59.59,0,0,0,1-.011A8.443,8.443,0,0,0,2265.42,691.358Z" transform="translate(-2237.163 -617.796)"/><path class="k" d="M2242.5,702.751c-.582-1.423-2.024-3.131-3.558-2.27-1.467.823-1.519,2.917-.983,4.4a9.377,9.377,0,0,0,3.482,4.428.881.881,0,0,0,.787.023c.865-.288.8-2.264.833-3.012A8.555,8.555,0,0,0,2242.5,702.751Z" transform="translate(-2220.584 -627.042)"/><path class="k" d="M2225.833,736.336a2.5,2.5,0,0,0-3.573-.667,3.306,3.306,0,0,0-1.043,3.8c.668,1.7,2.695,2.853,4.247,3.605a1.325,1.325,0,0,0,1.4-.8C2227,740.42,2226.979,737.933,2225.833,736.336Z" transform="translate(-2208.464 -652.468)"/><path class="k" d="M2182.876,770.889a.452.452,0,0,0-.09-.485,6.475,6.475,0,0,0-4.252-2.481c-1.5-.171-3.132.415-3.5,1.782-.908,3.371,5.671,2.931,7.654,2.06A.515.515,0,0,0,2182.876,770.889Z" transform="translate(-2174.948 -676.278)"/><path class="k" d="M2231.613,794.506a4.8,4.8,0,0,0-.941-1.427,9.626,9.626,0,0,0-2.169-2.123c-1.1-.763-2.805-1.067-3.659.2a2.381,2.381,0,0,0,.756,3.158,6.265,6.265,0,0,0,2.442,1.054,7.483,7.483,0,0,0,2.745.34.96.96,0,0,0,.864-1.027A1.346,1.346,0,0,0,2231.613,794.506Z" transform="translate(-2211.021 -692.583)"/><path class="k" d="M2348.858,692.117c-2.633.264-2.616,5.38-1,6.7a.852.852,0,0,0,.924-.13,6.482,6.482,0,0,0,1.732-4.246C2350.568,693.382,2350.169,691.985,2348.858,692.117Z" transform="translate(-2299.991 -621.117)"/><path class="k" d="M2362.08,706.985c-1-.75-2.064.049-2.535.983a5.713,5.713,0,0,0-.351,3.923.6.6,0,0,0,.058.146.479.479,0,0,0,.675.4,4.461,4.461,0,0,0,2.5-2.359C2362.849,709.114,2363.039,707.708,2362.08,706.985Z" transform="translate(-2308.916 -631.729)"/><path class="k" d="M2382.462,662.156c-1.109.083-1.749,1.5-1.961,2.448a4.751,4.751,0,0,0,.63,3.6.6.6,0,0,0,1.073-.19.563.563,0,0,0,.042-.041,7.47,7.47,0,0,0,1.788-3.6C2384.181,663.358,2383.7,662.063,2382.462,662.156Z" transform="translate(-2324.478 -599.312)"/><path class="k" d="M2411.476,658.531c-1.412-1.664-4.36-1.451-6.089-.794-2.141.813-4.644,2.725-5.128,5.371a.932.932,0,0,0,1.151,1.139c2.828-.178,6.174-.112,8.749-1.625C2411.515,661.825,2412.825,660.122,2411.476,658.531Z" transform="translate(-2338.928 -595.745)"/><path class="k" d="M2416.322,693.464c-.751-.831-1.953-.425-2.741.1a5.178,5.178,0,0,0-2.088,2.931.58.58,0,0,0-.02.215.627.627,0,0,0,.658.885c1.336-.22,2.787-.383,3.772-1.421C2416.539,695.506,2417.039,694.256,2416.322,693.464Z" transform="translate(-2347.059 -621.758)"/><path class="k" d="M2404.434,746.911c-.813-.713-2.113-.3-2.919.217a4.16,4.16,0,0,0-1.835,2.669.622.622,0,0,0-.011.154c-.114.4.178.9.67.719,1.2-.451,2.589-.4,3.631-1.229C2404.7,748.855,2405.286,747.657,2404.434,746.911Z" transform="translate(-2338.496 -660.728)"/><path class="k" d="M2399.653,763.953c-.341-2.914-5.382-.348-6.447.671a.54.54,0,0,0-.167.3.583.583,0,0,0,.287.915C2394.779,766.275,2399.971,766.656,2399.653,763.953Z" transform="translate(-2333.604 -672.429)"/><path class="k" d="M2371.012,801.962c-1.625-.83-3.268.494-4.205,1.773a10.046,10.046,0,0,0-1.667,6.584.669.669,0,0,0,.617.646.593.593,0,0,0,.618-.009c2.013-1.161,4.145-2.448,5.222-4.653C2372.264,804.937,2372.638,802.792,2371.012,801.962Z" transform="translate(-2313.364 -700.887)"/><path class="k" d="M2396.73,823.157c-.915-1.249-2.847-.754-4.005-.159a6.879,6.879,0,0,0-3.259,4.2.583.583,0,0,0,.073.54.559.559,0,0,0,.64.543,11.712,11.712,0,0,0,5.7-1.685A2.5,2.5,0,0,0,2396.73,823.157Z" transform="translate(-2331.063 -715.937)"/><path class="k" d="M2264.394,860.2c-1.55.315-1.937,2.078-1.827,3.441a7.277,7.277,0,0,0,.988,3.089,8.3,8.3,0,0,0,1,1.352,3.507,3.507,0,0,0,1.746.865.6.6,0,0,0,.371-.313,7.29,7.29,0,0,0,.55-2.9,10.242,10.242,0,0,0-.061-3.268A2.409,2.409,0,0,0,2264.394,860.2Z" transform="translate(-2238.71 -743.461)"/><path class="k" d="M2256.945,897.837a2.345,2.345,0,0,0-3.386-.945c-1.163.9-1.211,2.851-.769,4.181a4.915,4.915,0,0,0,3.47,3.183.682.682,0,0,0,.234.02.71.71,0,0,0,1.1-.628C2257.6,901.782,2257.932,899.492,2256.945,897.837Z" transform="translate(-2231.418 -769.871)"/><path class="k" d="M2222.135,888.762c-.83-1.1-2.344-1.821-3.479-.766a3.788,3.788,0,0,0-.574,3.978c.708,1.721,2.566,2.555,4.113,3.09.411.141.913-.261,1.153-.6.467-.658.187-2.1.035-2.851A7.066,7.066,0,0,0,2222.135,888.762Z" transform="translate(-2206.12 -763.322)"/><path class="k" d="M2214.609,924.155a7.538,7.538,0,0,0-4.786-2.3c-1.328-.066-2.886.562-3.134,1.9-.242,1.307,1.086,2.189,2.268,2.557a6.806,6.806,0,0,0,3.178.191,5.931,5.931,0,0,0,1.908-.507C2214.572,925.7,2215.161,924.708,2214.609,924.155Z" transform="translate(-2198.03 -788.338)"/><path class="k" d="M2381.96,931.57c-1.851-.867-3.514.518-4.392,1.829a9.112,9.112,0,0,0-1.525,6.415,1.9,1.9,0,0,0,.524,1.126c1.511,1.317,5.6-3.784,6.153-4.98C2383.348,934.6,2383.764,932.415,2381.96,931.57Z" transform="translate(-2321.238 -795.215)"/><path class="k" d="M2403.388,966.33c-.9-2.519-3.516-2.3-5.567-1.411-.881.381-6.072,3.2-4.18,4.657a1.2,1.2,0,0,0,.53.191C2396.427,970.181,2405,970.84,2403.388,966.33Z" transform="translate(-2333.827 -819.241)"/><path class="k" d="M2410.674,516.651c-2.135-.684-4.064.871-5.114,2.593a10.018,10.018,0,0,0-.719,8.045c.2.607,6.3-2.742,7.454-5.349C2413.138,520.041,2412.945,517.379,2410.674,516.651Z" transform="translate(-2341.903 -493.288)"/><path class="k" d="M2429.711,611.416c-1.225-1.466-3.548-1.344-5.119-.625a8.87,8.87,0,0,0-4.433,4.557c-.558,1.378,2.25,1.308,2.878,1.307a9.693,9.693,0,0,0,4.875-1.154C2429.229,614.736,2431.014,612.977,2429.711,611.416Z" transform="translate(-2353.375 -561.552)"/><path class="k" d="M2380.448,507.816c-2.187.325-3.125,2.831-3.493,4.936a5.192,5.192,0,0,0,2.343,5.693c.4.225,1.167-.452,1.3-.572a8.89,8.89,0,0,0,2.916-6.513C2383.506,509.38,2382.437,507.521,2380.448,507.816Z" transform="translate(-2321.902 -486.955)"/><path class="k" d="M2347.141,567.69a2.59,2.59,0,0,0-3.755-2.227,4.51,4.51,0,0,0-2.473,4.983c.141.81,1.9,4.994,3.226,3.7a.563.563,0,0,0,.262-.147C2346.066,572.381,2347.456,570.107,2347.141,567.69Z" transform="translate(-2295.695 -528.745)"/><path class="k" d="M2267.845,435.013c-.247-1.919-1.565-4.028-3.569-3.745-2.09.3-2.548,2.882-2.441,4.781a9.664,9.664,0,0,0,1.061,4.105c.522.947,1.757,2.628,2.927,2.328.979-.251,1.51-1.992,1.769-2.913A11.528,11.528,0,0,0,2267.845,435.013Z" transform="translate(-2238.179 -431.242)"/><path class="k" d="M2305.587,490.9c-4.931.712-3.208,9.047-1.009,11.838.057.537.685.969,1.1.451a12.627,12.627,0,0,0,3.2-7.781C2308.876,493.346,2308.023,490.545,2305.587,490.9Z" transform="translate(-2267.717 -474.64)"/><path class="k" d="M2236.3,452.431c.313-.949-.375-2.442-.613-3.278a8.507,8.507,0,0,0-1.654-3.276,2.661,2.661,0,0,0-4.108-.3c-1.348,1.451-.93,3.538.055,5.065a6.3,6.3,0,0,0,3.565,2.8,2.714,2.714,0,0,0,2.6-.711A1.171,1.171,0,0,0,2236.3,452.431Z" transform="translate(-2214.339 -441.066)"/><path class="k" d="M2217.043,487.891a6.589,6.589,0,0,0-1.432-2.576,9.853,9.853,0,0,0-2.368-2.242c-1.261-.848-3.543-2.03-4.876-.652-1.3,1.345.381,3.246,1.438,4.162a9.3,9.3,0,0,0,3.725,1.949c.859.226,3.5.929,3.515-.569C2217.045,487.939,2217.044,487.915,2217.043,487.891Z" transform="translate(-2198.928 -468.033)"/><path class="k" d="M2240.709,536.594a17.433,17.433,0,0,0-1.217-5.29c-.664-1.718-2.183-4.912-4.305-3.382-1.306.941-.793,3.5-.292,4.791a9.716,9.716,0,0,0,3,3.658c.49.423.953,1.2,1.585,1.376C2240.342,537.985,2240.669,537.449,2240.709,536.594Z" transform="translate(-2218.192 -501.318)"/><path class="k" d="M2190.8,558.883c-.47-1.84-4.194-4.554-5.237-5.068-1.708-.842-4.193-1.094-5.454.637-1.216,1.669-.182,3.843,1.386,4.854a8.866,8.866,0,0,0,4.47,1.212,10.568,10.568,0,0,0,3.973-.19A1.13,1.13,0,0,0,2190.8,558.883Z" transform="translate(-2178.319 -519.984)"/><path class="k" d="M2211.848,621.528a8.056,8.056,0,0,0-5.921-.888c-1.664.312-4.07,1.146-3.913,3.261.131,1.771,2.054,2.6,3.622,2.328a9.235,9.235,0,0,0,3.9-1.919C2210,623.96,2212.83,622.151,2211.848,621.528Z" transform="translate(-2194.643 -568.958)"/><path class="l" d="M2400.209,972.974a25.269,25.269,0,0,0-7.176,2.152c-.167.079-.021.327.146.249a25.029,25.029,0,0,1,7.106-2.123C2400.468,973.225,2400.391,972.948,2400.209,972.974Z" transform="translate(-2333.631 -825.547)"/><path class="l" d="M2382.254,937.8q-2.057,4.009-4.35,7.888a.144.144,0,0,0,.249.146q2.293-3.879,4.351-7.889C2382.587,937.779,2382.339,937.633,2382.254,937.8Z" transform="translate(-2322.656 -799.893)"/><path class="l" d="M2262.786,909.116a27.168,27.168,0,0,1-2.354-5.768.144.144,0,0,0-.278.077,27.521,27.521,0,0,0,2.383,5.837C2262.626,909.424,2262.875,909.278,2262.786,909.116Z" transform="translate(-2236.962 -774.796)"/><path class="l" d="M2269.935,864.943a.144.144,0,0,0-.278.077,33.669,33.669,0,0,1,1.269,7.063c.013.184.3.185.288,0A34.029,34.029,0,0,0,2269.935,864.943Z" transform="translate(-2243.878 -746.844)"/><path class="l" d="M2227.611,899.45a55.456,55.456,0,0,1-3.406-5.355c-.091-.162-.339-.017-.249.145a55.417,55.417,0,0,0,3.406,5.355C2227.47,899.744,2227.72,899.6,2227.611,899.45Z" transform="translate(-2210.605 -768.084)"/><path class="l" d="M2219.11,930.34a36.517,36.517,0,0,1-6.016-.685c-.181-.036-.259.241-.077.278a36.939,36.939,0,0,0,6.093.7C2219.3,930.633,2219.295,930.345,2219.11,930.34Z" transform="translate(-2202.582 -794.015)"/><path class="l" d="M2370.757,807.7a82.745,82.745,0,0,0-4.256,7.375c-.084.165.164.311.249.146a82.737,82.737,0,0,1,4.256-7.375C2371.107,807.69,2370.858,807.545,2370.757,807.7Z" transform="translate(-2314.36 -705.204)"/><path class="l" d="M2394.26,830.1a22.6,22.6,0,0,0-4.981,3.348c-.139.123.065.326.2.2a22.326,22.326,0,0,1,4.923-3.3C2394.572,830.271,2394.426,830.022,2394.26,830.1Z" transform="translate(-2330.918 -721.547)"/><path class="l" d="M2278.719,791.651q-.712,2.8-1.308,5.623c-.038.181.24.258.278.077q.6-2.825,1.307-5.623A.144.144,0,0,0,2278.719,791.651Z" transform="translate(-2249.524 -693.496)"/><path class="l" d="M2236.424,799.846a41.284,41.284,0,0,1-4.737-3.241c-.14-.12-.344.082-.2.2a41.8,41.8,0,0,0,4.8,3.286C2236.435,800.2,2236.579,799.946,2236.424,799.846Z" transform="translate(-2216.063 -697.149)"/><path class="l" d="M2397.1,768.475q-2.041.48-4.11.81c-.182.029-.1.307.077.278q2.07-.33,4.109-.809C2397.356,768.711,2397.28,768.433,2397.1,768.475Z" transform="translate(-2333.577 -676.698)"/><path class="l" d="M2403.252,750.983a9.686,9.686,0,0,0-3.545,2.581c-.113.147.138.291.249.145a9.419,9.419,0,0,1,3.442-2.478C2403.563,751.15,2403.418,750.9,2403.252,750.983Z" transform="translate(-2338.521 -663.958)"/><path class="l" d="M2362.086,712.132a20.277,20.277,0,0,1-1.353,3.942c-.077.167.171.313.249.145a20.687,20.687,0,0,0,1.382-4.011C2362.406,712.028,2362.129,711.951,2362.086,712.132Z" transform="translate(-2310.164 -635.616)"/><path class="l" d="M2352.5,696a20.734,20.734,0,0,0-.492,5.619c.009.184.3.186.288,0a20.457,20.457,0,0,1,.482-5.543C2352.816,695.895,2352.539,695.818,2352.5,696Z" transform="translate(-2303.803 -623.874)"/><path class="l" d="M2409.676,665.251c-3.266.38-6.741,1.3-8.441,4.417-.139.255.248.484.387.228,1.618-2.972,4.95-3.831,8.054-4.193C2409.959,665.671,2409.962,665.218,2409.676,665.251Z" transform="translate(-2339.632 -601.568)"/><path class="l" d="M2385.531,666.358a18.516,18.516,0,0,0-.675,4.828.144.144,0,0,0,.288,0,18.247,18.247,0,0,1,.665-4.751A.144.144,0,0,0,2385.531,666.358Z" transform="translate(-2327.732 -602.3)"/><path class="l" d="M2415.915,698.207a14.177,14.177,0,0,0-3.5,3c-.119.141.084.346.2.2a13.941,13.941,0,0,1,3.446-2.955A.144.144,0,0,0,2415.915,698.207Z" transform="translate(-2347.762 -625.54)"/><path class="l" d="M2269.227,693.173a.144.144,0,0,0-.278.077,22.117,22.117,0,0,1,.619,7.98c-.02.184.269.183.288,0A22.331,22.331,0,0,0,2269.227,693.173Z" transform="translate(-2243.364 -621.817)"/><path class="l" d="M2248.036,712.594a58.466,58.466,0,0,0-2.314-7.469c-.066-.171-.344-.1-.278.077a58.386,58.386,0,0,1,2.314,7.469C2247.8,712.851,2248.078,712.775,2248.036,712.594Z" transform="translate(-2226.251 -630.521)"/><path class="l" d="M2231.983,746.572a23.3,23.3,0,0,0-2.976-6.2c-.1-.153-.353-.009-.249.145a23.055,23.055,0,0,1,2.948,6.127C2231.76,746.825,2232.038,746.75,2231.983,746.572Z" transform="translate(-2214.096 -656.202)"/><path class="l" d="M2188.216,776.31a14.239,14.239,0,0,0-5.8-.645c-.182.034-.1.312.077.278a13.845,13.845,0,0,1,5.648.645A.144.144,0,0,0,2188.216,776.31Z" transform="translate(-2180.307 -681.854)"/><path class="l" d="M2217.608,624.437a20.708,20.708,0,0,0-7.675,1.885c-.168.078-.022.326.146.249a20.327,20.327,0,0,1,7.529-1.845C2217.793,624.717,2217.794,624.428,2217.608,624.437Z" transform="translate(-2200.359 -571.862)"/><path class="l" d="M2220.953,580.505l-1.531,2.22a9.008,9.008,0,0,1-1.553,1.961c-.144.118.062.321.2.2a8.2,8.2,0,0,0,1.437-1.786l1.693-2.453C2221.308,580.5,2221.058,580.353,2220.953,580.505Z" transform="translate(-2206.153 -539.838)"/><path class="l" d="M2198.27,566.768a48.136,48.136,0,0,1-8.124-3.3c-.162-.09-.308.159-.146.249a48.533,48.533,0,0,0,8.193,3.332C2198.37,567.1,2198.445,566.827,2198.27,566.768Z" transform="translate(-2185.853 -527.468)"/><path class="l" d="M2244.389,542.086a79.347,79.347,0,0,1-4.067-8.155c-.073-.17-.321-.023-.249.146a79.279,79.279,0,0,0,4.067,8.155A.144.144,0,0,0,2244.389,542.086Z" transform="translate(-2222.341 -505.931)"/><path class="l" d="M2222.551,492.531a69.738,69.738,0,0,1-6.507-4.731c-.142-.116-.347.086-.2.2a70.379,70.379,0,0,0,6.566,4.776C2222.562,492.88,2222.706,492.631,2222.551,492.531Z" transform="translate(-2204.676 -472.383)"/><path class="l" d="M2241.959,458.313q-1.963-3.061-3.723-6.243c-.09-.163-.339-.017-.249.145q1.76,3.182,3.723,6.243C2241.81,458.614,2242.06,458.469,2241.959,458.313Z" transform="translate(-2220.818 -446.35)"/><path class="l" d="M2271.763,437.88c-.019-.183-.307-.184-.288,0q.469,4.547.675,9.113c.009.185.3.186.288,0Q2272.232,442.427,2271.763,437.88Z" transform="translate(-2245.205 -435.973)"/><path class="l" d="M2312.75,497.675c.017-.184-.271-.183-.288,0a73.151,73.151,0,0,0-.211,10.375c.009.185.3.186.288,0A73.115,73.115,0,0,1,2312.75,497.675Z" transform="translate(-2274.817 -479.496)"/><path class="l" d="M2386.716,516.356q-.836,3.94-1.439,7.924c-.028.182.25.26.278.077q.6-3.983,1.439-7.924C2387.032,516.252,2386.754,516.175,2386.716,516.356Z" transform="translate(-2328.037 -493.118)"/><path class="l" d="M2411.832,524.385a29.912,29.912,0,0,0-4.474,7.929c-.066.173.213.248.278.076a29.452,29.452,0,0,1,4.4-7.8C2412.148,524.444,2411.946,524.239,2411.832,524.385Z" transform="translate(-2344.103 -499.001)"/><path class="l" d="M2351.629,571.993a47.572,47.572,0,0,0-.6,6.848.144.144,0,0,0,.288,0,47.04,47.04,0,0,1,.593-6.772C2351.936,571.888,2351.659,571.81,2351.629,571.993Z" transform="translate(-2303.109 -533.614)"/><path class="l" d="M2428.352,615.834a22.45,22.45,0,0,0-7.835,3.872c-.145.112,0,.362.145.249a22.251,22.251,0,0,1,7.767-3.843A.144.144,0,0,0,2428.352,615.834Z" transform="translate(-2353.645 -565.595)"/><path class="m" d="M2269.12,1148.273a60.336,60.336,0,0,0-14.009.69c-1.753.3-6.216.891-5.786,3.086.663,3.387,6.646,2.669,9.552,2.583,6.289-.184,13.115.263,19.191-1.183a3.741,3.741,0,0,0,1.938-.822C2282.833,1149.438,2271.014,1148.326,2269.12,1148.273Z" transform="translate(-2229.063 -953.045)"/></g><g transform="translate(1968.854 449.578)"><path class="g" d="M1992.14,551.891a11.577,11.577,0,0,0-11.579-2.9c-7.154,2.154-9.4,9.436-9.35,16.129.039,5.217-1.223,10.239-2.019,15.355-.613,3.944-.554,8.655,2.707,11.49.288.25,6.156-4.126,6.446-4.274,4.676-2.386,5.241-7.748,5.628-8.087a32.638,32.638,0,0,0,9.185-12.963C1994.928,561.907,1995.94,555.913,1992.14,551.891Z" transform="translate(-1968.88 -534.929)"/><path class="h" d="M2093.552,630.16l-2.369,14.807c-2.009-.2-5.537-1.15-7.533-1.487-11.548-1.953-6.67,6.247-5.9,6.552,4.58,1.825,11.49,3.584,16.419,3.562a1.013,1.013,0,0,0,1.19-.816c2.193-9.318,1.588-16.663,2.614-24.688C2098.033,627.587,2093.98,628.784,2093.552,630.16Z" transform="translate(-2046.894 -592.771)"/><path class="n" d="M2072.147,1152.735a1.448,1.448,0,0,0-.584-.317c-2.057-.676-4.119-1.342-6.171-2.034-.93-.313-1.859-.632-2.775-.983-.168-.064-1.677-.546-1.675-.756q.06-4.717.12-9.434c0-.354-5.359-.491-5.352,0q.069,4.473-.235,8.934c-.074,1.1-.743,2.107-.947,3.181a2.976,2.976,0,0,0,.111,1.665,1.685,1.685,0,0,0,.589.768c.776.531,2.15.318,3.055.34s1.828.041,2.742.056q3.01.051,6.021.068c1.156.007,2.311.025,3.467.018a6.27,6.27,0,0,0,1.778-.034c.375-.138.2-.777.114-1.042A1.051,1.051,0,0,0,2072.147,1152.735Z" transform="translate(-2031.165 -964.65)"/><path class="d" d="M2058.79,1144.961a38.379,38.379,0,0,0,5.373-1.809q.025-1.971.05-3.941c0-.354-5.359-.491-5.351,0C2058.892,1141.129,2058.863,1143.046,2058.79,1144.961Z" transform="translate(-2034.315 -964.65)"/><path class="n" d="M1992.6,1160.923c-.943-.991-3.01-1.711-4.124-2.419-.4-.254-3.691-2.053-3.633-2.528l1.134-9.367c.042-.352-5.275-1.064-5.32-.576q-.43,4.645-1.262,9.231c-.673,2.159-1.354,2.4-1.408,3.77a1.731,1.731,0,0,0,.512,1.53,3.293,3.293,0,0,0,1.1.386q4.052.589,8.109,1.152c1.269.176,2.525.462,3.8.575,1.07.1,2.263-.283,1.247-1.578Q1992.684,1161.01,1992.6,1160.923Z" transform="translate(-1975.5 -969.728)"/><path class="d" d="M1990.763,1151.565q.3-2.478.6-4.956c.042-.352-5.275-1.064-5.32-.576-.17,1.841-.395,3.674-.66,5.5A18.557,18.557,0,0,0,1990.763,1151.565Z" transform="translate(-1980.885 -969.728)"/><path d="M2050.131,840.068c-.061-5.32-.808-15.406-3.073-20.239-.139-.3-1.11.767-1.343.725a.868.868,0,0,0-.892-.725,26.9,26.9,0,0,0-8.239,1.316c-2.056.69-3.929,1.822-4.317,4.185a76.923,76.923,0,0,0-.457,8.95c-.141,3.224-.288,6.448-.355,9.674a120.563,120.563,0,0,0,1,18.416c.828,6.263,1.241,21.082,1.833,27.374.668,7.1,1.206,14.218,1.745,21.332,0,0,8.921-.344,8.989-1.154.914-10.911,2.05-30.383,2.744-41.311C2048.12,863.055,2050.189,845.216,2050.131,840.068Z" transform="translate(-2014.399 -732.378)"/><path class="d" d="M2037.021,909.8c-2.3.874-3.343,1.279-5.584,2.312a119.97,119.97,0,0,0,1.028,15.783c.765,5.79,1.176,18.887,1.7,25.8q.058-.812.112-1.621c.316-4.8.693-9.605,1.083-14.4C2036.131,928.2,2036.626,919.3,2037.021,909.8Z" transform="translate(-2014.406 -797.904)"/><path d="M2007.935,833.583c-.076-.3-18.566.808-19.594,4.957-1.2,4.834-2.561,9.66-2.994,14.649-.479,5.51.462,8.6.637,14.133.235,7.437-1.027,25.865-1.444,33.294-.358,6.373-.427,15.726-.609,22.107-.015.514,8.427.617,8.576.144,6.079-19.226,7.3-51.352,13.168-70.649,1.248-4.106,2.726-8.215,2.9-12.513A39.922,39.922,0,0,0,2007.935,833.583Z" transform="translate(-1979.827 -742.394)"/><path class="d" d="M2038.589,831.5c2.21-1.325,4.468-2.549,6.673-3.887a16.018,16.018,0,0,1,4.422-2.182,25.5,25.5,0,0,0-1.67-5.6c-.139-.3-1.11.767-1.343.725a.868.868,0,0,0-.892-.725,26.888,26.888,0,0,0-8.239,1.316c-2.056.69-3.929,1.822-4.317,4.185a76.762,76.762,0,0,0-.457,8.95q-.013.3-.026.6C2034.767,833.9,2036.674,832.645,2038.589,831.5Z" transform="translate(-2015.354 -732.378)"/><path class="d" d="M2001.636,845.957c3.076-.937,5.792-2.805,8.525-4.444,1.815-1.088,3.66-2.111,5.483-3.182-.138-2.051-.592-4.675-.611-4.749-.076-.3-18.566.808-19.594,4.957-.59,2.378-1.218,4.754-1.757,7.148A13.851,13.851,0,0,0,2001.636,845.957Z" transform="translate(-1986.925 -742.394)"/><path class="f" d="M2001.448,664.379a48.208,48.208,0,0,0,3.728-11.49c.041-.215-10.113-6.978-15.781-9-4.449-1.585-9.124-3.78-13.376-1.432-3.881,2.143-5.687,6.145-6.354,10.372a84.339,84.339,0,0,0,.3,25.17c.919,6.387,4.668,13.853,5.635,18.524.154.744-.526,8.2,0,7.922,4.6,1.41,11.268-3.712,15.815-4.776,4.427-1.036,12.376-3.29,12.376-3.29-.28-5.9-2.786-15.612-3.36-21.411-.322-3.252-.4-6.818-1.386-10.008C1999.521,665.053,2001.081,665.165,2001.448,664.379Z" transform="translate(-1968.854 -602.569)"/><path class="d" d="M2007.212,713.912c-4.668-1.174-9.365-.858-14.088-.427a24.944,24.944,0,0,0,10.15,8.84,59.507,59.507,0,0,0,10.815,3.82,2.343,2.343,0,0,0,2.773-1.329c.292-.673.57-1.352.864-2.024a31.122,31.122,0,0,0-.789-4.875,17.219,17.219,0,0,0-2.974-1.648A39.269,39.269,0,0,0,2007.212,713.912Z" transform="translate(-1986.519 -654.729)"/><path class="h" d="M2004.332,602.792a1.009,1.009,0,0,0-.312-.747c-.045-.045-.091-.089-.136-.134a14.207,14.207,0,0,0-2.463-3.748c-1.153-1.168-2.586-1.993-3.652-3.257a.93.93,0,0,0-1.466,0,1.024,1.024,0,0,0-.557.909,44.06,44.06,0,0,1-.833,8.416,68.78,68.78,0,0,1-2.615,8.1c-.315.856.466,1.39,1.181,1.3a1.087,1.087,0,0,0,.863.2,14.6,14.6,0,0,1,4.7.168,1.049,1.049,0,0,0,1.83-.4,46.091,46.091,0,0,1,3.417-9.929A1.085,1.085,0,0,0,2004.332,602.792Z" transform="translate(-1985.866 -568.44)"/><path class="i" d="M2010.424,601.516a10.365,10.365,0,0,0,4.628,5.748q.687-1.826,1.534-3.6a1.085,1.085,0,0,0,.046-.875,1.009,1.009,0,0,0-.312-.747c-.044-.045-.091-.089-.136-.134a14.214,14.214,0,0,0-2.463-3.748c-1.152-1.168-2.586-1.993-3.651-3.257a.885.885,0,0,0-.944-.328A52.666,52.666,0,0,0,2010.424,601.516Z" transform="translate(-1998.166 -568.442)"/><path class="h" d="M2014.553,561.035c-.5-2.223-1.837-4.482-4.146-5.135-4.027-1.139-9.585.963-11.081,5.069-.7,1.921-.17,3.672.607,5.471.719,1.664,1.376,3.355,2.052,5.037a9.732,9.732,0,0,0,2.991,4.144,9,9,0,0,0,4.746,1.713,4.614,4.614,0,0,0,3.655-1.227c1.141-1.1,1.63-4.13,1.848-5.62A22.88,22.88,0,0,0,2014.553,561.035Z" transform="translate(-1990.796 -540.089)"/><path class="g" d="M1995.694,552.7a8.376,8.376,0,0,0-8.611-.423,9.761,9.761,0,0,0-5.115,7.059c-.778,4.664-4.94,22.692-4.9,22.63,4.126-7.079,6.4-4.983,9.337-19.552.254-1.26,6.883-6.062,7.182-7.373a.477.477,0,0,1,.718-.295,14.153,14.153,0,0,1,5.194,6.7C1999.6,561.778,2000.036,555.319,1995.694,552.7Z" transform="translate(-1974.83 -536.953)"/><path class="i" d="M2048.841,589.168a11.255,11.255,0,0,0-.826-2.913c-.064-.16-.327-.09-.262.072a14.406,14.406,0,0,1,.632,1.931,4.786,4.786,0,0,1,.2,1.153,1.633,1.633,0,0,1-.776,1.356c-.138.1,0,.339.137.234A1.855,1.855,0,0,0,2048.841,589.168Z" transform="translate(-2026.275 -562.341)"/><path class="i" d="M2042.134,599.273a5.921,5.921,0,0,0-.875.522c-.14.1-.005.337.137.234a5.917,5.917,0,0,1,.874-.522C2042.428,599.431,2042.291,599.2,2042.134,599.273Z" transform="translate(-2021.512 -571.871)"/><path class="o" d="M2039.125,613.423c0-.217-1.069.034-1.25.054a17.963,17.963,0,0,1-1.807.114c-.338,0-.888-.083-1.11.249a.137.137,0,0,0,.049.186,5.533,5.533,0,0,0,2.6,1.019,1.439,1.439,0,0,0,1.055-.7A2.859,2.859,0,0,0,2039.125,613.423Z" transform="translate(-2016.955 -582.117)"/><ellipse class="p" cx="0.841" cy="1.223" rx="0.841" ry="1.223" transform="translate(16.278 23.575)"/><ellipse class="p" cx="0.758" cy="1.223" rx="0.758" ry="1.223" transform="translate(22.356 23.824)"/><path class="g" d="M2051.608,577.975c-.205-.94-1.039-2.117-1.8-1.46a.919.919,0,0,0-.105,1.188,1.657,1.657,0,0,0,.907.484,2.673,2.673,0,0,0,.592.18C2051.41,578.377,2051.66,578.213,2051.608,577.975Z" transform="translate(-2027.577 -555.178)"/><path class="n" d="M2141.242,592.347a23.09,23.09,0,0,1-7.157.97c-.4-.486-.117-.853,0,0a4.686,4.686,0,0,1-1.343,4.07c-1,.762,1.469,2.39,1.435,3.645a25.12,25.12,0,0,1-.974,4.374l-.974,4.375a.873.873,0,0,0,.833,1.094,54.5,54.5,0,0,1,7.145.02.884.884,0,0,0,.864-.864c.659-5.527-1.683-9.459,1.236-16.62C2142.553,592.8,2141.853,592.164,2141.242,592.347Z" transform="translate(-2087.752 -566.817)"/><path class="h" d="M2098.617,646.088a1.267,1.267,0,0,0-.134.024,1.094,1.094,0,0,0-1.55.714q-2.538,9.594-5.419,19.092a43.056,43.056,0,0,1-9.639-2.212c-3.323-1.1-6.318-2.612-9.724-3.419a1.152,1.152,0,0,0-1.418,1.007c-.757,1.958-.728,4.413-.854,6.5a1.155,1.155,0,0,0,.5,1.909c8.283,2.33,16.745,4.633,25.433,4.069a1.168,1.168,0,0,0,.551-.175.994.994,0,0,0,.681-.771c1.2-5.169,2.179-10.382,3.085-15.608.431-2.488,1.016-5.015,1.257-7.53C2101.555,647.913,2100.694,645.915,2098.617,646.088Z" transform="translate(-2042.16 -605.901)"/><path class="a" d="M2004.1,646.739a.614.614,0,0,0-1.054-.2c-.292,1.006-.908,1.663-2.014,1.487a12.849,12.849,0,0,1-2.015-.5,13.516,13.516,0,0,1-4.055-2.2.419.419,0,0,0-.641.082c-2.057,2.751,2.677,4.562,4.557,5.084,1.282.356,3.017.778,4.151-.155A4.1,4.1,0,0,0,2004.1,646.739Z" transform="translate(-1987.018 -605.318)"/><path class="g" d="M2028,576.093a1.261,1.261,0,0,0-1.473-.171,3.212,3.212,0,0,0-1.437,1.575.461.461,0,0,0,.309.6c.3.078.666-.185.932-.281.353-.128.722-.237,1.062-.4C2027.856,577.2,2028.4,576.617,2028,576.093Z" transform="translate(-2009.762 -554.773)"/><g transform="translate(43.636)"><path class="q" d="M2189.428,506.582c-.752,5.682-1.618,10.044-2.426,15.066,0,0-.009,1,.447,1a.433.433,0,0,0,.439-.172l2.341-1.293a.448.448,0,0,0,.224-.5.6.6,0,0,0,.047-.153q1.778-10.8,3.556-21.6a.651.651,0,0,0-.011-.272C2194.057,498.247,2190.186,500.86,2189.428,506.582Z" transform="translate(-2171.272 -498.621)"/><path class="o" d="M2194.69,532.39q-.093.659-.188,1.3c1.112-.177,2.234-.3,3.365-.377q.1-.606.2-1.212A27.088,27.088,0,0,0,2194.69,532.39Z" transform="translate(-2176.731 -522.988)"/><path class="q" d="M2195.025,515.14a.763.763,0,0,0-.276.133L2175.012,530.2a.731.731,0,0,0-.129.127.524.524,0,0,0-.392.484,29.4,29.4,0,0,0-.1,3.468c.227.439,1.218-.1,1.218-.1,4.6-3.453,8.514-6.609,13.8-10.358C2194.727,520.04,2195.432,514.907,2195.025,515.14Z" transform="translate(-2162.068 -510.639)"/><path class="o" d="M2216.508,538.164a16.341,16.341,0,0,0,4.031-.08,15.313,15.313,0,0,0,1.311-1.4c-1.906.223-3.831.267-5.749.359l-1.354,1.024C2215.325,538.077,2215.909,538.106,2216.508,538.164Z" transform="translate(-2191.466 -526.328)"/><path class="d" d="M2193.069,562.4a.928.928,0,0,0-1.369-.719,1.325,1.325,0,0,0-.666,1.264c0,.615.485,1.282,1.163,1.172A1.3,1.3,0,0,0,2193.069,562.4Z" transform="translate(-2174.207 -544.433)"/><path class="d" d="M2143.088,568.806c-.764-1.606-5.294,2.489-5.919,3.024a32.447,32.447,0,0,0-7.136,8.3q-.376.647-.717,1.313a.969.969,0,0,0,.4,1.306l.821.641a.984.984,0,0,0,1.508-.194A51.687,51.687,0,0,1,2137.26,577a26.619,26.619,0,0,1,3.1-2.658c.959-.694,2.292-1.118,3.155-1.867C2144.547,571.583,2143.547,569.771,2143.088,568.806Z" transform="translate(-2129.201 -549.436)"/><path class="d" d="M2179.276,579.175c1.774-.122.428,5.834.269,6.641a32.431,32.431,0,0,1-3.731,10.29q-.379.645-.793,1.269a.969.969,0,0,1-1.335.291l-.962-.4a.984.984,0,0,1-.571-1.409,51.684,51.684,0,0,0,2.838-7.581,26.654,26.654,0,0,0,.8-4c.134-1.176-.151-2.546.078-3.665C2176.14,579.266,2178.209,579.249,2179.276,579.175Z" transform="translate(-2160.382 -557.252)"/><path class="d" d="M2202.332,552.315q-.193,1.5-.479,2.982c-.033.173.231.246.264.073q.293-1.52.489-3.055C2202.629,552.14,2202.354,552.142,2202.332,552.315Z" transform="translate(-2182.08 -537.608)"/><path class="d" d="M2188.17,564.14a18.765,18.765,0,0,1-.442,2.507c-.042.171.222.244.264.073a19.177,19.177,0,0,0,.452-2.58C2188.463,563.965,2188.188,563.966,2188.17,564.14Z" transform="translate(-2171.797 -546.214)"/></g><path class="f" d="M2008.825,665.4c-5.113-3.588-12.9-8.229-18.322-11.271-4.3-2.414-7.056-3.368-11.394.232a.939.939,0,0,0-.263.334,9.5,9.5,0,0,0-1.185,2.625,9.327,9.327,0,0,0,.105,3.16,39.343,39.343,0,0,0,2.031,7.535c1.553,3.8,4.148,5.05,7.663,6.266,5.655,1.958,11.853,4.3,17.865,4.381C2005.326,678.662,2008.964,665.5,2008.825,665.4Z" transform="translate(-1975.198 -610.246)"/><path class="n" d="M2172.29,590.027a25.462,25.462,0,0,0-.274-2.95c-.218-.735-.937-1.827-1.775-1.676a4.368,4.368,0,0,0-.4,1.278c-.194,1.007-.152,2.054-.427,3.047a8.128,8.128,0,0,1-3.574,4.386c-.552.318-1.053.154-1.009-.556a6.474,6.474,0,0,1,.655-2.38,9.455,9.455,0,0,0,1.036-4.153.778.778,0,0,0-.416-.726c-1.407-.748-1.56.989-1.935,1.92-.433,1.073-1,2.086-1.424,3.164a10.881,10.881,0,0,0-.492,3.526,19.147,19.147,0,0,1-.284,2.279q-1.738,4.335-3.335,8.725a.8.8,0,0,0,.608,1.05,54.516,54.516,0,0,1,6.111,1.5c.43.133,2.1.292,2.152-.416.172-2.344.4-5.4.568-7.742a13.98,13.98,0,0,1,.287-2.557c.653-1.043,3.622-3.882,4.24-5.3A14.84,14.84,0,0,0,2172.29,590.027Z" transform="translate(-2106.955 -561.775)"/><path class="d" d="M2057.037,898.631c-3.1,3.215-3.621,7.905-4.312,12.115a2.337,2.337,0,0,1,.289-.011c.653-4.153,1.2-8.764,4.227-11.9C2057.37,898.7,2057.166,898.5,2057.037,898.631Z" transform="translate(-2029.901 -789.742)"/><path class="d" d="M2047.424,673.633q-4.182-2.351-8.17-5.026c-2.5-1.677-4.876-3.616-7.691-4.741-.172-.069-.247.21-.076.278,2.869,1.146,5.3,3.158,7.846,4.862q3.876,2.592,7.946,4.875A.144.144,0,0,0,2047.424,673.633Z" transform="translate(-2014.372 -618.889)"/><path class="d" d="M1984.587,715.37a22.2,22.2,0,0,1-3.051-1.856c-.957-.7-2.244-1.553-2.676-2.7-.065-.172-.343-.1-.278.076a6.462,6.462,0,0,0,2.37,2.548,22.113,22.113,0,0,0,3.489,2.184C1984.607,715.7,1984.753,715.454,1984.587,715.37Z" transform="translate(-1975.928 -652.994)"/><path class="d" d="M2039.264,779.242a31.937,31.937,0,0,1-10.636,15.393c-.145.115.06.318.2.2a32.2,32.2,0,0,0,10.71-15.521C2039.6,779.141,2039.32,779.065,2039.264,779.242Z" transform="translate(-2012.325 -702.801)"/><path class="d" d="M2031.145,831.116a145.845,145.845,0,0,0-18.259,6.994c-.168.078-.022.326.146.249a145.241,145.241,0,0,1,18.19-6.965C2031.4,831.339,2031.323,831.061,2031.145,831.116Z" transform="translate(-2000.849 -740.627)"/><path class="i" d="M2108.678,708.089q-4.655-1.175-9.253-2.557a.144.144,0,0,0-.076.278q4.6,1.382,9.253,2.557A.144.144,0,0,0,2108.678,708.089Z" transform="translate(-2063.762 -649.219)"/><path class="d" d="M2065.156,1174.834c-.4.326-.667.694-1.28.518a4.071,4.071,0,0,1-.8-.489l-1.723-1.048a.144.144,0,0,0-.146.249,26.792,26.792,0,0,0,2.757,1.676c.562.252,1-.372,1.4-.7C2065.5,1174.92,2065.3,1174.718,2065.156,1174.834Z" transform="translate(-2036.021 -990.053)"/><path class="d" d="M1989.026,1181.415c-.39.345-.942,1.038-1.51.685-.295-.184-.55-.514-.832-.728a8.264,8.264,0,0,0-2.115-1.145c-.174-.065-.249.213-.077.278a8.084,8.084,0,0,1,1.66.839c.5.332.908.9,1.409,1.2.614.365,1.27-.567,1.669-.92C1989.369,1181.5,1989.165,1181.293,1989.026,1181.415Z" transform="translate(-1980.165 -994.729)"/><path class="n" d="M2143.047,580.122a.874.874,0,0,0-1.3-.746,29.524,29.524,0,0,1-5.668,2.455c-1.431.568-2.23,5.364-1.573,4.9a6.091,6.091,0,0,0,1.361-1.382,4.565,4.565,0,0,1,1.9-1.583c.793-.392,1.669-.649,2.476-1.024C2141.31,582.248,2143.217,581.606,2143.047,580.122Z" transform="translate(-2089.257 -557.302)"/><path class="n" d="M2154.259,575.31a.925.925,0,0,0-.246.147,4.276,4.276,0,0,0-1.121,2.187,7.279,7.279,0,0,1-.327.842.754.754,0,0,0-1.151.286c-.46.933-1.832,4.8-2.593,5.51-.815.76,1.186-1.078,2-1.836.2-.185.388-.379.57-.579a.749.749,0,0,0,1.038-.118c.106-.117.2-.239.306-.359a.71.71,0,0,0,1.044-.113,9.33,9.33,0,0,0,2.2-5.879A.863.863,0,0,0,2154.259,575.31Z" transform="translate(-2099.707 -553.896)"/><path class="d" d="M2158.291,586.295a10.062,10.062,0,0,1-.458,2.945,5.528,5.528,0,0,1-2.082,2.46c-.147.109,0,.359.146.249a6,6,0,0,0,2.116-2.384,9.6,9.6,0,0,0,.567-3.269C2158.59,586.109,2158.3,586.11,2158.291,586.295Z" transform="translate(-2104.844 -562.334)"/><path class="d" d="M2169.79,583.379c-.008-.185-.3-.186-.288,0a5.877,5.877,0,0,1-.462,2.569c-.072.171.207.245.278.077A6.05,6.05,0,0,0,2169.79,583.379Z" transform="translate(-2114.554 -560.212)"/><path class="d" d="M2200.571,594.157c-.054-.177-.333-.1-.278.076.641,2.079-.615,3.929-1.928,5.423-.122.139.081.343.2.2C2199.952,598.287,2201.243,596.338,2200.571,594.157Z" transform="translate(-2135.88 -568.085)"/><path class="d" d="M2161.324,645.018l-.972,2.652c-.064.174.214.249.278.076l.972-2.652C2161.665,644.92,2161.387,644.845,2161.324,645.018Z" transform="translate(-2108.231 -605.107)"/><path class="j" d="M2008.879,557.878a10.033,10.033,0,0,0-3.257,9.943c.039.16.286.092.247-.068a9.778,9.778,0,0,1,3.191-9.693C2009.187,557.953,2009.005,557.772,2008.879,557.878Z" transform="translate(-1995.418 -541.728)"/><path class="j" d="M1997.209,575.791c-1.615-1.723-1.093-4.178-.5-6.215a.128.128,0,0,0-.247-.068c-.625,2.134-1.121,4.67.562,6.465C1997.141,576.093,1997.322,575.911,1997.209,575.791Z" transform="translate(-1988.526 -550.151)"/><path class="j" d="M1995.2,635.92c-.091.138.131.267.221.13q.65-.995,1.212-2.041c.078-.145-.143-.275-.222-.129Z" transform="translate(-1988.018 -597.024)"/><path class="j" d="M1987.6,609.191l-4.618,9.7c-.071.148.151.278.222.129l4.617-9.7C1987.888,609.172,1987.667,609.042,1987.6,609.191Z" transform="translate(-1979.125 -579.052)"/><path class="h" d="M2000.446,594.545a4.181,4.181,0,0,0-1.7-2.1c-1.547-.825-2.746.547-2.535,2.236a5.893,5.893,0,0,0,.534,1.719,4.145,4.145,0,0,0,2.07,2.3,1.513,1.513,0,0,0,2.05-1.185A5.517,5.517,0,0,0,2000.446,594.545Z" transform="translate(-1988.749 -566.73)"/><path class="i" d="M2002.909,600.361a7.957,7.957,0,0,0-1.464-2.543,1.17,1.17,0,0,0-1.642-.119c-.119.128.072.32.192.192.437-.467.954-.177,1.346.232a.846.846,0,0,0-.816,1.067.136.136,0,0,0,.261-.072.576.576,0,0,1,.826-.661l.009,0a3.306,3.306,0,0,1,.208.321c.311.555.568,1.145.847,1.717C2002.751,600.655,2002.985,600.518,2002.909,600.361Z" transform="translate(-1991.353 -570.525)"/><path class="i" d="M2042.167,622.515a1.96,1.96,0,0,1-1.523.16.128.128,0,0,0-.068.247,2.227,2.227,0,0,0,1.72-.186C2042.442,622.658,2042.313,622.436,2042.167,622.515Z" transform="translate(-2020.993 -588.787)"/></g></g></svg>