<svg xmlns="http://www.w3.org/2000/svg" width="171" height="210.951" viewBox="0 0 171 210.951"><defs><style>.a{fill:#c4ccf2;}.b{fill:#d0c165;}.c{fill:#c1a95b;}.d{fill:#945d4e;}.e{fill:#20324c;}.f{fill:#dfe6ed;}.g{fill:#e6a075;}.h{fill:#7d483b;}.i{fill:#ffc3a1;}.j{fill:#e88364;}.k{fill:#5ece97;}.l{fill:#ffdbdd;}.m{fill:#f0f7ff;}.n{fill:#7c473a;}.o{fill:#593127;}.p{fill:#ebf3fa;}</style></defs><g transform="translate(-959.419 -487.922)"><g transform="translate(1063.843 612.602)"><path class="a" d="M1304.265,900.222c-2.008-4.8-5.626-8.414-9.114-12.273-.584-.646-1.3-.08-.714.564a43.612,43.612,0,0,1,7.9,12.425C1302.671,901.727,1304.6,901.024,1304.265,900.222Z" transform="translate(-1294.22 -887.664)"/><path class="a" d="M1332.15,917.773c-1.973-3.107-4.942-5.122-7.669-7.6-.642-.583-1.324-.307-.678.279a39.5,39.5,0,0,1,6.841,8.11C1331.109,919.3,1332.618,918.509,1332.15,917.773Z" transform="translate(-1314.397 -902.934)"/><g transform="translate(30.417 4.05)"><path class="b" d="M1465.058,973.241c-.407-1-1.8-.857-2.642-.651-1.22.3-3.491,1.3-3.489,2.819a.572.572,0,0,0,.476.635,7.521,7.521,0,0,0,4.385-.578C1464.524,975.067,1465.431,974.16,1465.058,973.241Z" transform="translate(-1437.972 -950.049)"/><path class="b" d="M1432.554,969.7a1.928,1.928,0,0,0-.182-.162c-.92-.725-2.515-.476-3.494-.044-.676.3-2.046.947-1.464,1.908.509.841,1.911.775,2.732.673a3.293,3.293,0,0,0,2.608-1.642A.615.615,0,0,0,1432.554,969.7Z" transform="translate(-1416.19 -947.733)"/><path class="b" d="M1460.065,1019.216c-.917.418-1.027,1.734-1.046,2.612a4.984,4.984,0,0,0,.552,2.325c.219.418,1.606,1.749,1.847.636C1461.635,1023.785,1462.735,1018,1460.065,1019.216Z" transform="translate(-1438.035 -982.12)"/><path class="b" d="M1428.4,1067.706a.451.451,0,0,0-.242-.458,3.256,3.256,0,0,0-3.265.258c-.846.514-1.781,1.6-1.148,2.614.586.942,1.854.839,2.736.433a3.651,3.651,0,0,0,1.981-2.452A.477.477,0,0,0,1428.4,1067.706Z" transform="translate(-1413.623 -1015.057)"/><path class="b" d="M1465.757,1042.964c-.177-1.232-1.56-1.655-2.642-1.486a5.268,5.268,0,0,0-3.309,2.52.468.468,0,0,0-.087.227.521.521,0,0,0-.046.734C1461.107,1046.61,1466.146,1045.673,1465.757,1042.964Z" transform="translate(-1438.394 -997.529)"/><path class="c" d="M1430.705,1068.808a37.058,37.058,0,0,0-3.483,1.947c-.183.116-.014.408.17.291a37.115,37.115,0,0,1,3.484-1.946C1431.071,1069,1430.9,1068.713,1430.705,1068.808Z" transform="translate(-1416.101 -1016.346)"/><path class="c" d="M1463.413,976.128l-3.621,1.287c-.2.072-.116.4.09.326l3.622-1.287C1463.706,976.381,1463.619,976.055,1463.413,976.128Z" transform="translate(-1438.487 -952.579)"/><path class="c" d="M1435.308,971.686a23.47,23.47,0,0,1-3.21.466c-.215.016-.217.354,0,.337a24.009,24.009,0,0,0,3.3-.478C1435.61,971.966,1435.521,971.64,1435.308,971.686Z" transform="translate(-1419.399 -949.527)"/><path class="c" d="M1463.6,1027.24a10.044,10.044,0,0,1-.816-4.276.169.169,0,0,0-.338,0,10.441,10.441,0,0,0,.862,4.447C1463.4,1027.605,1463.695,1027.434,1463.6,1027.24Z" transform="translate(-1440.393 -984.702)"/><path class="c" d="M1464.81,1044.926l-4.841,1.715c-.2.072-.116.4.09.325l4.841-1.715C1465.1,1045.179,1465.016,1044.853,1464.81,1044.926Z" transform="translate(-1438.61 -999.919)"/><path class="d" d="M1447.54,954.036c-1.38.788-2.758,1.579-4.14,2.362a15.767,15.767,0,0,1-4.087,1.776q2.014-4.036,3.87-8.146c.089-.2-.2-.368-.292-.171q-2.047,4.536-4.285,8.982-1.1,2.185-2.251,4.347a19.3,19.3,0,0,1-2.162,3.427c.375-6.239.57-12.487.445-18.742-.013-.642-.036-1.285-.056-1.927v0a142.044,142.044,0,0,0,6.761-19.976.169.169,0,0,0-.325-.089q-.965,3.747-2.133,7.434a41.92,41.92,0,0,1-1.116-10,.169.169,0,0,0-.338,0,42.325,42.325,0,0,0,1.251,10.621h0q-1.828,5.679-4.125,11.194c-.041-1.144-.1-2.288-.161-3.432a.16.16,0,0,0-.009-.152c-.119-2.109-.274-4.215-.479-6.318-.021-.214-.359-.216-.338,0q.286,2.944.457,5.891a18.345,18.345,0,0,1-3.769-6.946.169.169,0,0,0-.326.09,18.741,18.741,0,0,0,4.124,7.406,218.124,218.124,0,0,1-.235,25.368.159.159,0,0,0-.011.193q-.243,3.94-.571,7.873a79.106,79.106,0,0,0-3.455-7.446c0-.007,0-.011,0-.019a114.04,114.04,0,0,0-1.671-12.419c-.041-.213-.366-.123-.326.09a113.238,113.238,0,0,1,1.6,11.6q-1.421-2.623-3.038-5.138c-.117-.182-.409-.013-.291.171a78.442,78.442,0,0,1,6.873,13.292.185.185,0,0,0,.292.066q-.19,2.294-.4,4.585c-.385,4.217-.811,8.431-1.238,12.644-.022.216.316.214.338,0,.855-8.439,1.709-16.9,2.234-25.367,2.025-2.209,3.252-5.215,4.589-7.858.124-.245.244-.491.367-.735a14.5,14.5,0,0,0,4.187-1.725c1.474-.828,2.938-1.675,4.406-2.513A.169.169,0,0,0,1447.54,954.036Z" transform="translate(-1415.338 -916.13)"/><path class="b" d="M1474.685,908.572c-1.693-.837-3.434.694-4.211,2.077a10.177,10.177,0,0,0-.709,7.229.47.47,0,0,0,.144.251.42.42,0,0,0,.661.182,15.548,15.548,0,0,0,4.82-5.146C1476.119,911.721,1476.459,909.45,1474.685,908.572Z" transform="translate(-1445.194 -905.937)"/><path class="b" d="M1457.241,903.964c-.23-1.369-1.153-3.849-3.007-3.21-1.8.622-2.225,3.475-2.1,5.07a10.244,10.244,0,0,0,3.034,6.031.438.438,0,0,0,.473.134.434.434,0,0,0,.536-.353C1456.693,909.126,1457.678,906.562,1457.241,903.964Z" transform="translate(-1433.286 -900.65)"/><path class="b" d="M1447.1,942.532c-1.284.365-1.713,2.055-1.717,3.227a6.6,6.6,0,0,0,1.515,4.078.4.4,0,0,0,.4.167.494.494,0,0,0,.543-.348C1448.2,948.552,1450.28,941.627,1447.1,942.532Z" transform="translate(-1428.651 -929.413)"/><path class="b" d="M1433.18,950.029a8.092,8.092,0,0,0-1.454-3.8c-.515-.7-1.487-1.69-2.288-.726-.747.9-.1,2.489.436,3.313.553.849,1.556,2.2,2.682,1.993a.408.408,0,0,0,.354-.327A.39.39,0,0,0,1433.18,950.029Z" transform="translate(-1417.448 -931.237)"/><path class="b" d="M1479.868,995.551c-1.133-.83-2.477.133-3.082,1.133a6.367,6.367,0,0,0-.683,4.744.454.454,0,0,0,.612.473,5.916,5.916,0,0,0,3.345-2.921C1480.557,997.964,1480.956,996.349,1479.868,995.551Z" transform="translate(-1449.653 -965.735)"/><path class="b" d="M1495.632,1015.323a2.282,2.282,0,0,0-2.817-.464,4.334,4.334,0,0,0-2.255,2.741.442.442,0,0,0,.115.474.548.548,0,0,0,.478.522,5.288,5.288,0,0,0,3.678-.743C1495.591,1017.315,1496.259,1016.207,1495.632,1015.323Z" transform="translate(-1459.722 -979.049)"/><path class="b" d="M1429.325,1013.266c-.068-.912-.482-2.116-1.621-2.025-1.12.089-1.59,1.352-1.562,2.3a5.189,5.189,0,0,0,1.582,3.626.446.446,0,0,0,.623.059.476.476,0,0,0,.349-.142C1429.493,1016.319,1429.4,1014.283,1429.325,1013.266Z" transform="translate(-1415.411 -976.745)"/><path class="b" d="M1418.214,1036.459a6.721,6.721,0,0,0-1.4-4.376c-.749-.846-2.19-1.485-3.115-.524-.969,1.007-.422,2.708.291,3.688a3.966,3.966,0,0,0,3.519,1.8.533.533,0,0,0,.252-.1A.494.494,0,0,0,1418.214,1036.459Z" transform="translate(-1406.489 -990.398)"/><path class="c" d="M1475.318,911.756a27.763,27.763,0,0,0-3.59,8.822c-.046.212.279.3.326.09a27.486,27.486,0,0,1,3.556-8.742C1475.725,911.741,1475.433,911.572,1475.318,911.756Z" transform="translate(-1446.777 -908.237)"/><path class="c" d="M1460.038,905.365c-.009-.216-.347-.217-.337,0a74.418,74.418,0,0,0,1.061,9.788c.038.214.363.123.326-.09A73.693,73.693,0,0,1,1460.038,905.365Z" transform="translate(-1438.504 -903.783)"/><path class="c" d="M1450.848,945.271a.169.169,0,0,0-.338,0q-.074,3.271.049,6.54c.008.216.346.218.337,0Q1450.774,948.542,1450.848,945.271Z" transform="translate(-1432.161 -931.242)"/><path class="c" d="M1435.086,951.976q-1.077-2.424-2.318-4.769c-.1-.192-.393-.021-.292.171q1.241,2.345,2.318,4.769C1434.882,952.344,1435.173,952.173,1435.086,951.976Z" transform="translate(-1419.756 -932.628)"/><path class="c" d="M1479.449,999a44.472,44.472,0,0,1-2.156,5.156c-.1.194.195.365.291.17a45.124,45.124,0,0,0,2.191-5.236C1479.846,998.885,1479.52,998.8,1479.449,999Z" transform="translate(-1450.596 -968.246)"/><path class="c" d="M1494.287,1018.256a10.994,10.994,0,0,0-3.534,2.018c-.166.141.074.378.239.239a10.514,10.514,0,0,1,3.385-1.931C1494.58,1018.51,1494.493,1018.184,1494.287,1018.256Z" transform="translate(-1459.832 -981.568)"/><path class="c" d="M1431.226,1019.654q-.468-2.152-.726-4.338c-.025-.213-.363-.216-.338,0q.263,2.233.738,4.428C1430.946,1019.956,1431.272,1019.866,1431.226,1019.654Z" transform="translate(-1418.178 -979.441)"/><path class="c" d="M1420.933,1039.085q-1.428-2.169-2.972-4.257c-.128-.173-.421,0-.292.17q1.544,2.088,2.972,4.257C1420.76,1039.436,1421.052,1039.267,1420.933,1039.085Z" transform="translate(-1409.56 -992.928)"/><path class="d" d="M1421.986,1140.23a13.789,13.789,0,0,0-5.71-.914,71.665,71.665,0,0,0-16.074-.244,15.892,15.892,0,0,0-6.214,1.74c-1.21.7-3.276,2.114-1.641,3.367,2.309,1.769,7.507,1.628,10.4,1.928a109.169,109.169,0,0,0,12.616.576c2.5-.031,5.3-.212,7.452-1.49C1425.575,1143.555,1424.7,1141.435,1421.986,1140.23Z" transform="translate(-1391.741 -1064.471)"/></g></g><g transform="translate(959.419 609.975)"><path class="d" d="M1085.073,915.793a1.512,1.512,0,0,0,.874.616c1.9,4.49,8.164,5.3,13.162,5.073,12.291-.548,24.447-1.976,36.778-1.962,11.591.013,23.343.384,34.646-2.149a1.693,1.693,0,0,0,1.98-.879,1.462,1.462,0,0,0-1.555-2.1c-3.5-1.727-7.014-3.649-10.845-4.737a17.1,17.1,0,0,0-5.723-.673,12.841,12.841,0,0,0-3.154.583c-.939.307-1.275.66-2.109.09a33.469,33.469,0,0,0-3.992-2.712,22.251,22.251,0,0,0-4.248-1.58,27.241,27.241,0,0,0-9.754-.673,38.338,38.338,0,0,0-10.223,2.642c-1.691.678-3.266,1.709-4.974,2.317-.614.219-.679-.087-1.449-.617q-.912-.628-1.864-1.211c-5.65-3.451-13.7-6.4-20.679-4.533C1085.889,904.9,1081.527,910.656,1085.073,915.793Z" transform="translate(-1045.005 -895.39)"/><path class="e" d="M973.358,884.659c9.6,2.685,21.765,2.087,28.685,10.528,3.237,3.949,4.955,9.2,6.711,13.924,1.945,5.233,3.673,10.543,5.565,15.8a120.127,120.127,0,0,0,6.731,15.746c1.267,2.383,2.634,5.265,5.44,6.08,2.651.771,5.542-.238,7.852-1.542,7.247-4.094,11.024-12.357,18.393-16.3,8.927-4.778,19.444.015,25.092,7.569.378.506-.473,1-.847.5-5.705-7.63-16.418-11.989-25.029-6.465-6.836,4.385-10.636,12.425-18.053,16.046-3.724,1.818-8.26,2.237-11.143-1.235a31.463,31.463,0,0,1-3.62-6.234c-1.143-2.309-2.182-4.668-3.154-7.054-4.169-10.232-6.909-21.064-11.611-31.079a20.622,20.622,0,0,0-5.038-7.119,23.2,23.2,0,0,0-7.79-4.2c-5.988-2-12.378-2.31-18.446-4.007A.491.491,0,0,1,973.358,884.659Z" transform="translate(-968.593 -882.955)"/><path class="f" d="M1172.371,933.7a1.137,1.137,0,0,1,1.037,1.6c-2.934,5.528-13.267,23.584-24.043,25.566-9.9,1.822-39.15.811-51.688.271a11.508,11.508,0,0,1-9.057-5.315l-7.061-18.27a2.739,2.739,0,0,1,2.529-3.853Z" transform="translate(-1043.317 -916.718)"/><path class="e" d="M1303.656,933.7h13.62c.442,4.008.969,8.014,1.27,12.027-4.515,6.476-10.676,13.451-17.041,15A267.1,267.1,0,0,0,1303.656,933.7Z" transform="translate(-1194.808 -916.718)"/><path class="e" d="M1199.55,993.544a27.175,27.175,0,0,1,4.317-.466l14.531-1.083c-.1,1-.879,9.9-1.115,9.9-6.122.191-13.419.146-20.385,0,0-.124-.006-.248-.009-.373-.049-1.772-.49-3.657-.362-5.425C1196.633,994.631,1197.98,993.913,1199.55,993.544Z" transform="translate(-1122.557 -956.827)"/><circle class="g" cx="6.95" cy="6.95" r="6.95" transform="translate(99.734 56.243) rotate(-45)"/><path class="g" d="M959.469,880.41a1.679,1.679,0,0,1,2.012-1.142l5.062.709a1.646,1.646,0,0,1,1.143,2.012,1.679,1.679,0,0,1-2.012,1.142l-5.062-.709A1.646,1.646,0,0,1,959.469,880.41Z" transform="translate(-959.419 -879.243)"/></g><g transform="translate(1028.166 487.922)"><path class="e" d="M1231.35,1107.774c-.1,0,4.595.526,4.222-.14a.454.454,0,0,0-.453-.219c-.377.012-1.81.392-2.187.4-.037-.023.967-.416.9-.432-5.987-1.524.747-2.642-4.256-4.786-1.841-.788-4.406-.82-6.367-1.158-.854-.147-6.632-1.8-5.417.909.224.5.637.894.858,1.394.011.026.019.052.031.077C1220.331,1107.445,1227.745,1107.733,1231.35,1107.774Z" transform="translate(-1205.839 -909.649)"/><path class="h" d="M1271.094,516.06c.483,1.028,3.644,6.526,4.22,7.793.412.907.9.252,1.679.953.692.622,1.73.376,2.568.328,2.194-.126,4.906.024,6.725-1.448a6.472,6.472,0,0,0,1.642-2.376,6.561,6.561,0,0,1,2.557-2.8,5.867,5.867,0,0,0,2.443-4.637c1.475-.711-.062-3.543-.78-4.346a13.733,13.733,0,0,0-7.708-4.442c-4.381-.669-10.193.861-12.668,4.8A6.671,6.671,0,0,0,1271.094,516.06Z" transform="translate(-1242.296 -499.629)"/><path class="i" d="M1280.323,588.865c.934,4.362,6.2,10.253,10.868,6.905a7.707,7.707,0,0,0,3.179-6.274c-.1-2.638-3.307-2.956-5.317-3.684a.935.935,0,0,0-.6-.029,1.14,1.14,0,0,0-.281.013,54.8,54.8,0,0,0-7.12,1.787A1.068,1.068,0,0,0,1280.323,588.865Z" transform="translate(-1248.961 -555.235)"/><path class="i" d="M1284.942,558.954c-.111,1.721.181,2.581,1.754,3.2a11.493,11.493,0,0,0,5.461.689.928.928,0,0,0,.723-.48c.383-.083.666-8.118.643-11.71,0-.482-4.909-5.329-7.251-7.036-.748-.546-1.458.307-1.337,1.064a1.022,1.022,0,0,0-.05.422A99.633,99.633,0,0,1,1284.942,558.954Z" transform="translate(-1252.115 -526.127)"/><path class="j" d="M1289.63,553.148c-2.64-2.629-2.837-6.022-3.358-9.515a.729.729,0,0,1,.957-.012c2.342,1.708,7.249,6.555,7.251,7.036.01,1.581-.039,4.022-.13,6.267A28.393,28.393,0,0,1,1289.63,553.148Z" transform="translate(-1253.074 -526.129)"/><path class="i" d="M1359.26,719.173a6.882,6.882,0,0,0,1.875,1.627.945.945,0,0,0,1.132,0c.662-.476,3.278-3.669,4.035-4.4.489-.474-2.451-3.228-2.923-2.708l-2.369,2.607a11.108,11.108,0,0,0-1.861,2.189A.7.7,0,0,0,1359.26,719.173Z" transform="translate(-1303.185 -643.226)"/><path class="k" d="M1367.816,677.82l4.027,4.649c.394.455,6.091-2.967,7.889-5.045,1.77-2.045,3.134-4.25,5.232-6,3.737-3.125,5.508-7.211,3.326-11.852-.025-.053-4.033-.315-5.468.253a36.219,36.219,0,0,0-7.679,5.639c-.735,1.18-1.106,2.48-1.723,3.713C1372.135,671.739,1367.816,677.82,1367.816,677.82Z" transform="translate(-1309.184 -605.958)"/><path class="k" d="M1350.562,619.063c2.947,1.923,6.164,3.371,9.192,5.153a61.457,61.457,0,0,0,9.174,4.818c1.611.614,3.625,1.171,5.247.285a4.149,4.149,0,0,0,1.795-2.192,7.205,7.205,0,0,0-1.419-7.53c-1.858-2-3.807-3.911-5.813-5.761-4.1-3.777-7.812-6.938-12.137-10.448-.273-.221-5.25,6.5-6.3,9.779C1349.632,615.237,1348.319,617.6,1350.562,619.063Z" transform="translate(-1296.448 -567.369)"/><path class="k" d="M1210.133,656.154a146.951,146.951,0,0,0,9.064-16.37.921.921,0,0,0,.415-.829c-.1-5.023-10.74-9.489-11.03-9.192,0,0-3.553,12.561-4.575,15.63C1200.423,656.158,1210.023,656.325,1210.133,656.154Z" transform="translate(-1195.916 -585.513)"/><path class="l" d="M1336.026,1071.172c-1.365,2.481-4.316,2.217-6.921,1.431a14.874,14.874,0,0,1,.662-1.9.83.83,0,0,1,.092-.16c.054-.86.172-1.73.211-2.525.083-1.736.128-3.48.25-5.214.194-2.752,2.615-2.307,4.8-1.654a.7.7,0,0,1,.487.453.6.6,0,0,1,.384.651c-.265,2.875-.479,5.753-.659,8.634Z" transform="translate(-1282.547 -882.023)"/><path class="l" d="M1249.889,1079.846a.814.814,0,0,1,.092-.16c.054-.861.951-9.282,1.074-11.016.194-2.752,4,3.9,4.19,1.624.226-2.635.808-2.825.875-2.625.24.1.027,3.39,0,3.729-.265,2.875-.479,5.753-.659,8.634C1255.687,1080.126,1249.622,1080.47,1249.889,1079.846Z" transform="translate(-1228.033 -886.806)"/><path class="e" d="M1337.775,1067.536c-.443.038-.888.068-1.333.084a15.506,15.506,0,0,1-4.122-.464c.062-1.45.11-2.9.212-4.35.194-2.752,2.615-2.307,4.8-1.654a.7.7,0,0,1,.487.453.6.6,0,0,1,.384.651Q1337.963,1064.894,1337.775,1067.536Z" transform="translate(-1284.759 -882.023)"/><path class="e" d="M1258.237,1072.246a24.572,24.572,0,0,1-5.167-1.579c.086-.892.152-1.611.179-2,.194-2.752,4,3.9,4.19,1.624.226-2.635.807-2.825.875-2.625.24.1.027,3.39,0,3.729C1258.284,1071.681,1258.262,1071.964,1258.237,1072.246Z" transform="translate(-1230.228 -886.806)"/><path class="g" d="M1331.249,1095.09a13.546,13.546,0,0,0,1.805-1.675,1.069,1.069,0,0,1,1.184-.248c4.144,1.737,8.225,3.876,12.377,5.566.862.351.514,1.7-.331,1.446-.21.071-19.657.44-19.74-.044a4.843,4.843,0,0,1-.289-1.288,14.926,14.926,0,0,1,.738-4.594.473.473,0,0,1,.638-.278A18.561,18.561,0,0,0,1331.249,1095.09Z" transform="translate(-1280.585 -904.334)"/><path class="i" d="M1358.112,729.964q.343,5.265.686,10.531c.058.895,1.963.574,2.072.006a33.324,33.324,0,0,1,1.238-4.5,6.016,6.016,0,0,0,.42-2.147c-.052-2.41-.918-5.094-1.374-7.427a1.069,1.069,0,0,0-.106-.3c-.083-.668-.176-1.335-.284-2-.137-.837-.882-.8-1.206-.28l-.015.014C1357.924,725.719,1357.933,727.209,1358.112,729.964Z" transform="translate(-1302.452 -650.003)"/><path d="M1242.806,835.237c6.352,2.923,11.084.263,11.165-.152q3.041-15.6,5.572-31.3,2.18-13.561,3.97-27.188c.579-4.412,1.036-8.858,1.9-13.221a77.3,77.3,0,0,1,3.8-12.027c2.485-6.655,3.808-14.081-1.153-19.883a12.789,12.789,0,0,0-16.541-2.522.97.97,0,0,0-1.5.624c-1.743,7.543-3.042,15.186-4.031,22.878C1244.293,765.737,1242.411,835.055,1242.806,835.237Z" transform="translate(-1223.128 -652.418)"/><path class="e" d="M1275.676,736.024c-5.47,1.617-10.886,3.628-16.65,3.326q.959-5.115,2.185-10.177a.985.985,0,0,1,1.5-.59,13.308,13.308,0,0,1,16.541,2.386,12.854,12.854,0,0,1,2.343,3.65A49.182,49.182,0,0,0,1275.676,736.024Z" transform="translate(-1234.326 -652.245)"/><path d="M1289.407,731.041c5.813-4.687,13.511-8.58,20.816-8.705,0,0,2.147,20.078,2.21,21.777,1.128,30.3,1.353,49.381-1.158,75.717q-.326,3.42-.7,6.835a32.718,32.718,0,0,1-.745,5.928,24.066,24.066,0,0,1-11.961-.733c-.227-12.787-.783-25.563-1.439-38.333-.334-6.5-.558-13.027-1.1-19.512-.547-6.575-2.3-12.873-3.384-19.349-1.194-7.109-1.734-14.316-2.266-21.507,0-.013,0-.024,0-.036A1.253,1.253,0,0,1,1289.407,731.041Z" transform="translate(-1254.929 -649.222)"/><path class="e" d="M1304.474,731.3a43.022,43.022,0,0,0-8.2,1.7c-2.137.632-4.266,1.323-6.41,1.915q-.093-1.172-.185-2.344c0-.012,0-.023,0-.034a1.154,1.154,0,0,1-.278-1.968c5.813-4.433,13.511-8.116,20.816-8.234,0,0,.459,4.063.959,8.59C1308.946,731.044,1306.706,731.088,1304.474,731.3Z" transform="translate(-1254.929 -649.222)"/><path class="m" d="M1257.158,744.884c6.711-.507,14.831-4.667,21.8-8.13,1.02-.507.412-1.871-.526-1.911a.936.936,0,0,0-.774-.343c-6.01.08-11.987-.792-17.943-1.483a.972.972,0,0,0-1.381.65C1257.515,736.979,1255.272,745.026,1257.158,744.884Z" transform="translate(-1232.535 -656.51)"/><path class="i" d="M1276.633,507.594a8.371,8.371,0,0,1,1.135,4.186c.2,1.84.027,3.579,1.274,4.977,4,4.484,7.685,4.527,9.174,3.635,1.893-1.135,3.969-5.622,4.462-8.8.551-3.55.748-7.588-.467-11.037-2.074-5.891-10.143-7.557-15.136-4.5a6.492,6.492,0,0,0-2.784,5.089C1274.086,503.774,1275.212,505.549,1276.633,507.594Z" transform="translate(-1244.814 -492.487)"/><path class="k" d="M1227.3,589.756c1.755-.526,6.4-1.484,9.633-2.111a1.331,1.331,0,0,1,.258-.244c.7-.495,3.144-1.646,3.436-1.367q4.055,3.871,7.8,8.035c.137-.434.283-.944.43-1.49l1.109-6.363c.124-.714,2.4.2,3.222.617,3.148.191,8.187.476,9.238.926,3.025,1.295,5.788,3.852,8.24,6.046.282.142-3,10.432-5.334,14.777-.344,8.7-.224,17.712-1.095,26.5-.051.514-22.6,4.309-31.26,4.094a1.041,1.041,0,0,1-1-.765c-1.177-8.96-2.524-18.129-3.029-26.009-1.082-1.777-1.5-3.477-2.58-5.254a56.949,56.949,0,0,0-5.923-7.526s2.049-7.577,4.648-9.033C1225.234,590.513,1227.141,589.8,1227.3,589.756Z" transform="translate(-1207.776 -555.376)"/><path class="m" d="M1273.783,586.406c1.443,3.378,5.238,10.533,6.632,10.02a14.269,14.269,0,0,0,3.943-3.2,24.059,24.059,0,0,0,3.479,2.523.632.632,0,0,0,1.08-.264c1.591-4.239,1.591-6.97.759-9.5.832-.185-3.662-1.445-3.792-1.367-.2.1,0,4.392-1.85,7.093a.746.746,0,0,0-.114.1c-.016,0-3.446-3.75-5.275-5.508-.459-.441-1.241-1.47-1.963-1.543C1276.021,584.694,1273.679,586.161,1273.783,586.406Z" transform="translate(-1244.478 -554.458)"/><path d="M1302.982,537.568c-.19.675,0,1.318.419,1.437s.918-.332,1.108-1.007,0-1.318-.419-1.436S1303.172,536.894,1302.982,537.568Z" transform="translate(-1264.521 -521.378)"/><path d="M1325.456,540.977c-.19.675,0,1.318.419,1.437s.917-.332,1.108-1.007,0-1.318-.419-1.437S1325.646,540.3,1325.456,540.977Z" transform="translate(-1279.985 -523.723)"/><path class="j" d="M1315.259,545.331c.623-.2,1.124-.382,1.328-1.083a5.423,5.423,0,0,0,.111-1.261,19.17,19.17,0,0,0-.066-2.308c-.018-.212.314-.211.332,0a13.014,13.014,0,0,1-.034,3.524c-.172.87-.792,1.2-1.583,1.448C1315.144,545.715,1315.056,545.4,1315.259,545.331Z" transform="translate(-1272.94 -524.114)"/><path class="j" d="M1311.046,552.872a5.032,5.032,0,0,1,1.179-.131.166.166,0,0,1,0,.331,4.651,4.651,0,0,0-1.091.119C1310.927,553.239,1310.838,552.92,1311.046,552.872Z" transform="translate(-1270.039 -532.524)"/><path class="j" d="M1307.033,559.8a4.3,4.3,0,0,0,3.142.876c.208-.044.3.275.088.32a4.62,4.62,0,0,1-3.4-.91C1306.684,559.977,1306.851,559.691,1307.033,559.8Z" transform="translate(-1267.19 -537.366)"/><path class="j" d="M1309.84,565.608a1.743,1.743,0,0,0,.913.184c.213-.013.212.318,0,.331a2.075,2.075,0,0,1-1.081-.229C1309.482,565.8,1309.65,565.511,1309.84,565.608Z" transform="translate(-1269.118 -541.364)"/><path class="h" d="M1299.1,527.717c1.192-.179,2.942-.308,3.637.922a.662.662,0,0,1-.447.968,1.565,1.565,0,0,1-.567-.011c-.591-.09-1.172-.236-1.752-.383-.471-.119-1.178-.122-1.324-.708A.625.625,0,0,1,1299.1,527.717Z" transform="translate(-1261.573 -515.226)"/><path class="h" d="M1323.515,530.421a2.26,2.26,0,0,1,.65-.279,2.458,2.458,0,0,1,2.174.5c.471.385.058,1.114-.469,1.132a5.576,5.576,0,0,1-2.427-.127.563.563,0,0,1-.275-.742A1.2,1.2,0,0,1,1323.515,530.421Z" transform="translate(-1278.427 -516.922)"/><path class="k" d="M1185.693,662.661c3.183,2.793,6.247,5.345,8.69,8.834,1.908,2.724,1.1,6.52-1.086,8.98-2.777,3.124-6.079-3.018-7.283-4.682-1.278-1.768-5.272-12-5.272-13.131C1181.769,662.034,1185.693,662.661,1185.693,662.661Z" transform="translate(-1180.458 -607.968)"/><path class="e" d="M1209.663,678.745a46.507,46.507,0,0,1,4.053,5.838.174.174,0,0,1-.3.175,45.9,45.9,0,0,0-4-5.767C1209.278,678.818,1209.522,678.571,1209.663,678.745Z" transform="translate(-1200.161 -619.186)"/><path class="n" d="M1270.857,504.98a.554.554,0,0,0,.181.358.629.629,0,0,0,.421.407,4.093,4.093,0,0,0,4.826-2.131c.788-1.352.9-2.9,2.826-2.976a13.6,13.6,0,0,0,3.035-.194,3.683,3.683,0,0,0,3.019-3.093c.693.547,1.488.865,2.2,1.376.85.608.754,2.041,1.153,2.992a7.218,7.218,0,0,0,1.717,2.415.612.612,0,0,0,.669.143.679.679,0,0,0,.322-.072c1.8-.89,4.06-1.545,3.847-4.039-.132-1.546-1.468-2.8-2.87-3.584.871-1.845.019-3.651-1.865-4.968a11.626,11.626,0,0,0-7.763-2.137.684.684,0,0,0-.15-.117c-2.006-1.144-4.43-1.929-6.7-1.076a5.485,5.485,0,0,0-2.183,1.491c-.684.779-.614,1.539-1.079,2.343-.562.973-2.052,1.288-2.755,2.251a4.8,4.8,0,0,0-.862,2.411C1268.586,499.664,1270.466,502.193,1270.857,504.98Z" transform="translate(-1241.066 -487.922)"/><path class="g" d="M1247.826,1101.068c-.007.471,5.408,3.1,7.639,4.213,1.429.71,4.661.3,6.007.09a.4.4,0,0,0,.256-.643c-1.335-1.753-6.022-7.144-6.128-7.258-.787-.85-2.161-2.006-3.4-1.473a5.454,5.454,0,0,0-1.768,1.375c-.318-.371-.646-.731-1-1.072a.7.7,0,0,0-1.135.391A23.127,23.127,0,0,0,1247.826,1101.068Z" transform="translate(-1226.619 -906.245)"/><path class="j" d="M1364.043,741.326a6.234,6.234,0,0,1,.64,3.566,24.966,24.966,0,0,0-.246,5c.009.224-.339.223-.347,0a24.527,24.527,0,0,1,.067-3.94,15.01,15.01,0,0,0,.265-1.924,6.644,6.644,0,0,0-.679-2.528C1363.656,741.3,1363.955,741.12,1364.043,741.326Z" transform="translate(-1306.371 -662.226)"/><path class="i" d="M1277.5,536.739c.445-.848,1.306-1.314,2.087-.146.76,1.137,1.715,3.5.912,4.819a1.273,1.273,0,0,1-1.528.5c-1.537-.575-1.807-2.618-1.773-4.034A2.66,2.66,0,0,1,1277.5,536.739Z" transform="translate(-1246.827 -520.931)"/><path class="j" d="M1280.023,540.761a.985.985,0,0,1,.781-.2,1.94,1.94,0,0,0-.622-.707c-.188-.121-.014-.423.176-.3a4.125,4.125,0,0,1,1.358,2.679c.045.219-.291.313-.337.093a8.2,8.2,0,0,0-.36-1.307.087.087,0,0,1-.012-.006.619.619,0,0,0-.738,0C1280.095,541.143,1279.846,540.9,1280.023,540.761Z" transform="translate(-1248.732 -523.429)"/><path class="e" d="M1309.238,826.445c.156-1.588.11-3.407.8-4.88a8.818,8.818,0,0,1,2.926-3.066c.178-.135.352.166.175.3a7.364,7.364,0,0,0-3.047,3.619,30.783,30.783,0,0,0-.638,5.379q-.508,5.153-1.016,10.305c-.022.22-.369.222-.347,0Q1308.663,832.273,1309.238,826.445Z" transform="translate(-1268.085 -715.368)"/><path class="e" d="M1365.148,619.57c.051-.218.385-.126.335.091q-1.459,6.261-3.509,12.358c-.071.211-.406.121-.335-.091Q1363.688,625.835,1365.148,619.57Z" transform="translate(-1304.927 -578.424)"/><path class="e" d="M1367.049,648.37l3.055-3.059a.174.174,0,0,1,.244.247l-3.055,3.059A.174.174,0,0,1,1367.049,648.37Z" transform="translate(-1308.621 -596.186)"/><path class="e" d="M1247.96,618.755a44.652,44.652,0,0,1,.731,14.51c-.025.219-.372.222-.347,0a44.351,44.351,0,0,0-.719-14.418C1247.578,618.63,1247.913,618.536,1247.96,618.755Z" transform="translate(-1226.478 -577.862)"/><path class="e" d="M1399.814,668.448a63.8,63.8,0,0,1,6.583-1.547c.218-.039.312.3.092.335a63.834,63.834,0,0,0-6.583,1.547A.174.174,0,0,1,1399.814,668.448Z" transform="translate(-1331.118 -611.075)"/><path class="o" d="M1306.719,501.036a3.638,3.638,0,0,1,4.076.362,4.113,4.113,0,0,1,.766.8c.306.42.3.462.821.4a3.892,3.892,0,0,1,2.224.4,3.84,3.84,0,0,1,1.993,3.93c-.026.209-.358.211-.332,0a3.5,3.5,0,0,0-4.439-3.874.168.168,0,0,1-.187-.076,3.627,3.627,0,0,0-3.143-2.075,3.24,3.24,0,0,0-1.812.551c-.679.465-1.468,1.528-.739,2.317.144.157-.09.391-.235.234C1304.78,502.988,1305.743,501.594,1306.719,501.036Z" transform="translate(-1266.19 -496.627)"/><path class="o" d="M1294.142,494.336c.174-.125.339.163.167.286a2.268,2.268,0,0,0,.22,3.883.166.166,0,0,1-.167.286A2.606,2.606,0,0,1,1294.142,494.336Z" transform="translate(-1257.698 -492.314)"/><path class="o" d="M1283,515.262a4.209,4.209,0,0,1,5.91-2.5c.192.093.024.378-.167.286a3.871,3.871,0,0,0-5.423,2.3C1283.256,515.552,1282.936,515.465,1283,515.262Z" transform="translate(-1250.818 -504.711)"/><path class="i" d="M1200.34,613.3a.823.823,0,0,1,1.024.929c-.06,1.4-.691,2.7-.692,4.131a.472.472,0,0,1-.245.434c0,.03.006.061.008.091.057.668-.985.664-1.042,0C1199.287,617.631,1198.455,613.781,1200.34,613.3Z" transform="translate(-1193.104 -574.169)"/><path class="e" d="M1256.264,1101.81a9.314,9.314,0,0,0,3.151,4.422c.157.141-.075.372-.231.232a9.6,9.6,0,0,1-3.235-4.567A.164.164,0,0,1,1256.264,1101.81Z" transform="translate(-1232.204 -910.258)"/><path class="e" d="M1342.937,1100.316a35.879,35.879,0,0,0,7.775,1.792c.206.024.209.351,0,.327a36.259,36.259,0,0,1-7.862-1.8C1342.653,1100.562,1342.738,1100.246,1342.937,1100.316Z" transform="translate(-1291.928 -909.303)"/><g transform="translate(0 19.716)"><path class="e" d="M1201.191,696.966l.813-.111a1.675,1.675,0,0,0,1.433-1.887l-19.455-142.383a1.676,1.676,0,0,0-1.887-1.434l-.812.111a1.676,1.676,0,0,0-1.433,1.887L1199.3,695.532A1.676,1.676,0,0,0,1201.191,696.966Z" transform="translate(-1179.833 -551.135)"/><path class="f" d="M1205.133,998.114c-1.736,2.7,4.281,22.684,7.108,26.5.394.532,9.394,10.927,12.591,10.325,1.781-.336,6.821-10.674,7.192-12.307,1.981-8.725-.083-22.715-.309-27.046a1.431,1.431,0,0,0-1.281-1.35C1225.048,993.677,1205.676,997.27,1205.133,998.114Z" transform="translate(-1197.03 -855.994)"/><path class="p" d="M1227.385,999.337c1.247,3.023,1.908,6.232,2.885,9.35a44.68,44.68,0,0,0,3.959,8.363c1.584,2.842,5.418,10.693,6.434,16.735-.338.533-1.82,2.952-2.13,3.361-.789-2.519-1.546-5.048-2.323-7.577-1.228-4-3.831-7.238-6.179-10.62a26.169,26.169,0,0,1-3.149-5.611c-.779-2.074-1.211-4.29-1.787-6.426a34.63,34.63,0,0,0-2.489-6.679C1224.038,999.939,1225.673,999.631,1227.385,999.337Z" transform="translate(-1209.264 -859.543)"/></g><path class="i" d="M1181.063,623.816a4.756,4.756,0,0,0,.054-1.167c-.2-4.626,6.887-1.028,8.161.784a1.184,1.184,0,0,1,.038,1.144,1.24,1.24,0,0,1,.242.735,1.479,1.479,0,0,1-.3.957,1.293,1.293,0,0,1,.043,1.264,1.372,1.372,0,0,1-.316.416,1.292,1.292,0,0,1-1.157,1.4l-2.226.217c-.488.973-.114,5.135-.4,5.388-.824.74-2.487,1.019-2.554,0C1182.6,634.052,1180.964,624.521,1181.063,623.816Z" transform="translate(-1180.676 -579.068)"/><path class="g" d="M1182.18,664.544a5.772,5.772,0,0,0,3.672.766c.7-.082-.041,7.861-.728,6.767-1.087-1.731-1.457-3.154-2.424-4.955C1182.516,666.78,1181.6,664.117,1182.18,664.544Z" transform="translate(-1181.317 -609.424)"/><path class="j" d="M1186.8,627.264a5.331,5.331,0,0,1,2.645.171,15.56,15.56,0,0,1,3.007,1.048c.2.093.026.393-.175.3a15.24,15.24,0,0,0-2.618-.939,5.419,5.419,0,0,0-2.766-.245A.174.174,0,0,1,1186.8,627.264Z" transform="translate(-1184.542 -583.727)"/><path class="j" d="M1187.245,638.25c1.766-.921,3.707-.748,5.621-.514.219.027.221.374,0,.347-1.841-.225-3.741-.422-5.446.467C1187.222,638.653,1187.046,638.354,1187.245,638.25Z" transform="translate(-1184.873 -590.881)"/><path class="j" d="M1189.119,644.17c1.268-1.04,2.84-1.073,4.41-1.031a.174.174,0,0,1,0,.347c-1.461-.039-2.975-.046-4.165.93C1189.193,644.556,1188.946,644.312,1189.119,644.17Z" transform="translate(-1186.182 -594.719)"/></g></g></svg>