<svg xmlns="http://www.w3.org/2000/svg" width="323.803" height="181.281" viewBox="0 0 323.803 181.281"><defs><style>.a{fill:#05e2dc;}.b{fill:#046c84;}.c{fill:#5ece97;}</style></defs><g transform="translate(-44.806 -186.304)"><g transform="translate(317.24 291.667)"><g transform="translate(0 2.626)"><path class="a" d="M770.658,431.16c-.448-1.516-1.969-6.275-2.482-7.678-.553-1.514-.837-3.168-2.413-4.137a1.892,1.892,0,0,0,.073-1.9c1.274-1.727,5.673-7.742,7.191-10.458a.613.613,0,0,0-.98-.721c-1.088,1.147-4.45,4.843-5.409,5.989-1.04,1.243-2.34,2.321-2.377,4.19a1.891,1.891,0,0,0-1.671.836l-.012.02c-2.075-.233-9.561-1.046-12.692-1a.613.613,0,0,0-.135,1.209c1.537.369,6.419,1.433,7.891,1.69,1.6.279,3.181.866,4.819-.037a1.883,1.883,0,0,0,1.634,1.066c.876,2,3.863,8.766,5.448,11.425a.612.612,0,0,0,.8.235h0A.612.612,0,0,0,770.658,431.16Zm-6.98-12.1a.875.875,0,1,1,1.214-.24A.875.875,0,0,1,763.679,419.059Z" transform="translate(-749.284 -406.074)"/><g transform="translate(13.16 14.63)"><path class="b" d="M783.781,478.237h0a.468.468,0,0,1-.464-.473l.3-33.4a.468.468,0,0,1,.936.009l-.3,33.4A.468.468,0,0,1,783.781,478.237Z" transform="translate(-783.313 -443.905)"/></g><g transform="translate(15.825 19.669)"><path class="b" d="M790.882,486.228a.468.468,0,0,1-.468-.465l-.21-28.356a.469.469,0,0,1,.465-.472h0a.468.468,0,0,1,.468.465l.21,28.357a.468.468,0,0,1-.465.471Z" transform="translate(-790.204 -456.935)"/></g></g><g transform="translate(0.565)"><g transform="translate(5.704)"><path class="b" d="M765.962,402.662a.468.468,0,0,1-.263-.856,14.794,14.794,0,0,1,13.135-1.7.468.468,0,0,1-.309.884,13.857,13.857,0,0,0-12.3,1.588A.465.465,0,0,1,765.962,402.662Z" transform="translate(-765.494 -399.284)"/></g><g transform="translate(0 18.404)"><path class="b" d="M760.127,457.179a.45.45,0,0,1-.157-.027,14.809,14.809,0,0,1-9.207-9.676.468.468,0,1,1,.9-.268,13.873,13.873,0,0,0,8.623,9.062.468.468,0,0,1-.156.909Z" transform="translate(-750.744 -446.873)"/></g><g transform="translate(24.603 12.723)"><path class="b" d="M814.831,443.94a.468.468,0,0,1-.357-.771,13.833,13.833,0,0,0,3.28-8.942,14.093,14.093,0,0,0-.082-1.522.468.468,0,1,1,.931-.1,14.919,14.919,0,0,1,.088,1.624,14.769,14.769,0,0,1-3.5,9.548A.467.467,0,0,1,814.831,443.94Z" transform="translate(-814.363 -432.185)"/></g><g transform="translate(6.89 16.622)"><path class="b" d="M773.038,447.505a.458.458,0,0,1-.182-.037,7.674,7.674,0,0,1-4.271-4.581.468.468,0,0,1,.886-.3,6.735,6.735,0,0,0,3.749,4.022.468.468,0,0,1-.183.9Z" transform="translate(-768.561 -442.267)"/></g><g transform="translate(19.949 10.899)"><path class="b" d="M802.8,435.359a.468.468,0,0,1-.406-.7,6.732,6.732,0,0,0,.083-6.5.468.468,0,0,1,.825-.443,7.669,7.669,0,0,1-.095,7.41A.468.468,0,0,1,802.8,435.359Z" transform="translate(-802.328 -427.466)"/></g><g transform="translate(8.576 7.105)"><path class="b" d="M773.387,420.735a.468.468,0,0,1-.334-.8,7.605,7.605,0,0,1,5.455-2.283.468.468,0,1,1,0,.936,6.675,6.675,0,0,0-4.788,2A.467.467,0,0,1,773.387,420.735Z" transform="translate(-772.919 -417.656)"/></g></g></g><g transform="translate(309.343 328.28)"><g transform="translate(0 0)"><path class="a" d="M745.821,501.74l-2,2v.641H740.7v-.641l2-2Z" transform="translate(-736.123 -498.731)"/><path class="a" d="M753.413,493.959l-2.117,2.117h-3.124l2.117-2.117Z" transform="translate(-740.705 -493.959)"/><path class="a" d="M739.521,496.076H736.09l2.117-2.117h3.431Z" transform="translate(-733.295 -493.959)"/><path class="a" d="M730.766,501.74H734.2l-2,2v.641h-3.336v-.735Z" transform="translate(-728.864 -498.731)"/><path class="a" d="M751.989,503.737l2-2h3.394v.617l-2.021,2.021h-3.371Z" transform="translate(-743.046 -498.731)"/><path class="a" d="M762.855,496.076H759.46l2.117-2.117h3.086v.925l-1.808,1.808Z" transform="translate(-747.628 -493.959)"/></g><g transform="translate(7.033 6.462)"><path class="b" d="M747.519,543.321a.468.468,0,0,1-.468-.468V511.138a.468.468,0,0,1,.937,0v31.715A.468.468,0,0,1,747.519,543.321Z" transform="translate(-747.051 -510.67)"/></g><g transform="translate(9.115 6.462)"><path class="b" d="M752.9,539.835a.468.468,0,0,1-.468-.468V511.138a.468.468,0,0,1,.936,0v28.228A.468.468,0,0,1,752.9,539.835Z" transform="translate(-752.434 -510.67)"/></g></g><g transform="translate(336.305 328.28)"><g transform="translate(0 0)"><path class="a" d="M815.542,501.74l-2,2v.641h-3.124v-.641l2-2Z" transform="translate(-805.843 -498.731)"/><path class="a" d="M823.133,493.959l-2.117,2.117h-3.124l2.117-2.117Z" transform="translate(-810.425 -493.959)"/><path class="a" d="M809.241,496.076H805.81l2.117-2.117h3.431Z" transform="translate(-803.016 -493.959)"/><path class="a" d="M800.486,501.74h3.431l-2,2v.641h-3.336v-.735Z" transform="translate(-798.584 -498.731)"/><path class="a" d="M821.709,503.737l2-2H827.1v.617l-2.021,2.021h-3.371Z" transform="translate(-812.766 -498.731)"/><path class="a" d="M832.575,496.076h-3.394l2.117-2.117h3.086v.925l-1.808,1.808Z" transform="translate(-817.349 -493.959)"/></g><g transform="translate(7.034 6.462)"><path class="b" d="M817.24,519.183a.468.468,0,0,1-.468-.468v-7.577a.468.468,0,0,1,.936,0v7.577A.468.468,0,0,1,817.24,519.183Z" transform="translate(-816.772 -510.67)"/></g><g transform="translate(9.115 6.462)"><path class="b" d="M822.622,519.183a.468.468,0,0,1-.468-.468v-7.577a.468.468,0,0,1,.937,0v7.577A.468.468,0,0,1,822.622,519.183Z" transform="translate(-822.154 -510.67)"/></g></g><g transform="translate(105.968 289.021)"><g transform="translate(0)"><g transform="translate(18.686 10.927)"><path class="b" d="M252.434,482.956a.468.468,0,0,1-.458-.372,6.046,6.046,0,0,0-.634-1.712.468.468,0,1,1,.816-.458,6.976,6.976,0,0,1,.734,1.978.469.469,0,0,1-.362.555A.483.483,0,0,1,252.434,482.956Z" transform="translate(-251.282 -480.174)"/></g><g transform="translate(11.742 8.512)"><path class="b" d="M235.319,474.865h-1.525a.468.468,0,1,1,0-.936h1.525a.468.468,0,1,1,0,.936Z" transform="translate(-233.326 -473.929)"/></g><g transform="translate(7.088 14.264)"><path class="b" d="M221.76,492.251h-.026a.468.468,0,0,1-.442-.493l.137-2.512a.468.468,0,1,1,.935.051l-.137,2.512A.468.468,0,0,1,221.76,492.251Z" transform="translate(-221.291 -488.803)"/></g><g transform="translate(2.505 27.514)"><path class="b" d="M209.91,574.054l-.038,0a.468.468,0,0,1-.429-.5l4-50.053a.468.468,0,0,1,.934.075l-4,50.053A.468.468,0,0,1,209.91,574.054Z" transform="translate(-209.441 -523.064)"/></g><g transform="translate(20.159 22.896)"><path class="b" d="M256.182,520.042a.468.468,0,0,1-.466-.432l-.621-7.981a.468.468,0,1,1,.934-.073l.621,7.981a.469.469,0,0,1-.43.5Z" transform="translate(-255.092 -511.124)"/></g><path class="a" d="M225.361,452.128l-7.54,7.54a.719.719,0,0,0,0,1.016l.986.986a.718.718,0,0,1,0,1.016l-.844.844a2.367,2.367,0,0,0-1.28-.38h0a2.353,2.353,0,0,0-1.09.276l-9.319-9.32a.718.718,0,0,0-1.016,0l-2.082,2.082a.719.719,0,0,0,0,1.016l7.54,7.54a.718.718,0,0,0,1.016,0l.986-.986a.718.718,0,0,1,1.016,0l.786.786a2.326,2.326,0,0,0,.14,2.243l-9.506,9.506a.719.719,0,0,0,0,1.016l2.082,2.082a.719.719,0,0,0,1.016,0l7.54-7.54a.719.719,0,0,0,0-1.016l-.986-.986a.718.718,0,0,1,0-1.016l1.062-1.063a2.3,2.3,0,0,0,1.777-.053l9.7,9.7a.718.718,0,0,0,1.016,0l2.082-2.082a.719.719,0,0,0,0-1.016l-7.54-7.54a.718.718,0,0,0-1.016,0l-.986.986a.719.719,0,0,1-1.016,0l-1.1-1.1a2.257,2.257,0,0,0,.152-1.9l9.532-9.532a.719.719,0,0,0,0-1.016l-2.082-2.082A.718.718,0,0,0,225.361,452.128Z" transform="translate(-202.963 -451.918)"/></g><g transform="translate(7.801 33.771)"><path class="b" d="M228.5,541.831h-4.113a1.255,1.255,0,0,1-1.253-1.253v-.08a1.255,1.255,0,0,1,1.253-1.253H228.5a1.255,1.255,0,0,1,1.253,1.253v.08A1.255,1.255,0,0,1,228.5,541.831Zm-4.113-1.65a.322.322,0,0,0-.317.317v.08a.322.322,0,0,0,.317.317H228.5a.322.322,0,0,0,.317-.317v-.08a.322.322,0,0,0-.317-.317Z" transform="translate(-223.136 -539.245)"/></g><g transform="translate(7.418 37.988)"><path class="b" d="M227.512,552.735H223.4a1.255,1.255,0,0,1-1.254-1.254V551.4a1.255,1.255,0,0,1,1.254-1.253h4.113a1.255,1.255,0,0,1,1.253,1.253v.079A1.255,1.255,0,0,1,227.512,552.735Zm-4.113-1.65a.322.322,0,0,0-.318.317v.079a.321.321,0,0,0,.318.317h4.113a.321.321,0,0,0,.317-.317V551.4a.322.322,0,0,0-.317-.317Z" transform="translate(-222.146 -550.149)"/></g><g transform="translate(7.206 42.205)"><path class="b" d="M226.962,563.639H222.85a1.255,1.255,0,0,1-1.254-1.253v-.079a1.255,1.255,0,0,1,1.254-1.254h4.113a1.255,1.255,0,0,1,1.254,1.254v.079A1.255,1.255,0,0,1,226.962,563.639Zm-4.113-1.65a.322.322,0,0,0-.317.318v.079a.321.321,0,0,0,.317.317h4.113a.318.318,0,0,0,.317-.317v-.079a.321.321,0,0,0-.317-.318Z" transform="translate(-221.596 -561.053)"/></g><g transform="translate(6.551 50.638)"><path class="b" d="M225.269,585.448h-4.113a1.255,1.255,0,0,1-1.254-1.254v-.079a1.255,1.255,0,0,1,1.254-1.254h4.113a1.256,1.256,0,0,1,1.254,1.254v.079A1.255,1.255,0,0,1,225.269,585.448Zm-4.113-1.65a.321.321,0,0,0-.318.317v.079a.322.322,0,0,0,.318.317h4.113a.322.322,0,0,0,.317-.317v-.079a.321.321,0,0,0-.317-.317Z" transform="translate(-219.903 -582.861)"/></g></g><g transform="translate(217.722 322.69)"><g transform="translate(4.654 6.746)"><path class="a" d="M504.447,592.553a.468.468,0,0,1-.468-.468V556.891a.468.468,0,1,1,.936,0v35.193A.468.468,0,0,1,504.447,592.553Z" transform="translate(-503.979 -556.423)"/></g><g transform="translate(3.535)"><path class="b" d="M502.673,544.626c3.192-1.61.7-4.839,0-5.646C501.975,539.787,499.481,543.016,502.673,544.626Z" transform="translate(-501.086 -538.98)"/></g><g transform="translate(0 4.474)"><path class="b" d="M495.281,555.125c1.646-3.173-2.266-4.332-3.3-4.577C491.883,551.611,491.751,555.688,495.281,555.125Z" transform="translate(-491.944 -550.548)"/></g><g transform="translate(0 8.788)"><path class="b" d="M495.281,566.281c1.646-3.173-2.266-4.331-3.3-4.577C491.883,562.767,491.751,566.845,495.281,566.281Z" transform="translate(-491.944 -561.704)"/></g><g transform="translate(0 13.102)"><path class="b" d="M495.281,577.438c1.646-3.174-2.266-4.332-3.3-4.577C491.883,573.924,491.751,578,495.281,577.438Z" transform="translate(-491.944 -572.861)"/></g><g transform="translate(0 17.417)"><path class="b" d="M495.281,588.594c1.646-3.173-2.266-4.332-3.3-4.577C491.883,585.08,491.751,589.157,495.281,588.594Z" transform="translate(-491.944 -584.017)"/></g><g transform="translate(6.499 4.474)"><path class="b" d="M509.148,555.125c-1.646-3.173,2.266-4.332,3.3-4.577C512.546,551.611,512.678,555.688,509.148,555.125Z" transform="translate(-508.749 -550.548)"/></g><g transform="translate(6.499 8.788)"><path class="b" d="M509.148,566.281c-1.646-3.173,2.266-4.331,3.3-4.577C512.546,562.767,512.678,566.845,509.148,566.281Z" transform="translate(-508.749 -561.704)"/></g><g transform="translate(6.499 13.102)"><path class="b" d="M509.148,577.438c-1.646-3.174,2.266-4.332,3.3-4.577C512.546,573.924,512.678,578,509.148,577.438Z" transform="translate(-508.749 -572.861)"/></g><g transform="translate(6.499 17.417)"><path class="b" d="M509.148,588.594c-1.646-3.173,2.266-4.332,3.3-4.577C512.546,585.08,512.678,589.157,509.148,588.594Z" transform="translate(-508.749 -584.017)"/></g></g><g transform="translate(233.531 322.69)"><g transform="translate(4.654 6.746)"><path class="a" d="M545.327,593.15a.468.468,0,0,1-.468-.468v-35.79a.468.468,0,1,1,.936,0v35.79A.468.468,0,0,1,545.327,593.15Z" transform="translate(-544.859 -556.423)"/></g><g transform="translate(3.535)"><path class="b" d="M543.552,544.626c3.192-1.61.7-4.839,0-5.646C542.854,539.787,540.361,543.016,543.552,544.626Z" transform="translate(-541.966 -538.98)"/></g><g transform="translate(0 4.474)"><path class="b" d="M536.161,555.125c1.645-3.173-2.266-4.332-3.3-4.577C532.763,551.611,532.631,555.688,536.161,555.125Z" transform="translate(-532.824 -550.548)"/></g><g transform="translate(0 8.788)"><path class="b" d="M536.161,566.281c1.645-3.173-2.266-4.331-3.3-4.577C532.763,562.767,532.631,566.845,536.161,566.281Z" transform="translate(-532.824 -561.704)"/></g><g transform="translate(0 13.102)"><path class="b" d="M536.161,577.438c1.645-3.174-2.266-4.332-3.3-4.577C532.763,573.924,532.631,578,536.161,577.438Z" transform="translate(-532.824 -572.861)"/></g><g transform="translate(0 17.417)"><path class="b" d="M536.161,588.594c1.645-3.173-2.266-4.332-3.3-4.577C532.763,585.08,532.631,589.157,536.161,588.594Z" transform="translate(-532.824 -584.017)"/></g><g transform="translate(6.499 4.474)"><path class="b" d="M550.028,555.125c-1.645-3.173,2.266-4.332,3.3-4.577C553.426,551.611,553.558,555.688,550.028,555.125Z" transform="translate(-549.629 -550.548)"/></g><g transform="translate(6.499 8.788)"><path class="b" d="M550.028,566.281c-1.645-3.173,2.266-4.331,3.3-4.577C553.426,562.767,553.558,566.845,550.028,566.281Z" transform="translate(-549.629 -561.704)"/></g><g transform="translate(6.499 13.102)"><path class="b" d="M550.028,577.438c-1.645-3.174,2.266-4.332,3.3-4.577C553.426,573.924,553.558,578,550.028,577.438Z" transform="translate(-549.629 -572.861)"/></g><g transform="translate(6.499 17.417)"><path class="b" d="M550.028,588.594c-1.645-3.173,2.266-4.332,3.3-4.577C553.426,585.08,553.558,589.157,550.028,588.594Z" transform="translate(-549.629 -584.017)"/></g></g><g transform="translate(265.149 322.69)"><g transform="translate(4.654 6.746)"><path class="a" d="M627.086,592.07a.468.468,0,0,1-.468-.468V556.891a.468.468,0,0,1,.937,0V591.6A.468.468,0,0,1,627.086,592.07Z" transform="translate(-626.618 -556.423)"/></g><g transform="translate(3.535)"><path class="b" d="M625.312,544.626c3.192-1.61.7-4.839,0-5.646C624.614,539.787,622.12,543.016,625.312,544.626Z" transform="translate(-623.725 -538.98)"/></g><g transform="translate(0 4.474)"><path class="b" d="M617.921,555.125c1.646-3.173-2.266-4.332-3.3-4.577C614.522,551.611,614.391,555.688,617.921,555.125Z" transform="translate(-614.583 -550.548)"/></g><g transform="translate(0 8.788)"><path class="b" d="M617.921,566.281c1.646-3.173-2.266-4.331-3.3-4.577C614.522,562.767,614.391,566.845,617.921,566.281Z" transform="translate(-614.583 -561.704)"/></g><g transform="translate(0 13.102)"><path class="b" d="M617.921,577.438c1.646-3.174-2.266-4.332-3.3-4.577C614.522,573.924,614.391,578,617.921,577.438Z" transform="translate(-614.583 -572.861)"/></g><g transform="translate(0 17.417)"><path class="b" d="M617.921,588.594c1.646-3.173-2.266-4.332-3.3-4.577C614.522,585.08,614.391,589.157,617.921,588.594Z" transform="translate(-614.583 -584.017)"/></g><g transform="translate(6.499 4.474)"><path class="b" d="M631.788,555.125c-1.646-3.173,2.266-4.332,3.3-4.577C635.186,551.611,635.317,555.688,631.788,555.125Z" transform="translate(-631.389 -550.548)"/></g><g transform="translate(6.499 8.788)"><path class="b" d="M631.788,566.281c-1.646-3.173,2.266-4.331,3.3-4.577C635.186,562.767,635.317,566.845,631.788,566.281Z" transform="translate(-631.389 -561.704)"/></g><g transform="translate(6.499 13.102)"><path class="b" d="M631.788,577.438c-1.646-3.174,2.266-4.332,3.3-4.577C635.186,573.924,635.317,578,631.788,577.438Z" transform="translate(-631.389 -572.861)"/></g><g transform="translate(6.499 17.417)"><path class="b" d="M631.788,588.594c-1.646-3.173,2.266-4.332,3.3-4.577C635.186,585.08,635.317,589.157,631.788,588.594Z" transform="translate(-631.389 -584.017)"/></g></g><g transform="translate(280.864 322.69)"><g transform="translate(4.654 6.746)"><path class="a" d="M667.723,592.07a.468.468,0,0,1-.468-.468V556.891a.468.468,0,0,1,.937,0V591.6A.468.468,0,0,1,667.723,592.07Z" transform="translate(-667.255 -556.423)"/></g><g transform="translate(3.535)"><path class="b" d="M665.949,544.626c3.192-1.61.7-4.839,0-5.646C665.251,539.787,662.757,543.016,665.949,544.626Z" transform="translate(-664.362 -538.98)"/></g><g transform="translate(0 4.474)"><path class="b" d="M658.558,555.125c1.646-3.173-2.266-4.332-3.3-4.577C655.159,551.611,655.027,555.688,658.558,555.125Z" transform="translate(-655.22 -550.548)"/></g><g transform="translate(0 8.788)"><path class="b" d="M658.558,566.281c1.646-3.173-2.266-4.331-3.3-4.577C655.159,562.767,655.027,566.845,658.558,566.281Z" transform="translate(-655.22 -561.704)"/></g><g transform="translate(0 13.102)"><path class="b" d="M658.558,577.438c1.646-3.174-2.266-4.332-3.3-4.577C655.159,573.924,655.027,578,658.558,577.438Z" transform="translate(-655.22 -572.861)"/></g><g transform="translate(0 17.417)"><path class="b" d="M658.558,588.594c1.646-3.173-2.266-4.332-3.3-4.577C655.159,585.08,655.027,589.157,658.558,588.594Z" transform="translate(-655.22 -584.017)"/></g><g transform="translate(6.499 4.474)"><path class="b" d="M672.425,555.125c-1.646-3.173,2.266-4.332,3.3-4.577C675.823,551.611,675.954,555.688,672.425,555.125Z" transform="translate(-672.026 -550.548)"/></g><g transform="translate(6.499 8.788)"><path class="b" d="M672.425,566.281c-1.646-3.173,2.266-4.331,3.3-4.577C675.823,562.767,675.954,566.845,672.425,566.281Z" transform="translate(-672.026 -561.704)"/></g><g transform="translate(6.499 13.102)"><path class="b" d="M672.425,577.438c-1.646-3.174,2.266-4.332,3.3-4.577C675.823,573.924,675.954,578,672.425,577.438Z" transform="translate(-672.026 -572.861)"/></g><g transform="translate(6.499 17.417)"><path class="b" d="M672.425,588.594c-1.646-3.173,2.266-4.332,3.3-4.577C675.823,585.08,675.954,589.157,672.425,588.594Z" transform="translate(-672.026 -584.017)"/></g></g><g transform="translate(296.54 322.69)"><g transform="translate(4.654 6.746)"><path class="a" d="M708.258,587.449a.468.468,0,0,1-.468-.468v-30.09a.468.468,0,1,1,.937,0v30.09A.468.468,0,0,1,708.258,587.449Z" transform="translate(-707.79 -556.423)"/></g><g transform="translate(3.535)"><path class="b" d="M706.484,544.626c3.192-1.61.7-4.839,0-5.646C705.786,539.787,703.293,543.016,706.484,544.626Z" transform="translate(-704.898 -538.98)"/></g><g transform="translate(0 4.474)"><path class="b" d="M699.093,555.125c1.646-3.173-2.266-4.332-3.3-4.577C695.695,551.611,695.563,555.688,699.093,555.125Z" transform="translate(-695.756 -550.548)"/></g><g transform="translate(0 8.788)"><path class="b" d="M699.093,566.281c1.646-3.173-2.266-4.331-3.3-4.577C695.695,562.767,695.563,566.845,699.093,566.281Z" transform="translate(-695.756 -561.704)"/></g><g transform="translate(0 13.102)"><path class="b" d="M699.093,577.438c1.646-3.174-2.266-4.332-3.3-4.577C695.695,573.924,695.563,578,699.093,577.438Z" transform="translate(-695.756 -572.861)"/></g><g transform="translate(0 17.417)"><path class="b" d="M699.093,588.594c1.646-3.173-2.266-4.332-3.3-4.577C695.695,585.08,695.563,589.157,699.093,588.594Z" transform="translate(-695.756 -584.017)"/></g><g transform="translate(6.499 4.474)"><path class="b" d="M712.96,555.125c-1.645-3.173,2.266-4.332,3.3-4.577C716.358,551.611,716.49,555.688,712.96,555.125Z" transform="translate(-712.561 -550.548)"/></g><g transform="translate(6.499 8.788)"><path class="b" d="M712.96,566.281c-1.645-3.173,2.266-4.331,3.3-4.577C716.358,562.767,716.49,566.845,712.96,566.281Z" transform="translate(-712.561 -561.704)"/></g><g transform="translate(6.499 13.102)"><path class="b" d="M712.96,577.438c-1.645-3.174,2.266-4.332,3.3-4.577C716.358,573.924,716.49,578,712.96,577.438Z" transform="translate(-712.561 -572.861)"/></g><g transform="translate(6.499 17.417)"><path class="b" d="M712.96,588.594c-1.645-3.173,2.266-4.332,3.3-4.577C716.358,585.08,716.49,589.157,712.96,588.594Z" transform="translate(-712.561 -584.017)"/></g></g><g transform="translate(138.381 322.807)"><g transform="translate(0 0)"><rect class="b" width="1.191" height="1.191" rx="0.595" transform="translate(3.09 1.343)"/><rect class="b" width="1.191" height="1.191" rx="0.595" transform="translate(4.465 1.343)"/><path class="b" d="M297.418,540.332h-.38A.336.336,0,0,1,296.7,540l.083-.38a.336.336,0,0,1,.334-.335h.38a.336.336,0,0,1,.334.335l-.083.38A.336.336,0,0,1,297.418,540.332Z" transform="translate(-292.865 -539.283)"/><path class="b" d="M300.631,540.332h.379a.336.336,0,0,0,.335-.335l-.083-.38a.336.336,0,0,0-.335-.335h-.379a.336.336,0,0,0-.335.335l.083.38A.336.336,0,0,0,300.631,540.332Z" transform="translate(-295.017 -539.283)"/><rect class="b" width="1.191" height="1.191" rx="0.595" transform="translate(5.84 1.343)"/><rect class="b" width="1.331" height="1.331" rx="0.665" transform="translate(2.788 2.81)"/><rect class="b" width="1.331" height="1.331" rx="0.665" transform="translate(4.395 2.81)"/><rect class="b" width="1.331" height="1.331" rx="0.665" transform="translate(6.002 2.81)"/><g transform="translate(2.598 11.223)"><path class="b" d="M.719,0h0a.719.719,0,0,1,.719.719v0a.719.719,0,0,1-.719.719h0A.719.719,0,0,1,0,.719v0A.719.719,0,0,1,.719,0Z" transform="translate(3.486 3.408)"/><path class="b" d="M.719,0h0a.719.719,0,0,1,.719.719v0a.719.719,0,0,1-.719.719h0A.719.719,0,0,1,0,.719v0A.719.719,0,0,1,.719,0Z" transform="translate(1.743 3.408)"/><path class="b" d="M.719,0h0a.719.719,0,0,1,.719.719v0a.719.719,0,0,1-.719.719h0A.719.719,0,0,1,0,.719v0A.719.719,0,0,1,.719,0Z" transform="translate(0 3.408)"/><path class="b" d="M.719,0h0a.719.719,0,0,1,.719.719v0a.719.719,0,0,1-.719.719h0A.719.719,0,0,1,0,.719v0A.719.719,0,0,1,.719,0Z" transform="translate(3.486 1.704)"/><path class="b" d="M.719,0h0a.719.719,0,0,1,.719.719v0a.719.719,0,0,1-.719.719h0A.719.719,0,0,1,0,.719v0A.719.719,0,0,1,.719,0Z" transform="translate(1.743 1.704)"/><path class="b" d="M.719,0h0a.719.719,0,0,1,.719.719v0a.719.719,0,0,1-.719.719h0A.719.719,0,0,1,0,.719v0A.719.719,0,0,1,.719,0Z" transform="translate(0 1.704)"/><path class="b" d="M.719,0h0a.719.719,0,0,1,.719.719v0a.719.719,0,0,1-.719.719h0A.719.719,0,0,1,0,.719v0A.719.719,0,0,1,.719,0Z" transform="translate(3.486)"/><path class="b" d="M.719,0h0a.719.719,0,0,1,.719.719v0a.719.719,0,0,1-.719.719h0A.719.719,0,0,1,0,.719v0A.719.719,0,0,1,.719,0Z" transform="translate(1.743)"/><path class="b" d="M.719,0h0a.719.719,0,0,1,.719.719v0a.719.719,0,0,1-.719.719h0A.719.719,0,0,1,0,.719v0A.719.719,0,0,1,.719,0Z"/></g><path class="b" d="M.719,0h0a.719.719,0,0,1,.719.719v0a.719.719,0,0,1-.719.719h0A.719.719,0,0,1,0,.719v0A.719.719,0,0,1,.719,0Z" transform="translate(4.341 16.333)"/><path class="b" d="M.719,0h0a.719.719,0,0,1,.719.719v0a.719.719,0,0,1-.719.719h0A.719.719,0,0,1,0,.719v0A.719.719,0,0,1,.719,0Z" transform="translate(2.598 16.333)"/><rect class="b" width="1.438" height="1.438" rx="0.719" transform="translate(6.084 9.519)"/><rect class="b" width="1.438" height="1.438" rx="0.719" transform="translate(4.341 9.519)"/><rect class="b" width="1.438" height="1.438" rx="0.719" transform="translate(2.598 9.519)"/><path class="b" d="M.719,0h0a.719.719,0,0,1,.719.719v0a.719.719,0,0,1-.719.719h0A.719.719,0,0,1,0,.719v0A.719.719,0,0,1,.719,0Z" transform="translate(6.084 7.815)"/><path class="b" d="M.719,0h0a.719.719,0,0,1,.719.719v0a.719.719,0,0,1-.719.719h0A.719.719,0,0,1,0,.719v0A.719.719,0,0,1,.719,0Z" transform="translate(4.341 7.815)"/><path class="b" d="M.719,0h0a.719.719,0,0,1,.719.719v0a.719.719,0,0,1-.719.719h0A.719.719,0,0,1,0,.719v0A.719.719,0,0,1,.719,0Z" transform="translate(2.598 7.815)"/><path class="b" d="M.719,0h0a.719.719,0,0,1,.719.719v0a.719.719,0,0,1-.719.719h0A.719.719,0,0,1,0,.719v0A.719.719,0,0,1,.719,0Z" transform="translate(6.084 6.111)"/><path class="b" d="M.719,0h0a.719.719,0,0,1,.719.719v0a.719.719,0,0,1-.719.719h0A.719.719,0,0,1,0,.719v0A.719.719,0,0,1,.719,0Z" transform="translate(4.341 6.111)"/><path class="b" d="M.719,0h0a.719.719,0,0,1,.719.719v0a.719.719,0,0,1-.719.719h0A.719.719,0,0,1,0,.719v0A.719.719,0,0,1,.719,0Z" transform="translate(2.598 6.111)"/><path class="b" d="M.719,0h0a.719.719,0,0,1,.719.719v0a.719.719,0,0,1-.719.719h0A.719.719,0,0,1,0,.719v0A.719.719,0,0,1,.719,0Z" transform="translate(6.084 4.407)"/><path class="b" d="M.719,0h0a.719.719,0,0,1,.719.719v0a.719.719,0,0,1-.719.719h0A.719.719,0,0,1,0,.719v0A.719.719,0,0,1,.719,0Z" transform="translate(4.341 4.407)"/><path class="b" d="M.719,0h0a.719.719,0,0,1,.719.719v0a.719.719,0,0,1-.719.719h0A.719.719,0,0,1,0,.719v0A.719.719,0,0,1,.719,0Z" transform="translate(2.598 4.407)"/><path class="a" d="M298.822,588.684v-.358A4.373,4.373,0,0,0,301.186,585c.244-1.568.083-3.194,2.241-3.442.261-.03,1.143-.016.049-.32-1.024-.285-3.09-.772-5.656,2.88-2.084,2.964-.561,4.207-.561,4.207v.358a.2.2,0,0,0,.2.2h1.157A.2.2,0,0,0,298.822,588.684Z" transform="translate(-292.876 -564.895)"/><path class="b" d="M298.185,587.258c.064-.1.13-.2.2-.3q.382-.543.768-.994a.471.471,0,0,0-.19-.04h-.488a.476.476,0,0,0-.475.475v.488A.474.474,0,0,0,298.185,587.258Z" transform="translate(-293.662 -567.887)"/><path class="b" d="M303.78,581.633a.471.471,0,0,0-.307-.116h-.488a.477.477,0,0,0-.475.475v.488a.463.463,0,0,0,.02.128A6.677,6.677,0,0,1,303.78,581.633Z" transform="translate(-296.426 -565.184)"/><path class="a" d="M291.035,586.723a3.872,3.872,0,0,0-1.808-1.784c-1.473-.7-2.239-.21-2.445.257a.053.053,0,0,0,.051.074c1.167-.017,1.443.474,1.914,1.592a6.626,6.626,0,0,0,1.535,2.392A4.526,4.526,0,0,1,291.035,586.723Z" transform="translate(-286.778 -567.068)"/><path class="b" d="M295.958,586.7v-.3a.476.476,0,0,0-.475-.475h-.318A3.946,3.946,0,0,1,295.958,586.7Z" transform="translate(-291.922 -567.887)"/></g><g transform="translate(4.657 22.792)"><path class="a" d="M299.289,617.7a.468.468,0,0,1-.468-.468V598.689a.468.468,0,0,1,.936,0v18.547A.468.468,0,0,1,299.289,617.7Z" transform="translate(-298.821 -598.221)"/></g></g><g transform="translate(153.101 322.807)"><rect class="b" width="1.191" height="1.191" rx="0.595" transform="translate(3.09 1.343)"/><rect class="b" width="1.191" height="1.191" rx="0.595" transform="translate(4.465 1.343)"/><path class="b" d="M335.483,540.332h-.38a.336.336,0,0,1-.334-.335l.083-.38a.336.336,0,0,1,.334-.335h.38a.336.336,0,0,1,.335.335l-.083.38A.336.336,0,0,1,335.483,540.332Z" transform="translate(-330.931 -539.283)"/><path class="b" d="M338.7,540.332h.379a.336.336,0,0,0,.335-.335l-.083-.38a.336.336,0,0,0-.334-.335h-.38a.336.336,0,0,0-.335.335l.083.38A.336.336,0,0,0,338.7,540.332Z" transform="translate(-333.083 -539.283)"/><rect class="b" width="1.191" height="1.191" rx="0.595" transform="translate(5.84 1.343)"/><rect class="b" width="1.331" height="1.331" rx="0.665" transform="translate(2.787 2.81)"/><rect class="b" width="1.331" height="1.331" rx="0.665" transform="translate(4.395 2.81)"/><rect class="b" width="1.331" height="1.331" rx="0.665" transform="translate(6.002 2.81)"/><g transform="translate(2.598 11.223)"><rect class="b" width="1.438" height="1.438" rx="0.719" transform="translate(3.486 3.408)"/><path class="b" d="M.719,0h0a.719.719,0,0,1,.719.719v0a.719.719,0,0,1-.719.719h0A.719.719,0,0,1,0,.719v0A.719.719,0,0,1,.719,0Z" transform="translate(1.743 3.408)"/><path class="b" d="M.719,0h0a.719.719,0,0,1,.719.719v0a.719.719,0,0,1-.719.719h0A.719.719,0,0,1,0,.719v0A.719.719,0,0,1,.719,0Z" transform="translate(0 3.408)"/><path class="b" d="M.719,0h0a.719.719,0,0,1,.719.719v0a.719.719,0,0,1-.719.719h0A.719.719,0,0,1,0,.719v0A.719.719,0,0,1,.719,0Z" transform="translate(3.486 1.704)"/><path class="b" d="M.719,0h0a.719.719,0,0,1,.719.719v0a.719.719,0,0,1-.719.719h0A.719.719,0,0,1,0,.719v0A.719.719,0,0,1,.719,0Z" transform="translate(1.743 1.704)"/><path class="b" d="M.719,0h0a.719.719,0,0,1,.719.719v0a.719.719,0,0,1-.719.719h0A.719.719,0,0,1,0,.719v0A.719.719,0,0,1,.719,0Z" transform="translate(0 1.704)"/><rect class="b" width="1.438" height="1.438" rx="0.719" transform="translate(3.486)"/><path class="b" d="M.719,0h0a.719.719,0,0,1,.719.719v0a.719.719,0,0,1-.719.719h0A.719.719,0,0,1,0,.719v0A.719.719,0,0,1,.719,0Z" transform="translate(1.743)"/><path class="b" d="M.719,0h0a.719.719,0,0,1,.719.719v0a.719.719,0,0,1-.719.719h0A.719.719,0,0,1,0,.719v0A.719.719,0,0,1,.719,0Z"/></g><path class="b" d="M.719,0h0a.719.719,0,0,1,.719.719v0a.719.719,0,0,1-.719.719h0A.719.719,0,0,1,0,.719v0A.719.719,0,0,1,.719,0Z" transform="translate(4.341 16.333)"/><path class="b" d="M.719,0h0a.719.719,0,0,1,.719.719v0a.719.719,0,0,1-.719.719h0A.719.719,0,0,1,0,.719v0A.719.719,0,0,1,.719,0Z" transform="translate(2.598 16.333)"/><rect class="b" width="1.438" height="1.438" rx="0.719" transform="translate(6.084 9.519)"/><rect class="b" width="1.438" height="1.438" rx="0.719" transform="translate(4.341 9.519)"/><rect class="b" width="1.438" height="1.438" rx="0.719" transform="translate(2.598 9.519)"/><rect class="b" width="1.438" height="1.438" rx="0.719" transform="translate(6.084 7.815)"/><path class="b" d="M.719,0h0a.719.719,0,0,1,.719.719v0a.719.719,0,0,1-.719.719h0A.719.719,0,0,1,0,.719v0A.719.719,0,0,1,.719,0Z" transform="translate(4.341 7.815)"/><path class="b" d="M.719,0h0a.719.719,0,0,1,.719.719v0a.719.719,0,0,1-.719.719h0A.719.719,0,0,1,0,.719v0A.719.719,0,0,1,.719,0Z" transform="translate(2.598 7.815)"/><path class="b" d="M.719,0h0a.719.719,0,0,1,.719.719v0a.719.719,0,0,1-.719.719h0A.719.719,0,0,1,0,.719v0A.719.719,0,0,1,.719,0Z" transform="translate(6.084 6.111)"/><path class="b" d="M.719,0h0a.719.719,0,0,1,.719.719v0a.719.719,0,0,1-.719.719h0A.719.719,0,0,1,0,.719v0A.719.719,0,0,1,.719,0Z" transform="translate(4.341 6.111)"/><path class="b" d="M.719,0h0a.719.719,0,0,1,.719.719v0a.719.719,0,0,1-.719.719h0A.719.719,0,0,1,0,.719v0A.719.719,0,0,1,.719,0Z" transform="translate(2.598 6.111)"/><rect class="b" width="1.438" height="1.438" rx="0.719" transform="translate(6.084 4.407)"/><path class="b" d="M.719,0h0a.719.719,0,0,1,.719.719v0a.719.719,0,0,1-.719.719h0A.719.719,0,0,1,0,.719v0A.719.719,0,0,1,.719,0Z" transform="translate(4.341 4.407)"/><path class="b" d="M.719,0h0a.719.719,0,0,1,.719.719v0a.719.719,0,0,1-.719.719h0A.719.719,0,0,1,0,.719v0A.719.719,0,0,1,.719,0Z" transform="translate(2.598 4.407)"/><path class="a" d="M336.887,588.684v-.358A4.372,4.372,0,0,0,339.251,585c.245-1.568.083-3.194,2.241-3.442.261-.03,1.143-.016.049-.32-1.024-.285-3.089-.772-5.656,2.88-2.083,2.964-.561,4.207-.561,4.207v.358a.2.2,0,0,0,.2.2h1.157A.2.2,0,0,0,336.887,588.684Z" transform="translate(-330.942 -564.895)"/><path class="b" d="M336.25,587.258c.064-.1.13-.2.2-.3q.382-.543.768-.994a.471.471,0,0,0-.189-.04h-.488a.476.476,0,0,0-.475.475v.488A.474.474,0,0,0,336.25,587.258Z" transform="translate(-331.727 -567.887)"/><path class="b" d="M341.845,581.633a.47.47,0,0,0-.307-.116h-.488a.477.477,0,0,0-.475.475v.488a.463.463,0,0,0,.02.128A6.679,6.679,0,0,1,341.845,581.633Z" transform="translate(-334.491 -565.184)"/><path class="a" d="M329.1,586.723a3.873,3.873,0,0,0-1.808-1.784c-1.473-.7-2.24-.21-2.445.257a.053.053,0,0,0,.05.074c1.168-.017,1.443.474,1.914,1.592a6.624,6.624,0,0,0,1.535,2.392A4.525,4.525,0,0,1,329.1,586.723Z" transform="translate(-324.843 -567.068)"/><path class="b" d="M334.023,586.7v-.3a.476.476,0,0,0-.475-.475h-.318A3.937,3.937,0,0,1,334.023,586.7Z" transform="translate(-329.987 -567.887)"/></g><g transform="translate(123.668 322.807)"><g transform="translate(0 0)"><rect class="b" width="1.191" height="1.191" rx="0.595" transform="translate(3.09 1.343)"/><rect class="b" width="1.191" height="1.191" rx="0.595" transform="translate(4.465 1.343)"/><path class="b" d="M259.372,540.332h-.379a.336.336,0,0,1-.334-.335l.083-.38a.336.336,0,0,1,.334-.335h.379a.336.336,0,0,1,.335.335l-.083.38A.336.336,0,0,1,259.372,540.332Z" transform="translate(-254.819 -539.283)"/><path class="b" d="M262.584,540.332h.38A.336.336,0,0,0,263.3,540l-.083-.38a.336.336,0,0,0-.335-.335h-.38a.336.336,0,0,0-.334.335l.083.38A.336.336,0,0,0,262.584,540.332Z" transform="translate(-256.971 -539.283)"/><rect class="b" width="1.191" height="1.191" rx="0.595" transform="translate(5.84 1.343)"/><rect class="b" width="1.331" height="1.331" rx="0.665" transform="translate(2.787 2.81)"/><rect class="b" width="1.331" height="1.331" rx="0.665" transform="translate(4.395 2.81)"/><rect class="b" width="1.331" height="1.331" rx="0.665" transform="translate(6.002 2.81)"/><g transform="translate(2.598 11.223)"><path class="b" d="M.719,0h0a.719.719,0,0,1,.719.719v0a.719.719,0,0,1-.719.719h0A.719.719,0,0,1,0,.719v0A.719.719,0,0,1,.719,0Z" transform="translate(3.486 3.408)"/><rect class="b" width="1.438" height="1.438" rx="0.719" transform="translate(1.743 3.408)"/><path class="b" d="M.719,0h0a.719.719,0,0,1,.719.719v0a.719.719,0,0,1-.719.719h0A.719.719,0,0,1,0,.719v0A.719.719,0,0,1,.719,0Z" transform="translate(0 3.408)"/><path class="b" d="M.719,0h0a.719.719,0,0,1,.719.719v0a.719.719,0,0,1-.719.719h0A.719.719,0,0,1,0,.719v0A.719.719,0,0,1,.719,0Z" transform="translate(3.486 1.704)"/><path class="b" d="M.719,0h0a.719.719,0,0,1,.719.719v0a.719.719,0,0,1-.719.719h0A.719.719,0,0,1,0,.719v0A.719.719,0,0,1,.719,0Z" transform="translate(1.743 1.704)"/><path class="b" d="M.719,0h0a.719.719,0,0,1,.719.719v0a.719.719,0,0,1-.719.719h0A.719.719,0,0,1,0,.719v0A.719.719,0,0,1,.719,0Z" transform="translate(0 1.704)"/><path class="b" d="M.719,0h0a.719.719,0,0,1,.719.719v0a.719.719,0,0,1-.719.719h0A.719.719,0,0,1,0,.719v0A.719.719,0,0,1,.719,0Z" transform="translate(3.486)"/><rect class="b" width="1.438" height="1.438" rx="0.719" transform="translate(1.743)"/><path class="b" d="M.719,0h0a.719.719,0,0,1,.719.719v0a.719.719,0,0,1-.719.719h0A.719.719,0,0,1,0,.719v0A.719.719,0,0,1,.719,0Z"/></g><rect class="b" width="1.438" height="1.438" rx="0.719" transform="translate(4.341 16.333)"/><path class="b" d="M.719,0h0a.719.719,0,0,1,.719.719v0a.719.719,0,0,1-.719.719h0A.719.719,0,0,1,0,.719v0A.719.719,0,0,1,.719,0Z" transform="translate(2.598 16.333)"/><rect class="b" width="1.438" height="1.438" rx="0.719" transform="translate(6.084 9.519)"/><rect class="b" width="1.438" height="1.438" rx="0.719" transform="translate(4.341 9.519)"/><rect class="b" width="1.438" height="1.438" rx="0.719" transform="translate(2.598 9.519)"/><path class="b" d="M.719,0h0a.719.719,0,0,1,.719.719v0a.719.719,0,0,1-.719.719h0A.719.719,0,0,1,0,.719v0A.719.719,0,0,1,.719,0Z" transform="translate(6.084 7.815)"/><rect class="b" width="1.438" height="1.438" rx="0.719" transform="translate(4.341 7.815)"/><path class="b" d="M.719,0h0a.719.719,0,0,1,.719.719v0a.719.719,0,0,1-.719.719h0A.719.719,0,0,1,0,.719v0A.719.719,0,0,1,.719,0Z" transform="translate(2.598 7.815)"/><path class="b" d="M.719,0h0a.719.719,0,0,1,.719.719v0a.719.719,0,0,1-.719.719h0A.719.719,0,0,1,0,.719v0A.719.719,0,0,1,.719,0Z" transform="translate(6.084 6.111)"/><path class="b" d="M.719,0h0a.719.719,0,0,1,.719.719v0a.719.719,0,0,1-.719.719h0A.719.719,0,0,1,0,.719v0A.719.719,0,0,1,.719,0Z" transform="translate(4.341 6.111)"/><path class="b" d="M.719,0h0a.719.719,0,0,1,.719.719v0a.719.719,0,0,1-.719.719h0A.719.719,0,0,1,0,.719v0A.719.719,0,0,1,.719,0Z" transform="translate(2.598 6.111)"/><path class="b" d="M.719,0h0a.719.719,0,0,1,.719.719v0a.719.719,0,0,1-.719.719h0A.719.719,0,0,1,0,.719v0A.719.719,0,0,1,.719,0Z" transform="translate(6.084 4.407)"/><rect class="b" width="1.438" height="1.438" rx="0.719" transform="translate(4.341 4.407)"/><path class="b" d="M.719,0h0a.719.719,0,0,1,.719.719v0a.719.719,0,0,1-.719.719h0A.719.719,0,0,1,0,.719v0A.719.719,0,0,1,.719,0Z" transform="translate(2.598 4.407)"/><path class="a" d="M260.776,588.684v-.358A4.372,4.372,0,0,0,263.139,585c.245-1.568.083-3.194,2.241-3.442.261-.03,1.143-.016.05-.32-1.024-.285-3.09-.772-5.656,2.88-2.084,2.964-.561,4.207-.561,4.207v.358a.2.2,0,0,0,.2.2h1.157A.2.2,0,0,0,260.776,588.684Z" transform="translate(-254.83 -564.895)"/><path class="b" d="M260.139,587.258c.064-.1.13-.2.2-.3q.381-.543.768-.994a.468.468,0,0,0-.189-.04h-.488a.476.476,0,0,0-.475.475v.488A.473.473,0,0,0,260.139,587.258Z" transform="translate(-255.616 -567.887)"/><path class="b" d="M265.734,581.633a.47.47,0,0,0-.307-.116h-.488a.477.477,0,0,0-.475.475v.488a.461.461,0,0,0,.02.128A6.677,6.677,0,0,1,265.734,581.633Z" transform="translate(-258.38 -565.184)"/><path class="a" d="M252.988,586.723a3.869,3.869,0,0,0-1.808-1.784c-1.473-.7-2.239-.21-2.445.257a.053.053,0,0,0,.051.074c1.168-.017,1.442.474,1.914,1.592a6.625,6.625,0,0,0,1.535,2.392A4.527,4.527,0,0,1,252.988,586.723Z" transform="translate(-248.732 -567.068)"/><path class="b" d="M257.912,586.7v-.3a.476.476,0,0,0-.475-.475h-.317A3.958,3.958,0,0,1,257.912,586.7Z" transform="translate(-253.875 -567.887)"/></g><g transform="translate(4.657 22.792)"><path class="a" d="M261.243,614.448a.468.468,0,0,1-.468-.468V598.689a.468.468,0,0,1,.936,0V613.98A.468.468,0,0,1,261.243,614.448Z" transform="translate(-260.775 -598.221)"/></g></g><g transform="translate(182.498 322.807)"><g transform="translate(0 0)"><rect class="b" width="1.191" height="1.191" rx="0.595" transform="translate(3.09 1.343)"/><rect class="b" width="1.191" height="1.191" rx="0.595" transform="translate(4.465 1.343)"/><path class="b" d="M411.5,540.332h-.38a.336.336,0,0,1-.334-.335l.083-.38a.336.336,0,0,1,.334-.335h.38a.336.336,0,0,1,.335.335l-.083.38A.336.336,0,0,1,411.5,540.332Z" transform="translate(-406.946 -539.283)"/><path class="b" d="M414.711,540.332h.38a.336.336,0,0,0,.334-.335l-.083-.38a.336.336,0,0,0-.334-.335h-.38a.336.336,0,0,0-.335.335l.083.38A.336.336,0,0,0,414.711,540.332Z" transform="translate(-409.098 -539.283)"/><rect class="b" width="1.191" height="1.191" rx="0.595" transform="translate(5.84 1.343)"/><rect class="b" width="1.331" height="1.331" rx="0.665" transform="translate(2.787 2.81)"/><rect class="b" width="1.331" height="1.331" rx="0.665" transform="translate(4.395 2.81)"/><rect class="b" width="1.331" height="1.331" rx="0.665" transform="translate(6.002 2.81)"/><g transform="translate(2.598 11.223)"><path class="b" d="M.719,0h0a.719.719,0,0,1,.719.719v0a.719.719,0,0,1-.719.719h0A.719.719,0,0,1,0,.719v0A.719.719,0,0,1,.719,0Z" transform="translate(3.486 3.408)"/><path class="b" d="M.719,0h0a.719.719,0,0,1,.719.719v0a.719.719,0,0,1-.719.719h0A.719.719,0,0,1,0,.719v0A.719.719,0,0,1,.719,0Z" transform="translate(1.743 3.408)"/><path class="b" d="M.719,0h0a.719.719,0,0,1,.719.719v0a.719.719,0,0,1-.719.719h0A.719.719,0,0,1,0,.719v0A.719.719,0,0,1,.719,0Z" transform="translate(0 3.408)"/><path class="b" d="M.719,0h0a.719.719,0,0,1,.719.719v0a.719.719,0,0,1-.719.719h0A.719.719,0,0,1,0,.719v0A.719.719,0,0,1,.719,0Z" transform="translate(3.486 1.704)"/><path class="b" d="M.719,0h0a.719.719,0,0,1,.719.719v0a.719.719,0,0,1-.719.719h0A.719.719,0,0,1,0,.719v0A.719.719,0,0,1,.719,0Z" transform="translate(1.743 1.704)"/><path class="b" d="M.719,0h0a.719.719,0,0,1,.719.719v0a.719.719,0,0,1-.719.719h0A.719.719,0,0,1,0,.719v0A.719.719,0,0,1,.719,0Z" transform="translate(0 1.704)"/><path class="b" d="M.719,0h0a.719.719,0,0,1,.719.719v0a.719.719,0,0,1-.719.719h0A.719.719,0,0,1,0,.719v0A.719.719,0,0,1,.719,0Z" transform="translate(3.486)"/><path class="b" d="M.719,0h0a.719.719,0,0,1,.719.719v0a.719.719,0,0,1-.719.719h0A.719.719,0,0,1,0,.719v0A.719.719,0,0,1,.719,0Z" transform="translate(1.743)"/><path class="b" d="M.719,0h0a.719.719,0,0,1,.719.719v0a.719.719,0,0,1-.719.719h0A.719.719,0,0,1,0,.719v0A.719.719,0,0,1,.719,0Z"/></g><path class="b" d="M.719,0h0a.719.719,0,0,1,.719.719v0a.719.719,0,0,1-.719.719h0A.719.719,0,0,1,0,.719v0A.719.719,0,0,1,.719,0Z" transform="translate(4.341 16.333)"/><path class="b" d="M.719,0h0a.719.719,0,0,1,.719.719v0a.719.719,0,0,1-.719.719h0A.719.719,0,0,1,0,.719v0A.719.719,0,0,1,.719,0Z" transform="translate(2.598 16.333)"/><rect class="b" width="1.438" height="1.438" rx="0.719" transform="translate(6.084 9.519)"/><path class="b" d="M.719,0h0a.719.719,0,0,1,.719.719v0a.719.719,0,0,1-.719.719h0A.719.719,0,0,1,0,.719v0A.719.719,0,0,1,.719,0Z" transform="translate(4.341 9.519)"/><rect class="b" width="1.438" height="1.438" rx="0.719" transform="translate(2.598 9.519)"/><path class="b" d="M.719,0h0a.719.719,0,0,1,.719.719v0a.719.719,0,0,1-.719.719h0A.719.719,0,0,1,0,.719v0A.719.719,0,0,1,.719,0Z" transform="translate(6.084 7.815)"/><path class="b" d="M.719,0h0a.719.719,0,0,1,.719.719v0a.719.719,0,0,1-.719.719h0A.719.719,0,0,1,0,.719v0A.719.719,0,0,1,.719,0Z" transform="translate(4.341 7.815)"/><path class="b" d="M.719,0h0a.719.719,0,0,1,.719.719v0a.719.719,0,0,1-.719.719h0A.719.719,0,0,1,0,.719v0A.719.719,0,0,1,.719,0Z" transform="translate(2.598 7.815)"/><path class="b" d="M.719,0h0a.719.719,0,0,1,.719.719v0a.719.719,0,0,1-.719.719h0A.719.719,0,0,1,0,.719v0A.719.719,0,0,1,.719,0Z" transform="translate(6.084 6.111)"/><path class="b" d="M.719,0h0a.719.719,0,0,1,.719.719v0a.719.719,0,0,1-.719.719h0A.719.719,0,0,1,0,.719v0A.719.719,0,0,1,.719,0Z" transform="translate(4.341 6.111)"/><path class="b" d="M.719,0h0a.719.719,0,0,1,.719.719v0a.719.719,0,0,1-.719.719h0A.719.719,0,0,1,0,.719v0A.719.719,0,0,1,.719,0Z" transform="translate(2.598 6.111)"/><path class="b" d="M.719,0h0a.719.719,0,0,1,.719.719v0a.719.719,0,0,1-.719.719h0A.719.719,0,0,1,0,.719v0A.719.719,0,0,1,.719,0Z" transform="translate(6.084 4.407)"/><path class="b" d="M.719,0h0a.719.719,0,0,1,.719.719v0a.719.719,0,0,1-.719.719h0A.719.719,0,0,1,0,.719v0A.719.719,0,0,1,.719,0Z" transform="translate(4.341 4.407)"/><path class="b" d="M.719,0h0a.719.719,0,0,1,.719.719v0a.719.719,0,0,1-.719.719h0A.719.719,0,0,1,0,.719v0A.719.719,0,0,1,.719,0Z" transform="translate(2.598 4.407)"/><path class="a" d="M412.9,588.684v-.358A4.372,4.372,0,0,0,415.266,585c.245-1.568.083-3.194,2.241-3.442.261-.03,1.143-.016.049-.32-1.024-.285-3.089-.772-5.656,2.88-2.083,2.964-.561,4.207-.561,4.207v.358a.2.2,0,0,0,.2.2H412.7A.2.2,0,0,0,412.9,588.684Z" transform="translate(-406.957 -564.895)"/><path class="b" d="M412.265,587.258c.064-.1.13-.2.2-.3q.381-.543.768-.994a.468.468,0,0,0-.189-.04h-.488a.476.476,0,0,0-.475.475v.488A.474.474,0,0,0,412.265,587.258Z" transform="translate(-407.742 -567.887)"/><path class="b" d="M417.86,581.633a.47.47,0,0,0-.306-.116h-.488a.477.477,0,0,0-.475.475v.488a.465.465,0,0,0,.02.128A6.678,6.678,0,0,1,417.86,581.633Z" transform="translate(-410.506 -565.184)"/><path class="a" d="M405.115,586.723a3.871,3.871,0,0,0-1.808-1.784c-1.473-.7-2.239-.21-2.445.257a.053.053,0,0,0,.051.074c1.167-.017,1.442.474,1.914,1.592a6.624,6.624,0,0,0,1.534,2.392A4.532,4.532,0,0,1,405.115,586.723Z" transform="translate(-400.858 -567.068)"/><path class="b" d="M410.039,586.7v-.3a.476.476,0,0,0-.475-.475h-.317A3.956,3.956,0,0,1,410.039,586.7Z" transform="translate(-406.002 -567.887)"/></g><g transform="translate(4.657 22.792)"><path class="a" d="M413.369,618.187a.468.468,0,0,1-.468-.468v-19.03a.468.468,0,0,1,.936,0v19.03A.468.468,0,0,1,413.369,618.187Z" transform="translate(-412.901 -598.221)"/></g></g><g transform="translate(197.218 322.807)"><g transform="translate(0 0)"><rect class="b" width="1.191" height="1.191" rx="0.595" transform="translate(3.09 1.343)"/><rect class="b" width="1.191" height="1.191" rx="0.595" transform="translate(4.465 1.343)"/><path class="b" d="M449.564,540.332h-.379a.336.336,0,0,1-.334-.335l.083-.38a.336.336,0,0,1,.334-.335h.38a.336.336,0,0,1,.334.335l-.083.38A.336.336,0,0,1,449.564,540.332Z" transform="translate(-445.011 -539.283)"/><path class="b" d="M452.776,540.332h.38a.336.336,0,0,0,.335-.335l-.083-.38a.336.336,0,0,0-.334-.335h-.38a.336.336,0,0,0-.335.335l.083.38A.336.336,0,0,0,452.776,540.332Z" transform="translate(-447.163 -539.283)"/><rect class="b" width="1.191" height="1.191" rx="0.595" transform="translate(5.84 1.343)"/><rect class="b" width="1.331" height="1.331" rx="0.665" transform="translate(2.787 2.81)"/><rect class="b" width="1.331" height="1.331" rx="0.665" transform="translate(4.395 2.81)"/><rect class="b" width="1.331" height="1.331" rx="0.665" transform="translate(6.002 2.81)"/><g transform="translate(2.598 11.223)"><path class="b" d="M.719,0h0a.719.719,0,0,1,.719.719v0a.719.719,0,0,1-.719.719h0A.719.719,0,0,1,0,.719v0A.719.719,0,0,1,.719,0Z" transform="translate(3.486 3.408)"/><path class="b" d="M.719,0h0a.719.719,0,0,1,.719.719v0a.719.719,0,0,1-.719.719h0A.719.719,0,0,1,0,.719v0A.719.719,0,0,1,.719,0Z" transform="translate(1.743 3.408)"/><rect class="b" width="1.438" height="1.438" rx="0.719" transform="translate(0 3.408)"/><path class="b" d="M.719,0h0a.719.719,0,0,1,.719.719v0a.719.719,0,0,1-.719.719h0A.719.719,0,0,1,0,.719v0A.719.719,0,0,1,.719,0Z" transform="translate(3.486 1.704)"/><path class="b" d="M.719,0h0a.719.719,0,0,1,.719.719v0a.719.719,0,0,1-.719.719h0A.719.719,0,0,1,0,.719v0A.719.719,0,0,1,.719,0Z" transform="translate(1.743 1.704)"/><path class="b" d="M.719,0h0a.719.719,0,0,1,.719.719v0a.719.719,0,0,1-.719.719h0A.719.719,0,0,1,0,.719v0A.719.719,0,0,1,.719,0Z" transform="translate(0 1.704)"/><path class="b" d="M.719,0h0a.719.719,0,0,1,.719.719v0a.719.719,0,0,1-.719.719h0A.719.719,0,0,1,0,.719v0A.719.719,0,0,1,.719,0Z" transform="translate(3.486)"/><path class="b" d="M.719,0h0a.719.719,0,0,1,.719.719v0a.719.719,0,0,1-.719.719h0A.719.719,0,0,1,0,.719v0A.719.719,0,0,1,.719,0Z" transform="translate(1.743)"/><rect class="b" width="1.438" height="1.438" rx="0.719"/></g><path class="b" d="M.719,0h0a.719.719,0,0,1,.719.719v0a.719.719,0,0,1-.719.719h0A.719.719,0,0,1,0,.719v0A.719.719,0,0,1,.719,0Z" transform="translate(4.341 16.333)"/><rect class="b" width="1.438" height="1.438" rx="0.719" transform="translate(2.598 16.333)"/><rect class="b" width="1.438" height="1.438" rx="0.719" transform="translate(6.084 9.519)"/><rect class="b" width="1.438" height="1.438" rx="0.719" transform="translate(4.341 9.519)"/><rect class="b" width="1.438" height="1.438" rx="0.719" transform="translate(2.598 9.519)"/><path class="b" d="M.719,0h0a.719.719,0,0,1,.719.719v0a.719.719,0,0,1-.719.719h0A.719.719,0,0,1,0,.719v0A.719.719,0,0,1,.719,0Z" transform="translate(6.084 7.815)"/><path class="b" d="M.719,0h0a.719.719,0,0,1,.719.719v0a.719.719,0,0,1-.719.719h0A.719.719,0,0,1,0,.719v0A.719.719,0,0,1,.719,0Z" transform="translate(4.341 7.815)"/><rect class="b" width="1.438" height="1.438" rx="0.719" transform="translate(2.598 7.815)"/><path class="b" d="M.719,0h0a.719.719,0,0,1,.719.719v0a.719.719,0,0,1-.719.719h0A.719.719,0,0,1,0,.719v0A.719.719,0,0,1,.719,0Z" transform="translate(6.084 6.111)"/><path class="b" d="M.719,0h0a.719.719,0,0,1,.719.719v0a.719.719,0,0,1-.719.719h0A.719.719,0,0,1,0,.719v0A.719.719,0,0,1,.719,0Z" transform="translate(4.341 6.111)"/><path class="b" d="M.719,0h0a.719.719,0,0,1,.719.719v0a.719.719,0,0,1-.719.719h0A.719.719,0,0,1,0,.719v0A.719.719,0,0,1,.719,0Z" transform="translate(2.598 6.111)"/><path class="b" d="M.719,0h0a.719.719,0,0,1,.719.719v0a.719.719,0,0,1-.719.719h0A.719.719,0,0,1,0,.719v0A.719.719,0,0,1,.719,0Z" transform="translate(6.084 4.407)"/><path class="b" d="M.719,0h0a.719.719,0,0,1,.719.719v0a.719.719,0,0,1-.719.719h0A.719.719,0,0,1,0,.719v0A.719.719,0,0,1,.719,0Z" transform="translate(4.341 4.407)"/><rect class="b" width="1.438" height="1.438" rx="0.719" transform="translate(2.598 4.407)"/><path class="a" d="M450.968,588.684v-.358A4.372,4.372,0,0,0,453.331,585c.245-1.568.083-3.194,2.241-3.442.261-.03,1.143-.016.05-.32-1.024-.285-3.09-.772-5.656,2.88-2.083,2.964-.561,4.207-.561,4.207v.358a.2.2,0,0,0,.2.2h1.157A.2.2,0,0,0,450.968,588.684Z" transform="translate(-445.022 -564.895)"/><path class="b" d="M450.331,587.258c.064-.1.13-.2.2-.3q.381-.543.768-.994a.468.468,0,0,0-.189-.04h-.488a.476.476,0,0,0-.475.475v.488A.473.473,0,0,0,450.331,587.258Z" transform="translate(-445.808 -567.887)"/><path class="b" d="M455.925,581.633a.47.47,0,0,0-.306-.116h-.488a.477.477,0,0,0-.475.475v.488a.466.466,0,0,0,.02.128A6.687,6.687,0,0,1,455.925,581.633Z" transform="translate(-448.571 -565.184)"/><path class="a" d="M443.18,586.723a3.871,3.871,0,0,0-1.807-1.784c-1.473-.7-2.24-.21-2.445.257a.053.053,0,0,0,.051.074c1.167-.017,1.442.474,1.913,1.592a6.63,6.63,0,0,0,1.534,2.392A4.531,4.531,0,0,1,443.18,586.723Z" transform="translate(-438.924 -567.068)"/><path class="b" d="M448.1,586.7v-.3a.476.476,0,0,0-.475-.475h-.318A3.957,3.957,0,0,1,448.1,586.7Z" transform="translate(-444.067 -567.887)"/></g><g transform="translate(4.657 22.792)"><path class="a" d="M451.434,618.187a.468.468,0,0,1-.468-.468v-19.03a.468.468,0,0,1,.937,0v19.03A.468.468,0,0,1,451.434,618.187Z" transform="translate(-450.966 -598.221)"/></g></g><g transform="translate(266.691 293.513)"><circle class="a" cx="0.94" cy="0.94" r="0.94" transform="translate(16.2 8.657)"/><path class="b" d="M661.005,480.453l.08-2.131c.246-.044.4-.105.4-.174,0-.132-.572-.239-1.277-.239s-1.277.107-1.277.239c0,.068.154.13.4.174l.08,2.131a1.692,1.692,0,1,0,1.594,0Zm-.8,2.913a1.42,1.42,0,1,1,1.42-1.42A1.422,1.422,0,0,1,660.208,483.366Z" transform="translate(-643.068 -472.349)"/><path class="a" d="M647.422,464.6a.84.84,0,0,0-.837-.819h0a.842.842,0,0,0-.82.667,13.82,13.82,0,0,0-3.1-.208c-1.6.141-1.915.07-2.235.7h5.321V465l-6.446.841c-.1-.038-.2-.075-.3-.111a2.289,2.289,0,0,0-2.28-2.2H634.7a2.289,2.289,0,0,0-2.279,2.2c-.107.036-.211.075-.312.115L625.634,465v-.061h5.321c-.319-.632-.638-.562-2.235-.7a13.824,13.824,0,0,0-3.1.208.837.837,0,0,0-1.657.152H618.57c.32.632.638.562,2.235.7a13.931,13.931,0,0,0,3.152-.216v.748a.838.838,0,0,0,1.662.153l4.647,1.089a1.708,1.708,0,0,0-.4,1.064,1.551,1.551,0,0,0,.146.647l-4.261.262v-.316a.567.567,0,0,0-.011-.106h3.112c-.194-.385-.388-.342-1.359-.427a8.418,8.418,0,0,0-1.9.129.592.592,0,0,0-.944.09h-3.327c.194.385.388.342,1.359.427a8.339,8.339,0,0,0,1.877-.125s0,.008,0,.012v.8a.6.6,0,0,0,1.153.224l4.454-.052-.508.271a1.375,1.375,0,0,0-.5.45l-1.012,1.518a.787.787,0,0,0-.132.436v2.13a.229.229,0,0,0,.458.013l.117-1.981a.785.785,0,0,1,.264-.543l1.433-1.268a1.376,1.376,0,0,1,.577-.3l.79-.2c.055.026.108.053.164.078a.951.951,0,0,1-.238-.6c0-.995,1.852-1.8,4.138-1.8s4.138.807,4.138,1.8a.951.951,0,0,1-.238.6c.109-.049.214-.1.316-.153l-.069.056.861.215a1.376,1.376,0,0,1,.577.3L642.729,472a.785.785,0,0,1,.264.543l.117,1.981a.229.229,0,0,0,.458-.013v-2.13a.787.787,0,0,0-.132-.436l-1.012-1.518a1.375,1.375,0,0,0-.5-.45l-.5-.268,4.174.049a.6.6,0,0,0,1.153-.224v-.8s0-.008,0-.012a8.34,8.34,0,0,0,1.877.125c.971-.085,1.165-.043,1.359-.427h-3.327a.592.592,0,0,0-.944-.09,8.419,8.419,0,0,0-1.9-.129c-.971.085-1.165.042-1.359.427h3.112a.566.566,0,0,0-.011.106v.316l-4.146-.255a1.548,1.548,0,0,0,.15-.654,1.713,1.713,0,0,0-.41-1.072l4.614-1.081a.841.841,0,0,0,.823.685h0a.84.84,0,0,0,.838-.838v-.748a13.934,13.934,0,0,0,3.152.216c1.6-.14,1.916-.07,2.235-.7Z" transform="translate(-618.57 -463.531)"/></g><rect class="b" width="1.214" height="1.214" rx="0.607" transform="translate(104.214 317.666) rotate(180)"/><path class="b" d="M.607,0h0a.607.607,0,0,1,.607.607v0a.607.607,0,0,1-.607.607h0A.607.607,0,0,1,0,.607v0A.607.607,0,0,1,.607,0Z" transform="translate(104.11 352.56) rotate(180)"/><rect class="b" width="1.214" height="1.214" rx="0.607" transform="translate(104.11 356.912) rotate(180)"/><path class="b" d="M95.58,433.52l-.305,4.317c-.28-.242-.568-.475-.87-.694v-6.834a.9.9,0,0,0-.9-.9H86.456a.9.9,0,0,0-.9.9v2.661a1.173,1.173,0,0,0-1.067,1.165v.828a12.783,12.783,0,0,0-6.579,21.622.46.46,0,0,0-.094.138l-1.884,4.522a6.087,6.087,0,0,0-.471,2.355v37.476a.468.468,0,0,0,.937,0V463.6a5.159,5.159,0,0,1,.4-2l1.821-4.371A12.78,12.78,0,0,0,91,459.648v18.941a.468.468,0,1,0,.936,0v-23.36l.588-.8h1.059l.588.8v20.489a.468.468,0,1,0,.936,0V459.1l1.043,2.5a5.159,5.159,0,0,1,.4,2v10.922a.468.468,0,1,0,.936,0V463.6a6.094,6.094,0,0,0-.471-2.355l-1.7-4.074A12.773,12.773,0,0,0,96.5,439.052l2.3-2.3,2.126,2.126a.468.468,0,0,0,.662-.662l-2.126-2.126,1.672-1.672.055.772a.468.468,0,0,0,.466.435h.034a.468.468,0,0,0,.434-.5l-.112-1.583-.372-5.247-.573-8.084a1.2,1.2,0,0,0,.4-.444l1.9-3.659v-5.531a1.037,1.037,0,0,0-.018-.178.46.46,0,0,0-.014-.389l-1.846-3.557a1.2,1.2,0,0,0-1.065-.647H97.218a1.2,1.2,0,0,0-1.065.647L94.307,410a.459.459,0,0,0-.037.3,1.068,1.068,0,0,0-.037.265V416.1l1.9,3.659a1.2,1.2,0,0,0,.391.439l-.263,3.719Zm-.411-18v-4.948a.139.139,0,0,1,.139-.139H102.3a.14.14,0,0,1,.139.139v4.948Zm1.814-8.642a.263.263,0,0,1,.234-.142h3.212a.263.263,0,0,1,.234.142l1.359,2.618h-6.4Zm2.494,15.145.734-.734.112,1.581Zm.649,1.973-1.386,1.386-1.311-1.311,1.386-1.386Zm-1.311-2.635-.952-.953h1.9Zm-1.429-.105.767.767-.884.884Zm-.271,3.826.962.962-1.109,1.109Zm1.624,1.624,1.73,1.731-1.623,1.594-1.731-1.7Zm-1.926,2.641,1.365,1.34-1.569,1.54Zm-3.346,1V452.6h-.79V432.035a.9.9,0,0,0-.9-.9H88.183a.9.9,0,0,0-.9.9v.924h-.79v-2.615Zm-5.183,2.615h-.067v-.888h3.523v3.6a12.651,12.651,0,0,0-2.28-.687v-.847A1.177,1.177,0,0,0,88.285,432.959Zm-2.86,1.176a.24.24,0,0,1,.24-.239h2.62a.24.24,0,0,1,.24.239v.695a12.527,12.527,0,0,0-3.1-.012Zm1.5,25.24a11.854,11.854,0,0,1-2-23.538c.013,0,.024.007.037.007a.458.458,0,0,0,.2-.048,11.908,11.908,0,0,1,1.769-.132,11.754,11.754,0,0,1,4.817,1.023v16a.906.906,0,0,0-.214,1.51l-.533.728v3.73A11.8,11.8,0,0,1,86.924,459.374ZM95.1,456.1v-1.174l-.555-.759a.909.909,0,0,0-.143-1.421V438.321a11.85,11.85,0,0,1,.7,17.776Zm1.1-18.065.257-3.636,1.69,1.689Zm2.609-2.609-2.04-2.04,2.078-2.04,2.039,2Zm2.172-3.3-1.466-1.439,1.275-1.251ZM99.4,426.045l1.071-1.071.164,2.306Zm1.24-6.715a.254.254,0,0,1-.071.077c-.008,0-.015,0-.023,0a.459.459,0,0,0-.2.069H97.252a.457.457,0,0,0-.2-.069l-.015,0a.26.26,0,0,1-.071-.076l-1.491-2.874h6.662Z" transform="translate(-17.986 -134.613)"/><rect class="b" width="1.214" height="1.214" rx="0.607" transform="translate(99.633 311.138) rotate(180)"/><rect class="b" width="1.214" height="1.214" rx="0.607" transform="translate(101.923 315.273) rotate(180)"/><rect class="b" width="1.214" height="1.214" rx="0.607" transform="translate(99.633 315.49) rotate(180)"/><rect class="b" width="1.214" height="1.214" rx="0.607" transform="translate(101.923 317.666) rotate(180)"/><rect class="b" width="1.214" height="1.214" rx="0.607" transform="translate(99.633 317.666) rotate(180)"/><rect class="b" width="1.214" height="1.214" rx="0.607" transform="translate(97.342 317.666) rotate(180)"/><path class="b" d="M.607,0h0a.607.607,0,0,1,.607.607v0a.607.607,0,0,1-.607.607h0A.607.607,0,0,1,0,.607v0A.607.607,0,0,1,.607,0Z" transform="translate(97.342 319.842) rotate(180)"/><rect class="b" width="1.214" height="1.214" rx="0.607" transform="translate(99.633 322.019) rotate(180)"/><rect class="b" width="1.214" height="1.214" rx="0.607" transform="translate(97.342 322.019) rotate(180)"/><rect class="b" width="1.214" height="1.214" rx="0.607" transform="translate(99.528 354.736) rotate(180)"/><rect class="b" width="1.214" height="1.214" rx="0.607" transform="translate(97.238 354.736) rotate(180)"/><rect class="b" width="1.214" height="1.214" rx="0.607" transform="translate(101.819 356.912) rotate(180)"/><rect class="b" width="1.214" height="1.214" rx="0.607" transform="translate(97.238 356.912) rotate(180)"/><path class="b" d="M.607,0h0a.607.607,0,0,1,.607.607v0a.607.607,0,0,1-.607.607h0A.607.607,0,0,1,0,.607v0A.607.607,0,0,1,.607,0Z" transform="translate(104.139 330.62) rotate(180)"/><path class="b" d="M.607,0h0a.607.607,0,0,1,.607.607v0a.607.607,0,0,1-.607.607h0A.607.607,0,0,1,0,.607v0A.607.607,0,0,1,.607,0Z" transform="translate(101.849 330.62) rotate(180)"/><path class="b" d="M.607,0h0a.607.607,0,0,1,.607.607v0a.607.607,0,0,1-.607.607h0A.607.607,0,0,1,0,.607v0A.607.607,0,0,1,.607,0Z" transform="translate(99.558 330.62) rotate(180)"/><path class="b" d="M.607,0h0a.607.607,0,0,1,.607.607v0a.607.607,0,0,1-.607.607h0A.607.607,0,0,1,0,.607v0A.607.607,0,0,1,.607,0Z" transform="translate(97.267 330.62) rotate(180)"/><rect class="b" width="1.214" height="1.214" rx="0.607" transform="translate(104.139 332.796) rotate(180)"/><rect class="b" width="1.214" height="1.214" rx="0.607" transform="translate(99.558 332.796) rotate(180)"/><rect class="b" width="1.214" height="1.214" rx="0.607" transform="translate(97.262 342.363) rotate(180)"/><rect class="b" width="1.214" height="1.214" rx="0.607" transform="translate(104.134 344.54) rotate(180)"/><rect class="b" width="1.214" height="1.214" rx="0.607" transform="translate(99.552 344.54) rotate(180)"/><rect class="b" width="1.214" height="1.214" rx="0.607" transform="translate(97.262 344.54) rotate(180)"/><path class="b" d="M.607,0h0a.607.607,0,0,1,.607.607v0a.607.607,0,0,1-.607.607h0A.607.607,0,0,1,0,.607v0A.607.607,0,0,1,.607,0Z" transform="translate(104.134 346.716) rotate(180)"/><path class="b" d="M.607,0h0a.607.607,0,0,1,.607.607v0a.607.607,0,0,1-.607.607h0A.607.607,0,0,1,0,.607v0A.607.607,0,0,1,.607,0Z" transform="translate(101.843 346.716) rotate(180)"/><path class="a" d="M169.765,583.035a.468.468,0,0,1-.468-.468v-3.958a.468.468,0,1,1,.936,0v3.958A.469.469,0,0,1,169.765,583.035Z" transform="translate(-76.348 -240.307)"/><path class="a" d="M181.637,542.023H169.765a.468.468,0,0,1,0-.936h11.872a.468.468,0,0,1,0,.936Z" transform="translate(-76.348 -217.582)"/><path class="a" d="M169.475,589.2a.478.478,0,0,1-.02-.67.459.459,0,0,1,.654-.019l-.08.083-.229.269Z" transform="translate(-76.367 -246.589)"/><path class="a" d="M107.242,517.731a1.493,1.493,0,0,0-1.485-1.491v-9.3a1.491,1.491,0,0,0,0-2.982v-7.039a2.128,2.128,0,0,0-.588-1.463l-2.514-3.616a2.363,2.363,0,0,1-.425-1.356V488.24a1.244,1.244,0,0,0,1.045-1.225v-.109a1.247,1.247,0,0,0-1.246-1.245h-1.221v-4.207a.911.911,0,0,0-.91-.911H83.676a.911.911,0,0,0-.91.911v35.713h-.117A1.045,1.045,0,0,0,81.6,518.21v.685a13.725,13.725,0,1,0,9.565,25.181.468.468,0,1,0-.5-.794,12.79,12.79,0,1,1,.39-21.464.468.468,0,0,0,.524-.776,13.639,13.639,0,0,0-4.444-1.956s0-.007,0-.012v-.864a1.045,1.045,0,0,0-1.044-1.044h-.252l-.026-33.537,11.9-.026v2.057H96.676a1.246,1.246,0,0,0-1.246,1.245v.109a1.244,1.244,0,0,0,1.045,1.225v2.243a2.363,2.363,0,0,1-.425,1.356l-2.514,3.616a2.128,2.128,0,0,0-.588,1.463v7.039a1.491,1.491,0,0,0,0,2.982v9.3a1.491,1.491,0,0,0,.007,2.982h11.865v9.3H93.885v-5.81a.468.468,0,1,0-.936,0v5.81a1.491,1.491,0,0,0,0,2.982v14.9a.693.693,0,0,1-.693.692H45.274a.468.468,0,1,0,0,.936H92.256a1.63,1.63,0,0,0,1.629-1.628V531.5h10.936v16.063a.468.468,0,0,0,.936,0V531.5a1.491,1.491,0,0,0,0-2.982v-9.3A1.493,1.493,0,0,0,107.242,517.731ZM93.885,506.94h10.936v9.3H93.885ZM86.211,518.21v.686a13.793,13.793,0,0,0-2.3-.2q-.695,0-1.373.069v-.556a.107.107,0,0,1,.107-.108H86.1A.108.108,0,0,1,86.211,518.21Zm11.537-35.517H85.826a.911.911,0,0,0-.91.91v33.563H83.7l-.026-35.687,16.2-.026v4.207H98.659V483.6A.911.911,0,0,0,97.748,482.693Zm-1.382,4.322v-.109a.313.313,0,0,1,.309-.309h5.354a.313.313,0,0,1,.309.309v.109a.313.313,0,0,1-.309.309H96.676A.313.313,0,0,1,96.367,487.015ZM92.4,505.448a.556.556,0,0,1,.555-.555h.461a.468.468,0,0,0,.468-.468v-7.507a1.183,1.183,0,0,1,.345-.832l2.59-3.712a3.3,3.3,0,0,0,.592-1.891V488.26h3.881v2.223a3.3,3.3,0,0,0,.593,1.891l2.536,3.648.054.064a1.183,1.183,0,0,1,.345.832v7.507a.468.468,0,0,0,.468.468h.461a.555.555,0,1,1,0,1.111H92.956A.556.556,0,0,1,92.4,505.448Zm0,12.283a.556.556,0,0,1,.555-.555H105.75a.555.555,0,1,1,0,1.111H92.956A.556.556,0,0,1,92.4,517.731Zm13.9,12.282a.556.556,0,0,1-.555.556H92.956a.555.555,0,1,1,0-1.111H105.75A.556.556,0,0,1,106.305,530.013Z" transform="translate(0 -180.452)"/><path class="c" d="M445.547,186.3H380.782a9.5,9.5,0,0,0-9.492,9.5V357.625a9.493,9.493,0,0,0,9.492,9.492h64.765a9.493,9.493,0,0,0,9.492-9.492V195.8A9.5,9.5,0,0,0,445.547,186.3ZM422.816,360.141a1.267,1.267,0,0,1-1.264,1.263H404.777a1.267,1.267,0,0,1-1.264-1.263v-.271a1.268,1.268,0,0,1,1.264-1.264h16.775a1.268,1.268,0,0,1,1.264,1.264Zm28.06-12.349a5.5,5.5,0,0,1-5.5,5.5H380.952a5.5,5.5,0,0,1-5.5-5.5V196a5.5,5.5,0,0,1,5.5-5.5h64.424a5.5,5.5,0,0,1,5.5,5.5Z" transform="translate(-200.227 0)"/><g transform="translate(105.499 215.136)"><g transform="translate(0 0)"><path class="b" d="M213.424,273.644H202.218a.468.468,0,1,1,0-.936h10.593a6.315,6.315,0,0,1,5.32-3.566q0-.073,0-.146a8.129,8.129,0,0,1,14.542-5,4.96,4.96,0,0,1,.553-.032,5.539,5.539,0,0,1,5.512,5.064h4.284a.468.468,0,0,1,0,.936h-5.2v-.468a4.562,4.562,0,0,0-5.288-4.538l-.282.043-.167-.23a7.193,7.193,0,0,0-13.018,4.227c0,.193.014.383.029.572l.041.514-.516-.01-.079,0h0a5.388,5.388,0,0,0-4.991,3.29Z" transform="translate(-201.75 -260.859)"/></g></g><g transform="translate(270.452 213.639)"><g transform="translate(0 11.238)"><path class="a" d="M640.256,299.144H628.765a.468.468,0,0,1,0-.936h10.878a6.469,6.469,0,0,1,5.464-3.661c0-.053,0-.107,0-.161a8.33,8.33,0,0,1,14.9-5.12,5.1,5.1,0,0,1,.573-.034,5.672,5.672,0,0,1,5.645,5.2h4.408a.468.468,0,1,1,0,.936h-5.325V294.9a4.692,4.692,0,0,0-5.44-4.668l-.281.043-.167-.23a7.394,7.394,0,0,0-13.381,4.345c0,.2.015.393.03.588l.041.517-.518-.012-.078,0h-.005a5.543,5.543,0,0,0-5.135,3.384Z" transform="translate(-628.297 -286.049)"/></g><g transform="translate(35.288 0)"><g transform="translate(14.577)"><path class="b" d="M803.345,270.606H789.4l-.121-.286a5.793,5.793,0,0,0-5.345-3.544c-.061,0-.089.006-.117.006l-.516.009.041-.514c.016-.208.031-.411.031-.615a7.731,7.731,0,0,0-13.991-4.543l-.167.23-.281-.043a4.913,4.913,0,0,0-5.7,4.888v.468h-5.533a.468.468,0,1,1,0-.936h4.615a5.9,5.9,0,0,1,5.869-5.419,5.324,5.324,0,0,1,.606.036,8.667,8.667,0,0,1,15.515,5.319c0,.063,0,.125,0,.188a6.726,6.726,0,0,1,5.707,3.818h13.328a.468.468,0,0,1,0,.937Z" transform="translate(-757.24 -256.989)"/></g><g transform="translate(0 8.739)"><path class="b" d="M728.914,280.522h-8.9a.468.468,0,1,1,0-.936h8.9a.468.468,0,0,1,0,.936Z" transform="translate(-719.547 -279.586)"/></g></g></g><g transform="translate(61.077 330.676)"><path class="b" d="M93.985,562.034H88.047a1.167,1.167,0,0,1-1.166-1.166v-.07a1.167,1.167,0,0,1,1.166-1.166h5.938a1.168,1.168,0,0,1,1.166,1.166v.07A1.168,1.168,0,0,1,93.985,562.034Zm-5.938-1.467a.233.233,0,0,0-.23.23v.07a.233.233,0,0,0,.23.23h5.938a.233.233,0,0,0,.23-.23v-.07a.233.233,0,0,0-.23-.23Z" transform="translate(-86.881 -559.631)"/></g><g transform="translate(61.077 335.809)"><path class="b" d="M93.985,575.308H88.047a1.168,1.168,0,0,1-1.166-1.166v-.071a1.168,1.168,0,0,1,1.166-1.166h5.938a1.168,1.168,0,0,1,1.166,1.166v.071A1.168,1.168,0,0,1,93.985,575.308Zm-5.938-1.467a.233.233,0,0,0-.23.23v.071a.233.233,0,0,0,.23.23h5.938a.233.233,0,0,0,.23-.23v-.071a.233.233,0,0,0-.23-.23Z" transform="translate(-86.881 -572.905)"/></g><g transform="translate(351.183 280.764)"><path class="a" d="M849.294,388.113c-.725.7.378,1.8,1.1,1.1a3.5,3.5,0,0,1,4.889,0c.724.695,1.827-.405,1.1-1.1A5.09,5.09,0,0,0,849.294,388.113Z" transform="translate(-844.416 -380.648)"/><path class="a" d="M843.293,381.271c-.719.7.383,1.8,1.1,1.1a6.818,6.818,0,0,1,9.535,0c.718.7,1.821-.4,1.1-1.1A8.4,8.4,0,0,0,843.293,381.271Z" transform="translate(-840.737 -375.869)"/><path class="a" d="M837.288,374.43c-.717.7.386,1.806,1.1,1.1a10.134,10.134,0,0,1,14.18,0c.716.7,1.818-.4,1.1-1.1A11.719,11.719,0,0,0,837.288,374.43Z" transform="translate(-837.056 -371.091)"/><path class="a" d="M857.915,397.2a1.579,1.579,0,1,1-1.579-1.579A1.579,1.579,0,0,1,857.915,397.2Z" transform="translate(-847.912 -386.138)"/></g><g transform="translate(351.399 297.315)"><g transform="translate(0 0)"><path class="b" d="M846.626,459.085a.468.468,0,0,1-.468-.468v-20.2h1.449a.119.119,0,0,0,.119-.119v-4.522a.119.119,0,0,0-.119-.119h-1.449v-5h7.73V424.9a.193.193,0,1,0-.386,0v3.062h-7.345v-8.577h2.705a.258.258,0,0,0,.258-.258v-2.313a.258.258,0,0,0-.257-.257h-2.705v-1.485a.244.244,0,1,0-.487,0v1.485h-2.782a.258.258,0,0,0-.258.257v2.313a.258.258,0,0,0,.258.257h2.782v8.577h-6.732a.38.38,0,0,0-.384.284.347.347,0,0,0,.341.407h6.775v5h-3.035a.119.119,0,0,0-.119.119V438.3a.119.119,0,0,0,.119.119h3.035v20.2a.468.468,0,1,1-.937,0V439.351h-2.1a1.056,1.056,0,0,1-1.055-1.055v-4.522a1.056,1.056,0,0,1,1.055-1.055h2.1v-3.132H838.9a1.283,1.283,0,0,1-1.265-1.494,1.316,1.316,0,0,1,1.308-1.07h5.795v-6.7h-1.845a1.2,1.2,0,0,1-1.194-1.193v-2.313a1.2,1.2,0,0,1,1.194-1.193h1.845v-.549a1.18,1.18,0,1,1,2.36,0v.549h1.769a1.2,1.2,0,0,1,1.193,1.193v2.313a1.2,1.2,0,0,1-1.194,1.194h-1.769v6.7h5.472V424.9a1.129,1.129,0,1,1,2.258,0v4.689h-7.73v3.132h.513a1.056,1.056,0,0,1,1.055,1.055V438.3a1.056,1.056,0,0,1-1.055,1.055h-.513v19.265A.468.468,0,0,1,846.626,459.085Z" transform="translate(-837.614 -413.889)"/></g></g><g transform="translate(138.54 270.415)"><path class="a" d="M299.428,420.825c-.726.7.377,1.8,1.1,1.1a3.5,3.5,0,0,1,4.889,0c.724.695,1.828-.406,1.1-1.1A5.088,5.088,0,0,0,299.428,420.825Z" transform="translate(-294.55 -413.359)"/><path class="a" d="M293.427,413.983c-.719.7.383,1.8,1.1,1.1a6.818,6.818,0,0,1,9.535,0c.719.7,1.821-.4,1.1-1.1A8.4,8.4,0,0,0,293.427,413.983Z" transform="translate(-290.872 -408.581)"/><path class="a" d="M287.423,407.142c-.717.7.386,1.806,1.1,1.1a10.133,10.133,0,0,1,14.18,0c.716.7,1.818-.4,1.1-1.1A11.719,11.719,0,0,0,287.423,407.142Z" transform="translate(-287.19 -403.803)"/><path class="a" d="M308.05,429.917a1.579,1.579,0,1,1-1.579-1.579A1.579,1.579,0,0,1,308.05,429.917Z" transform="translate(-298.047 -418.85)"/></g><g transform="translate(138.756 286.965)"><g transform="translate(0 0)"><path class="b" d="M296.76,484.6a.468.468,0,0,1-.468-.468v-13.01h1.449a.119.119,0,0,0,.119-.119v-4.522a.119.119,0,0,0-.119-.119h-1.449v-5h7.73v-3.753a.193.193,0,0,0-.386,0v3.062h-7.344v-8.578H299a.258.258,0,0,0,.257-.257v-2.313a.257.257,0,0,0-.257-.257h-2.705V447.78a.244.244,0,1,0-.488,0v1.485h-2.782a.257.257,0,0,0-.257.257v2.313a.258.258,0,0,0,.257.257H295.8v8.578h-6.731a.379.379,0,0,0-.384.284.346.346,0,0,0,.34.407H295.8v5H292.77a.119.119,0,0,0-.119.119v4.522a.119.119,0,0,0,.119.119H295.8v9.523a.468.468,0,0,1-.937,0v-8.587h-2.1a1.056,1.056,0,0,1-1.055-1.055v-4.522a1.056,1.056,0,0,1,1.055-1.055h2.1V462.3H289.03a1.283,1.283,0,0,1-1.265-1.494,1.316,1.316,0,0,1,1.308-1.07h5.795v-6.705h-1.845a1.2,1.2,0,0,1-1.194-1.193v-2.313a1.2,1.2,0,0,1,1.194-1.193h1.845v-.549a1.18,1.18,0,0,1,2.361,0v.549H299a1.2,1.2,0,0,1,1.194,1.193v2.313A1.2,1.2,0,0,1,299,453.029h-1.769v6.705H302.7v-2.126a1.129,1.129,0,0,1,2.259,0V462.3h-7.73v3.132h.513a1.056,1.056,0,0,1,1.055,1.055v4.522a1.056,1.056,0,0,1-1.055,1.055h-.513v12.074A.468.468,0,0,1,296.76,484.6Z" transform="translate(-287.748 -446.6)"/></g></g><g transform="translate(186.287 210.672)"><g transform="translate(36.459 0.437)"><g transform="translate(0 1.097)"><path class="b" d="M510.329,258.678v-5.394a5.395,5.395,0,1,0,5.395,5.394Z" transform="translate(-504.935 -253.284)"/></g><g transform="translate(6.488)"><path class="a" d="M521.712,255.841h5.394a5.394,5.394,0,0,0-5.394-5.394Z" transform="translate(-521.712 -250.447)"/></g></g><g transform="translate(36.389 16.688)"><path class="b" d="M507.678,297.942a3.14,3.14,0,0,1,2.547-2.547V292.47a6.045,6.045,0,0,0-5.472,5.472Z" transform="translate(-504.753 -292.47)"/><path class="b" d="M524.241,309.412a3.14,3.14,0,0,1-2.547,2.547v2.925a6.045,6.045,0,0,0,5.472-5.472Z" transform="translate(-515.143 -302.86)"/><g transform="translate(6.551)"><path class="a" d="M521.694,297.942h5.472a6.045,6.045,0,0,0-5.472-5.472Z" transform="translate(-521.694 -292.47)"/></g><path class="b" d="M524.241,309.412a3.14,3.14,0,0,1-2.547,2.547v2.925a6.045,6.045,0,0,0,5.472-5.472Z" transform="translate(-515.143 -302.86)"/><path class="b" d="M510.225,311.959a3.14,3.14,0,0,1-2.547-2.547h-2.925a6.045,6.045,0,0,0,5.472,5.472Z" transform="translate(-504.753 -302.86)"/></g><g transform="translate(1.718 79.866)"><g transform="translate(4.756)"><path class="a" d="M433.638,481.746a1.656,1.656,0,1,0,1.656,1.656A1.658,1.658,0,0,0,433.638,481.746Z" transform="translate(-430.209 -471.727)"/><path class="a" d="M432.149,464.336v-7.175a1.323,1.323,0,1,0-2.646,0v7.175a3.429,3.429,0,1,0,2.646,0Zm-1.323,5.724a2.546,2.546,0,0,1-.445-5.052v-7.846a.445.445,0,1,1,.891,0v7.846a2.546,2.546,0,0,1-.445,5.052Z" transform="translate(-427.397 -455.838)"/><g transform="translate(5.952 6.906)"><path class="a" d="M444.989,474.672h-1.712a.489.489,0,0,1,0-.977h1.712a.489.489,0,1,1,0,.977Z" transform="translate(-442.788 -473.695)"/></g><g transform="translate(5.952 4.726)"><path class="a" d="M444.989,469.037h-1.712a.489.489,0,0,1,0-.977h1.712a.489.489,0,1,1,0,.977Z" transform="translate(-442.788 -468.06)"/></g><g transform="translate(5.952 2.547)"><path class="a" d="M444.989,463.4h-1.712a.489.489,0,0,1,0-.977h1.712a.489.489,0,1,1,0,.977Z" transform="translate(-442.788 -462.424)"/></g></g><g transform="translate(0 10.875)"><path class="b" d="M423.351,492.68a8.261,8.261,0,0,1-8.252-8.252.468.468,0,1,1,.937,0,7.315,7.315,0,1,0,14.631,0,.468.468,0,1,1,.937,0A8.261,8.261,0,0,1,423.351,492.68Z" transform="translate(-415.099 -483.96)"/></g><g transform="translate(33.362 0.7)"><g transform="translate(4.33)"><path class="a" d="M516.4,458.544v4.144a4.047,4.047,0,0,0-3.317,3.977h8.1a4.04,4.04,0,0,0-3-3.895v-4.226a.9.9,0,0,0-.9-.9h0A.9.9,0,0,0,516.4,458.544Z" transform="translate(-512.885 -457.649)"/><path class="a" d="M522.854,483.543a.448.448,0,0,0-.448.448v2.9a.448.448,0,1,0,.9,0v-2.9A.447.447,0,0,0,522.854,483.543Z" transform="translate(-518.6 -473.529)"/><path class="a" d="M531.254,486.541l-1.166-2.659a.448.448,0,1,0-.82.36l1.166,2.659a.448.448,0,0,0,.41.268.456.456,0,0,0,.18-.037A.448.448,0,0,0,531.254,486.541Z" transform="translate(-522.786 -473.573)"/><path class="a" d="M514.359,483.651a.451.451,0,0,0-.59.231l-1.166,2.659a.448.448,0,0,0,.23.59.458.458,0,0,0,.18.037.448.448,0,0,0,.41-.268l1.166-2.659A.449.449,0,0,0,514.359,483.651Z" transform="translate(-512.565 -473.573)"/></g><g transform="translate(0 10.175)"><path class="b" d="M509.62,492.68a8.261,8.261,0,0,1-8.252-8.252.468.468,0,1,1,.936,0,7.316,7.316,0,1,0,14.631,0,.468.468,0,1,1,.936,0A8.261,8.261,0,0,1,509.62,492.68Z" transform="translate(-501.368 -483.96)"/></g></g></g><g transform="translate(1.718 60.836)"><path class="b" d="M423.351,415.351A8.261,8.261,0,0,1,415.1,407.1a.468.468,0,0,1,.937,0,7.315,7.315,0,1,0,14.631,0,.468.468,0,0,1,.937,0A8.261,8.261,0,0,1,423.351,415.351Z" transform="translate(-415.099 -406.631)"/></g><g transform="translate(35.08 60.836)"><path class="b" d="M509.62,415.351a8.261,8.261,0,0,1-8.252-8.252.468.468,0,0,1,.936,0,7.316,7.316,0,0,0,14.631,0,.468.468,0,0,1,.936,0A8.261,8.261,0,0,1,509.62,415.351Z" transform="translate(-501.368 -406.631)"/></g><path class="a" d="M433.47,390.7l-3.189-4.214-3.189,4.214a4.08,4.08,0,0,0,2.951,6.552c.079,0,.158.006.238.006h0c.08,0,.159,0,.238-.006A4.08,4.08,0,0,0,433.47,390.7Zm-5.264,4.893a.238.238,0,0,1-.335-.013,3.632,3.632,0,0,1-.8-3.516.237.237,0,1,1,.453.139,3.171,3.171,0,0,0,.7,3.055A.237.237,0,0,1,428.205,395.591Zm2.009,1.072H430.2a3.4,3.4,0,0,1-1.481-.417.237.237,0,1,1,.229-.415,2.929,2.929,0,0,0,1.276.359.237.237,0,0,1-.012.474Z" transform="translate(-420.223 -333.439)"/><g transform="translate(1.718 0)"><g transform="translate(3.796)"><path class="a" d="M428.012,260.915a3.49,3.49,0,0,1-2.323-3.4c0-2.793,2.462-5.725,3.787-7.1,1.325,1.374,3.788,4.307,3.788,7.1a3.491,3.491,0,0,1-2.324,3.4.387.387,0,0,0,.154.742.381.381,0,0,0,.154-.033,4.279,4.279,0,0,0,2.79-4.11c0-3.288-3-6.638-4.288-7.925l-.273-.273-.273.273c-1.289,1.287-4.287,4.637-4.287,7.925a4.279,4.279,0,0,0,2.789,4.11.387.387,0,1,0,.307-.71Z" transform="translate(-424.915 -249.316)"/><path class="a" d="M448.452,279.9h-.4c-1.256,0-4.326.175-5.931,1.78a3.017,3.017,0,0,0-.661,3.44.387.387,0,0,0,.719-.284,2.25,2.25,0,0,1,.488-2.609c1.277-1.276,3.809-1.51,5-1.547-.036,1.191-.27,3.723-1.547,5a2.248,2.248,0,0,1-2.609.488.387.387,0,1,0-.284.72,3.615,3.615,0,0,0,1.318.268,2.924,2.924,0,0,0,2.122-.929c1.609-1.608,1.78-4.69,1.78-5.94Z" transform="translate(-434.901 -268.073)"/><path class="a" d="M436.7,278.448l1.818.152h.032a.387.387,0,0,0,.032-.772l-1.166-.1.437-.437a.387.387,0,0,0-.547-.547l-1.14,1.14-.1-1.166a.387.387,0,0,0-.771.064l.152,1.818-2.553,2.553v-9.639l2.121-1.794a.387.387,0,0,0-.5-.591l-1.621,1.372V269.2a.387.387,0,1,0-.773,0v2.776l-1.621-1.372a.387.387,0,0,0-.5.59l2.12,1.794v11.4a.387.387,0,1,0,.773,0V282.25Z" transform="translate(-427.954 -261.271)"/></g><g transform="translate(0 20.46)"><path class="b" d="M423.351,310.943a8.262,8.262,0,0,1-8.252-8.252.468.468,0,0,1,.937,0,7.315,7.315,0,0,0,14.631,0,.468.468,0,0,1,.937,0A8.261,8.261,0,0,1,423.351,310.943Z" transform="translate(-415.099 -302.223)"/></g></g><g transform="translate(38.266 51.838)"><path class="a" d="M518.414,390.761H511.66a2.171,2.171,0,0,1-.026-4.335,1.8,1.8,0,0,1,1.62-1c.042,0,.083,0,.124,0a3.078,3.078,0,0,1,3.487-1.98,2.773,2.773,0,0,1,2.129,2.977,2.255,2.255,0,0,1,1.517,2.107A2.2,2.2,0,0,1,518.414,390.761Z" transform="translate(-509.608 -383.362)"/><path class="a" d="M514.222,407.516a.342.342,0,0,1-.311-.483l.481-1.058a.341.341,0,1,1,.622.282l-.481,1.059A.342.342,0,0,1,514.222,407.516Z" transform="translate(-512.228 -397.107)"/><path class="a" d="M519.2,407.516a.342.342,0,0,1-.311-.483l.481-1.059a.342.342,0,1,1,.622.283l-.481,1.059A.341.341,0,0,1,519.2,407.516Z" transform="translate(-515.281 -397.107)"/><path class="a" d="M515.056,412.155a.341.341,0,0,1-.307-.49l.361-.746a.342.342,0,1,1,.615.3l-.361.746A.341.341,0,0,1,515.056,412.155Z" transform="translate(-512.74 -400.144)"/><path class="a" d="M520.47,412.155a.341.341,0,0,1-.307-.49l.361-.746a.342.342,0,1,1,.615.3l-.361.746A.342.342,0,0,1,520.47,412.155Z" transform="translate(-516.06 -400.144)"/><path class="a" d="M525.448,412.155a.341.341,0,0,1-.307-.49l.361-.746a.342.342,0,1,1,.615.3l-.361.746A.341.341,0,0,1,525.448,412.155Z" transform="translate(-519.113 -400.144)"/><path class="a" d="M524.177,407.516a.342.342,0,0,1-.311-.483l.481-1.059a.342.342,0,0,1,.622.283l-.482,1.059A.341.341,0,0,1,524.177,407.516Z" transform="translate(-518.334 -397.107)"/><path class="a" d="M529.156,407.516a.342.342,0,0,1-.311-.483l.481-1.058a.341.341,0,0,1,.622.282l-.481,1.059A.342.342,0,0,1,529.156,407.516Z" transform="translate(-521.387 -397.107)"/><path class="a" d="M514.222,407.516a.342.342,0,0,1-.311-.483l.481-1.058a.341.341,0,1,1,.622.282l-.481,1.059A.342.342,0,0,1,514.222,407.516Z" transform="translate(-512.228 -397.107)"/><path class="a" d="M519.2,407.516a.342.342,0,0,1-.311-.483l.481-1.059a.342.342,0,1,1,.622.283l-.481,1.059A.341.341,0,0,1,519.2,407.516Z" transform="translate(-515.281 -397.107)"/><path class="a" d="M515.056,412.155a.341.341,0,0,1-.307-.49l.361-.746a.342.342,0,1,1,.615.3l-.361.746A.341.341,0,0,1,515.056,412.155Z" transform="translate(-512.74 -400.144)"/><path class="a" d="M520.47,412.155a.341.341,0,0,1-.307-.49l.361-.746a.342.342,0,1,1,.615.3l-.361.746A.342.342,0,0,1,520.47,412.155Z" transform="translate(-516.06 -400.144)"/><path class="a" d="M525.448,412.155a.341.341,0,0,1-.307-.49l.361-.746a.342.342,0,1,1,.615.3l-.361.746A.341.341,0,0,1,525.448,412.155Z" transform="translate(-519.113 -400.144)"/><path class="a" d="M524.177,407.516a.342.342,0,0,1-.311-.483l.481-1.059a.342.342,0,0,1,.622.283l-.482,1.059A.341.341,0,0,1,524.177,407.516Z" transform="translate(-518.334 -397.107)"/><path class="a" d="M529.156,407.516a.342.342,0,0,1-.311-.483l.481-1.058a.341.341,0,0,1,.622.282l-.481,1.059A.342.342,0,0,1,529.156,407.516Z" transform="translate(-521.387 -397.107)"/></g><g transform="translate(0 36.445)"><rect class="b" width="15.027" height="1.804"/><rect class="a" width="12.006" height="1.804" transform="translate(17.229)"/><rect class="a" width="17.888" height="1.804" transform="translate(0 4.837)"/><rect class="b" width="11.854" height="1.804" transform="translate(20.09 4.837)"/><rect class="b" width="19.279" height="1.804" transform="translate(35.434 4.837)"/></g></g></g></svg>